<svg width="113" height="112" viewBox="0 0 113 112" fill="none" xmlns="http://www.w3.org/2000/svg">
<path opacity="0.5" d="M56.4996 84.2911C59.3174 84.2911 61.5716 81.9869 61.5716 79.1067C61.5716 76.6873 59.9373 74.6135 57.7394 74.095C56.9505 72.5973 55.598 69.429 55.0344 64.1294L54.809 61.1915C54.809 55.6039 51.3713 50.5346 46.3558 48.4608C46.2994 45.6382 44.0452 43.3916 41.2838 43.3916C38.5224 43.3916 36.2683 45.6382 36.2119 48.4608C31.1963 50.5346 27.7587 55.6039 27.7587 61.1915L27.5333 64.1294C26.9697 69.429 25.6172 72.5973 24.8282 74.095C22.6304 74.6711 20.9961 76.6873 20.9961 79.1067C20.9961 81.9869 23.2503 84.2911 26.068 84.2911H34.9157C35.5356 87.4018 38.128 89.7636 41.2838 89.7636C44.4397 89.7636 47.032 87.4018 47.6519 84.2911H56.4996Z" fill="#202832"/>
<path d="M70.4967 75.8929C73.3145 75.8929 75.5686 73.5887 75.5686 70.7085C75.5686 68.2891 73.9344 66.2153 71.7365 65.6968C70.9475 64.1991 69.595 61.0308 69.0315 55.7312L68.8061 52.7933C68.8061 47.2057 65.3684 42.1364 60.3528 40.0626C60.2965 37.24 58.0423 34.9934 55.2809 34.9934C52.5195 34.9934 50.2653 37.24 50.209 40.0626C45.1934 42.1364 41.7557 47.2057 41.7557 52.7933L41.5303 55.7312C40.9668 61.0308 39.6143 64.1991 38.8253 65.6968C36.6275 66.2729 34.9932 68.2891 34.9932 70.7085C34.9932 73.5887 37.2474 75.8929 40.0651 75.8929H48.9128C49.5327 79.0036 52.125 81.3654 55.2809 81.3654C58.4368 81.3654 61.0291 79.0036 61.649 75.8929H70.4967ZM55.2809 38.4497C56.0135 38.4497 56.6334 38.9105 56.8588 39.6018H53.703C53.9284 38.9105 54.5483 38.4497 55.2809 38.4497ZM45.137 52.9662V52.8509C45.137 48.4154 47.9548 44.4982 52.0123 43.0581H58.6058C62.607 44.4982 65.4248 48.4154 65.4248 52.8509L65.6502 55.9616V56.0192C66.101 60.282 67.0027 63.3926 67.9044 65.4664H42.6574C43.5027 63.335 44.4608 60.282 44.9116 56.0192L45.137 52.9662ZM38.3745 70.7085C38.3745 69.7868 39.0507 69.0379 39.9524 68.9803H40.0651H70.4404H70.5531C71.4547 69.0379 72.131 69.7868 72.131 70.7085C72.131 71.6878 71.3984 72.4366 70.4404 72.4366H61.649H48.9128H40.0651C39.1071 72.4366 38.3745 71.6878 38.3745 70.7085ZM55.2809 77.9091C54.0411 77.9091 52.914 77.045 52.4632 75.8929H58.0986C57.6478 77.1026 56.5207 77.9091 55.2809 77.9091Z" fill="#F0B420"/>
<path d="M75.3392 35.6818C74.9394 35.8207 74.5763 36.0483 74.2771 36.3476C73.9779 36.6469 73.7503 37.0101 73.6114 37.4099L73.0863 38.921C73.0829 38.9326 73.0758 38.9428 73.0661 38.9501C73.0564 38.9573 73.0446 38.9612 73.0325 38.9612C73.0204 38.9612 73.0086 38.9573 72.9989 38.9501C72.9893 38.9428 72.9822 38.9326 72.9787 38.921L72.4549 37.4099C72.3159 37.0099 72.0881 36.6467 71.7887 36.3474C71.4892 36.0481 71.1258 35.8205 70.7258 35.6818L69.2154 35.1569C69.2044 35.153 69.1949 35.1459 69.1881 35.1364C69.1814 35.1269 69.1777 35.1155 69.1777 35.1039C69.1777 35.0922 69.1814 35.0809 69.1881 35.0714C69.1949 35.0619 69.2044 35.0547 69.2154 35.0509L70.7258 34.526C71.1258 34.3872 71.4892 34.1597 71.7887 33.8604C72.0881 33.5611 72.3159 33.1978 72.4549 32.7979L72.9787 31.2868C72.9822 31.2752 72.9893 31.265 72.9989 31.2577C73.0086 31.2505 73.0204 31.2466 73.0325 31.2466C73.0446 31.2466 73.0564 31.2505 73.0661 31.2577C73.0758 31.265 73.0829 31.2752 73.0863 31.2868L73.6114 32.7979C73.7503 33.1977 73.9779 33.5609 74.2771 33.8601C74.5763 34.1594 74.9394 34.3871 75.3392 34.526L76.8509 35.0509C76.8619 35.0547 76.8714 35.0619 76.8782 35.0714C76.8849 35.0809 76.8886 35.0922 76.8886 35.1039C76.8886 35.1155 76.8849 35.1269 76.8782 35.1364C76.8714 35.1459 76.8619 35.153 76.8509 35.1569L75.3392 35.6818Z" fill="#F0B420"/>
<path d="M76.5582 24.8634C76.0584 25.037 75.6045 25.3216 75.2304 25.6957C74.8563 26.0698 74.5718 26.5238 74.3982 27.0235L73.7419 28.9125C73.7373 28.9265 73.7284 28.9387 73.7165 28.9473C73.7045 28.956 73.6901 28.9607 73.6754 28.9607C73.6606 28.9607 73.6462 28.956 73.6343 28.9473C73.6223 28.9387 73.6134 28.9265 73.6088 28.9125L72.9526 27.0235C72.7789 26.5237 72.4944 26.0697 72.1203 25.6956C71.7461 25.3215 71.2921 25.037 70.7923 24.8634L68.9035 24.2073C68.8897 24.2025 68.8778 24.1936 68.8694 24.1817C68.861 24.1698 68.8564 24.1556 68.8564 24.1411C68.8564 24.1265 68.861 24.1124 68.8694 24.1005C68.8778 24.0887 68.8897 24.0797 68.9035 24.0749L70.7923 23.4187C71.2921 23.2452 71.7461 22.9607 72.1203 22.5866C72.4944 22.2125 72.7789 21.7585 72.9526 21.2587L73.6088 19.3697C73.6134 19.3557 73.6223 19.3435 73.6343 19.3348C73.6462 19.3262 73.6606 19.3215 73.6754 19.3215C73.6901 19.3215 73.7045 19.3262 73.7165 19.3348C73.7284 19.3435 73.7373 19.3557 73.7419 19.3697L74.3982 21.2587C74.5718 21.7585 74.8563 22.2124 75.2304 22.5865C75.6045 22.9606 76.0584 23.2451 76.5582 23.4187L78.447 24.0749C78.4607 24.0797 78.4726 24.0887 78.4811 24.1005C78.4895 24.1124 78.494 24.1265 78.494 24.1411C78.494 24.1556 78.4895 24.1698 78.4811 24.1817C78.4726 24.1936 78.4607 24.2025 78.447 24.2073L76.5582 24.8634Z" fill="#F0B420"/>
<path d="M68.2541 30.7573C67.56 30.9985 66.9296 31.3936 66.4101 31.9132C65.8905 32.4328 65.4954 33.0634 65.2543 33.7575L64.3425 36.381C64.336 36.4003 64.3236 36.417 64.3071 36.4288C64.2905 36.4407 64.2707 36.4471 64.2504 36.4471C64.23 36.4471 64.2102 36.4407 64.1937 36.4288C64.1771 36.417 64.1647 36.4003 64.1582 36.381L63.2464 33.7575C63.0053 33.0634 62.6102 32.4328 62.0907 31.9132C61.5712 31.3936 60.9407 30.9985 60.2466 30.7573L57.623 29.846C57.6039 29.8394 57.5873 29.8269 57.5756 29.8104C57.5639 29.794 57.5576 29.7743 57.5576 29.7541C57.5576 29.7339 57.5639 29.7142 57.5756 29.6977C57.5873 29.6812 57.6039 29.6688 57.623 29.6621L60.2466 28.7508C60.9407 28.5097 61.5712 28.1145 62.0907 27.5949C62.6102 27.0753 63.0054 26.4448 63.2464 25.7507L64.1582 23.1271C64.1647 23.1079 64.1771 23.0912 64.1937 23.0793C64.2102 23.0675 64.23 23.061 64.2504 23.061C64.2707 23.061 64.2905 23.0675 64.3071 23.0793C64.3236 23.0912 64.336 23.1079 64.3425 23.1271L65.2543 25.7507C65.4954 26.4448 65.8905 27.0753 66.4101 27.5949C66.9296 28.1145 67.56 28.5097 68.2541 28.7508L70.8778 29.6621C70.8969 29.6688 70.9134 29.6812 70.9251 29.6977C70.9368 29.7142 70.9431 29.7339 70.9431 29.7541C70.9431 29.7743 70.9368 29.794 70.9251 29.8104C70.9134 29.8269 70.8969 29.8394 70.8778 29.846L68.2541 30.7573Z" fill="#F0B420"/>
</svg>
