<svg width="112" height="112" viewBox="0 0 112 112" fill="none" xmlns="http://www.w3.org/2000/svg">
<circle cx="38.7189" cy="62.227" r="26.2736" fill="#202932" fill-opacity="0.5"/>
<path d="M78.6667 58.6697C78.7897 58.2754 78.903 57.8816 79.0113 57.4779C79.6759 54.9871 80.0303 52.3682 80.0303 49.6705C80.0303 32.9334 66.4138 19.3123 49.6714 19.3123C32.9339 19.3123 19.3125 32.9334 19.3125 49.6705C19.3125 66.4077 32.9339 80.0288 49.6714 80.0288C52.3691 80.0288 54.988 79.6744 57.479 79.0098C57.2624 77.8875 57.1491 76.7257 57.1491 75.5393V75.5246C54.7714 76.2137 52.2657 76.5829 49.6714 76.5829C34.8341 76.5829 22.7585 64.5125 22.7585 49.6705C22.7585 34.8335 34.8341 22.7581 49.6714 22.7581C64.5136 22.7581 76.5843 34.8335 76.5843 49.6705C76.5843 52.2648 76.2151 54.7705 75.5259 57.1481C75.4078 57.5666 75.2749 57.9751 75.1321 58.3837C75.1316 58.3857 75.1306 58.3872 75.1301 58.3891C74.0865 58.4137 73.064 58.5265 72.0741 58.7308L72.0751 58.7283C72.2572 58.2902 72.4246 57.8422 72.5772 57.3893C73.3993 54.9624 73.8423 52.3682 73.8423 49.6705C73.8423 36.3448 62.9974 25.5001 49.6714 25.5001C36.3454 25.5001 25.5054 36.3448 25.5054 49.6705C25.5054 62.9963 36.3454 73.841 49.6714 73.841C52.3691 73.841 54.9634 73.398 57.3903 72.5759C57.5479 71.5766 57.794 70.6068 58.1091 69.6715C55.5148 70.7692 52.6645 71.3797 49.6714 71.3797C37.7041 71.3797 27.9668 61.6376 27.9668 49.6705C27.9668 37.7035 37.7041 27.9614 49.6714 27.9614C61.6436 27.9614 71.3809 37.7035 71.3809 49.6705C71.3809 52.6586 70.7705 55.5089 69.6727 58.108V58.113C69.4414 58.6545 69.1903 59.1861 68.9146 59.7079L68.9131 59.7109C64.52 61.5569 61.0509 65.18 59.4112 69.6764C59.388 69.7399 59.3683 69.8049 59.3457 69.8689C59.2773 70.0643 59.2083 70.2597 59.1468 70.4581C58.9824 70.9863 58.8426 71.5258 58.7293 72.0737L58.7308 72.0733C58.527 73.0632 58.4138 74.0857 58.3892 75.1293L58.3848 75.1307C58.3808 75.244 58.3808 75.3542 58.3808 75.4665C58.3808 75.4906 58.3788 75.5147 58.3788 75.5388C58.3788 75.6777 58.3862 75.815 58.3892 75.9533C58.3926 76.0877 58.3931 76.2221 58.3995 76.3555C58.4074 76.5244 58.4217 76.6917 58.4345 76.8591C58.4423 76.961 58.4483 77.0634 58.4576 77.1648C58.4773 77.3716 58.5029 77.5763 58.5295 77.7811C58.5364 77.8313 58.5418 77.882 58.5487 77.9323C59.7169 86.2654 66.8884 92.6994 75.5387 92.6994C85.0013 92.6994 92.6996 85.0013 92.6996 75.5393C92.7006 67.1456 86.6406 60.1446 78.6667 58.6697ZM75.5392 89.2535C67.9773 89.2535 61.8248 83.1011 61.8248 75.5393C61.8248 67.9776 67.9773 61.8252 75.5392 61.8252C83.1016 61.8252 89.2541 67.9776 89.2541 75.5393C89.2541 83.1011 83.1021 89.2535 75.5392 89.2535Z" fill="#F0B420"/>
<path d="M83.0033 73.4261C83.3248 71.3968 81.6886 70.3059 79.4514 69.5782L80.1771 66.8293L78.4053 66.4122L77.6987 69.0887C77.2329 68.9791 76.7545 68.8757 76.2791 68.7732L76.9907 66.0791L75.2198 65.6621L74.4936 68.4101C74.108 68.3271 73.7295 68.2452 73.3621 68.1589L73.3641 68.1503L70.9205 67.5741L70.4492 69.3613C70.4492 69.3613 71.7638 69.6458 71.7361 69.6635C72.4537 69.8326 72.5834 70.2811 72.5617 70.6366L71.7351 73.7682C71.7845 73.7802 71.8486 73.7973 71.9193 73.824C71.8602 73.8102 71.7971 73.7949 71.732 73.7802L70.5733 78.1671C70.4855 78.3729 70.2629 78.6818 69.7613 78.5645C69.779 78.5888 68.4734 78.2609 68.4734 78.2609L67.5938 80.1763L69.8996 80.7191C70.3285 80.8206 70.7489 80.9269 71.1628 81.027L70.4295 83.8074L72.1994 84.2244L72.9256 81.4736C73.409 81.5975 73.8784 81.7119 74.3376 81.8196L73.6139 84.5575L75.3858 84.9745L76.1191 82.1994C79.1406 82.7394 81.4126 82.5216 82.3689 79.9409C83.1396 77.863 82.3306 76.6644 80.7409 75.8828C81.8986 75.6307 82.7706 74.9115 83.0033 73.4261ZM78.9548 78.7871C78.4073 80.865 74.7025 79.7417 73.5014 79.46L74.4744 75.7765C75.6755 76.0596 79.5271 76.6201 78.9548 78.7871ZM79.5029 73.396C79.0033 75.2861 75.9198 74.3258 74.9195 74.0904L75.8017 70.7496C76.8019 70.985 80.0232 71.4244 79.5029 73.396Z" stroke="#F0B420" stroke-width="1.5"/>
<mask id="path-4-inside-1" fill="white">
<path fill-rule="evenodd" clip-rule="evenodd" d="M58.2757 49.0214L48.4508 32.8313L48.4498 32.8437L48.4489 32.8317L38.624 49.0217L48.4516 44.6267L58.2757 49.0214Z"/>
</mask>
<path d="M48.4508 32.8313L52.7253 30.2373L44.7016 17.0152L43.4668 32.4321L48.4508 32.8313ZM58.2757 49.0214L56.2339 53.5855L70.8661 60.1311L62.5502 46.4274L58.2757 49.0214ZM48.4498 32.8437L43.466 33.2452L53.4339 33.2429L48.4498 32.8437ZM48.4489 32.8317L53.4327 32.4301L52.1917 17.0261L44.1743 30.2377L48.4489 32.8317ZM38.624 49.0217L34.3495 46.4278L26.035 60.129L40.6653 53.5861L38.624 49.0217ZM48.4516 44.6267L50.4933 40.0625L48.4519 39.1493L46.4103 40.0623L48.4516 44.6267ZM44.1763 35.4253L54.0011 51.6153L62.5502 46.4274L52.7253 30.2373L44.1763 35.4253ZM53.4339 33.2429L53.4349 33.2305L43.4668 32.4321L43.4658 32.4445L53.4339 33.2429ZM53.4337 32.4422L53.4327 32.4301L43.465 33.2332L43.466 33.2452L53.4337 32.4422ZM44.1743 30.2377L34.3495 46.4278L42.8985 51.6157L52.7234 35.4256L44.1743 30.2377ZM40.6653 53.5861L50.4928 49.191L46.4103 40.0623L36.5828 44.4574L40.6653 53.5861ZM60.3174 44.4572L50.4933 40.0625L46.4099 49.1908L56.2339 53.5855L60.3174 44.4572Z" fill="#F0B420" mask="url(#path-4-inside-1)"/>
<mask id="path-6-inside-2" fill="white">
<path fill-rule="evenodd" clip-rule="evenodd" d="M48.4489 56.6381L48.4495 56.6374L58.2801 50.8721L48.4495 64.6235L48.4489 64.6218V64.6236L38.624 50.8721L48.4489 56.6375V56.6381Z"/>
</mask>
<path d="M48.4495 56.6374L45.92 52.3244L45.157 52.7719L44.5938 53.454L48.4495 56.6374ZM48.4489 56.6381H43.4489V70.5473L52.3045 59.8215L48.4489 56.6381ZM58.2801 50.8721L62.3476 53.7799L55.7507 46.5591L58.2801 50.8721ZM48.4495 64.6235L43.7223 66.2527L46.8804 75.4159L52.517 67.5313L48.4495 64.6235ZM48.4489 64.6218L53.176 62.9926L43.4489 64.6218H48.4489ZM48.4489 64.6236L44.3805 67.5302L53.4489 80.2228V64.6236H48.4489ZM38.624 50.8721L41.1546 46.5598L34.5557 53.7788L38.624 50.8721ZM48.4489 56.6375H53.4489V53.7742L50.9794 52.3251L48.4489 56.6375ZM44.5938 53.454L44.5932 53.4547L52.3045 59.8215L52.3051 59.8208L44.5938 53.454ZM55.7507 46.5591L45.92 52.3244L50.9789 60.9504L60.8096 55.1851L55.7507 46.5591ZM52.517 67.5313L62.3476 53.7799L54.2126 47.9643L44.3819 61.7157L52.517 67.5313ZM43.7218 66.251L43.7223 66.2527L53.1766 62.9943L53.176 62.9926L43.7218 66.251ZM53.4489 64.6236V64.6218H43.4489V64.6236H53.4489ZM34.5557 53.7788L44.3805 67.5302L52.5172 61.7169L42.6924 47.9655L34.5557 53.7788ZM50.9794 52.3251L41.1546 46.5598L36.0935 55.1845L45.9183 60.9498L50.9794 52.3251ZM53.4489 56.6381V56.6375H43.4489V56.6381H53.4489Z" fill="#F0B420" mask="url(#path-6-inside-2)"/>
<mask id="path-8-inside-3" fill="white">
<path fill-rule="evenodd" clip-rule="evenodd" d="M57.4373 50.0052L48.4508 55.2808L48.4492 55.2656L48.4485 55.2811L39.4619 50.0055L48.4485 45.9488L48.4492 45.964L48.4508 45.9485L57.4373 50.0052Z"/>
</mask>
<path d="M48.4508 55.2808L43.4755 55.778L44.2516 63.5439L50.9821 59.5927L48.4508 55.2808ZM57.4373 50.0052L59.9686 54.3171L68.3029 49.4244L59.4945 45.448L57.4373 50.0052ZM48.4492 55.2656L53.4245 54.7684L43.4557 55.0115L48.4492 55.2656ZM48.4485 55.2811L45.9171 59.593L53.0232 63.7647L53.442 55.5353L48.4485 55.2811ZM39.4619 50.0055L37.4047 45.4484L28.5962 49.4247L36.9306 54.3174L39.4619 50.0055ZM48.4485 45.9488L53.442 45.6956L53.0709 38.3762L46.3912 41.3916L48.4485 45.9488ZM48.4492 45.964L43.4556 46.2171L53.4247 46.4589L48.4492 45.964ZM48.4508 45.9485L50.508 41.3913L44.1643 38.5276L43.4753 45.4535L48.4508 45.9485ZM50.9821 59.5927L59.9686 54.3171L54.906 45.6933L45.9194 50.9689L50.9821 59.5927ZM43.474 55.7628L43.4755 55.778L53.426 54.7836L53.4245 54.7684L43.474 55.7628ZM53.442 55.5353L53.4428 55.5198L43.4557 55.0115L43.4549 55.027L53.442 55.5353ZM36.9306 54.3174L45.9171 59.593L50.9798 50.9692L41.9932 45.6936L36.9306 54.3174ZM46.3912 41.3916L37.4047 45.4484L41.5191 54.5627L50.5057 50.506L46.3912 41.3916ZM53.4428 45.7108L53.442 45.6956L43.4549 46.202L43.4556 46.2171L53.4428 45.7108ZM43.4753 45.4535L43.4738 45.469L53.4247 46.4589L53.4262 46.4435L43.4753 45.4535ZM59.4945 45.448L50.508 41.3913L46.3935 50.5057L55.3801 54.5624L59.4945 45.448Z" fill="#F0B420" mask="url(#path-8-inside-3)"/>
</svg>
