<svg width="113" height="113" viewBox="0 0 113 113" fill="none" xmlns="http://www.w3.org/2000/svg">
<path opacity="0.5" d="M56.835 39.8379C57.4083 35.9842 54.4907 33.9126 50.5013 32.5306L51.7954 27.3104L48.6357 26.5185L47.3758 31.6012C46.5452 31.393 45.692 31.1966 44.8443 31.002L46.1132 25.8859L42.9553 25.094L41.6603 30.3124C40.9728 30.1549 40.2978 29.9993 39.6427 29.8355L39.6463 29.8192L35.2888 28.725L34.4483 32.1189C34.4483 32.1189 36.7926 32.6592 36.7431 32.6926C38.0228 33.0139 38.2541 33.8656 38.2154 34.5407L36.7413 40.4877C36.8295 40.5103 36.9438 40.5429 37.0698 40.5936C36.9645 40.5673 36.852 40.5384 36.7359 40.5103L34.6696 48.8411C34.5131 49.2321 34.1162 49.8186 33.2217 49.5959C33.2532 49.6421 30.925 49.0194 30.925 49.0194L29.3564 52.6567L33.4682 53.6876C34.2332 53.8803 34.9828 54.0822 35.7208 54.2722L34.4132 59.5522L37.5692 60.3441L38.8642 55.1202C39.7264 55.3555 40.5633 55.5727 41.3822 55.7773L40.0917 60.9767L43.2514 61.7686L44.559 56.4986C49.9469 57.524 53.9984 57.1104 55.7038 52.2096C57.078 48.2637 55.6354 45.9876 52.8006 44.5033C54.865 44.0245 56.4201 42.6588 56.835 39.8379Z" fill="#202832"/>
<mask id="path-2-outside-1" maskUnits="userSpaceOnUse" x="24.3291" y="57.3164" width="62" height="37" fill="black">
<rect fill="white" x="24.3291" y="57.3164" width="62" height="37"/>
<path d="M85.7388 77.5097L78.3904 58.9462C78.2953 58.7057 78.1112 58.5118 77.8769 58.4052C77.6427 58.2986 77.3764 58.2876 77.1342 58.3745L69.1235 61.2599C68.9977 61.3053 68.8823 61.3757 68.7842 61.4671C68.6861 61.5585 68.6073 61.6688 68.5526 61.7915C68.4979 61.9142 68.4684 62.0468 68.4658 62.1813C68.4632 62.3157 68.4876 62.4494 68.5376 62.5741L69.0639 63.8874L65.7372 64.9867C64.4999 64.505 60.1435 62.807 58.9161 62.2513C56.9598 61.3628 55.1664 62.0684 53.087 63.4086C51.6223 62.2813 50.2509 62.2733 48.393 63.3297C47.1021 64.0633 45.0912 65.2856 44.1607 65.8523L42.5907 64.9618L43.3107 63.4486C43.4227 63.2135 43.439 62.9436 43.356 62.6966C43.2731 62.4496 43.0975 62.2449 42.8668 62.1264L35.6653 58.4285C35.5489 58.3686 35.4219 58.3325 35.2916 58.3222C35.1613 58.3119 35.0303 58.3275 34.906 58.3683C34.7817 58.4091 34.6667 58.4741 34.5675 58.5597C34.4682 58.6454 34.3868 58.7498 34.3277 58.8672L25.4361 76.5402C25.3177 76.7757 25.2966 77.0489 25.3776 77.3C25.4585 77.5511 25.6348 77.7598 25.8681 77.8805L33.437 81.7983C33.555 81.8593 33.684 81.896 33.8164 81.906C33.9488 81.9161 34.0818 81.8993 34.2076 81.8567C34.3334 81.8142 34.4495 81.7466 34.5489 81.6581C34.6483 81.5696 34.7291 81.462 34.7865 81.3415L35.3635 80.1312L36.278 80.7608C36.1009 81.1175 35.9453 81.4846 35.8123 81.8602C35.7806 81.9601 35.7645 82.0642 35.7646 82.169C35.7646 84.6856 38.3376 86.0768 39.423 86.5516C39.5994 87.1084 39.8938 87.6201 40.2857 88.0515C40.6776 88.4828 41.1577 88.8235 41.693 89.0501C41.9187 89.1172 42.1528 89.1509 42.3881 89.1501C42.7502 89.1455 43.1078 89.0695 43.4408 88.9262C43.7837 89.6755 44.3474 90.3005 45.0554 90.7162C45.6892 91.0552 46.419 91.166 47.1239 91.03C47.5594 91.8258 48.2279 92.4672 49.0385 92.867C49.3364 92.9907 49.6555 93.0549 49.9779 93.0559C50.3132 93.0554 50.6451 92.9874 50.954 92.856C51.8032 92.4794 52.5341 91.8767 53.0682 91.113C53.5647 91.5128 54.3234 92.1124 55.1674 92.79C55.8149 93.2814 56.6079 93.5391 57.4186 93.5216C58.0991 93.5212 58.7704 93.3625 59.3799 93.0579C59.8296 92.8419 60.2297 92.534 60.5546 92.1537C60.8794 91.7734 61.1219 91.3291 61.2666 90.8491C62.0906 90.8389 62.8966 90.6045 63.599 90.1708C64.3014 89.7371 64.8742 89.1202 65.2566 88.3855C65.4463 88.4143 65.6378 88.4293 65.8296 88.4305C66.7742 88.4247 67.695 88.1311 68.4707 87.5884C69.2463 87.0457 69.8405 86.2794 70.1751 85.3902C70.2178 85.3902 70.2595 85.3982 70.3032 85.3982C71.3342 85.43 72.337 85.0569 73.0995 84.3578C73.6115 83.8856 73.9606 83.2615 74.0961 82.576C74.2316 81.8905 74.1466 81.1794 73.8533 80.546L75.45 79.8344L76.032 81.2885C76.1293 81.5318 76.3177 81.7268 76.5566 81.8315C76.7955 81.9362 77.0657 81.9422 77.309 81.8482L85.1718 78.8159C85.2941 78.7685 85.4059 78.6972 85.5007 78.6061C85.5955 78.515 85.6715 78.4059 85.7242 78.2852C85.7769 78.1644 85.8053 78.0343 85.8078 77.9024C85.8103 77.7705 85.7869 77.6394 85.7388 77.5167V77.5097ZM33.438 79.5525L27.6546 76.5542L35.6504 60.6632L41.1022 63.4616L33.438 79.5525ZM37.7586 82.323C38.0567 81.5778 38.4399 80.8701 38.9006 80.2141C39.0858 80.0673 39.3103 79.9794 39.5453 79.9616C39.7804 79.9438 40.0154 79.9969 40.2204 80.1142C40.3015 80.1386 40.3765 80.1802 40.4404 80.2361C40.5043 80.292 40.5557 80.361 40.591 80.4385C40.6263 80.5159 40.6448 80.6001 40.6453 80.6853C40.6458 80.7705 40.6282 80.8549 40.5937 80.9327C40.2144 82.162 39.8301 83.4913 39.5709 84.4008C38.7725 83.951 37.855 83.2224 37.7586 82.323ZM42.263 87.1332C41.8847 87.0203 41.5143 86.4216 41.2978 85.8979C42.0352 84.6413 42.8418 83.4271 43.7138 82.261C43.9124 81.9955 44.1993 81.8108 44.522 81.7407C44.8448 81.6705 45.1818 81.7197 45.4715 81.8792C45.8687 82.156 45.6463 82.7067 45.3901 83.1205C45.3821 83.1335 45.3821 83.1485 45.3752 83.1615C45.3682 83.1745 45.3384 83.2135 45.3255 83.2424C45.1507 83.6422 44.0117 85.4852 43.2064 86.7535C42.9512 86.9633 42.5609 87.2232 42.263 87.1332ZM46.96 89.0222C46.8048 89.0786 46.6396 89.1021 46.4749 89.0913C46.3101 89.0804 46.1494 89.0355 46.0028 88.9592C45.5331 88.6279 45.1909 88.1441 45.0336 87.589C45.6175 86.6635 46.8786 84.6476 47.1368 84.063C47.2503 83.934 47.4047 83.8485 47.5737 83.8211C47.7661 83.7875 47.9633 83.7951 48.1525 83.8433C48.3417 83.8915 48.5187 83.9793 48.672 84.1009C48.8722 84.234 49.0216 84.4316 49.0958 84.6613C49.1699 84.8909 49.1644 85.1391 49.0802 85.3652L46.96 89.0222ZM50.1844 91.01C49.67 91.2289 49.1109 90.4683 48.7942 89.9366L50.8031 87.1752C51.0144 87.1692 51.2248 87.2061 51.4217 87.2837C51.6186 87.3613 51.798 87.478 51.949 87.627C52.0466 87.8178 52.1056 88.0262 52.1226 88.2401C52.1397 88.454 52.1144 88.6692 52.0483 88.8733C51.7138 89.7937 51.0503 90.5556 50.1874 91.01H50.1844ZM71.6924 82.9416C71.4029 83.1571 71.0681 83.303 70.7139 83.368C70.3596 83.433 69.9952 83.4153 69.6488 83.3164C69.6398 83.3164 69.6329 83.3084 69.6239 83.3074C69.615 83.3064 69.616 83.3074 69.612 83.3074C69.5179 83.2796 69.428 83.2389 69.3449 83.1865C68.759 82.7937 65.6975 79.8304 63.9051 78.0554C63.8139 77.956 63.7035 77.8763 63.5808 77.8211C63.458 77.7659 63.3254 77.7363 63.1909 77.7342C63.0565 77.7322 62.923 77.7576 62.7987 77.809C62.6743 77.8603 62.5615 77.9366 62.4673 78.0331C62.3731 78.1297 62.2993 78.2444 62.2505 78.3705C62.2016 78.4966 62.1787 78.6313 62.1832 78.7666C62.1876 78.9018 62.2193 79.0348 62.2763 79.1573C62.3333 79.2799 62.4145 79.3895 62.5149 79.4796C63.3093 80.2691 67.331 84.2359 68.2456 84.8495C68.0937 85.1792 67.878 85.4752 67.6112 85.72C67.3444 85.9649 67.0317 86.1538 66.6915 86.2757C66.406 86.4021 66.0943 86.4571 65.7831 86.4361C65.4718 86.415 65.1703 86.3185 64.9041 86.1548C63.6191 85.0054 60.1316 81.4974 60.0968 81.4624C59.9095 81.2804 59.6587 81.1796 59.3983 81.1819C59.138 81.1842 58.8889 81.2893 58.7048 81.4746C58.5207 81.6599 58.4162 81.9106 58.414 82.1726C58.4117 82.4347 58.5118 82.6871 58.6927 82.8756C58.8327 83.0176 62.0551 86.2577 63.4592 87.534C63.2863 87.8401 63.0534 88.1075 62.7746 88.3202C62.4959 88.5329 62.1771 88.6864 61.8376 88.7713C61.6006 88.8524 61.3492 88.8823 61.0999 88.8591C60.8506 88.8358 60.609 88.7599 60.3908 88.6364L56.8605 85.0864L55.4554 86.4956L58.9826 90.0466C59.0952 90.1552 59.2186 90.2517 59.3511 90.3344C59.2766 90.5385 59.1625 90.7257 59.0156 90.8851C58.8687 91.0445 58.6917 91.1729 58.4951 91.2629C58.1735 91.4378 57.8125 91.526 57.447 91.5188C57.0816 91.5116 56.7242 91.4093 56.4097 91.2219C55.365 90.3804 54.4485 89.6528 53.9966 89.296C54.1321 88.8169 54.1631 88.3139 54.0875 87.8216C54.0119 87.3293 53.8315 86.8593 53.5587 86.4436C53.2643 86.0719 52.8941 85.7682 52.473 85.553C52.0518 85.3379 51.5897 85.2162 51.1179 85.1963C51.1633 84.6626 51.0651 84.1264 50.8333 83.6441C50.6016 83.1619 50.245 82.7514 49.8011 82.4559C49.1707 82.0007 48.4064 81.7726 47.6313 81.8082C47.5059 81.1703 47.1383 80.6066 46.6065 80.2371C45.9974 79.8515 45.2816 79.6726 44.564 79.7266C43.8464 79.7805 43.1649 80.0646 42.6195 80.537C42.5907 80.0631 42.4336 79.6063 42.165 79.216C41.8965 78.8257 41.5268 78.517 41.0962 78.3232C40.4757 77.9911 39.7613 77.8814 39.0707 78.0122C38.38 78.143 37.7541 78.5065 37.2959 79.0428L36.2324 78.3102L41.7298 66.7677L43.692 67.8801C43.8459 67.9675 44.0201 68.012 44.1968 68.009C44.3734 68.006 44.5461 67.9557 44.6969 67.8631C44.7267 67.8451 47.7147 66.0112 49.3711 65.0697C50.2013 64.597 50.7286 64.4411 51.2579 64.628C49.7952 65.7453 48.8116 67.3826 48.5082 69.2054C48.0703 70.9624 48.1735 72.1847 48.8299 73.0532C49.4095 73.7109 50.2024 74.1398 51.0672 74.2635C51.46 74.3459 51.8659 74.341 52.2566 74.2492C52.6474 74.1573 53.0134 73.9808 53.3293 73.7318C54.2271 73.0696 54.8527 72.0993 55.088 71.0043L56.1307 70.3167C59.1372 71.9992 62.2698 73.4424 65.4999 74.6333C66.4244 75.5268 70.6209 79.5915 71.6497 80.7518L71.6557 80.7588C71.817 80.8893 71.9479 81.0538 72.0391 81.2408C72.1303 81.4277 72.1795 81.6326 72.1833 81.8409C72.1871 82.0491 72.1453 82.2556 72.061 82.4459C71.9767 82.6361 71.8519 82.8053 71.6954 82.9416H71.6924ZM72.6378 78.8969C70.9347 77.1119 66.8782 73.2001 66.6876 73.0162C66.5658 72.8985 66.416 72.8141 66.2526 72.7713C63.3212 71.9978 56.6252 68.3129 56.5577 68.2739C56.4 68.187 56.2219 68.1449 56.0423 68.1519C55.8626 68.159 55.6883 68.2149 55.5378 68.3139L53.6272 69.5712C53.5014 69.654 53.3959 69.7645 53.3186 69.8943C53.2414 70.0242 53.1945 70.17 53.1814 70.3207C53.1432 70.6712 53.0343 71.0101 52.8613 71.3167C52.6883 71.6233 52.4549 71.8911 52.1754 72.1037C52.0809 72.1878 51.9688 72.2493 51.8475 72.2839C51.7261 72.3185 51.5986 72.3253 51.4744 72.3036C51.0823 72.2583 50.7123 72.0973 50.4108 71.8409C50.2668 71.651 50.0791 71.1183 50.4337 69.6881C51.0891 67.0506 51.9599 66.4899 53.6958 65.3835L54.1228 65.1097C56.2826 63.7105 57.2151 63.6715 58.1018 64.0713C59.5795 64.7399 65.1186 66.8857 65.3509 66.9766C65.5642 67.0591 65.7992 67.0651 66.0163 66.9936L69.8047 65.7433L74.7033 77.9734L72.6378 78.8969ZM77.5036 79.6275L70.7629 62.791L76.8969 60.5812L83.5184 77.3088L77.5036 79.6275Z"/>
</mask>
<path d="M85.7388 77.5097L78.3904 58.9462C78.2953 58.7057 78.1112 58.5118 77.8769 58.4052C77.6427 58.2986 77.3764 58.2876 77.1342 58.3745L69.1235 61.2599C68.9977 61.3053 68.8823 61.3757 68.7842 61.4671C68.6861 61.5585 68.6073 61.6688 68.5526 61.7915C68.4979 61.9142 68.4684 62.0468 68.4658 62.1813C68.4632 62.3157 68.4876 62.4494 68.5376 62.5741L69.0639 63.8874L65.7372 64.9867C64.4999 64.505 60.1435 62.807 58.9161 62.2513C56.9598 61.3628 55.1664 62.0684 53.087 63.4086C51.6223 62.2813 50.2509 62.2733 48.393 63.3297C47.1021 64.0633 45.0912 65.2856 44.1607 65.8523L42.5907 64.9618L43.3107 63.4486C43.4227 63.2135 43.439 62.9436 43.356 62.6966C43.2731 62.4496 43.0975 62.2449 42.8668 62.1264L35.6653 58.4285C35.5489 58.3686 35.4219 58.3325 35.2916 58.3222C35.1613 58.3119 35.0303 58.3275 34.906 58.3683C34.7817 58.4091 34.6667 58.4741 34.5675 58.5597C34.4682 58.6454 34.3868 58.7498 34.3277 58.8672L25.4361 76.5402C25.3177 76.7757 25.2966 77.0489 25.3776 77.3C25.4585 77.5511 25.6348 77.7598 25.8681 77.8805L33.437 81.7983C33.555 81.8593 33.684 81.896 33.8164 81.906C33.9488 81.9161 34.0818 81.8993 34.2076 81.8567C34.3334 81.8142 34.4495 81.7466 34.5489 81.6581C34.6483 81.5696 34.7291 81.462 34.7865 81.3415L35.3635 80.1312L36.278 80.7608C36.1009 81.1175 35.9453 81.4846 35.8123 81.8602C35.7806 81.9601 35.7645 82.0642 35.7646 82.169C35.7646 84.6856 38.3376 86.0768 39.423 86.5516C39.5994 87.1084 39.8938 87.6201 40.2857 88.0515C40.6776 88.4828 41.1577 88.8235 41.693 89.0501C41.9187 89.1172 42.1528 89.1509 42.3881 89.1501C42.7502 89.1455 43.1078 89.0695 43.4408 88.9262C43.7837 89.6755 44.3474 90.3005 45.0554 90.7162C45.6892 91.0552 46.419 91.166 47.1239 91.03C47.5594 91.8258 48.2279 92.4672 49.0385 92.867C49.3364 92.9907 49.6555 93.0549 49.9779 93.0559C50.3132 93.0554 50.6451 92.9874 50.954 92.856C51.8032 92.4794 52.5341 91.8767 53.0682 91.113C53.5647 91.5128 54.3234 92.1124 55.1674 92.79C55.8149 93.2814 56.6079 93.5391 57.4186 93.5216C58.0991 93.5212 58.7704 93.3625 59.3799 93.0579C59.8296 92.8419 60.2297 92.534 60.5546 92.1537C60.8794 91.7734 61.1219 91.3291 61.2666 90.8491C62.0906 90.8389 62.8966 90.6045 63.599 90.1708C64.3014 89.7371 64.8742 89.1202 65.2566 88.3855C65.4463 88.4143 65.6378 88.4293 65.8296 88.4305C66.7742 88.4247 67.695 88.1311 68.4707 87.5884C69.2463 87.0457 69.8405 86.2794 70.1751 85.3902C70.2178 85.3902 70.2595 85.3982 70.3032 85.3982C71.3342 85.43 72.337 85.0569 73.0995 84.3578C73.6115 83.8856 73.9606 83.2615 74.0961 82.576C74.2316 81.8905 74.1466 81.1794 73.8533 80.546L75.45 79.8344L76.032 81.2885C76.1293 81.5318 76.3177 81.7268 76.5566 81.8315C76.7955 81.9362 77.0657 81.9422 77.309 81.8482L85.1718 78.8159C85.2941 78.7685 85.4059 78.6972 85.5007 78.6061C85.5955 78.515 85.6715 78.4059 85.7242 78.2852C85.7769 78.1644 85.8053 78.0343 85.8078 77.9024C85.8103 77.7705 85.7869 77.6394 85.7388 77.5167V77.5097ZM33.438 79.5525L27.6546 76.5542L35.6504 60.6632L41.1022 63.4616L33.438 79.5525ZM37.7586 82.323C38.0567 81.5778 38.4399 80.8701 38.9006 80.2141C39.0858 80.0673 39.3103 79.9794 39.5453 79.9616C39.7804 79.9438 40.0154 79.9969 40.2204 80.1142C40.3015 80.1386 40.3765 80.1802 40.4404 80.2361C40.5043 80.292 40.5557 80.361 40.591 80.4385C40.6263 80.5159 40.6448 80.6001 40.6453 80.6853C40.6458 80.7705 40.6282 80.8549 40.5937 80.9327C40.2144 82.162 39.8301 83.4913 39.5709 84.4008C38.7725 83.951 37.855 83.2224 37.7586 82.323ZM42.263 87.1332C41.8847 87.0203 41.5143 86.4216 41.2978 85.8979C42.0352 84.6413 42.8418 83.4271 43.7138 82.261C43.9124 81.9955 44.1993 81.8108 44.522 81.7407C44.8448 81.6705 45.1818 81.7197 45.4715 81.8792C45.8687 82.156 45.6463 82.7067 45.3901 83.1205C45.3821 83.1335 45.3821 83.1485 45.3752 83.1615C45.3682 83.1745 45.3384 83.2135 45.3255 83.2424C45.1507 83.6422 44.0117 85.4852 43.2064 86.7535C42.9512 86.9633 42.5609 87.2232 42.263 87.1332ZM46.96 89.0222C46.8048 89.0786 46.6396 89.1021 46.4749 89.0913C46.3101 89.0804 46.1494 89.0355 46.0028 88.9592C45.5331 88.6279 45.1909 88.1441 45.0336 87.589C45.6175 86.6635 46.8786 84.6476 47.1368 84.063C47.2503 83.934 47.4047 83.8485 47.5737 83.8211C47.7661 83.7875 47.9633 83.7951 48.1525 83.8433C48.3417 83.8915 48.5187 83.9793 48.672 84.1009C48.8722 84.234 49.0216 84.4316 49.0958 84.6613C49.1699 84.8909 49.1644 85.1391 49.0802 85.3652L46.96 89.0222ZM50.1844 91.01C49.67 91.2289 49.1109 90.4683 48.7942 89.9366L50.8031 87.1752C51.0144 87.1692 51.2248 87.2061 51.4217 87.2837C51.6186 87.3613 51.798 87.478 51.949 87.627C52.0466 87.8178 52.1056 88.0262 52.1226 88.2401C52.1397 88.454 52.1144 88.6692 52.0483 88.8733C51.7138 89.7937 51.0503 90.5556 50.1874 91.01H50.1844ZM71.6924 82.9416C71.4029 83.1571 71.0681 83.303 70.7139 83.368C70.3596 83.433 69.9952 83.4153 69.6488 83.3164C69.6398 83.3164 69.6329 83.3084 69.6239 83.3074C69.615 83.3064 69.616 83.3074 69.612 83.3074C69.5179 83.2796 69.428 83.2389 69.3449 83.1865C68.759 82.7937 65.6975 79.8304 63.9051 78.0554C63.8139 77.956 63.7035 77.8763 63.5808 77.8211C63.458 77.7659 63.3254 77.7363 63.1909 77.7342C63.0565 77.7322 62.923 77.7576 62.7987 77.809C62.6743 77.8603 62.5615 77.9366 62.4673 78.0331C62.3731 78.1297 62.2993 78.2444 62.2505 78.3705C62.2016 78.4966 62.1787 78.6313 62.1832 78.7666C62.1876 78.9018 62.2193 79.0348 62.2763 79.1573C62.3333 79.2799 62.4145 79.3895 62.5149 79.4796C63.3093 80.2691 67.331 84.2359 68.2456 84.8495C68.0937 85.1792 67.878 85.4752 67.6112 85.72C67.3444 85.9649 67.0317 86.1538 66.6915 86.2757C66.406 86.4021 66.0943 86.4571 65.7831 86.4361C65.4718 86.415 65.1703 86.3185 64.9041 86.1548C63.6191 85.0054 60.1316 81.4974 60.0968 81.4624C59.9095 81.2804 59.6587 81.1796 59.3983 81.1819C59.138 81.1842 58.8889 81.2893 58.7048 81.4746C58.5207 81.6599 58.4162 81.9106 58.414 82.1726C58.4117 82.4347 58.5118 82.6871 58.6927 82.8756C58.8327 83.0176 62.0551 86.2577 63.4592 87.534C63.2863 87.8401 63.0534 88.1075 62.7746 88.3202C62.4959 88.5329 62.1771 88.6864 61.8376 88.7713C61.6006 88.8524 61.3492 88.8823 61.0999 88.8591C60.8506 88.8358 60.609 88.7599 60.3908 88.6364L56.8605 85.0864L55.4554 86.4956L58.9826 90.0466C59.0952 90.1552 59.2186 90.2517 59.3511 90.3344C59.2766 90.5385 59.1625 90.7257 59.0156 90.8851C58.8687 91.0445 58.6917 91.1729 58.4951 91.2629C58.1735 91.4378 57.8125 91.526 57.447 91.5188C57.0816 91.5116 56.7242 91.4093 56.4097 91.2219C55.365 90.3804 54.4485 89.6528 53.9966 89.296C54.1321 88.8169 54.1631 88.3139 54.0875 87.8216C54.0119 87.3293 53.8315 86.8593 53.5587 86.4436C53.2643 86.0719 52.8941 85.7682 52.473 85.553C52.0518 85.3379 51.5897 85.2162 51.1179 85.1963C51.1633 84.6626 51.0651 84.1264 50.8333 83.6441C50.6016 83.1619 50.245 82.7514 49.8011 82.4559C49.1707 82.0007 48.4064 81.7726 47.6313 81.8082C47.5059 81.1703 47.1383 80.6066 46.6065 80.2371C45.9974 79.8515 45.2816 79.6726 44.564 79.7266C43.8464 79.7805 43.1649 80.0646 42.6195 80.537C42.5907 80.0631 42.4336 79.6063 42.165 79.216C41.8965 78.8257 41.5268 78.517 41.0962 78.3232C40.4757 77.9911 39.7613 77.8814 39.0707 78.0122C38.38 78.143 37.7541 78.5065 37.2959 79.0428L36.2324 78.3102L41.7298 66.7677L43.692 67.8801C43.8459 67.9675 44.0201 68.012 44.1968 68.009C44.3734 68.006 44.5461 67.9557 44.6969 67.8631C44.7267 67.8451 47.7147 66.0112 49.3711 65.0697C50.2013 64.597 50.7286 64.4411 51.2579 64.628C49.7952 65.7453 48.8116 67.3826 48.5082 69.2054C48.0703 70.9624 48.1735 72.1847 48.8299 73.0532C49.4095 73.7109 50.2024 74.1398 51.0672 74.2635C51.46 74.3459 51.8659 74.341 52.2566 74.2492C52.6474 74.1573 53.0134 73.9808 53.3293 73.7318C54.2271 73.0696 54.8527 72.0993 55.088 71.0043L56.1307 70.3167C59.1372 71.9992 62.2698 73.4424 65.4999 74.6333C66.4244 75.5268 70.6209 79.5915 71.6497 80.7518L71.6557 80.7588C71.817 80.8893 71.9479 81.0538 72.0391 81.2408C72.1303 81.4277 72.1795 81.6326 72.1833 81.8409C72.1871 82.0491 72.1453 82.2556 72.061 82.4459C71.9767 82.6361 71.8519 82.8053 71.6954 82.9416H71.6924ZM72.6378 78.8969C70.9347 77.1119 66.8782 73.2001 66.6876 73.0162C66.5658 72.8985 66.416 72.8141 66.2526 72.7713C63.3212 71.9978 56.6252 68.3129 56.5577 68.2739C56.4 68.187 56.2219 68.1449 56.0423 68.1519C55.8626 68.159 55.6883 68.2149 55.5378 68.3139L53.6272 69.5712C53.5014 69.654 53.3959 69.7645 53.3186 69.8943C53.2414 70.0242 53.1945 70.17 53.1814 70.3207C53.1432 70.6712 53.0343 71.0101 52.8613 71.3167C52.6883 71.6233 52.4549 71.8911 52.1754 72.1037C52.0809 72.1878 51.9688 72.2493 51.8475 72.2839C51.7261 72.3185 51.5986 72.3253 51.4744 72.3036C51.0823 72.2583 50.7123 72.0973 50.4108 71.8409C50.2668 71.651 50.0791 71.1183 50.4337 69.6881C51.0891 67.0506 51.9599 66.4899 53.6958 65.3835L54.1228 65.1097C56.2826 63.7105 57.2151 63.6715 58.1018 64.0713C59.5795 64.7399 65.1186 66.8857 65.3509 66.9766C65.5642 67.0591 65.7992 67.0651 66.0163 66.9936L69.8047 65.7433L74.7033 77.9734L72.6378 78.8969ZM77.5036 79.6275L70.7629 62.791L76.8969 60.5812L83.5184 77.3088L77.5036 79.6275Z" fill="#F0B420"/>
<path d="M85.7388 77.5097L78.3904 58.9462C78.2953 58.7057 78.1112 58.5118 77.8769 58.4052C77.6427 58.2986 77.3764 58.2876 77.1342 58.3745L69.1235 61.2599C68.9977 61.3053 68.8823 61.3757 68.7842 61.4671C68.6861 61.5585 68.6073 61.6688 68.5526 61.7915C68.4979 61.9142 68.4684 62.0468 68.4658 62.1813C68.4632 62.3157 68.4876 62.4494 68.5376 62.5741L69.0639 63.8874L65.7372 64.9867C64.4999 64.505 60.1435 62.807 58.9161 62.2513C56.9598 61.3628 55.1664 62.0684 53.087 63.4086C51.6223 62.2813 50.2509 62.2733 48.393 63.3297C47.1021 64.0633 45.0912 65.2856 44.1607 65.8523L42.5907 64.9618L43.3107 63.4486C43.4227 63.2135 43.439 62.9436 43.356 62.6966C43.2731 62.4496 43.0975 62.2449 42.8668 62.1264L35.6653 58.4285C35.5489 58.3686 35.4219 58.3325 35.2916 58.3222C35.1613 58.3119 35.0303 58.3275 34.906 58.3683C34.7817 58.4091 34.6667 58.4741 34.5675 58.5597C34.4682 58.6454 34.3868 58.7498 34.3277 58.8672L25.4361 76.5402C25.3177 76.7757 25.2966 77.0489 25.3776 77.3C25.4585 77.5511 25.6348 77.7598 25.8681 77.8805L33.437 81.7983C33.555 81.8593 33.684 81.896 33.8164 81.906C33.9488 81.9161 34.0818 81.8993 34.2076 81.8567C34.3334 81.8142 34.4495 81.7466 34.5489 81.6581C34.6483 81.5696 34.7291 81.462 34.7865 81.3415L35.3635 80.1312L36.278 80.7608C36.1009 81.1175 35.9453 81.4846 35.8123 81.8602C35.7806 81.9601 35.7645 82.0642 35.7646 82.169C35.7646 84.6856 38.3376 86.0768 39.423 86.5516C39.5994 87.1084 39.8938 87.6201 40.2857 88.0515C40.6776 88.4828 41.1577 88.8235 41.693 89.0501C41.9187 89.1172 42.1528 89.1509 42.3881 89.1501C42.7502 89.1455 43.1078 89.0695 43.4408 88.9262C43.7837 89.6755 44.3474 90.3005 45.0554 90.7162C45.6892 91.0552 46.419 91.166 47.1239 91.03C47.5594 91.8258 48.2279 92.4672 49.0385 92.867C49.3364 92.9907 49.6555 93.0549 49.9779 93.0559C50.3132 93.0554 50.6451 92.9874 50.954 92.856C51.8032 92.4794 52.5341 91.8767 53.0682 91.113C53.5647 91.5128 54.3234 92.1124 55.1674 92.79C55.8149 93.2814 56.6079 93.5391 57.4186 93.5216C58.0991 93.5212 58.7704 93.3625 59.3799 93.0579C59.8296 92.8419 60.2297 92.534 60.5546 92.1537C60.8794 91.7734 61.1219 91.3291 61.2666 90.8491C62.0906 90.8389 62.8966 90.6045 63.599 90.1708C64.3014 89.7371 64.8742 89.1202 65.2566 88.3855C65.4463 88.4143 65.6378 88.4293 65.8296 88.4305C66.7742 88.4247 67.695 88.1311 68.4707 87.5884C69.2463 87.0457 69.8405 86.2794 70.1751 85.3902C70.2178 85.3902 70.2595 85.3982 70.3032 85.3982C71.3342 85.43 72.337 85.0569 73.0995 84.3578C73.6115 83.8856 73.9606 83.2615 74.0961 82.576C74.2316 81.8905 74.1466 81.1794 73.8533 80.546L75.45 79.8344L76.032 81.2885C76.1293 81.5318 76.3177 81.7268 76.5566 81.8315C76.7955 81.9362 77.0657 81.9422 77.309 81.8482L85.1718 78.8159C85.2941 78.7685 85.4059 78.6972 85.5007 78.6061C85.5955 78.515 85.6715 78.4059 85.7242 78.2852C85.7769 78.1644 85.8053 78.0343 85.8078 77.9024C85.8103 77.7705 85.7869 77.6394 85.7388 77.5167V77.5097ZM33.438 79.5525L27.6546 76.5542L35.6504 60.6632L41.1022 63.4616L33.438 79.5525ZM37.7586 82.323C38.0567 81.5778 38.4399 80.8701 38.9006 80.2141C39.0858 80.0673 39.3103 79.9794 39.5453 79.9616C39.7804 79.9438 40.0154 79.9969 40.2204 80.1142C40.3015 80.1386 40.3765 80.1802 40.4404 80.2361C40.5043 80.292 40.5557 80.361 40.591 80.4385C40.6263 80.5159 40.6448 80.6001 40.6453 80.6853C40.6458 80.7705 40.6282 80.8549 40.5937 80.9327C40.2144 82.162 39.8301 83.4913 39.5709 84.4008C38.7725 83.951 37.855 83.2224 37.7586 82.323ZM42.263 87.1332C41.8847 87.0203 41.5143 86.4216 41.2978 85.8979C42.0352 84.6413 42.8418 83.4271 43.7138 82.261C43.9124 81.9955 44.1993 81.8108 44.522 81.7407C44.8448 81.6705 45.1818 81.7197 45.4715 81.8792C45.8687 82.156 45.6463 82.7067 45.3901 83.1205C45.3821 83.1335 45.3821 83.1485 45.3752 83.1615C45.3682 83.1745 45.3384 83.2135 45.3255 83.2424C45.1507 83.6422 44.0117 85.4852 43.2064 86.7535C42.9512 86.9633 42.5609 87.2232 42.263 87.1332ZM46.96 89.0222C46.8048 89.0786 46.6396 89.1021 46.4749 89.0913C46.3101 89.0804 46.1494 89.0355 46.0028 88.9592C45.5331 88.6279 45.1909 88.1441 45.0336 87.589C45.6175 86.6635 46.8786 84.6476 47.1368 84.063C47.2503 83.934 47.4047 83.8485 47.5737 83.8211C47.7661 83.7875 47.9633 83.7951 48.1525 83.8433C48.3417 83.8915 48.5187 83.9793 48.672 84.1009C48.8722 84.234 49.0216 84.4316 49.0958 84.6613C49.1699 84.8909 49.1644 85.1391 49.0802 85.3652L46.96 89.0222ZM50.1844 91.01C49.67 91.2289 49.1109 90.4683 48.7942 89.9366L50.8031 87.1752C51.0144 87.1692 51.2248 87.2061 51.4217 87.2837C51.6186 87.3613 51.798 87.478 51.949 87.627C52.0466 87.8178 52.1056 88.0262 52.1226 88.2401C52.1397 88.454 52.1144 88.6692 52.0483 88.8733C51.7138 89.7937 51.0503 90.5556 50.1874 91.01H50.1844ZM71.6924 82.9416C71.4029 83.1571 71.0681 83.303 70.7139 83.368C70.3596 83.433 69.9952 83.4153 69.6488 83.3164C69.6398 83.3164 69.6329 83.3084 69.6239 83.3074C69.615 83.3064 69.616 83.3074 69.612 83.3074C69.5179 83.2796 69.428 83.2389 69.3449 83.1865C68.759 82.7937 65.6975 79.8304 63.9051 78.0554C63.8139 77.956 63.7035 77.8763 63.5808 77.8211C63.458 77.7659 63.3254 77.7363 63.1909 77.7342C63.0565 77.7322 62.923 77.7576 62.7987 77.809C62.6743 77.8603 62.5615 77.9366 62.4673 78.0331C62.3731 78.1297 62.2993 78.2444 62.2505 78.3705C62.2016 78.4966 62.1787 78.6313 62.1832 78.7666C62.1876 78.9018 62.2193 79.0348 62.2763 79.1573C62.3333 79.2799 62.4145 79.3895 62.5149 79.4796C63.3093 80.2691 67.331 84.2359 68.2456 84.8495C68.0937 85.1792 67.878 85.4752 67.6112 85.72C67.3444 85.9649 67.0317 86.1538 66.6915 86.2757C66.406 86.4021 66.0943 86.4571 65.7831 86.4361C65.4718 86.415 65.1703 86.3185 64.9041 86.1548C63.6191 85.0054 60.1316 81.4974 60.0968 81.4624C59.9095 81.2804 59.6587 81.1796 59.3983 81.1819C59.138 81.1842 58.8889 81.2893 58.7048 81.4746C58.5207 81.6599 58.4162 81.9106 58.414 82.1726C58.4117 82.4347 58.5118 82.6871 58.6927 82.8756C58.8327 83.0176 62.0551 86.2577 63.4592 87.534C63.2863 87.8401 63.0534 88.1075 62.7746 88.3202C62.4959 88.5329 62.1771 88.6864 61.8376 88.7713C61.6006 88.8524 61.3492 88.8823 61.0999 88.8591C60.8506 88.8358 60.609 88.7599 60.3908 88.6364L56.8605 85.0864L55.4554 86.4956L58.9826 90.0466C59.0952 90.1552 59.2186 90.2517 59.3511 90.3344C59.2766 90.5385 59.1625 90.7257 59.0156 90.8851C58.8687 91.0445 58.6917 91.1729 58.4951 91.2629C58.1735 91.4378 57.8125 91.526 57.447 91.5188C57.0816 91.5116 56.7242 91.4093 56.4097 91.2219C55.365 90.3804 54.4485 89.6528 53.9966 89.296C54.1321 88.8169 54.1631 88.3139 54.0875 87.8216C54.0119 87.3293 53.8315 86.8593 53.5587 86.4436C53.2643 86.0719 52.8941 85.7682 52.473 85.553C52.0518 85.3379 51.5897 85.2162 51.1179 85.1963C51.1633 84.6626 51.0651 84.1264 50.8333 83.6441C50.6016 83.1619 50.245 82.7514 49.8011 82.4559C49.1707 82.0007 48.4064 81.7726 47.6313 81.8082C47.5059 81.1703 47.1383 80.6066 46.6065 80.2371C45.9974 79.8515 45.2816 79.6726 44.564 79.7266C43.8464 79.7805 43.1649 80.0646 42.6195 80.537C42.5907 80.0631 42.4336 79.6063 42.165 79.216C41.8965 78.8257 41.5268 78.517 41.0962 78.3232C40.4757 77.9911 39.7613 77.8814 39.0707 78.0122C38.38 78.143 37.7541 78.5065 37.2959 79.0428L36.2324 78.3102L41.7298 66.7677L43.692 67.8801C43.8459 67.9675 44.0201 68.012 44.1968 68.009C44.3734 68.006 44.5461 67.9557 44.6969 67.8631C44.7267 67.8451 47.7147 66.0112 49.3711 65.0697C50.2013 64.597 50.7286 64.4411 51.2579 64.628C49.7952 65.7453 48.8116 67.3826 48.5082 69.2054C48.0703 70.9624 48.1735 72.1847 48.8299 73.0532C49.4095 73.7109 50.2024 74.1398 51.0672 74.2635C51.46 74.3459 51.8659 74.341 52.2566 74.2492C52.6474 74.1573 53.0134 73.9808 53.3293 73.7318C54.2271 73.0696 54.8527 72.0993 55.088 71.0043L56.1307 70.3167C59.1372 71.9992 62.2698 73.4424 65.4999 74.6333C66.4244 75.5268 70.6209 79.5915 71.6497 80.7518L71.6557 80.7588C71.817 80.8893 71.9479 81.0538 72.0391 81.2408C72.1303 81.4277 72.1795 81.6326 72.1833 81.8409C72.1871 82.0491 72.1453 82.2556 72.061 82.4459C71.9767 82.6361 71.8519 82.8053 71.6954 82.9416H71.6924ZM72.6378 78.8969C70.9347 77.1119 66.8782 73.2001 66.6876 73.0162C66.5658 72.8985 66.416 72.8141 66.2526 72.7713C63.3212 71.9978 56.6252 68.3129 56.5577 68.2739C56.4 68.187 56.2219 68.1449 56.0423 68.1519C55.8626 68.159 55.6883 68.2149 55.5378 68.3139L53.6272 69.5712C53.5014 69.654 53.3959 69.7645 53.3186 69.8943C53.2414 70.0242 53.1945 70.17 53.1814 70.3207C53.1432 70.6712 53.0343 71.0101 52.8613 71.3167C52.6883 71.6233 52.4549 71.8911 52.1754 72.1037C52.0809 72.1878 51.9688 72.2493 51.8475 72.2839C51.7261 72.3185 51.5986 72.3253 51.4744 72.3036C51.0823 72.2583 50.7123 72.0973 50.4108 71.8409C50.2668 71.651 50.0791 71.1183 50.4337 69.6881C51.0891 67.0506 51.9599 66.4899 53.6958 65.3835L54.1228 65.1097C56.2826 63.7105 57.2151 63.6715 58.1018 64.0713C59.5795 64.7399 65.1186 66.8857 65.3509 66.9766C65.5642 67.0591 65.7992 67.0651 66.0163 66.9936L69.8047 65.7433L74.7033 77.9734L72.6378 78.8969ZM77.5036 79.6275L70.7629 62.791L76.8969 60.5812L83.5184 77.3088L77.5036 79.6275Z" stroke="#F0B420" stroke-width="0.4" mask="url(#path-2-outside-1)"/>
<path d="M69.6065 36.1762C70.1797 32.3226 67.2622 30.251 63.2727 28.869L64.5669 23.6488L61.4072 22.8569L60.1473 27.9396C59.3166 27.7314 58.4635 27.535 57.6158 27.3404L58.8847 22.2243L55.7268 21.4324L54.4318 26.6508C53.7443 26.4933 53.0693 26.3376 52.4142 26.1738L52.4178 26.1575L48.0603 25.0634L47.2197 28.4572C47.2197 28.4572 49.5641 28.9975 49.5146 29.031C50.7943 29.3523 51.0256 30.2039 50.9869 30.8791L49.5128 36.8261C49.601 36.8487 49.7153 36.8813 49.8413 36.9319C49.736 36.9057 49.6235 36.8767 49.5074 36.8487L47.4411 45.1795C47.2845 45.5705 46.8877 46.1569 45.9931 45.9343C46.0246 45.9805 43.6965 45.3578 43.6965 45.3578L42.1279 48.9951L46.2397 50.0259C47.0047 50.2187 47.7543 50.4205 48.4923 50.6106L47.1847 55.8905L50.3407 56.6824L51.6357 51.4586C52.4979 51.6939 53.3348 51.9111 54.1537 52.1157L52.8632 57.3151L56.0229 58.107L57.3305 52.837C62.7184 53.8624 66.7699 53.4488 68.4753 48.548C69.8495 44.6021 68.4069 42.3259 65.5721 40.8417C67.6365 40.3629 69.1916 38.9972 69.6065 36.1762ZM62.3872 46.3569C61.4108 50.3029 54.8044 48.1697 52.6625 47.6348L54.3976 40.6399C56.5395 41.1774 63.4077 42.2418 62.3872 46.3569ZM63.3645 36.1192C62.4736 39.7086 56.975 37.8849 55.1914 37.4379L56.7644 31.0936C58.5481 31.5407 64.2924 32.3751 63.3645 36.1192Z" stroke="#F0B420" stroke-width="2.1"/>
</svg>
