<svg width="1072" height="1014" viewBox="0 0 1072 1014" fill="none" xmlns="http://www.w3.org/2000/svg">
<path d="M251.14 38.7582C255.212 39.9619 260.046 38.5174 264.626 38.7582C267.934 38.9989 271.242 39.4804 274.55 40.2026C288.544 43.3323 302.539 47.9063 316.788 49.8322C336.889 52.7211 358.009 48.6285 376.583 60.4248C379.382 62.3507 384.471 60.9063 388.288 61.6285C417.549 68.61 447.32 74.147 475.563 83.5359C495.919 90.5173 512.967 105.925 533.323 112.184C567.165 122.536 591.337 146.61 621.362 161.776C641.209 171.888 659.275 185.128 678.613 196.443C705.839 212.573 730.775 230.387 745.024 259.276C748.841 267.221 755.965 273.961 762.072 280.943C768.179 288.165 774.54 295.387 781.155 302.609L791.842 291.535C780.392 282.628 771.486 269.387 764.107 256.628C733.065 202.943 686.501 165.388 630.777 136.017C610.675 125.425 592.609 111.702 573.526 99.4247C570.727 97.4988 567.419 94.1284 564.62 94.3692C548.081 95.8136 541.211 81.6099 529.506 75.8322C506.861 64.7581 482.688 56.573 459.279 46.9434C430.272 34.9063 398.72 42.1286 368.95 36.5915C333.073 30.0915 296.178 25.5175 261.827 14.6842C234.856 6.49899 209.157 4.33233 181.676 4.33233C173.025 4.33233 164.374 2.64715 155.722 0.239746H100.762C102.543 0.721227 104.324 1.20271 105.596 2.16567C148.852 32.9804 202.795 25.5175 251.14 38.7582Z" fill="#979797" fill-opacity="0.02"/>
<path d="M498.972 155.999C478.871 147.333 457.752 140.592 437.142 133.37C433.07 131.925 428.236 132.407 423.91 131.684C407.88 129.036 391.85 126.388 376.074 123.018C367.932 121.333 360.298 116.759 352.156 114.833C313.48 105.925 274.295 101.351 234.347 99.9068C215.772 99.1846 197.197 96.7771 178.622 92.9253C152.16 87.629 123.916 91.2401 96.4358 89.0735C64.3753 86.6661 32.3149 80.1661 0 83.2957V110.499C4.58006 111.222 8.90568 111.944 13.4857 112.907C33.5871 117.24 53.943 121.333 74.0444 125.425C77.3522 126.147 80.66 128.073 83.9678 128.073C106.614 127.592 129.514 133.129 152.16 124.462C161.32 120.851 173.025 123.018 183.457 123.018C194.144 122.777 204.576 122.536 215.263 123.018C243.252 124.462 271.75 123.499 298.722 128.555C346.558 137.462 393.631 150.221 440.958 161.777C457.243 165.629 475.054 166.351 486.759 180.795C488.031 182.481 491.085 182.721 493.884 183.203H542.483C536.376 180.073 530.015 177.184 523.908 174.055C514.748 169.481 508.387 160.092 498.972 155.999Z" fill="#979797" fill-opacity="0.02"/>
<path d="M372.511 23.1125C379.127 24.7977 387.015 26.7236 393.376 25.0384C423.146 17.094 451.135 28.4088 479.125 32.5014C514.239 37.5569 547.317 52.4828 576.833 72.4642C604.822 91.242 632.811 109.779 661.309 127.353C705.074 154.557 737.389 191.149 762.834 233.52C773.775 251.575 785.226 268.427 801.765 280.945L809.907 272.279C807.871 271.797 806.345 271.075 805.327 270.112C792.35 255.186 779.882 239.538 767.669 223.89C764.87 220.279 763.598 215.464 761.816 211.371C763.089 210.168 764.615 208.964 765.888 207.76C771.231 211.371 777.847 214.02 781.918 218.594C794.131 232.557 805.581 246.76 816.777 261.445C817.286 262.168 817.795 263.371 818.049 264.334L828.482 253.26C823.138 244.594 817.795 236.168 811.943 227.982C801.256 212.575 789.042 197.89 767.669 193.316C763.089 192.353 758.763 188.742 755.455 185.371C744.768 174.297 732.809 163.946 724.921 151.186C712.199 131.205 689.044 123.742 672.76 107.853C663.599 98.9457 649.859 94.3716 638.409 87.3902C613.728 72.4643 589.555 57.0569 565.128 41.8902C561.311 39.4828 557.749 37.0754 553.932 34.9088C533.322 23.594 512.457 12.2792 491.593 0.964391C491.084 0.72365 490.575 0.72365 490.066 0.964391C484.977 2.16809 480.397 1.68661 476.326 0.48291H457.497C460.296 3.85327 461.313 8.42734 459.787 14.9273C455.207 14.4458 451.39 14.2051 447.573 13.4829C432.815 11.3162 418.312 7.70512 403.554 7.22364C383.707 6.50142 364.114 4.57549 345.031 0.48291H250.376C264.625 3.61253 278.874 6.26068 293.378 7.94586C320.349 11.3162 346.557 16.131 372.511 23.1125Z" fill="#979797" fill-opacity="0.02"/>
<path d="M30.28 5.53603C33.5878 6.01751 37.1501 6.73973 40.4579 6.25825C58.0148 4.33233 75.5717 2.16567 92.8742 0.239746H3.81738C4.07183 0.239746 4.32628 0.480486 4.32628 0.480486C12.9775 2.64715 21.6287 4.09159 30.28 5.53603Z" fill="#979797" fill-opacity="0.02"/>
<path d="M360.044 159.369C350.884 154.314 339.434 152.628 328.492 150.943C316.279 149.258 303.811 149.98 291.597 148.536C276.839 146.851 262.081 142.036 247.323 141.795C227.731 141.314 207.884 146.851 188.291 141.554C186.51 141.073 184.475 142.036 182.439 142.517C149.615 152.388 116.283 153.351 83.2045 146.369C59.5408 141.314 36.8949 133.369 13.2313 128.073C8.90568 127.351 4.32561 126.388 0 125.425V139.628C16.2847 141.554 32.5693 143.24 48.5996 146.128C53.943 147.091 57.7597 154.073 62.3397 158.406C56.233 159.851 49.8718 163.221 44.0195 162.258C29.2615 159.851 14.5035 155.758 0 152.628V173.814C10.6868 175.74 21.3736 177.665 32.0604 179.591C34.6049 180.073 37.1494 180.073 39.6939 179.832C69.4643 177.906 99.2347 175.98 129.005 173.814C131.804 173.573 134.603 171.888 137.402 171.165C144.781 169.48 152.16 166.11 159.284 166.351C202.541 168.999 245.542 172.128 288.798 175.74C300.249 176.702 311.444 180.795 322.894 182.24C325.948 182.721 328.747 182.962 331.8 183.202H451.391C437.905 178.388 424.165 174.054 410.17 171.888C392.868 168.999 376.074 167.795 360.044 159.369Z" fill="#979797" fill-opacity="0.02"/>
<path d="M585.23 451.631C578.105 449.464 570.472 445.131 565.637 439.594C537.394 407.816 503.043 386.15 459.278 378.927C451.899 377.724 444.52 376.761 437.396 376.039L422.383 391.687C427.727 392.168 432.816 392.65 437.905 393.613C463.349 398.187 487.776 408.298 512.458 416.964C517.547 418.65 521.364 424.187 525.689 428.038C524.162 430.205 522.381 432.372 520.855 434.538C496.936 427.075 473.273 417.446 448.846 412.631C435.615 410.224 422.383 407.094 408.643 405.89L387.778 427.557C405.335 425.631 424.419 428.52 442.485 429.242C450.881 429.483 459.024 433.335 467.421 435.742C483.96 440.557 500.753 445.131 517.038 450.187C530.778 454.279 545.282 457.65 558.004 463.668C569.454 469.205 578.869 478.835 590.319 484.612C594.136 486.538 597.443 488.705 600.242 491.353L617.29 473.538C609.148 463.187 599.225 455.724 585.23 451.631Z" fill="#979797" fill-opacity="0.02"/>
<path d="M615 413.352C610.42 409.26 606.094 404.686 600.496 402.037C581.158 392.408 557.24 390.482 545.027 370.019C544.263 368.815 541.464 369.056 539.683 368.093C532.559 364.963 524.416 362.797 518.31 358.223C505.333 348.593 491.084 344.5 474.799 344.982C472.509 344.982 469.964 344.982 467.674 344.741L450.881 362.315C470.728 366.408 492.101 368.574 508.895 377.963C548.08 400.111 585.229 425.871 622.379 451.148C625.687 453.556 628.994 455.963 632.048 458.611L647.569 442.482C647.315 442 646.806 441.76 646.551 441.278C636.373 431.408 625.432 422.5 615 413.352Z" fill="#979797" fill-opacity="0.02"/>
<path d="M746.805 280.464C727.212 248.927 701.259 224.372 666.908 206.316C628.232 185.853 592.1 161.779 554.697 139.15C552.661 137.946 550.116 137.224 548.081 136.261C535.104 130.002 522.382 123.742 509.405 117.483C495.919 110.742 482.942 102.076 468.439 97.7424C442.485 90.0387 415.768 85.2239 389.305 78.9647C376.328 76.0758 363.606 72.4647 350.629 70.0573C339.688 68.1314 328.238 68.3721 317.042 66.6869C292.615 62.8351 268.443 58.0203 244.27 53.6869C240.962 52.9647 237.145 52.9647 234.347 51.2795C218.825 42.1314 202.032 42.1314 184.475 44.2981C178.368 45.0203 172.007 42.6129 165.9 42.6129C142.745 42.3722 119.082 27.687 98.9803 43.0944C88.8023 39.724 80.1511 35.8722 70.991 34.187C62.0853 32.5018 52.9252 32.7425 44.0195 32.0203C33.5871 31.0574 22.9003 29.8537 12.4679 28.8907C8.39678 28.65 4.32561 28.1685 0 27.9277V48.1499C4.07117 50.0758 8.14233 52.724 11.7046 56.3351C11.9591 56.5758 12.7224 56.3351 13.2313 56.3351C28.2437 57.0573 43.2561 58.0203 58.523 58.261C73.281 58.7425 89.8201 51.761 100.507 68.3721C101.27 69.5758 105.087 69.0943 107.631 69.5758C115.519 71.0202 123.153 72.7054 131.041 74.1499C138.42 75.3536 145.799 76.798 153.178 77.2795C173.533 78.7239 193.889 79.9276 214.245 81.3721C218.062 81.6128 222.133 83.7795 225.95 83.7795C248.341 84.0202 271.75 80.6499 293.124 84.9832C318.06 89.798 342.996 93.4091 367.677 98.7054C393.377 104.242 418.567 111.224 443.503 118.446C471.746 126.631 502.28 130.724 522.127 155.039C523.145 156.483 525.689 156.724 527.471 157.446C544.01 166.113 560.549 174.779 576.833 183.446H621.616L606.604 199.094C631.794 212.335 657.239 225.816 682.429 239.298C685.483 240.742 687.518 243.872 690.063 246.038C696.17 251.335 702.276 257.112 708.892 261.927C722.887 272.279 732.301 285.038 736.118 301.89C724.668 297.798 714.999 292.261 705.839 285.761C684.974 270.835 664.364 255.668 643.753 240.261C637.392 235.687 631.54 230.39 625.433 225.576C621.616 222.687 617.8 219.316 613.474 217.39C607.876 214.742 602.278 212.094 596.935 209.446L580.396 226.779C594.899 235.446 609.148 243.872 623.652 252.538C628.232 255.427 633.321 257.594 637.901 260.724C649.606 268.187 663.091 274.446 672.506 284.075C694.643 306.946 722.632 319.464 752.657 328.853C753.675 329.094 754.438 329.335 755.456 329.816L770.723 313.927C769.959 312.483 769.196 311.038 768.687 309.353C764.362 298.52 753.166 290.575 746.805 280.464Z" fill="#979797" fill-opacity="0.02"/>
<path d="M642.482 349.314C612.966 331.499 583.195 313.444 553.425 295.87C545.028 290.814 536.377 285.759 527.471 281.666L508.388 301.647C525.436 307.425 542.484 313.444 559.532 319.222C571.745 323.314 585.74 324.759 595.918 331.74C607.622 339.925 615.256 353.166 625.688 363.036C642.736 379.166 660.548 394.573 678.104 410.221L690.572 397.221C676.832 382.536 662.074 368.814 647.825 354.37C646.044 352.684 644.517 350.758 642.482 349.314Z" fill="#979797" fill-opacity="0.02"/>
<path d="M602.278 360.87C589.047 348.11 575.307 343.536 558.768 339.203C546.3 336.073 534.85 329.092 522.89 324.518C513.985 321.147 505.079 317.296 495.919 314.647L481.67 329.333C507.115 333.907 531.033 340.888 551.643 357.981C553.17 359.184 555.205 359.907 556.986 360.388C581.159 365.925 598.716 381.092 615.51 396.981C624.415 405.407 631.285 415.758 646.043 415.518C648.588 415.518 651.641 419.129 653.677 421.536C655.712 423.944 657.748 426.11 660.038 428.518L666.654 421.536C663.346 418.647 660.292 415.999 657.239 412.869C639.173 395.536 620.598 378.203 602.278 360.87Z" fill="#979797" fill-opacity="0.02"/>
<path d="M730.773 342.091C732.046 345.462 733.063 348.591 734.336 351.48L745.277 339.925C740.951 339.684 736.117 340.406 730.773 342.091Z" fill="#979797" fill-opacity="0.02"/>
<path d="M690.572 330.057C688.282 329.094 685.992 327.409 684.974 325.483C675.814 309.594 665.381 295.149 646.298 288.649C644.008 287.927 643.244 283.835 641.209 281.909C627.214 270.112 614.746 253.261 598.207 247.964C588.284 244.835 579.632 240.261 571.236 235.687L560.04 247.242C569.709 252.538 579.378 257.835 588.538 264.094C606.349 276.131 622.889 290.094 639.682 303.816C642.227 305.742 642.99 309.594 644.771 312.483C637.647 311.52 632.558 308.872 627.978 305.501C616.273 297.316 605.332 287.686 592.864 280.705C578.615 273.001 563.602 266.501 548.59 259.761L537.14 271.798C549.099 278.057 560.803 284.798 572.762 291.538C598.971 306.464 624.924 321.39 650.623 336.557C653.422 338.242 655.458 341.371 657.748 343.779C667.926 355.334 676.832 368.575 688.536 378.446C692.353 381.575 695.915 384.945 699.477 388.316L723.65 363.038C715.508 349.316 707.111 336.557 690.572 330.057ZM687.518 344.02C692.607 351.242 697.696 358.223 702.785 365.446C689.3 363.76 682.175 357.983 687.518 344.02Z" fill="#979797" fill-opacity="0.02"/>
<path d="M19.8469 991.371C8.65123 968.5 18.3203 944.185 11.1957 921.315C8.39678 912.408 4.83451 900.852 8.39678 893.63C22.137 865.945 12.7224 832 35.8772 807.204C36.6405 806.241 37.4038 804.556 36.895 803.352C36.1316 800.704 35.6227 798.297 35.6227 795.889L0 832.963V1013.76H22.6459C22.9003 1005.81 22.9003 997.87 19.8469 991.371Z" fill="#979797" fill-opacity="0.02"/>
<path d="M573.271 499.055C565.129 493.518 556.987 487.499 548.081 483.407C525.181 472.814 502.789 462.462 477.344 456.444C456.48 451.388 434.852 443.685 413.987 443.925C399.483 444.166 384.725 444.888 370.222 446.092L350.884 466.314C373.784 461.981 397.193 465.351 420.094 467.518C431.798 468.722 442.74 471.37 454.953 469.925C461.823 468.962 469.965 470.888 476.581 473.536C487.268 477.87 496.937 485.333 507.878 488.703C521.873 492.796 531.033 498.573 532.56 513.499C533.069 519.036 537.14 524.814 541.211 529.388C544.773 533.481 548.59 537.333 552.407 541.425L584.213 508.444C580.905 505.073 577.342 501.944 573.271 499.055ZM561.312 529.147C555.206 518.073 551.134 510.851 547.063 503.388C548.335 502.666 549.862 502.185 551.134 501.462C559.531 506.999 563.857 514.462 561.312 529.147Z" fill="#979797" fill-opacity="0.02"/>
<path d="M493.374 509.167C485.232 501.704 474.291 493.519 463.858 492.797C436.633 490.63 411.188 480.278 382.181 483.167C361.57 485.334 342.232 488.463 323.912 494.482L283.455 536.611C292.106 531.797 301.012 527.463 309.663 523.371C337.907 510.371 369.204 506.037 400.501 503.149C406.862 502.667 413.987 502.186 419.585 499.537C434.851 492.315 448.083 496.167 460.296 505.556C463.095 507.723 466.148 513.019 465.385 515.667C464.367 518.556 459.024 521.686 455.462 521.926C431.035 523.612 406.099 522.649 382.181 526.741C356.481 531.074 330.273 537.334 307.119 548.167C280.147 560.686 256.229 578.741 231.293 594.871C226.967 597.519 223.914 602.815 221.624 607.389C215.008 620.63 205.848 630.5 191.854 638.204C182.693 643.5 177.096 655.296 171.498 665.167C160.048 684.426 149.361 704.167 138.674 723.667C134.857 730.889 131.295 738.111 127.733 745.333C118.318 764.833 108.904 784.333 99.7435 804.074C97.4534 808.889 96.1812 813.944 94.6545 819C88.2933 842.592 81.6777 866.185 76.3343 889.778C73.5353 902.055 72.2631 914.574 71.7542 927.092C71.2453 940.574 66.1563 950.926 54.1973 957.907C52.4162 957.666 50.635 957.185 48.8539 956.944C49.3628 951.888 49.6172 946.592 50.8895 941.537C51.9073 937.444 55.4695 934.074 56.2329 929.981C62.0852 894.592 67.4286 859.204 73.7898 823.815C75.062 816.833 82.1866 810.815 84.731 803.833C88.0389 795.407 89.3111 786.259 91.6011 777.593C91.8556 776.148 91.6011 774.704 92.11 773.5C101.016 757.13 109.667 741 118.827 724.87C125.443 713.074 133.84 702.241 139.692 689.963C140.71 688.037 141.727 686.111 142.745 684.185L75.3165 754.481C65.6474 772.296 56.4873 790.593 50.3806 809.37C44.7827 826.463 40.7115 844.278 34.6048 861.37C29.2614 876.296 27.7347 893.148 28.7525 908.796C30.5336 935.759 22.6457 963.926 38.676 989.444C40.7115 992.814 40.7115 997.87 39.9482 1001.96C39.4393 1006.06 39.1849 1009.91 38.9304 1014H67.1741C67.1741 1012.56 67.4286 1011.35 67.4286 1009.91C67.9375 1002.44 64.8841 994.018 67.4286 987.518C74.0442 970.666 82.9499 954.777 90.3289 938.407C92.11 934.555 92.6189 930.222 92.8734 925.889C94.909 892.185 99.2346 858.481 112.72 827.185C127.478 792.759 141.727 757.852 160.811 725.593C178.368 695.982 203.049 670.222 222.387 641.333C237.4 618.704 256.992 601.852 280.656 588.13C297.958 578.26 313.989 566.463 331.291 556.593C337.907 552.982 346.812 552.741 354.446 550.574C366.914 547.204 379.636 543.834 392.104 540.463C394.903 539.741 397.702 539.019 400.755 538.778C424.673 537.093 448.592 535.167 472.764 534.204C477.853 533.963 484.214 535.649 488.285 538.778C502.28 549.611 512.204 562.371 519.074 575.852L538.921 555.148C524.672 539.26 509.405 523.611 493.374 509.167Z" fill="#979797" fill-opacity="0.02"/>
<path d="M402.027 651.445C401.772 647.111 399.737 640.13 396.938 639.408C392.612 637.963 386.506 640.611 381.162 641.574C382.689 642.778 384.215 643.982 385.742 645.426C383.707 653.37 383.452 662.037 379.381 669.019C368.44 688.518 354.191 706.574 344.267 726.556C327.219 761.222 308.136 794.444 279.892 822.129C278.365 823.815 277.602 826.222 276.584 828.629L381.671 719.093C382.943 716.926 384.215 715 385.742 712.833C398.465 694.056 403.299 673.352 402.027 651.445Z" fill="#979797" fill-opacity="0.02"/>
<path d="M466.148 560.445C437.904 560.445 412.714 547.686 381.162 557.315C331.799 572.482 290.833 598.241 252.92 628.815C226.712 650 204.575 676.241 188.799 705.37C165.39 748.944 144.271 793.722 122.643 838.018C120.353 842.592 119.844 848.129 118.572 853.185C110.684 887.852 111.956 923.481 97.1982 957.666C90.0737 974.518 88.8014 994.74 90.0737 1013.76H99.2338L118.317 993.777C117.809 967.296 129.004 941.777 131.549 915.296C132.566 905.185 133.33 895.074 134.348 884.963C135.874 867.87 120.607 846.444 147.833 835.611C148.342 835.37 148.342 834.889 148.597 834.407C158.011 814.667 166.917 794.926 176.586 775.667C181.42 766.278 187.273 757.37 192.616 748.222C196.433 741.241 200.759 734.259 203.303 726.796C209.664 708.019 215.771 689 233.073 676.482C238.162 672.63 245.287 671.185 251.648 668.537C252.92 669.982 253.938 671.426 255.21 672.871C251.394 678.648 248.849 685.871 243.506 690.204C217.807 711.389 210.682 742.685 195.161 769.407C178.876 797.574 165.899 827.667 150.632 856.555C144.271 868.352 141.981 879.426 151.396 889.777C158.266 897.481 158.266 904.703 155.467 913.37C151.141 927.333 145.034 941.296 143.508 955.74C142.999 960.074 142.744 964.648 142.49 968.981L178.113 931.907C180.403 924.685 183.456 917.703 188.036 911.203C190.326 908.074 192.107 904.222 192.616 900.611C196.433 861.129 226.967 831.278 236.381 793.722C237.145 790.833 242.742 788.907 246.05 786.5C247.577 787.463 248.849 788.426 250.376 789.148C247.322 801.426 245.287 813.944 240.707 825.741C231.292 849.574 221.369 873.407 211.445 897.24L249.104 858C256.228 842.111 263.607 826.463 270.986 810.815C273.785 805.037 280.401 801.185 284.472 795.648C292.105 785.778 299.739 775.907 306.354 765.315C321.367 741.481 336.379 717.648 350.628 693.333C356.226 683.704 360.297 673.352 365.132 663.241C338.415 675.037 333.835 701.037 316.532 719.093C301.265 734.982 285.744 754.963 283.709 779.519C283.454 782.407 276.075 784.815 272.004 787.222C270.986 783.13 267.678 778.074 269.205 774.944C276.075 760.259 282.182 745.093 291.851 732.093C318.059 697.185 344.776 662.519 373.274 629.537C381.671 619.667 397.192 615.093 409.915 608.834C412.205 607.63 416.785 609.315 419.584 610.76C431.797 617.26 435.868 629.297 430.016 642.778C424.164 656.5 420.093 671.185 414.749 685.148L447.319 651.204C449.609 645.667 451.644 640.13 453.425 634.352C454.952 628.815 452.153 621.111 449.1 615.334C433.324 584.76 397.192 580.426 371.493 605.945C355.208 621.834 337.143 636.759 323.657 654.574C295.413 692.13 258.518 724.63 241.725 769.407C240.198 773.741 236.636 777.593 233.073 780.963C215.771 796.37 203.812 814.426 197.96 836.815C194.397 850.778 186.764 863.778 180.148 877.018C178.876 879.666 173.533 880.629 170.225 882.315C168.698 881.111 166.917 880.148 165.39 878.944C172.006 863.296 177.095 846.926 185.492 832.241C208.901 791.315 233.073 750.87 258.264 710.667C263.607 702.241 269.714 696.222 264.116 685.389C262.335 681.778 265.388 675.759 266.661 670.945C274.04 643.741 297.449 627.371 315.26 607.148C317.041 604.982 321.621 602.815 323.657 603.778C325.947 604.741 329 609.797 327.982 611.482C323.911 618.704 320.349 628.334 313.479 631.704C298.212 639.408 293.632 653.852 284.981 665.648C282.945 668.296 283.454 672.871 281.927 680.333C288.289 674.796 291.088 673.111 293.123 670.463C313.479 646.389 334.089 622.556 353.682 597.76C377.6 567.667 425.69 560.445 457.751 583.074C472 592.945 478.107 607.63 474.799 622.315L493.628 602.574C493.119 600.167 492.865 597.76 492.865 595.352C493.119 577.056 473.272 573.445 466.148 560.445Z" fill="#979797" fill-opacity="0.02"/>
<path d="M1011.43 50.5545C1012.7 53.2026 1013.97 55.8508 1014.99 58.7396L1046.04 26.7212C1045.78 26.4804 1045.78 25.999 1045.53 25.7582C1044.51 23.8323 1043.24 21.6656 1042.22 19.2582C1039.93 14.2027 1037.38 9.14714 1033.57 4.81381C1032.3 3.36937 1031.02 1.92493 1030.01 0.239746H984.459C989.293 6.25825 993.874 12.999 997.945 21.1842C1002.52 30.8138 1007.1 40.9249 1011.43 50.5545Z" fill="#979797" fill-opacity="0.02"/>
<path d="M960.031 104.48C961.812 106.406 963.339 108.814 964.866 111.462L982.677 92.684C967.665 80.1655 953.415 64.5174 938.657 45.0174C927.207 30.0915 915.503 14.9249 904.052 0.239746H870.211C871.229 1.20271 872.247 2.40641 873.264 3.36937C905.325 40.6841 933.823 73.6655 960.031 104.48Z" fill="#979797" fill-opacity="0.02"/>
<path d="M991.583 83.2976L1012.7 61.3902C1009.14 56.0939 1005.32 50.7976 1002.02 45.7421C991.583 30.3347 980.896 14.6866 967.92 0.48291H960.795H918.557C925.681 8.42734 932.806 16.3718 939.676 24.3162C956.724 43.3347 974.535 63.3161 991.583 83.2976Z" fill="#979797" fill-opacity="0.02"/>
<path d="M752.148 18.7777C773.776 36.111 795.15 54.1666 815.76 71.4999C823.393 77.7591 830.772 84.2591 838.406 90.5183C839.678 91.722 840.95 93.1665 842.222 94.6109C842.986 95.5739 844.004 96.5368 844.767 97.4998C847.311 100.389 850.11 103.037 852.655 105.926C856.98 110.5 861.306 115.074 865.377 119.648C870.975 125.666 876.573 131.685 882.171 137.703C891.331 147.574 900.746 157.685 909.906 168.037L932.297 144.685C924.155 131.685 912.196 116.518 892.094 107.37C887.514 105.203 883.443 100.629 879.372 96.0554L878.609 95.0924C874.028 89.7961 869.448 83.7776 865.377 78.2406C856.472 66.4443 847.057 53.9258 834.844 45.2592C824.411 37.7962 814.488 28.8888 805.073 20.2222C797.44 13.4815 789.806 6.49999 781.664 0H729.756H728.993C735.863 5.53703 742.733 10.8333 749.603 16.3703L752.148 18.7777Z" fill="#979797" fill-opacity="0.02"/>
<path d="M829.756 21.6656C835.863 32.7397 841.969 44.0545 850.875 53.2026C855.455 57.7767 859.781 62.3507 864.361 66.9248C888.024 90.9988 912.451 116.036 938.914 138.184L960.542 115.554C954.69 109.054 948.329 102.795 940.186 97.9803C937.896 96.7766 936.115 94.1285 933.825 91.4803C933.062 90.5174 932.298 89.3137 931.281 88.3507C928.736 85.4618 926.7 82.0914 924.665 78.4803C918.813 69.0915 912.197 58.4989 896.93 56.0915C896.93 55.8508 896.676 55.8508 896.676 55.61C896.421 55.3693 896.167 54.8878 896.167 54.6471C882.427 36.5915 868.686 18.536 854.946 0.239746H816.016C818.815 3.36937 821.613 7.22121 824.412 12.036C826.194 15.1656 827.975 18.2953 829.756 21.6656Z" fill="#979797" fill-opacity="0.02"/>
<path d="M590.319 25.2767C594.136 27.2027 597.443 30.573 600.751 34.4249C604.059 38.036 607.621 41.6471 611.692 44.2952C617.799 48.1471 624.669 51.5174 631.285 54.8878C641.717 60.1841 651.641 64.9989 659.02 71.9803C667.417 79.9248 677.34 86.6655 686.755 93.1655C704.566 105.202 721.105 116.758 730.011 136.017C732.555 141.554 737.899 145.406 742.988 149.258C745.278 150.943 747.568 152.628 749.349 154.314C761.053 164.906 772.504 175.739 784.208 186.573L795.913 197.406C796.676 197.888 797.185 198.61 797.694 199.332C798.457 200.054 799.221 200.776 799.984 201.499C803.801 204.869 807.872 208.239 811.689 211.369C820.085 218.11 827.973 224.369 833.062 232.313C835.098 235.684 837.133 238.813 839.169 242.184L859.779 220.758C850.619 209.684 841.713 198.61 832.553 188.017C823.902 177.665 815.251 167.313 806.6 156.721C804.818 154.554 802.528 153.11 800.493 151.665C799.984 151.184 799.221 150.943 798.712 150.462C793.623 146.851 788.788 143.48 783.699 139.869C772.249 131.925 760.29 123.499 749.349 114.832C745.278 111.462 741.715 107.369 738.153 102.795C735.354 99.4247 732.555 95.8136 729.247 92.684C724.158 87.6285 718.815 83.0544 713.472 78.4803C708.892 74.6285 704.312 70.5359 699.731 66.2026C695.406 62.11 691.335 57.7767 687.264 53.6841C681.157 47.4248 675.05 40.9249 668.18 35.1471C657.748 26.2397 646.552 17.8138 635.611 9.62862C631.539 6.49899 627.468 3.36937 623.397 0.239746H534.595C536.885 1.20271 539.175 2.16567 541.21 3.12863C558.004 10.1101 574.543 17.0916 590.319 25.2767Z" fill="#979797" fill-opacity="0.02"/>
<path d="M755.201 98.2235C765.634 108.816 776.575 119.649 787.516 130.242C791.079 133.612 795.404 135.538 799.73 137.705C801.511 138.427 803.292 139.39 804.819 140.112L808.89 142.279L817.287 130.483L813.979 127.594C810.925 124.946 808.126 122.297 805.073 119.89C798.457 114.112 791.333 107.853 784.717 101.835L781.664 98.9457C775.048 92.9272 767.924 86.4272 762.326 79.6865C761.308 78.242 760.545 75.8346 760.036 73.4272C763.089 75.3531 765.888 77.2791 768.433 79.4457C776.321 86.6679 784.208 94.1309 791.842 101.594C801.256 110.742 811.18 120.131 821.103 129.038C825.938 133.372 828.228 136.26 827.973 137.464C827.973 137.464 827.465 139.631 819.322 142.76L812.707 145.168L825.683 159.371C830.772 165.149 835.352 170.205 839.933 175.02C850.365 186.334 860.797 197.89 870.721 209.445L897.947 181.038C888.532 170.446 878.609 158.649 866.904 144.446C861.815 138.186 856.726 131.686 851.892 125.186C847.566 119.409 842.986 113.631 838.406 107.853C833.571 101.835 828.228 96.0568 822.121 90.279C818.05 86.4272 813.979 82.3346 810.162 78.242C799.73 67.8902 789.043 57.0569 776.829 48.3902C753.42 31.7791 729.757 15.8903 706.347 0.48291H640.445C658.766 12.7607 677.086 25.7606 693.879 39.7236C714.999 57.7791 735.354 78.242 755.201 98.2235Z" fill="#979797" fill-opacity="0.02"/>
<path d="M1071.22 0.239746H1051.38C1053.67 4.57307 1056.21 9.14714 1058.5 13.4805L1071.22 0.239746Z" fill="#979797" fill-opacity="0.02"/>
</svg>
