<svg width="112" height="112" viewBox="0 0 112 112" fill="none" xmlns="http://www.w3.org/2000/svg">
<rect opacity="0.5" width="33.1877" height="60.8441" rx="5" transform="matrix(1 0 0 -1 19.3594 96.7976)" fill="#202932"/>
<path d="M70.1853 65.5621H66.9327C66.562 65.5621 66.2226 65.6762 65.9737 65.8653C65.7248 66.0545 65.5621 66.3231 65.5621 66.6277C65.5621 66.9323 65.7248 67.201 65.9737 67.3901C66.2226 67.5793 66.562 67.6933 66.9327 67.6933H70.1853C70.556 67.6933 70.8953 67.5793 71.1442 67.3901C71.3931 67.201 71.5558 66.9323 71.5558 66.6277C71.5558 66.3231 71.3931 66.0545 71.1442 65.8653C70.8953 65.6762 70.556 65.5621 70.1853 65.5621Z" fill="#F0B420" stroke="#F0B420" stroke-width="0.2"/>
<path d="M78.2287 54.6261L78.2287 54.6261C77.9961 54.6407 77.7695 54.5564 77.5841 54.3926C77.3992 54.2294 77.265 53.9962 77.1978 53.7316C77.1978 53.7316 77.1978 53.7316 77.1978 53.7315L77.2947 53.707C77.2496 53.5297 77.2377 53.3413 77.2599 53.1571C77.2822 52.9729 77.3381 52.7979 77.423 52.6464C77.5079 52.495 77.6195 52.3712 77.7487 52.2852C77.8779 52.1992 78.0212 52.1533 78.1668 52.1513L78.2287 54.6261ZM78.2287 54.6261L78.2297 54.6261C78.6286 54.5972 79.0283 54.6838 79.3996 54.881C79.7711 55.0783 80.1054 55.3817 80.3761 55.7707C80.6231 56.1305 80.81 56.5532 80.9239 57.0125C81.0376 57.471 81.0759 57.955 81.0362 58.4338C80.9933 58.7314 81.0351 59.0397 81.1555 59.3035C81.2758 59.5673 81.4691 59.7735 81.7055 59.8776C81.8555 59.9521 82.0184 59.9818 82.1809 59.963C82.3441 59.9441 82.4996 59.8771 82.6353 59.7698C82.7708 59.6626 82.883 59.5183 82.9645 59.3498C83.0459 59.1815 83.0952 58.9926 83.1093 58.7977C83.1908 57.9279 83.123 57.0456 82.9103 56.2123C82.6975 55.3787 82.3446 54.6132 81.8752 53.9697C81.4058 53.3263 80.8306 52.8198 80.1888 52.4876C79.5475 52.1558 78.8559 52.0064 78.1628 52.0514L78.2287 54.6261Z" fill="#F0B420" stroke="#F0B420" stroke-width="0.2"/>
<path d="M87.1583 59.8788L87.1583 59.8788L87.1609 59.8799C87.3119 59.9467 87.4745 59.9764 87.6375 59.9668C87.8004 59.9571 87.959 59.9083 88.1025 59.8244C88.246 59.7404 88.3707 59.6235 88.4688 59.4821C88.5669 59.3409 88.6362 59.1784 88.6728 59.0057C89.0374 57.3375 89.0237 55.5937 88.6329 53.9328C88.242 52.2718 87.4862 50.7458 86.4332 49.4939C85.3803 48.2419 84.0635 47.3037 82.6021 46.766C81.1405 46.2282 79.5816 46.1083 78.0678 46.4175L78.0675 46.4176C77.9086 46.4505 77.7586 46.5208 77.6273 46.6231C77.4961 46.7253 77.3866 46.8571 77.3057 47.009C77.2247 47.161 77.1738 47.3299 77.1561 47.5047C77.1384 47.6795 77.1541 47.8566 77.2023 48.0243L77.2023 48.0244C77.2835 48.3058 77.4526 48.548 77.6818 48.7053C77.9115 48.8628 78.1856 48.9241 78.454 48.8758L78.454 48.8759L78.4568 48.8753C79.6015 48.6353 80.7817 48.7207 81.8897 49.1239C82.9978 49.5272 83.9992 50.2359 84.8015 51.1863C85.6038 52.1368 86.1811 53.2985 86.4797 54.5653C86.7783 55.8321 86.7884 57.1628 86.509 58.4351C86.4462 58.7206 86.476 59.022 86.5938 59.2859C86.7116 59.5499 86.9109 59.7611 87.1583 59.8788Z" fill="#F0B420" stroke="#F0B420" stroke-width="0.2"/>
<path d="M49.6101 88.9371H49.6102C50.7837 88.9348 51.9434 88.7005 53.0128 88.2494C54.0823 87.7983 55.0373 87.1406 55.8146 86.3195L55.8147 86.3195L55.8171 86.3168C55.931 86.1873 56.0144 86.0363 56.0614 85.8737C56.1084 85.711 56.1178 85.5407 56.0888 85.3742C56.0599 85.2077 55.9933 85.0494 55.894 84.9095C55.7947 84.7697 55.665 84.6517 55.5139 84.5629L55.5135 84.5626C55.2575 84.414 54.9536 84.3563 54.6568 84.3992C54.3604 84.442 54.089 84.5825 53.8924 84.7969C53.3461 85.3587 52.6786 85.8075 51.933 86.1136C51.187 86.4199 50.3797 86.5764 49.564 86.5728H49.5636H33.3627C31.8131 86.5728 30.3283 85.9991 29.2345 84.9799C28.141 83.961 27.5282 82.5806 27.5282 81.1429V64.8131C27.5282 64.4972 27.3934 64.1958 27.1562 63.9748C26.9192 63.7539 26.5992 63.631 26.2668 63.631C25.9345 63.631 25.6145 63.7539 25.3774 63.9748C25.1402 64.1958 25.0055 64.4972 25.0055 64.8131L25.0055 81.1754L25.0055 81.1757C25.0117 83.2385 25.8956 85.2133 27.4607 86.6676C29.0256 88.1217 31.1439 88.9371 33.3511 88.9371H49.6101Z" fill="#F0B420" stroke="#F0B420" stroke-width="0.2"/>
<path d="M26.3061 56.0489C26.6403 56.0485 26.9611 55.9179 27.1979 55.6851C27.4352 55.4519 27.5688 55.1352 27.5688 54.8047V37.0353C27.5688 35.5148 28.1834 34.0561 29.278 32.9804C30.3726 31.9046 31.8576 31.2999 33.4064 31.2999H33.6734L34.8091 33.3536L34.8092 33.3539L45.6303 34.9042L45.6307 34.8042V34.9042H45.6304C46.1778 34.9063 46.7156 34.7622 47.1863 34.4871C47.6569 34.2121 48.0429 33.8164 48.3028 33.3421C48.3029 33.342 48.3029 33.342 48.303 33.3419L49.4383 31.2999H49.6589C51.2108 31.2999 52.6987 31.9058 53.7955 32.9838C54.8923 34.0616 55.5081 35.5232 55.5081 37.0468V54.8619C55.5081 55.1925 55.6417 55.5091 55.879 55.7423C56.1162 55.9754 56.4376 56.1061 56.7723 56.1061C57.1071 56.1061 57.4284 55.9754 57.6656 55.7423C57.9029 55.5091 58.0365 55.1925 58.0365 54.8619V37.0468C58.0358 35.0271 57.2801 33.0784 55.9135 31.5708C54.5469 30.0634 52.6648 29.1022 50.6249 28.8694L50.625 28.8687H50.6136H32.4168V28.8681L32.4053 28.8694C30.3676 29.1048 28.4883 30.0672 27.1241 31.5744C25.7599 33.0816 25.0059 35.0289 25.0055 37.0468V37.0468L25.0055 54.8047C25.0055 54.8047 25.0055 54.8047 25.0055 54.8047C25.0054 54.9715 25.0394 55.1366 25.1054 55.2901C25.1715 55.4437 25.2682 55.5826 25.3897 55.6985C25.5112 55.8144 25.6551 55.9051 25.8127 55.9653L25.8484 55.8719L25.8127 55.9653C25.9699 56.0253 26.1376 56.0537 26.3061 56.0489ZM26.3061 56.0489C26.3066 56.0489 26.3071 56.0489 26.3076 56.0489L26.3046 55.9489V56.0489C26.3051 56.0489 26.3056 56.0489 26.3061 56.0489ZM37.4815 34.9042L37.4812 34.8042V34.9042L37.4815 34.9042ZM46.0674 32.1464L46.0668 32.1476C46.0226 32.2287 45.9567 32.2967 45.8758 32.344C45.7949 32.3914 45.7023 32.4162 45.6079 32.4158H45.6074L37.4579 32.4158L37.4574 32.4158C37.363 32.4162 37.2704 32.3914 37.1895 32.344C37.1086 32.2967 37.0427 32.2287 36.9985 32.1476L36.9985 32.1476L36.9979 32.1464L36.5227 31.2999H46.5426L46.0674 32.1464Z" fill="#F0B420" stroke="#F0B420" stroke-width="0.2"/>
<path d="M75.4172 26.3989L75.4172 26.3989L75.4174 26.3954C75.444 25.6978 74.9117 25.0796 74.1699 25.028C71.8325 24.859 69.5687 25.6796 67.9264 27.2737C66.4088 28.7468 65.5621 30.7279 65.5621 32.8063C65.5621 34.8838 66.4081 36.8642 67.9246 38.3371C68.1672 38.5975 68.5137 38.7249 68.856 38.7249C69.1767 38.7249 69.5211 38.5956 69.7855 38.3389C70.3173 37.8227 70.3173 37.0185 69.7855 36.5023C68.773 35.5195 68.2189 34.21 68.2189 32.8063C68.2189 31.4274 68.7969 30.0937 69.8101 29.1103C70.8939 28.0583 72.4379 27.5185 74.0088 27.6122C74.7261 27.6634 75.3639 27.1222 75.4172 26.3989Z" fill="#F0B420" stroke="#F0B420" stroke-width="0.2"/>
<path d="M75.6052 30.5857C75.8431 30.8627 76.1849 30.9999 76.5244 30.9999C76.8441 30.9999 77.1834 30.8596 77.466 30.5622L80.8215 27.03C81.341 26.4832 81.341 25.6349 80.8215 25.0881L77.466 21.5559C76.9437 21.0062 76.1292 21.0062 75.607 21.5559C75.0875 22.1028 75.0875 22.9511 75.607 23.4979L78.0522 26.0718L75.607 28.6456C75.0881 29.1918 75.0875 30.0388 75.6052 30.5857Z" fill="#F0B420" stroke="#F0B420" stroke-width="0.2"/>
<path d="M74.1473 60.4508L74.1473 60.4508L74.1503 60.4523C74.3888 60.5645 74.5924 60.7477 74.7361 60.9808C74.8798 61.2139 74.9571 61.4866 74.9581 61.766V73.7198H50.1529C49.834 73.7198 49.5294 73.854 49.3057 74.0909C49.0822 74.3276 48.9576 74.6475 48.9576 74.9799C48.9576 75.3124 49.0822 75.6322 49.3057 75.8689C49.5294 76.1059 49.834 76.2401 50.1529 76.2401H74.9581V79.1906C74.9555 79.5714 74.8114 79.9346 74.5588 80.2022C74.3065 80.4695 73.9663 80.6198 73.6121 80.6228H46.1225C45.7675 80.6228 45.4258 80.4735 45.1729 80.2056C44.9199 79.9375 44.7768 79.5728 44.7768 79.1914V61.7888C44.7768 61.4073 44.9199 61.0426 45.1729 60.7745C45.4258 60.5067 45.7675 60.3574 46.1225 60.3574H64.0183C64.3372 60.3574 64.6418 60.2231 64.8655 59.9862C65.0889 59.7495 65.2136 59.4296 65.2136 59.0972C65.2136 58.7648 65.0889 58.4449 64.8655 58.2082C64.6418 57.9713 64.3372 57.837 64.0183 57.837L46.1115 57.837L46.1112 57.837C45.1203 57.8402 44.1723 58.2594 43.4746 59.0007C42.7771 59.7419 42.3863 60.7446 42.3863 61.7888V79.1914C42.3863 80.2376 42.7786 81.2421 43.4786 81.9836C44.1788 82.7253 45.1297 83.1431 46.1225 83.1431H73.6125C74.6053 83.1431 75.5561 82.7253 76.2563 81.9836C76.9563 81.2421 77.3486 80.2376 77.3486 79.1914V61.7893C77.3527 61.0457 77.1579 60.3157 76.7861 59.6839C76.4144 59.0523 75.881 58.5444 75.2468 58.2196C75.0647 58.1226 74.8618 58.0762 74.6574 58.0853C74.4527 58.0944 74.254 58.1587 74.0802 58.2717C73.9065 58.3847 73.7635 58.5424 73.6644 58.7294C73.5655 58.916 73.5133 59.1257 73.5125 59.339C73.505 59.5681 73.5604 59.795 73.6725 59.9921C73.7848 60.1898 73.9496 60.3494 74.1473 60.4508Z" fill="#F0B420" stroke="#F0B420" stroke-width="0.2"/>
<path d="M39.513 51.7011L39.513 51.7011L46.3475 44.6797C46.3476 44.6797 46.3476 44.6796 46.3477 44.6796C46.458 44.5654 46.5893 44.4745 46.7343 44.4125C46.8793 44.3504 47.0349 44.3185 47.1922 44.3185C47.3494 44.3185 47.5051 44.3504 47.6501 44.4125C47.7951 44.4746 47.9265 44.5654 48.0368 44.6797L39.513 51.7011ZM39.513 51.7011L39.511 51.7032M39.513 51.7011L39.511 51.7032M39.511 51.7032C39.4978 51.7176 39.4821 51.7288 39.4648 51.7365C39.4476 51.7441 39.4291 51.748 39.4105 51.748C39.3919 51.748 39.3735 51.7441 39.3562 51.7365C39.339 51.7288 39.3232 51.7176 39.31 51.7032L39.3101 51.7032M39.511 51.7032L39.3101 51.7032M39.3101 51.7032L39.308 51.7011M39.3101 51.7032L39.308 51.7011M39.308 51.7011L36.6963 49.0179C36.6962 49.0179 36.6962 49.0178 36.6961 49.0178C36.4742 48.7882 36.172 48.6581 35.8559 48.657C35.5396 48.6558 35.2365 48.7838 35.013 49.0118C34.7895 49.2398 34.6638 49.549 34.6627 49.8714C34.6616 50.1938 34.7852 50.5039 35.007 50.7334L35.0074 50.7338M39.308 51.7011L35.0074 50.7338M35.0074 50.7338L37.6302 53.4171L35.0074 50.7338ZM48.0368 46.3953L48.0365 46.3955L41.1909 53.4171L48.0368 46.3953ZM48.0368 46.3953C48.2578 46.1668 48.3814 45.8584 48.3814 45.5375M48.0368 46.3953L48.3814 45.5375M38.4466 53.9777C38.1412 53.8477 37.8638 53.6572 37.6303 53.4173L38.4466 53.9777ZM38.4466 53.9777C38.7521 54.1077 39.0797 54.1747 39.4105 54.1747M38.4466 53.9777L39.4105 54.1747M39.4105 54.1747C39.7414 54.1747 40.0689 54.1077 40.3745 53.9777M39.4105 54.1747L40.3745 53.9777M40.3745 53.9777C40.6799 53.8476 40.9573 53.6571 41.1908 53.4172L40.3745 53.9777ZM48.3814 45.5375C48.3814 45.2165 48.2578 44.9081 48.0368 44.6797L48.3814 45.5375Z" fill="#F0B420" stroke="#F0B420" stroke-width="0.2"/>
</svg>
