<svg width="112" height="112" viewBox="0 0 112 112" fill="none" xmlns="http://www.w3.org/2000/svg">
<rect opacity="0.5" width="38.719" height="48.3987" rx="5" transform="matrix(1 0 0 -1 11.0625 84.3521)" fill="#202932"/>
<path d="M30.3038 24.9236C29.6334 25.594 29.2568 26.5032 29.2568 27.4512V72.7662M30.3038 24.9236L27.6634 76.9617C28.5995 75.7658 29.1089 74.2888 29.1068 72.7664H29.2568V72.7662M30.3038 24.9236C30.9741 24.2533 31.8833 23.8767 32.8314 23.8767H34.0729C35.0209 23.8767 35.9301 24.2533 36.6004 24.9236C37.2708 25.594 37.6474 26.5032 37.6474 27.4512V76.9617M30.3038 24.9236L37.6474 76.9617M29.2568 72.7662C29.2589 74.2832 28.7641 75.7561 27.8526 76.9617H37.6474M29.2568 72.7662L37.6474 76.9617M22.2782 79.7447H22.2785H22.8993H37.6474V90.7683V90.9183H37.7974H84.9748H85.1248V90.7683V26.2097C85.1248 24.8528 84.5858 23.5516 83.6264 22.5921C82.6669 21.6327 81.3656 21.0937 80.0088 21.0937H32.8314C31.1452 21.0937 29.5282 21.7635 28.3359 22.9557C27.1436 24.148 26.4738 25.7651 26.4738 27.4512V47.1654H15.4502H15.3002V47.3154L15.3002 72.7664L15.3002 72.7666C15.3035 74.6163 16.0398 76.3892 17.3477 77.6972C18.6556 79.0051 20.4286 79.7413 22.2782 79.7447ZM82.3418 26.2097V88.1353H40.4304V27.4512C40.4304 26.1741 40.0459 24.929 39.3304 23.8767H80.0088C80.6275 23.8767 81.221 24.1225 81.6585 24.56C82.096 24.9975 82.3418 25.5909 82.3418 26.2097ZM18.0832 49.9484H26.4738V72.7664C26.4738 73.879 26.0318 74.9461 25.245 75.7329C24.4583 76.5196 23.3912 76.9617 22.2785 76.9617C21.1658 76.9617 20.0988 76.5196 19.312 75.7329C18.5252 74.9461 18.0832 73.879 18.0832 72.7664V49.9484Z" fill="#F0B420" stroke="#F0B420" stroke-width="0.3"/>
<path d="M61.7993 52.2936C64.1208 52.2936 66.3901 51.6052 68.3203 50.3155C70.2505 49.0258 71.7549 47.1926 72.6433 45.0479C73.5317 42.9032 73.7641 40.5432 73.3113 38.2663C72.8584 35.9895 71.7405 33.8981 70.099 32.2566C68.4575 30.6151 66.366 29.4972 64.0892 29.0443C61.8124 28.5914 59.4524 28.8238 57.3076 29.7122C55.1629 30.6006 53.3298 32.105 52.04 34.0352C50.7503 35.9654 50.0619 38.2347 50.0619 40.5562C50.0619 43.6692 51.2985 46.6546 53.4997 48.8558C55.7009 51.057 58.6864 52.2936 61.7993 52.2936ZM61.7993 31.2256C63.6448 31.2256 65.4488 31.7728 66.9832 32.7981C68.5176 33.8233 69.7135 35.2806 70.4197 36.9855C71.1259 38.6905 71.3107 40.5665 70.9507 42.3765C70.5907 44.1865 69.702 45.849 68.3971 47.1539C67.0922 48.4589 65.4296 49.3475 63.6197 49.7075C61.8097 50.0676 59.9336 49.8828 58.2287 49.1766C56.5237 48.4704 55.0665 47.2744 54.0412 45.74C53.016 44.2056 52.4687 42.4016 52.4687 40.5562C52.4687 38.0816 53.4518 35.7083 55.2016 33.9584C56.9514 32.2086 59.3247 31.2256 61.7993 31.2256Z" fill="#F0B420" stroke="#F0B420" stroke-width="0.3"/>
<path d="M67.0185 36.7624L67.0741 36.6231C67.2056 36.6756 67.3253 36.7528 67.4263 36.8503C67.6286 37.0455 67.7433 37.3108 67.7433 37.5888C67.7433 37.8668 67.6285 38.1322 67.4262 38.3274L67.4258 38.3278L61.5581 43.945L67.0185 36.7624ZM67.0185 36.7624L67.0741 36.6231C66.9426 36.5706 66.8018 36.5436 66.6597 36.5436C66.5176 36.5436 66.3768 36.5706 66.2453 36.6231C66.1139 36.6756 65.9942 36.7527 65.8933 36.8501C65.8932 36.8502 65.8932 36.8503 65.8931 36.8503L60.0352 42.4673L60.0351 42.4672L60.0321 42.4703C60.0272 42.4752 60.021 42.4795 60.0137 42.4826C60.0063 42.4856 59.9981 42.4873 59.9897 42.4873C59.9813 42.4873 59.9731 42.4856 59.9658 42.4826C59.9584 42.4795 59.9522 42.4752 59.9474 42.4703L59.9474 42.4703L59.9443 42.4673L57.7058 40.3209C57.7057 40.3208 57.7057 40.3208 57.7056 40.3207C57.5027 40.1249 57.2283 40.0154 56.9431 40.0144C56.6577 40.0134 56.3825 40.1211 56.1781 40.3157C55.9736 40.5104 55.8569 40.7764 55.8559 41.0557C55.8548 41.3349 55.9696 41.6018 56.1727 41.7979L56.1733 41.7985L58.4213 43.945C58.4213 43.945 58.4213 43.9451 58.4214 43.9451C58.6279 44.1431 58.8727 44.2999 59.1417 44.4068C59.4107 44.5136 59.6989 44.5686 59.9897 44.5686C60.2806 44.5686 60.5687 44.5136 60.8377 44.4068C61.1067 44.2999 61.3516 44.1431 61.558 43.9451L67.0185 36.7624Z" fill="#F0B420" stroke="#F0B420" stroke-width="0.3"/>
<path d="M45.8329 71.1229H75.5257C75.9405 71.1229 76.3383 70.9581 76.6316 70.6648C76.9249 70.3715 77.0896 69.9737 77.0896 69.559C77.0896 69.1442 76.9249 68.7464 76.6316 68.4531C76.3383 68.1598 75.9405 67.995 75.5257 67.995H45.8329C45.4181 67.995 45.0203 68.1598 44.727 68.4531C44.4337 68.7464 44.2689 69.1442 44.2689 69.559C44.2689 69.9737 44.4337 70.3715 44.727 70.6648C45.0203 70.9581 45.4181 71.1229 45.8329 71.1229Z" fill="#F0B420" stroke="#F0B420" stroke-width="0.3"/>
<path d="M45.8329 62.8463H75.5257C75.9405 62.8463 76.3383 62.6815 76.6316 62.3882C76.9249 62.0949 77.0896 61.6971 77.0896 61.2824C77.0896 60.8676 76.9249 60.4698 76.6316 60.1765C76.3383 59.8832 75.9405 59.7184 75.5257 59.7184H45.8329C45.4181 59.7184 45.0203 59.8832 44.727 60.1765C44.4337 60.4698 44.2689 60.8676 44.2689 61.2824C44.2689 61.6971 44.4337 62.0949 44.727 62.3882C45.0203 62.6815 45.4181 62.8463 45.8329 62.8463Z" fill="#F0B420" stroke="#F0B420" stroke-width="0.3"/>
<path d="M75.043 79.0307H65.1454C64.7306 79.0307 64.3328 79.1954 64.0395 79.4887C63.7462 79.782 63.5814 80.1798 63.5814 80.5946C63.5814 81.0094 63.7462 81.4072 64.0395 81.7005C64.3328 81.9938 64.7306 82.1586 65.1454 82.1586H75.043C75.4578 82.1586 75.8556 81.9938 76.1489 81.7005C76.4422 81.4072 76.6069 81.0094 76.6069 80.5946C76.6069 80.1798 76.4422 79.782 76.1489 79.4887C75.8556 79.1954 75.4578 79.0307 75.043 79.0307Z" fill="#F0B420" stroke="#F0B420" stroke-width="0.3"/>
</svg>
