<svg width="112" height="112" viewBox="0 0 112 112" fill="none" xmlns="http://www.w3.org/2000/svg">
<circle cx="44.9388" cy="64.2977" r="32.4945" fill="#202832" fill-opacity="0.5"/>
<mask id="path-2-outside-1" maskUnits="userSpaceOnUse" x="22.3623" y="17.4753" width="71" height="76" fill="black">
<rect fill="white" x="22.3623" y="17.4753" width="71" height="76"/>
<path d="M26.2035 74.5913C26.0954 74.4178 25.9534 74.2678 25.786 74.1503C25.6186 74.0329 25.4292 73.9505 25.2292 73.9079C25.0292 73.8653 24.8226 73.8635 24.6219 73.9026C24.4212 73.9417 24.2304 74.0208 24.061 74.1353C23.8915 74.2498 23.7469 74.3973 23.6358 74.5689C23.5247 74.7406 23.4493 74.9329 23.4142 75.1343C23.379 75.3358 23.3849 75.5423 23.4314 75.7414C23.4779 75.9405 23.5641 76.1282 23.6848 76.2933C24.6079 77.6613 25.62 78.9671 26.7146 80.2023C26.9828 80.504 27.36 80.6868 27.763 80.7105C28.1661 80.7342 28.562 80.5968 28.8637 80.3285C29.1655 80.0602 29.3483 79.6831 29.372 79.2801C29.3956 78.877 29.2582 78.4811 28.99 78.1793C27.9846 77.0426 27.0539 75.8421 26.2035 74.5852V74.5913ZM77.0838 81.8008C71.2137 86.7167 63.877 89.5433 56.226 89.8368C48.575 90.1303 41.0433 87.8739 34.8139 83.4222C34.4857 83.1874 34.0777 83.0926 33.6797 83.1587C33.2816 83.2247 32.9261 83.4462 32.6913 83.7743C32.4566 84.1025 32.3618 84.5105 32.4278 84.9085C32.4938 85.3066 32.7153 85.6621 33.0434 85.8969C39.8212 90.7393 48.0154 93.1932 56.3392 92.8733C64.6629 92.5534 72.6446 89.4778 79.0307 84.1295C79.1909 84.0036 79.3242 83.8469 79.4226 83.6686C79.5211 83.4902 79.5827 83.294 79.6038 83.0914C79.625 82.8888 79.6052 82.684 79.5457 82.4892C79.4862 82.2944 79.3882 82.1135 79.2575 81.9573C79.1267 81.8011 78.9659 81.6727 78.7847 81.5798C78.6034 81.4869 78.4053 81.4314 78.2021 81.4165C77.999 81.4016 77.7949 81.4277 77.602 81.4932C77.4091 81.5587 77.2314 81.6623 77.0793 81.7978L77.0838 81.8008ZM91.5211 46.4423C91.4269 46.05 91.1808 45.7111 90.8368 45.5004C90.4928 45.2896 90.0791 45.2241 89.6868 45.3182C89.2945 45.4124 88.9557 45.6586 88.7449 46.0026C88.5341 46.3466 88.4686 46.7603 88.5628 47.1526C89.1989 49.8027 89.5195 52.5188 89.518 55.2443C89.518 55.6477 89.6782 56.0345 89.9635 56.3198C90.2487 56.605 90.6356 56.7653 91.039 56.7653C91.4424 56.7653 91.8292 56.605 92.1145 56.3198C92.3997 56.0345 92.56 55.6477 92.56 55.2443C92.561 52.2796 92.2123 49.3252 91.5211 46.4423ZM63.1941 18.5077C62.8031 18.4258 62.3956 18.501 62.0596 18.717C61.7236 18.9331 61.486 19.2727 61.3983 19.6624C61.3107 20.0522 61.3798 20.4608 61.5909 20.8C61.802 21.1391 62.138 21.3817 62.5264 21.4751C67.2261 22.5465 71.6515 24.5838 75.5213 27.4576C79.3912 30.3314 82.6209 33.9788 85.0052 38.168C85.1041 38.3416 85.2361 38.494 85.3939 38.6165C85.5517 38.7391 85.732 38.8293 85.9247 38.8821C86.1173 38.935 86.3185 38.9493 86.5167 38.9244C86.7149 38.8995 86.9063 38.8358 87.0798 38.7369C87.2534 38.638 87.4058 38.5059 87.5283 38.3482C87.6509 38.1904 87.7411 38.01 87.7939 37.8174C87.8467 37.6247 87.8611 37.4236 87.8362 37.2254C87.8113 37.0272 87.7476 36.8358 87.6487 36.6623C85.0544 32.1057 81.5406 28.1386 77.3306 25.0132C73.1206 21.8878 68.3065 19.6723 63.1941 18.5077ZM86.4836 55.2443C86.4884 62.5999 83.9234 69.7262 79.2319 75.3915C74.5405 81.0568 68.0173 84.9052 60.7896 86.2717C53.562 87.6381 46.0841 86.4367 39.6481 82.8751C33.2122 79.3136 28.2227 73.6155 25.5419 66.7658C25.4956 66.672 25.4594 66.5736 25.4339 66.4722C23.7842 62.1464 23.1064 57.5107 23.4486 52.8937C23.7908 48.2767 25.1446 43.7915 27.4139 39.7561C29.6833 35.7208 32.8126 32.2341 36.5801 29.5434C40.3476 26.8527 44.6609 25.0237 49.2142 24.1863C53.7675 23.3489 58.4493 23.5235 62.9276 24.6977C67.4059 25.8719 71.571 28.017 75.1276 30.9808C78.6842 33.9447 81.5452 37.6547 83.5077 41.8479C85.4703 46.041 86.4862 50.6146 86.4836 55.2443ZM48.2443 82.9613L53.0415 78.152C53.1485 78.0494 53.234 77.9265 53.2927 77.7904C53.3515 77.6543 53.3824 77.5078 53.3837 77.3595C53.3832 77.209 53.3529 77.0602 53.2944 76.9215C53.2359 76.7829 53.1504 76.6572 53.043 76.5519L36.595 60.0978C36.49 59.9914 36.3649 59.907 36.2271 59.8494C36.0892 59.7918 35.9413 59.7621 35.7919 59.7621C35.6425 59.7621 35.4945 59.7918 35.3567 59.8494C35.2188 59.907 35.0938 59.9914 34.9888 60.0978L28.6675 66.4342C30.4228 70.5203 33.1058 74.1412 36.5039 77.01C39.902 79.8787 43.9217 81.9163 48.2443 82.9613ZM43.5915 54.429C43.5899 56.6778 42.8137 58.8574 41.3937 60.6012L52.9228 72.1319C53.4377 71.364 54.0606 70.6745 54.7724 70.0846C55.6233 69.5762 56.5633 69.2344 57.5421 69.0777C59.5062 68.8089 61.3429 67.9521 62.8108 66.6198L64.0276 65.1824C66.0627 62.793 69.4682 58.7943 71.4486 56.2466C72.2084 55.2678 72.6692 54.0903 72.7755 52.8558C72.8818 51.6213 72.6291 50.3823 72.0478 49.288L66.4536 38.7673C66.2742 38.4302 66.0186 38.1396 65.7072 37.9186C65.3957 37.6976 65.037 37.5523 64.6596 37.4942C64.2821 37.4362 63.8963 37.467 63.5329 37.5843C63.1694 37.7015 62.8383 37.9019 62.5659 38.1696L50.3782 50.0333C50.1801 50.2256 49.9334 50.3604 49.6645 50.4231C49.3957 50.4859 49.1148 50.4743 48.8521 50.3896C48.5893 50.3049 48.3545 50.1502 48.173 49.9422C47.9914 49.7342 47.8699 49.4807 47.8214 49.2089L46.4251 41.3348C46.3181 40.7028 45.966 40.1386 45.4455 39.7647C44.9249 39.3908 44.2778 39.2373 43.6448 39.3377L42.3398 39.5354C42.7398 43.1037 43.5915 51.2334 43.5915 54.429ZM83.431 55.2443C83.4401 51.1492 82.5678 47.1002 80.8731 43.3723C79.1785 39.6444 76.7013 36.3249 73.6099 33.6393C70.5184 30.9538 66.8851 28.9651 62.9569 27.8084C59.0286 26.6518 54.8974 26.3542 50.8439 26.9359C46.7904 27.5176 42.9096 28.9649 39.4652 31.1797C36.0207 33.3944 33.0933 36.3245 30.8819 39.7711C28.6704 43.2176 27.2267 47.0998 26.6488 51.1538C26.071 55.2079 26.3725 59.3388 27.5329 63.266L32.8381 57.9501C33.6241 57.174 34.6842 56.7387 35.7888 56.7387C36.8934 56.7387 37.9536 57.174 38.7396 57.9501L39.2263 58.4368C40.0875 57.2794 40.5516 55.8747 40.5495 54.432C40.5495 51.238 39.5928 42.3325 39.2993 39.6784C39.2174 38.948 39.4226 38.2145 39.8716 37.6326C40.3207 37.0508 40.9782 36.6663 41.7055 36.5604L43.1946 36.3352C44.6134 36.1123 46.0631 36.4567 47.23 37.2941C48.397 38.1315 49.1875 39.3944 49.4306 40.81L50.325 45.8567L60.4502 35.9991C61.0602 35.4007 61.8014 34.9528 62.6148 34.691C63.4282 34.4292 64.2915 34.3608 65.136 34.4912C65.9805 34.6216 66.783 34.9472 67.4796 35.4421C68.1762 35.937 68.7477 36.5876 69.1488 37.3421L74.7446 47.8629C75.6012 49.4761 75.9734 51.3025 75.8163 53.1224C75.6593 54.9422 74.9797 56.6778 73.8593 58.1205C71.8395 60.7183 68.4066 64.749 66.3548 67.1582L65.138 68.5864C63.2738 70.4408 60.8653 71.6501 58.2646 72.0376C57.6934 72.1529 57.1336 72.3183 56.5915 72.5319C56.017 73.056 55.5202 73.6593 55.1161 74.3236L55.1982 74.4058C55.5893 74.7919 55.8998 75.2518 56.1118 75.7588C56.3237 76.2659 56.4328 76.81 56.4328 77.3595C56.4328 77.9091 56.3237 78.4532 56.1118 78.9602C55.8998 79.4673 55.5893 79.9272 55.1982 80.3133L51.8992 83.6199C52.8996 83.7265 53.9048 83.7808 54.9108 83.7827C62.476 83.773 69.7284 80.763 75.0771 75.4128C80.4258 70.0627 83.434 62.8095 83.4416 55.2443H83.431Z"/>
</mask>
<path d="M26.2035 74.5913C26.0954 74.4178 25.9534 74.2678 25.786 74.1503C25.6186 74.0329 25.4292 73.9505 25.2292 73.9079C25.0292 73.8653 24.8226 73.8635 24.6219 73.9026C24.4212 73.9417 24.2304 74.0208 24.061 74.1353C23.8915 74.2498 23.7469 74.3973 23.6358 74.5689C23.5247 74.7406 23.4493 74.9329 23.4142 75.1343C23.379 75.3358 23.3849 75.5423 23.4314 75.7414C23.4779 75.9405 23.5641 76.1282 23.6848 76.2933C24.6079 77.6613 25.62 78.9671 26.7146 80.2023C26.9828 80.504 27.36 80.6868 27.763 80.7105C28.1661 80.7342 28.562 80.5968 28.8637 80.3285C29.1655 80.0602 29.3483 79.6831 29.372 79.2801C29.3956 78.877 29.2582 78.4811 28.99 78.1793C27.9846 77.0426 27.0539 75.8421 26.2035 74.5852V74.5913ZM77.0838 81.8008C71.2137 86.7167 63.877 89.5433 56.226 89.8368C48.575 90.1303 41.0433 87.8739 34.8139 83.4222C34.4857 83.1874 34.0777 83.0926 33.6797 83.1587C33.2816 83.2247 32.9261 83.4462 32.6913 83.7743C32.4566 84.1025 32.3618 84.5105 32.4278 84.9085C32.4938 85.3066 32.7153 85.6621 33.0434 85.8969C39.8212 90.7393 48.0154 93.1932 56.3392 92.8733C64.6629 92.5534 72.6446 89.4778 79.0307 84.1295C79.1909 84.0036 79.3242 83.8469 79.4226 83.6686C79.5211 83.4902 79.5827 83.294 79.6038 83.0914C79.625 82.8888 79.6052 82.684 79.5457 82.4892C79.4862 82.2944 79.3882 82.1135 79.2575 81.9573C79.1267 81.8011 78.9659 81.6727 78.7847 81.5798C78.6034 81.4869 78.4053 81.4314 78.2021 81.4165C77.999 81.4016 77.7949 81.4277 77.602 81.4932C77.4091 81.5587 77.2314 81.6623 77.0793 81.7978L77.0838 81.8008ZM91.5211 46.4423C91.4269 46.05 91.1808 45.7111 90.8368 45.5004C90.4928 45.2896 90.0791 45.2241 89.6868 45.3182C89.2945 45.4124 88.9557 45.6586 88.7449 46.0026C88.5341 46.3466 88.4686 46.7603 88.5628 47.1526C89.1989 49.8027 89.5195 52.5188 89.518 55.2443C89.518 55.6477 89.6782 56.0345 89.9635 56.3198C90.2487 56.605 90.6356 56.7653 91.039 56.7653C91.4424 56.7653 91.8292 56.605 92.1145 56.3198C92.3997 56.0345 92.56 55.6477 92.56 55.2443C92.561 52.2796 92.2123 49.3252 91.5211 46.4423ZM63.1941 18.5077C62.8031 18.4258 62.3956 18.501 62.0596 18.717C61.7236 18.9331 61.486 19.2727 61.3983 19.6624C61.3107 20.0522 61.3798 20.4608 61.5909 20.8C61.802 21.1391 62.138 21.3817 62.5264 21.4751C67.2261 22.5465 71.6515 24.5838 75.5213 27.4576C79.3912 30.3314 82.6209 33.9788 85.0052 38.168C85.1041 38.3416 85.2361 38.494 85.3939 38.6165C85.5517 38.7391 85.732 38.8293 85.9247 38.8821C86.1173 38.935 86.3185 38.9493 86.5167 38.9244C86.7149 38.8995 86.9063 38.8358 87.0798 38.7369C87.2534 38.638 87.4058 38.5059 87.5283 38.3482C87.6509 38.1904 87.7411 38.01 87.7939 37.8174C87.8467 37.6247 87.8611 37.4236 87.8362 37.2254C87.8113 37.0272 87.7476 36.8358 87.6487 36.6623C85.0544 32.1057 81.5406 28.1386 77.3306 25.0132C73.1206 21.8878 68.3065 19.6723 63.1941 18.5077ZM86.4836 55.2443C86.4884 62.5999 83.9234 69.7262 79.2319 75.3915C74.5405 81.0568 68.0173 84.9052 60.7896 86.2717C53.562 87.6381 46.0841 86.4367 39.6481 82.8751C33.2122 79.3136 28.2227 73.6155 25.5419 66.7658C25.4956 66.672 25.4594 66.5736 25.4339 66.4722C23.7842 62.1464 23.1064 57.5107 23.4486 52.8937C23.7908 48.2767 25.1446 43.7915 27.4139 39.7561C29.6833 35.7208 32.8126 32.2341 36.5801 29.5434C40.3476 26.8527 44.6609 25.0237 49.2142 24.1863C53.7675 23.3489 58.4493 23.5235 62.9276 24.6977C67.4059 25.8719 71.571 28.017 75.1276 30.9808C78.6842 33.9447 81.5452 37.6547 83.5077 41.8479C85.4703 46.041 86.4862 50.6146 86.4836 55.2443ZM48.2443 82.9613L53.0415 78.152C53.1485 78.0494 53.234 77.9265 53.2927 77.7904C53.3515 77.6543 53.3824 77.5078 53.3837 77.3595C53.3832 77.209 53.3529 77.0602 53.2944 76.9215C53.2359 76.7829 53.1504 76.6572 53.043 76.5519L36.595 60.0978C36.49 59.9914 36.3649 59.907 36.2271 59.8494C36.0892 59.7918 35.9413 59.7621 35.7919 59.7621C35.6425 59.7621 35.4945 59.7918 35.3567 59.8494C35.2188 59.907 35.0938 59.9914 34.9888 60.0978L28.6675 66.4342C30.4228 70.5203 33.1058 74.1412 36.5039 77.01C39.902 79.8787 43.9217 81.9163 48.2443 82.9613ZM43.5915 54.429C43.5899 56.6778 42.8137 58.8574 41.3937 60.6012L52.9228 72.1319C53.4377 71.364 54.0606 70.6745 54.7724 70.0846C55.6233 69.5762 56.5633 69.2344 57.5421 69.0777C59.5062 68.8089 61.3429 67.9521 62.8108 66.6198L64.0276 65.1824C66.0627 62.793 69.4682 58.7943 71.4486 56.2466C72.2084 55.2678 72.6692 54.0903 72.7755 52.8558C72.8818 51.6213 72.6291 50.3823 72.0478 49.288L66.4536 38.7673C66.2742 38.4302 66.0186 38.1396 65.7072 37.9186C65.3957 37.6976 65.037 37.5523 64.6596 37.4942C64.2821 37.4362 63.8963 37.467 63.5329 37.5843C63.1694 37.7015 62.8383 37.9019 62.5659 38.1696L50.3782 50.0333C50.1801 50.2256 49.9334 50.3604 49.6645 50.4231C49.3957 50.4859 49.1148 50.4743 48.8521 50.3896C48.5893 50.3049 48.3545 50.1502 48.173 49.9422C47.9914 49.7342 47.8699 49.4807 47.8214 49.2089L46.4251 41.3348C46.3181 40.7028 45.966 40.1386 45.4455 39.7647C44.9249 39.3908 44.2778 39.2373 43.6448 39.3377L42.3398 39.5354C42.7398 43.1037 43.5915 51.2334 43.5915 54.429ZM83.431 55.2443C83.4401 51.1492 82.5678 47.1002 80.8731 43.3723C79.1785 39.6444 76.7013 36.3249 73.6099 33.6393C70.5184 30.9538 66.8851 28.9651 62.9569 27.8084C59.0286 26.6518 54.8974 26.3542 50.8439 26.9359C46.7904 27.5176 42.9096 28.9649 39.4652 31.1797C36.0207 33.3944 33.0933 36.3245 30.8819 39.7711C28.6704 43.2176 27.2267 47.0998 26.6488 51.1538C26.071 55.2079 26.3725 59.3388 27.5329 63.266L32.8381 57.9501C33.6241 57.174 34.6842 56.7387 35.7888 56.7387C36.8934 56.7387 37.9536 57.174 38.7396 57.9501L39.2263 58.4368C40.0875 57.2794 40.5516 55.8747 40.5495 54.432C40.5495 51.238 39.5928 42.3325 39.2993 39.6784C39.2174 38.948 39.4226 38.2145 39.8716 37.6326C40.3207 37.0508 40.9782 36.6663 41.7055 36.5604L43.1946 36.3352C44.6134 36.1123 46.0631 36.4567 47.23 37.2941C48.397 38.1315 49.1875 39.3944 49.4306 40.81L50.325 45.8567L60.4502 35.9991C61.0602 35.4007 61.8014 34.9528 62.6148 34.691C63.4282 34.4292 64.2915 34.3608 65.136 34.4912C65.9805 34.6216 66.783 34.9472 67.4796 35.4421C68.1762 35.937 68.7477 36.5876 69.1488 37.3421L74.7446 47.8629C75.6012 49.4761 75.9734 51.3025 75.8163 53.1224C75.6593 54.9422 74.9797 56.6778 73.8593 58.1205C71.8395 60.7183 68.4066 64.749 66.3548 67.1582L65.138 68.5864C63.2738 70.4408 60.8653 71.6501 58.2646 72.0376C57.6934 72.1529 57.1336 72.3183 56.5915 72.5319C56.017 73.056 55.5202 73.6593 55.1161 74.3236L55.1982 74.4058C55.5893 74.7919 55.8998 75.2518 56.1118 75.7588C56.3237 76.2659 56.4328 76.81 56.4328 77.3595C56.4328 77.9091 56.3237 78.4532 56.1118 78.9602C55.8998 79.4673 55.5893 79.9272 55.1982 80.3133L51.8992 83.6199C52.8996 83.7265 53.9048 83.7808 54.9108 83.7827C62.476 83.773 69.7284 80.763 75.0771 75.4128C80.4258 70.0627 83.434 62.8095 83.4416 55.2443H83.431Z" fill="#F0B420"/>
<path d="M26.2035 74.5913C26.0954 74.4178 25.9534 74.2678 25.786 74.1503C25.6186 74.0329 25.4292 73.9505 25.2292 73.9079C25.0292 73.8653 24.8226 73.8635 24.6219 73.9026C24.4212 73.9417 24.2304 74.0208 24.061 74.1353C23.8915 74.2498 23.7469 74.3973 23.6358 74.5689C23.5247 74.7406 23.4493 74.9329 23.4142 75.1343C23.379 75.3358 23.3849 75.5423 23.4314 75.7414C23.4779 75.9405 23.5641 76.1282 23.6848 76.2933C24.6079 77.6613 25.62 78.9671 26.7146 80.2023C26.9828 80.504 27.36 80.6868 27.763 80.7105C28.1661 80.7342 28.562 80.5968 28.8637 80.3285C29.1655 80.0602 29.3483 79.6831 29.372 79.2801C29.3956 78.877 29.2582 78.4811 28.99 78.1793C27.9846 77.0426 27.0539 75.8421 26.2035 74.5852V74.5913ZM77.0838 81.8008C71.2137 86.7167 63.877 89.5433 56.226 89.8368C48.575 90.1303 41.0433 87.8739 34.8139 83.4222C34.4857 83.1874 34.0777 83.0926 33.6797 83.1587C33.2816 83.2247 32.9261 83.4462 32.6913 83.7743C32.4566 84.1025 32.3618 84.5105 32.4278 84.9085C32.4938 85.3066 32.7153 85.6621 33.0434 85.8969C39.8212 90.7393 48.0154 93.1932 56.3392 92.8733C64.6629 92.5534 72.6446 89.4778 79.0307 84.1295C79.1909 84.0036 79.3242 83.8469 79.4226 83.6686C79.5211 83.4902 79.5827 83.294 79.6038 83.0914C79.625 82.8888 79.6052 82.684 79.5457 82.4892C79.4862 82.2944 79.3882 82.1135 79.2575 81.9573C79.1267 81.8011 78.9659 81.6727 78.7847 81.5798C78.6034 81.4869 78.4053 81.4314 78.2021 81.4165C77.999 81.4016 77.7949 81.4277 77.602 81.4932C77.4091 81.5587 77.2314 81.6623 77.0793 81.7978L77.0838 81.8008ZM91.5211 46.4423C91.4269 46.05 91.1808 45.7111 90.8368 45.5004C90.4928 45.2896 90.0791 45.2241 89.6868 45.3182C89.2945 45.4124 88.9557 45.6586 88.7449 46.0026C88.5341 46.3466 88.4686 46.7603 88.5628 47.1526C89.1989 49.8027 89.5195 52.5188 89.518 55.2443C89.518 55.6477 89.6782 56.0345 89.9635 56.3198C90.2487 56.605 90.6356 56.7653 91.039 56.7653C91.4424 56.7653 91.8292 56.605 92.1145 56.3198C92.3997 56.0345 92.56 55.6477 92.56 55.2443C92.561 52.2796 92.2123 49.3252 91.5211 46.4423ZM63.1941 18.5077C62.8031 18.4258 62.3956 18.501 62.0596 18.717C61.7236 18.9331 61.486 19.2727 61.3983 19.6624C61.3107 20.0522 61.3798 20.4608 61.5909 20.8C61.802 21.1391 62.138 21.3817 62.5264 21.4751C67.2261 22.5465 71.6515 24.5838 75.5213 27.4576C79.3912 30.3314 82.6209 33.9788 85.0052 38.168C85.1041 38.3416 85.2361 38.494 85.3939 38.6165C85.5517 38.7391 85.732 38.8293 85.9247 38.8821C86.1173 38.935 86.3185 38.9493 86.5167 38.9244C86.7149 38.8995 86.9063 38.8358 87.0798 38.7369C87.2534 38.638 87.4058 38.5059 87.5283 38.3482C87.6509 38.1904 87.7411 38.01 87.7939 37.8174C87.8467 37.6247 87.8611 37.4236 87.8362 37.2254C87.8113 37.0272 87.7476 36.8358 87.6487 36.6623C85.0544 32.1057 81.5406 28.1386 77.3306 25.0132C73.1206 21.8878 68.3065 19.6723 63.1941 18.5077ZM86.4836 55.2443C86.4884 62.5999 83.9234 69.7262 79.2319 75.3915C74.5405 81.0568 68.0173 84.9052 60.7896 86.2717C53.562 87.6381 46.0841 86.4367 39.6481 82.8751C33.2122 79.3136 28.2227 73.6155 25.5419 66.7658C25.4956 66.672 25.4594 66.5736 25.4339 66.4722C23.7842 62.1464 23.1064 57.5107 23.4486 52.8937C23.7908 48.2767 25.1446 43.7915 27.4139 39.7561C29.6833 35.7208 32.8126 32.2341 36.5801 29.5434C40.3476 26.8527 44.6609 25.0237 49.2142 24.1863C53.7675 23.3489 58.4493 23.5235 62.9276 24.6977C67.4059 25.8719 71.571 28.017 75.1276 30.9808C78.6842 33.9447 81.5452 37.6547 83.5077 41.8479C85.4703 46.041 86.4862 50.6146 86.4836 55.2443ZM48.2443 82.9613L53.0415 78.152C53.1485 78.0494 53.234 77.9265 53.2927 77.7904C53.3515 77.6543 53.3824 77.5078 53.3837 77.3595C53.3832 77.209 53.3529 77.0602 53.2944 76.9215C53.2359 76.7829 53.1504 76.6572 53.043 76.5519L36.595 60.0978C36.49 59.9914 36.3649 59.907 36.2271 59.8494C36.0892 59.7918 35.9413 59.7621 35.7919 59.7621C35.6425 59.7621 35.4945 59.7918 35.3567 59.8494C35.2188 59.907 35.0938 59.9914 34.9888 60.0978L28.6675 66.4342C30.4228 70.5203 33.1058 74.1412 36.5039 77.01C39.902 79.8787 43.9217 81.9163 48.2443 82.9613ZM43.5915 54.429C43.5899 56.6778 42.8137 58.8574 41.3937 60.6012L52.9228 72.1319C53.4377 71.364 54.0606 70.6745 54.7724 70.0846C55.6233 69.5762 56.5633 69.2344 57.5421 69.0777C59.5062 68.8089 61.3429 67.9521 62.8108 66.6198L64.0276 65.1824C66.0627 62.793 69.4682 58.7943 71.4486 56.2466C72.2084 55.2678 72.6692 54.0903 72.7755 52.8558C72.8818 51.6213 72.6291 50.3823 72.0478 49.288L66.4536 38.7673C66.2742 38.4302 66.0186 38.1396 65.7072 37.9186C65.3957 37.6976 65.037 37.5523 64.6596 37.4942C64.2821 37.4362 63.8963 37.467 63.5329 37.5843C63.1694 37.7015 62.8383 37.9019 62.5659 38.1696L50.3782 50.0333C50.1801 50.2256 49.9334 50.3604 49.6645 50.4231C49.3957 50.4859 49.1148 50.4743 48.8521 50.3896C48.5893 50.3049 48.3545 50.1502 48.173 49.9422C47.9914 49.7342 47.8699 49.4807 47.8214 49.2089L46.4251 41.3348C46.3181 40.7028 45.966 40.1386 45.4455 39.7647C44.9249 39.3908 44.2778 39.2373 43.6448 39.3377L42.3398 39.5354C42.7398 43.1037 43.5915 51.2334 43.5915 54.429ZM83.431 55.2443C83.4401 51.1492 82.5678 47.1002 80.8731 43.3723C79.1785 39.6444 76.7013 36.3249 73.6099 33.6393C70.5184 30.9538 66.8851 28.9651 62.9569 27.8084C59.0286 26.6518 54.8974 26.3542 50.8439 26.9359C46.7904 27.5176 42.9096 28.9649 39.4652 31.1797C36.0207 33.3944 33.0933 36.3245 30.8819 39.7711C28.6704 43.2176 27.2267 47.0998 26.6488 51.1538C26.071 55.2079 26.3725 59.3388 27.5329 63.266L32.8381 57.9501C33.6241 57.174 34.6842 56.7387 35.7888 56.7387C36.8934 56.7387 37.9536 57.174 38.7396 57.9501L39.2263 58.4368C40.0875 57.2794 40.5516 55.8747 40.5495 54.432C40.5495 51.238 39.5928 42.3325 39.2993 39.6784C39.2174 38.948 39.4226 38.2145 39.8716 37.6326C40.3207 37.0508 40.9782 36.6663 41.7055 36.5604L43.1946 36.3352C44.6134 36.1123 46.0631 36.4567 47.23 37.2941C48.397 38.1315 49.1875 39.3944 49.4306 40.81L50.325 45.8567L60.4502 35.9991C61.0602 35.4007 61.8014 34.9528 62.6148 34.691C63.4282 34.4292 64.2915 34.3608 65.136 34.4912C65.9805 34.6216 66.783 34.9472 67.4796 35.4421C68.1762 35.937 68.7477 36.5876 69.1488 37.3421L74.7446 47.8629C75.6012 49.4761 75.9734 51.3025 75.8163 53.1224C75.6593 54.9422 74.9797 56.6778 73.8593 58.1205C71.8395 60.7183 68.4066 64.749 66.3548 67.1582L65.138 68.5864C63.2738 70.4408 60.8653 71.6501 58.2646 72.0376C57.6934 72.1529 57.1336 72.3183 56.5915 72.5319C56.017 73.056 55.5202 73.6593 55.1161 74.3236L55.1982 74.4058C55.5893 74.7919 55.8998 75.2518 56.1118 75.7588C56.3237 76.2659 56.4328 76.81 56.4328 77.3595C56.4328 77.9091 56.3237 78.4532 56.1118 78.9602C55.8998 79.4673 55.5893 79.9272 55.1982 80.3133L51.8992 83.6199C52.8996 83.7265 53.9048 83.7808 54.9108 83.7827C62.476 83.773 69.7284 80.763 75.0771 75.4128C80.4258 70.0627 83.434 62.8095 83.4416 55.2443H83.431Z" stroke="#F0B420" stroke-width="0.4" mask="url(#path-2-outside-1)"/>
</svg>
