<svg width="63" height="50" viewBox="0 0 63 50" fill="none" xmlns="http://www.w3.org/2000/svg">
<mask id="path-1-outside-1" maskUnits="userSpaceOnUse" x="-1" y="-1.04785" width="65" height="52" fill="black">
<rect fill="white" x="-1" y="-1.04785" width="65" height="52"/>
<path d="M14.8527 31.6308C14.7792 31.6291 14.7062 31.6424 14.638 31.6696C14.5698 31.6969 14.5079 31.7377 14.4559 31.7895C14.4039 31.8414 14.3631 31.9031 14.3357 31.9712C14.3084 32.0392 14.2951 32.112 14.2968 32.1853V34.355C14.285 34.4338 14.2904 34.5143 14.3127 34.5908C14.3349 34.6674 14.3734 34.7383 14.4256 34.7986C14.4778 34.859 14.5424 34.9074 14.6151 34.9406C14.6877 34.9738 14.7667 34.991 14.8466 34.991C14.9265 34.991 15.0055 34.9738 15.0782 34.9406C15.1508 34.9074 15.2154 34.859 15.2676 34.7986C15.3198 34.7383 15.3583 34.6674 15.3806 34.5908C15.4028 34.5143 15.4083 34.4338 15.3965 34.355V32.1853C15.3981 32.113 15.3852 32.0412 15.3586 31.974C15.332 31.9068 15.2922 31.8456 15.2416 31.7939C15.1909 31.7423 15.1304 31.7012 15.0636 31.6732C14.9968 31.6452 14.9251 31.6308 14.8527 31.6308ZM14.8527 24.8564C14.7797 24.8564 14.7074 24.8708 14.6399 24.8987C14.5725 24.9265 14.5112 24.9674 14.4596 25.0188C14.408 25.0703 14.367 25.1315 14.3391 25.1987C14.3111 25.266 14.2968 25.3381 14.2968 25.4109V30.0035C14.3164 30.135 14.3827 30.2551 14.4836 30.3419C14.5845 30.4287 14.7134 30.4765 14.8466 30.4765C14.9799 30.4765 15.1087 30.4287 15.2097 30.3419C15.3106 30.2551 15.3769 30.135 15.3965 30.0035V25.4109C15.3965 25.2659 15.3396 25.1267 15.238 25.0231C15.1363 24.9194 14.998 24.8596 14.8527 24.8564ZM14.8527 35.9943C14.7802 35.9927 14.7082 36.0056 14.6408 36.0321C14.5735 36.0587 14.5121 36.0984 14.4603 36.1489C14.4085 36.1994 14.3674 36.2598 14.3393 36.3264C14.3112 36.393 14.2967 36.4645 14.2968 36.5368V37.5734C14.3164 37.7049 14.3827 37.825 14.4836 37.9118C14.5845 37.9986 14.7134 38.0464 14.8466 38.0464C14.9799 38.0464 15.1087 37.9986 15.2097 37.9118C15.3106 37.825 15.3769 37.7049 15.3965 37.5734V36.5368C15.3965 36.3929 15.3392 36.2549 15.2372 36.1532C15.1352 36.0515 14.9969 35.9943 14.8527 35.9943ZM41.0896 28.0628H40.8841V23.1086C40.8847 22.6517 40.7349 22.2073 40.4576 21.8436C40.1803 21.4799 39.7909 21.2171 39.3493 21.0956V17.166C39.3493 16.6129 39.129 16.0825 38.737 15.6914C38.3449 15.3004 37.8131 15.0806 37.2586 15.0806L28.9077 15.1771L26.1281 12.7663C25.7991 12.4841 25.4126 12.2765 24.9953 12.1578C24.578 12.0392 24.1398 12.0124 23.7111 12.0792C23.3211 12.132 22.9461 12.2641 22.6094 12.4673C22.2726 12.6705 21.9812 12.9405 21.7533 13.2605L21.6687 13.3931L20.4602 15.5387L18.0432 14.6708H17.9706C17.5686 14.5911 17.1545 14.5937 16.7535 14.6787C16.3525 14.7637 15.973 14.9291 15.6382 15.165L12.1456 15.0686C11.6859 15.067 11.2305 15.1559 10.8053 15.3303C10.3802 15.5047 9.99373 15.761 9.66813 16.0846C9.34253 16.4083 9.08418 16.7929 8.90791 17.2163C8.73163 17.6397 8.64089 18.0937 8.6409 18.5522V38.8994C8.64407 39.4515 8.86536 39.98 9.25676 40.3704C9.64817 40.7608 10.1781 40.9815 10.7316 40.9847H38.8055C39.36 40.9847 39.8918 40.765 40.2839 40.3739C40.6759 39.9828 40.8962 39.4524 40.8962 38.8994V34.0778H41.0896C41.5415 34.0778 41.9749 33.8987 42.2945 33.58C42.6141 33.2612 42.7936 32.8289 42.7936 32.3781V29.7624C42.7904 29.3126 42.6099 28.8822 42.291 28.5641C41.9721 28.246 41.5405 28.066 41.0896 28.0628ZM37.2465 16.1776C37.5093 16.1776 37.7614 16.2817 37.9472 16.4671C38.1331 16.6524 38.2375 16.9038 38.2375 17.166V21.0112H35.4579L30.1162 16.2619L37.2465 16.1776ZM22.6355 13.9837C22.6332 13.9557 22.6332 13.9274 22.6355 13.8994C22.7697 13.6895 22.9466 13.5103 23.1548 13.3732C23.3631 13.2361 23.5979 13.1443 23.844 13.1038C24.1066 13.0672 24.374 13.087 24.6283 13.1618C24.8825 13.2367 25.1178 13.3648 25.3184 13.5377L28.2189 16.1173L32.6058 20.0228L21.3424 15.9124L22.6355 13.9837ZM15.4932 17.2624C15.5955 16.7726 15.8847 16.3417 16.2996 16.0606C16.7145 15.7794 17.2227 15.6701 17.7169 15.7557L20.4964 16.7682L32.1224 20.9992H14.7439L15.4932 17.2624ZM12.0852 16.1776L14.6472 16.2499C14.519 16.5013 14.4255 16.769 14.3693 17.0455L13.5716 20.9509H12.0852C11.7678 20.9565 11.4524 20.8996 11.157 20.7836C10.8616 20.6675 10.5921 20.4946 10.3637 20.2747C10.1353 20.0547 9.95261 19.7921 9.82601 19.5017C9.69941 19.2113 9.63139 18.8989 9.62584 18.5823C9.62028 18.2657 9.6773 17.9512 9.79364 17.6566C9.90997 17.3619 10.0833 17.0931 10.3039 16.8653C10.7492 16.4053 11.3595 16.1405 12.0006 16.1293L12.0852 16.1776ZM39.7965 38.8994C39.7965 39.1615 39.6921 39.4129 39.5062 39.5983C39.3204 39.7836 39.0683 39.8878 38.8055 39.8878H10.7316C10.4688 39.8878 10.2167 39.7836 10.0309 39.5983C9.84505 39.4129 9.74065 39.1615 9.74065 38.8994V21.0956C10.3974 21.7037 11.2615 22.0399 12.1577 22.0358L35.2887 22.1081H38.8297C39.0925 22.1081 39.3445 22.2123 39.5304 22.3976C39.7162 22.583 39.8206 22.8344 39.8206 23.0966V28.0508H29.1132C28.6643 28.0571 28.2358 28.2385 27.9195 28.5562C27.6032 28.874 27.4244 29.3026 27.4213 29.7504V32.342C27.4212 32.7907 27.5991 33.2212 27.9161 33.5395C28.233 33.8579 28.6633 34.0384 29.1132 34.0416H39.7965V38.8994ZM41.7059 32.354C41.7059 32.5139 41.6423 32.6672 41.5289 32.7802C41.4156 32.8932 41.2619 32.9567 41.1017 32.9567H29.1253C28.965 32.9567 28.8113 32.8932 28.698 32.7802C28.5847 32.6672 28.521 32.5139 28.521 32.354V29.7624C28.521 29.6838 28.5367 29.606 28.5672 29.5336C28.5977 29.4611 28.6424 29.3955 28.6987 29.3405C28.755 29.2854 28.8217 29.2422 28.8949 29.2132C28.9682 29.1843 29.0465 29.1702 29.1253 29.1718H41.0896C41.1684 29.1702 41.2467 29.1843 41.3199 29.2132C41.3932 29.2422 41.4599 29.2854 41.5161 29.3405C41.5724 29.3955 41.6171 29.4611 41.6476 29.5336C41.6782 29.606 41.6939 29.6838 41.6938 29.7624L41.7059 32.354ZM30.6842 29.666C30.4147 29.6684 30.1518 29.7503 29.9289 29.9014C29.7059 30.0525 29.5327 30.266 29.4312 30.5151C29.3297 30.7642 29.3044 31.0377 29.3584 31.3011C29.4125 31.5646 29.5435 31.8061 29.735 31.9954C29.9264 32.1847 30.1698 32.3133 30.4343 32.3648C30.6989 32.4164 30.9729 32.3888 31.2217 32.2853C31.4705 32.1819 31.6831 32.0073 31.8326 31.7836C31.9822 31.5598 32.0619 31.297 32.062 31.0281C32.0588 30.6657 31.9122 30.3193 31.6542 30.0642C31.3962 29.8091 31.0476 29.666 30.6842 29.666ZM30.6842 31.2933C30.6322 31.2909 30.5821 31.2734 30.54 31.2428C30.4979 31.2123 30.4657 31.1701 30.4474 31.1215C30.4291 31.0729 30.4255 31.02 30.4371 30.9694C30.4487 30.9187 30.4749 30.8726 30.5126 30.8367C30.5502 30.8008 30.5975 30.7768 30.6488 30.7675C30.7 30.7582 30.7528 30.7641 30.8007 30.7845C30.8486 30.8048 30.8894 30.8388 30.9181 30.8821C30.9468 30.9254 30.9622 30.9762 30.9622 31.0281C30.9622 31.064 30.955 31.0995 30.9409 31.1324C30.9268 31.1654 30.9061 31.1952 30.8801 31.22C30.8541 31.2448 30.8234 31.2641 30.7897 31.2767C30.756 31.2893 30.7202 31.2949 30.6842 31.2933ZM54.3833 24.4948C54.2278 24.4907 54.0802 24.4258 53.9724 24.314C53.9202 24.2596 53.8794 24.1953 53.8524 24.1249C53.8255 24.0545 53.8128 23.9795 53.8153 23.9042V23.6872C53.8153 22.0117 53.4165 13.6824 46.3104 13.6824C46.228 13.6943 46.144 13.6885 46.0641 13.6652C45.9842 13.6419 45.9103 13.6017 45.8474 13.5474C45.7844 13.4931 45.7339 13.4259 45.6993 13.3504C45.6647 13.2749 45.6468 13.1928 45.6468 13.1098C45.6468 13.0268 45.6647 12.9447 45.6993 12.8692C45.7339 12.7937 45.7844 12.7265 45.8474 12.6722C45.9103 12.6179 45.9842 12.5778 46.0641 12.5545C46.144 12.5312 46.228 12.5253 46.3104 12.5373C53.4165 12.5373 53.8153 4.20794 53.8153 2.53243V2.31546C53.8128 2.24016 53.8255 2.16513 53.8524 2.09476C53.8794 2.02438 53.9202 1.96009 53.9724 1.90562C54.0833 1.79595 54.2331 1.73441 54.3893 1.73441C54.5455 1.73441 54.6953 1.79595 54.8062 1.90562C54.9074 2.01831 54.9633 2.16422 54.9634 2.31546V2.41189V2.53243C54.9634 4.20794 55.3622 12.5373 62.4682 12.5373C62.5506 12.5253 62.6346 12.5312 62.7145 12.5545C62.7944 12.5778 62.8683 12.6179 62.9313 12.6722C62.9942 12.7265 63.0447 12.7937 63.0793 12.8692C63.1139 12.9447 63.1318 13.0268 63.1318 13.1098C63.1318 13.1928 63.1139 13.2749 63.0793 13.3504C63.0447 13.4259 62.9942 13.4931 62.9313 13.5474C62.8683 13.6017 62.7944 13.6419 62.7145 13.6652C62.6346 13.6885 62.5506 13.6943 62.4682 13.6824C55.3622 13.6824 54.9634 22.0117 54.9634 23.6872V23.9042C54.9658 23.9795 54.9532 24.0545 54.9262 24.1249C54.8992 24.1953 54.8584 24.2596 54.8062 24.314C54.6947 24.4276 54.5427 24.4926 54.3833 24.4948ZM49.5492 13.1038C50.7923 13.696 51.8778 14.5722 52.7177 15.6613C53.5576 16.7503 54.1283 18.0216 54.3833 19.3719C54.6419 18.023 55.2139 16.7533 56.0534 15.6648C56.8929 14.5763 57.9766 13.6991 59.2173 13.1038C57.9763 12.512 56.8922 11.6374 56.0524 10.5507C55.2127 9.46395 54.6409 8.19552 54.3833 6.84777C54.1193 8.20646 53.5343 9.48278 52.6768 10.5708C51.8192 11.6588 50.7139 12.5272 49.4525 13.1038H49.5492ZM41.0896 10.8497C40.9419 10.8468 40.801 10.7878 40.6954 10.6847C40.5899 10.5817 40.5277 10.4424 40.5216 10.2952V10.1023C40.5403 8.88463 40.1393 7.69741 39.3856 6.73928C39.1325 6.494 38.8308 6.30406 38.5 6.18161C38.1691 6.05915 37.8163 6.00687 37.464 6.02809C37.3038 6.02809 37.1501 5.9646 37.0368 5.85157C36.9234 5.73854 36.8598 5.58524 36.8598 5.42539C36.8598 5.26555 36.9234 5.11225 37.0368 4.99922C37.1501 4.88619 37.3038 4.82269 37.464 4.82269C37.8216 4.83786 38.1785 4.77811 38.5115 4.64732C38.8445 4.51652 39.1464 4.31757 39.3977 4.06329C40.1332 3.09372 40.5168 1.90365 40.4853 0.688171V0.591739C40.4709 0.468602 40.4974 0.344146 40.5607 0.237456C40.624 0.130767 40.7206 0.0477347 40.8358 0.00109251C40.9402 -0.0458411 41.0567 -0.0594504 41.1691 -0.037874C41.2816 -0.0162977 41.3847 0.0394108 41.4642 0.121633C41.5661 0.230034 41.6261 0.37101 41.6334 0.519415V0.772549C41.6143 1.98296 42.0157 3.16269 42.7694 4.11151C43.0253 4.35991 43.3309 4.55165 43.6662 4.6742C44.0015 4.79675 44.3589 4.84735 44.7151 4.82269C44.8754 4.82269 45.0291 4.88619 45.1424 4.99922C45.2557 5.11225 45.3194 5.26555 45.3194 5.42539C45.3194 5.58524 45.2557 5.73854 45.1424 5.85157C45.0291 5.9646 44.8754 6.02809 44.7151 6.02809C44.3574 6.01141 44.0001 6.07046 43.6668 6.20134C43.3335 6.33223 43.0318 6.53199 42.7815 6.7875C42.0268 7.76297 41.6302 8.96696 41.6576 10.1988V10.2952C41.6598 10.4101 41.6276 10.5231 41.5652 10.6197C41.5028 10.7163 41.4129 10.7922 41.3071 10.8376C41.2365 10.8585 41.162 10.8627 41.0896 10.8497ZM39.5427 5.42539C39.7776 5.57471 39.9928 5.7529 40.1832 5.95577C40.5668 6.34109 40.8743 6.79499 41.0896 7.29376C41.3032 6.80268 41.5972 6.3505 41.9597 5.95577C42.157 5.75553 42.3758 5.57766 42.6123 5.42539C42.3758 5.27313 42.157 5.09526 41.9597 4.89502C41.6027 4.51852 41.3089 4.08707 41.0896 3.61729C40.8841 4.12552 40.5802 4.58837 40.1953 4.9794C39.9929 5.14895 39.7743 5.29833 39.5427 5.42539ZM46.7213 26.3994C46.5757 26.3934 46.4378 26.3331 46.3348 26.2304C46.2318 26.1276 46.1713 25.99 46.1654 25.8449V25.6761C46.1835 24.7454 45.8758 23.8375 45.2952 23.1086C45.1078 22.9209 44.8829 22.7746 44.6352 22.6791C44.3874 22.5836 44.1224 22.541 43.8571 22.5541C43.7192 22.5341 43.5931 22.4652 43.5019 22.3601C43.4107 22.255 43.3605 22.1206 43.3605 21.9816C43.3605 21.8425 43.4107 21.7082 43.5019 21.603C43.5931 21.4979 43.7192 21.429 43.8571 21.409C44.1253 21.4231 44.3935 21.3798 44.6436 21.2821C44.8937 21.1844 45.12 21.0345 45.3073 20.8425C45.8838 20.0659 46.1856 19.1205 46.1654 18.1544C46.1605 18.0405 46.1902 17.9279 46.2506 17.8311C46.3109 17.7343 46.3992 17.658 46.5037 17.612C46.6106 17.5674 46.7283 17.555 46.8421 17.5765C46.956 17.5979 47.061 17.6521 47.1442 17.7325C47.2426 17.8421 47.2984 17.9832 47.3014 18.1303C47.3066 18.1905 47.3066 18.251 47.3014 18.3111C47.2938 19.2365 47.6005 20.1372 48.1715 20.8666C48.3613 21.0503 48.5868 21.1932 48.8342 21.2865C49.0815 21.3798 49.3455 21.4215 49.6096 21.409C49.7476 21.429 49.8736 21.4979 49.9648 21.603C50.056 21.7082 50.1062 21.8425 50.1062 21.9816C50.1062 22.1206 50.056 22.255 49.9648 22.3601C49.8736 22.4652 49.7476 22.5341 49.6096 22.5541C49.3414 22.5401 49.0732 22.5833 48.8231 22.681C48.573 22.7788 48.3467 22.9286 48.1594 23.1207C47.5845 23.898 47.2829 24.8429 47.3014 25.8087C47.3062 25.9226 47.2765 26.0353 47.2161 26.132C47.1558 26.2288 47.0675 26.3052 46.963 26.3511C46.8874 26.3863 46.8046 26.4029 46.7213 26.3994ZM45.7303 21.9876C45.8705 22.0866 46.0001 22.1997 46.117 22.3251C46.3609 22.578 46.5647 22.8666 46.7213 23.1809C46.8778 22.8666 47.0816 22.578 47.3255 22.3251C47.4425 22.1997 47.5721 22.0866 47.7123 21.9876C47.5748 21.8809 47.4455 21.764 47.3255 21.638C47.079 21.3873 46.8749 21.0982 46.7213 20.7822C46.5607 21.1074 46.3485 21.4045 46.0928 21.6621C45.9837 21.783 45.8622 21.892 45.7303 21.9876ZM54.5404 31.3415V43.3955C54.5404 44.0349 54.2857 44.6481 53.8324 45.1002C53.3792 45.5523 52.7644 45.8063 52.1233 45.8063H6.15135C5.51031 45.8063 4.89553 45.5523 4.44225 45.1002C3.98897 44.6481 3.73432 44.0349 3.73432 43.3955V7.23349C3.73432 6.59411 3.98897 5.98091 4.44225 5.5288C4.89553 5.07669 5.51031 4.82269 6.15135 4.82269H32.7387V6.02809H6.15135C5.83083 6.02809 5.52344 6.15509 5.2968 6.38115C5.07016 6.6072 4.94283 6.9138 4.94283 7.23349V43.3955C4.94283 43.7152 5.07016 44.0218 5.2968 44.2478C5.52344 44.4739 5.83083 44.6009 6.15135 44.6009H52.1596C52.4801 44.6009 52.7875 44.4739 53.0141 44.2478C53.2408 44.0218 53.3681 43.7152 53.3681 43.3955V31.3415H54.5404ZM0 22.1805V18.8053C0 18.6135 0.0763953 18.4296 0.21238 18.2939C0.348364 18.1583 0.532799 18.0821 0.72511 18.0821C0.819772 18.0821 0.913488 18.1009 1.00079 18.1374C1.0881 18.1739 1.16725 18.2273 1.23362 18.2946C1.29999 18.362 1.35225 18.4418 1.38737 18.5295C1.42248 18.6172 1.43974 18.7109 1.43814 18.8053V22.1805C1.43974 22.2749 1.42248 22.3686 1.38737 22.4563C1.35225 22.544 1.29999 22.6238 1.23362 22.6912C1.16725 22.7585 1.0881 22.8119 1.00079 22.8484C0.913488 22.8849 0.819772 22.9037 0.72511 22.9037C0.532799 22.9037 0.348364 22.8275 0.21238 22.6919C0.0763953 22.5562 0 22.3723 0 22.1805H0ZM0 25.7967V24.8323C0 24.6405 0.0763953 24.4566 0.21238 24.3209C0.348364 24.1853 0.532799 24.1091 0.72511 24.1091C0.819772 24.1091 0.913488 24.1279 1.00079 24.1644C1.0881 24.2009 1.16725 24.2543 1.23362 24.3216C1.29999 24.389 1.35225 24.4688 1.38737 24.5565C1.42248 24.6442 1.43974 24.7379 1.43814 24.8323V25.7967C1.43974 25.8911 1.42248 25.9848 1.38737 26.0725C1.35225 26.1602 1.29999 26.24 1.23362 26.3074C1.16725 26.3747 1.0881 26.4281 1.00079 26.4646C0.913488 26.5011 0.819772 26.5199 0.72511 26.5199C0.629887 26.5199 0.535597 26.5012 0.447623 26.4648C0.359648 26.4285 0.279713 26.3752 0.21238 26.3081C0.145047 26.2409 0.0916359 26.1612 0.0551957 26.0734C0.0187555 25.9857 0 25.8916 0 25.7967H0ZM0 16.1535V11.5729C0 11.3811 0.0763953 11.1972 0.21238 11.0615C0.348364 10.9259 0.532799 10.8497 0.72511 10.8497C0.819772 10.8497 0.913488 10.8685 1.00079 10.905C1.0881 10.9415 1.16725 10.9949 1.23362 11.0622C1.29999 11.1296 1.35225 11.2094 1.38737 11.2971C1.42248 11.3848 1.43974 11.4785 1.43814 11.5729V16.1535C1.43974 16.2479 1.42248 16.3416 1.38737 16.4293C1.35225 16.517 1.29999 16.5968 1.23362 16.6642C1.16725 16.7315 1.0881 16.7849 1.00079 16.8214C0.913488 16.8579 0.819772 16.8767 0.72511 16.8767C0.532799 16.8767 0.348364 16.8005 0.21238 16.6649C0.0763953 16.5292 0 16.3453 0 16.1535H0ZM36.9202 48.5667H40.3161C40.4102 48.565 40.5037 48.5823 40.5909 48.6175C40.6782 48.6526 40.7574 48.705 40.824 48.7713C40.8905 48.8377 40.943 48.9168 40.9782 49.0038C41.0135 49.0908 41.0308 49.184 41.0292 49.2779C41.0308 49.3723 41.0135 49.466 40.9784 49.5537C40.9433 49.6414 40.891 49.7212 40.8246 49.7885C40.7583 49.8559 40.6791 49.9093 40.5918 49.9458C40.5045 49.9823 40.4108 50.0011 40.3161 50.0011H36.9202C36.7279 50.0011 36.5434 49.9249 36.4075 49.7893C36.2715 49.6536 36.1951 49.4697 36.1951 49.2779C36.1951 49.1834 36.2139 49.09 36.2505 49.0029C36.2871 48.9158 36.3407 48.8369 36.4082 48.7707C36.4757 48.7045 36.5557 48.6523 36.6436 48.6173C36.7315 48.5823 36.8255 48.5651 36.9202 48.5667ZM42.9628 48.5667H47.5672C47.6613 48.565 47.7548 48.5823 47.842 48.6175C47.9293 48.6526 48.0085 48.705 48.0751 48.7713C48.1416 48.8377 48.1941 48.9168 48.2293 49.0038C48.2646 49.0908 48.2819 49.184 48.2803 49.2779C48.2819 49.3723 48.2646 49.466 48.2295 49.5537C48.1944 49.6414 48.1421 49.7212 48.0757 49.7885C48.0094 49.8559 47.9302 49.9093 47.8429 49.9458C47.7556 49.9823 47.6619 50.0011 47.5672 50.0011H42.9628C42.7705 50.0011 42.586 49.9249 42.4501 49.7893C42.3141 49.6536 42.2377 49.4697 42.2377 49.2779C42.2377 49.1834 42.2565 49.09 42.2931 49.0029C42.3297 48.9158 42.3833 48.8369 42.4508 48.7707C42.5183 48.7045 42.5983 48.6523 42.6862 48.6173C42.7741 48.5823 42.8681 48.5651 42.9628 48.5667Z"/>
</mask>
<path d="M14.8527 31.6308C14.7792 31.6291 14.7062 31.6424 14.638 31.6696C14.5698 31.6969 14.5079 31.7377 14.4559 31.7895C14.4039 31.8414 14.3631 31.9031 14.3357 31.9712C14.3084 32.0392 14.2951 32.112 14.2968 32.1853V34.355C14.285 34.4338 14.2904 34.5143 14.3127 34.5908C14.3349 34.6674 14.3734 34.7383 14.4256 34.7986C14.4778 34.859 14.5424 34.9074 14.6151 34.9406C14.6877 34.9738 14.7667 34.991 14.8466 34.991C14.9265 34.991 15.0055 34.9738 15.0782 34.9406C15.1508 34.9074 15.2154 34.859 15.2676 34.7986C15.3198 34.7383 15.3583 34.6674 15.3806 34.5908C15.4028 34.5143 15.4083 34.4338 15.3965 34.355V32.1853C15.3981 32.113 15.3852 32.0412 15.3586 31.974C15.332 31.9068 15.2922 31.8456 15.2416 31.7939C15.1909 31.7423 15.1304 31.7012 15.0636 31.6732C14.9968 31.6452 14.9251 31.6308 14.8527 31.6308ZM14.8527 24.8564C14.7797 24.8564 14.7074 24.8708 14.6399 24.8987C14.5725 24.9265 14.5112 24.9674 14.4596 25.0188C14.408 25.0703 14.367 25.1315 14.3391 25.1987C14.3111 25.266 14.2968 25.3381 14.2968 25.4109V30.0035C14.3164 30.135 14.3827 30.2551 14.4836 30.3419C14.5845 30.4287 14.7134 30.4765 14.8466 30.4765C14.9799 30.4765 15.1087 30.4287 15.2097 30.3419C15.3106 30.2551 15.3769 30.135 15.3965 30.0035V25.4109C15.3965 25.2659 15.3396 25.1267 15.238 25.0231C15.1363 24.9194 14.998 24.8596 14.8527 24.8564ZM14.8527 35.9943C14.7802 35.9927 14.7082 36.0056 14.6408 36.0321C14.5735 36.0587 14.5121 36.0984 14.4603 36.1489C14.4085 36.1994 14.3674 36.2598 14.3393 36.3264C14.3112 36.393 14.2967 36.4645 14.2968 36.5368V37.5734C14.3164 37.7049 14.3827 37.825 14.4836 37.9118C14.5845 37.9986 14.7134 38.0464 14.8466 38.0464C14.9799 38.0464 15.1087 37.9986 15.2097 37.9118C15.3106 37.825 15.3769 37.7049 15.3965 37.5734V36.5368C15.3965 36.3929 15.3392 36.2549 15.2372 36.1532C15.1352 36.0515 14.9969 35.9943 14.8527 35.9943ZM41.0896 28.0628H40.8841V23.1086C40.8847 22.6517 40.7349 22.2073 40.4576 21.8436C40.1803 21.4799 39.7909 21.2171 39.3493 21.0956V17.166C39.3493 16.6129 39.129 16.0825 38.737 15.6914C38.3449 15.3004 37.8131 15.0806 37.2586 15.0806L28.9077 15.1771L26.1281 12.7663C25.7991 12.4841 25.4126 12.2765 24.9953 12.1578C24.578 12.0392 24.1398 12.0124 23.7111 12.0792C23.3211 12.132 22.9461 12.2641 22.6094 12.4673C22.2726 12.6705 21.9812 12.9405 21.7533 13.2605L21.6687 13.3931L20.4602 15.5387L18.0432 14.6708H17.9706C17.5686 14.5911 17.1545 14.5937 16.7535 14.6787C16.3525 14.7637 15.973 14.9291 15.6382 15.165L12.1456 15.0686C11.6859 15.067 11.2305 15.1559 10.8053 15.3303C10.3802 15.5047 9.99373 15.761 9.66813 16.0846C9.34253 16.4083 9.08418 16.7929 8.90791 17.2163C8.73163 17.6397 8.64089 18.0937 8.6409 18.5522V38.8994C8.64407 39.4515 8.86536 39.98 9.25676 40.3704C9.64817 40.7608 10.1781 40.9815 10.7316 40.9847H38.8055C39.36 40.9847 39.8918 40.765 40.2839 40.3739C40.6759 39.9828 40.8962 39.4524 40.8962 38.8994V34.0778H41.0896C41.5415 34.0778 41.9749 33.8987 42.2945 33.58C42.6141 33.2612 42.7936 32.8289 42.7936 32.3781V29.7624C42.7904 29.3126 42.6099 28.8822 42.291 28.5641C41.9721 28.246 41.5405 28.066 41.0896 28.0628ZM37.2465 16.1776C37.5093 16.1776 37.7614 16.2817 37.9472 16.4671C38.1331 16.6524 38.2375 16.9038 38.2375 17.166V21.0112H35.4579L30.1162 16.2619L37.2465 16.1776ZM22.6355 13.9837C22.6332 13.9557 22.6332 13.9274 22.6355 13.8994C22.7697 13.6895 22.9466 13.5103 23.1548 13.3732C23.3631 13.2361 23.5979 13.1443 23.844 13.1038C24.1066 13.0672 24.374 13.087 24.6283 13.1618C24.8825 13.2367 25.1178 13.3648 25.3184 13.5377L28.2189 16.1173L32.6058 20.0228L21.3424 15.9124L22.6355 13.9837ZM15.4932 17.2624C15.5955 16.7726 15.8847 16.3417 16.2996 16.0606C16.7145 15.7794 17.2227 15.6701 17.7169 15.7557L20.4964 16.7682L32.1224 20.9992H14.7439L15.4932 17.2624ZM12.0852 16.1776L14.6472 16.2499C14.519 16.5013 14.4255 16.769 14.3693 17.0455L13.5716 20.9509H12.0852C11.7678 20.9565 11.4524 20.8996 11.157 20.7836C10.8616 20.6675 10.5921 20.4946 10.3637 20.2747C10.1353 20.0547 9.95261 19.7921 9.82601 19.5017C9.69941 19.2113 9.63139 18.8989 9.62584 18.5823C9.62028 18.2657 9.6773 17.9512 9.79364 17.6566C9.90997 17.3619 10.0833 17.0931 10.3039 16.8653C10.7492 16.4053 11.3595 16.1405 12.0006 16.1293L12.0852 16.1776ZM39.7965 38.8994C39.7965 39.1615 39.6921 39.4129 39.5062 39.5983C39.3204 39.7836 39.0683 39.8878 38.8055 39.8878H10.7316C10.4688 39.8878 10.2167 39.7836 10.0309 39.5983C9.84505 39.4129 9.74065 39.1615 9.74065 38.8994V21.0956C10.3974 21.7037 11.2615 22.0399 12.1577 22.0358L35.2887 22.1081H38.8297C39.0925 22.1081 39.3445 22.2123 39.5304 22.3976C39.7162 22.583 39.8206 22.8344 39.8206 23.0966V28.0508H29.1132C28.6643 28.0571 28.2358 28.2385 27.9195 28.5562C27.6032 28.874 27.4244 29.3026 27.4213 29.7504V32.342C27.4212 32.7907 27.5991 33.2212 27.9161 33.5395C28.233 33.8579 28.6633 34.0384 29.1132 34.0416H39.7965V38.8994ZM41.7059 32.354C41.7059 32.5139 41.6423 32.6672 41.5289 32.7802C41.4156 32.8932 41.2619 32.9567 41.1017 32.9567H29.1253C28.965 32.9567 28.8113 32.8932 28.698 32.7802C28.5847 32.6672 28.521 32.5139 28.521 32.354V29.7624C28.521 29.6838 28.5367 29.606 28.5672 29.5336C28.5977 29.4611 28.6424 29.3955 28.6987 29.3405C28.755 29.2854 28.8217 29.2422 28.8949 29.2132C28.9682 29.1843 29.0465 29.1702 29.1253 29.1718H41.0896C41.1684 29.1702 41.2467 29.1843 41.3199 29.2132C41.3932 29.2422 41.4599 29.2854 41.5161 29.3405C41.5724 29.3955 41.6171 29.4611 41.6476 29.5336C41.6782 29.606 41.6939 29.6838 41.6938 29.7624L41.7059 32.354ZM30.6842 29.666C30.4147 29.6684 30.1518 29.7503 29.9289 29.9014C29.7059 30.0525 29.5327 30.266 29.4312 30.5151C29.3297 30.7642 29.3044 31.0377 29.3584 31.3011C29.4125 31.5646 29.5435 31.8061 29.735 31.9954C29.9264 32.1847 30.1698 32.3133 30.4343 32.3648C30.6989 32.4164 30.9729 32.3888 31.2217 32.2853C31.4705 32.1819 31.6831 32.0073 31.8326 31.7836C31.9822 31.5598 32.0619 31.297 32.062 31.0281C32.0588 30.6657 31.9122 30.3193 31.6542 30.0642C31.3962 29.8091 31.0476 29.666 30.6842 29.666ZM30.6842 31.2933C30.6322 31.2909 30.5821 31.2734 30.54 31.2428C30.4979 31.2123 30.4657 31.1701 30.4474 31.1215C30.4291 31.0729 30.4255 31.02 30.4371 30.9694C30.4487 30.9187 30.4749 30.8726 30.5126 30.8367C30.5502 30.8008 30.5975 30.7768 30.6488 30.7675C30.7 30.7582 30.7528 30.7641 30.8007 30.7845C30.8486 30.8048 30.8894 30.8388 30.9181 30.8821C30.9468 30.9254 30.9622 30.9762 30.9622 31.0281C30.9622 31.064 30.955 31.0995 30.9409 31.1324C30.9268 31.1654 30.9061 31.1952 30.8801 31.22C30.8541 31.2448 30.8234 31.2641 30.7897 31.2767C30.756 31.2893 30.7202 31.2949 30.6842 31.2933ZM54.3833 24.4948C54.2278 24.4907 54.0802 24.4258 53.9724 24.314C53.9202 24.2596 53.8794 24.1953 53.8524 24.1249C53.8255 24.0545 53.8128 23.9795 53.8153 23.9042V23.6872C53.8153 22.0117 53.4165 13.6824 46.3104 13.6824C46.228 13.6943 46.144 13.6885 46.0641 13.6652C45.9842 13.6419 45.9103 13.6017 45.8474 13.5474C45.7844 13.4931 45.7339 13.4259 45.6993 13.3504C45.6647 13.2749 45.6468 13.1928 45.6468 13.1098C45.6468 13.0268 45.6647 12.9447 45.6993 12.8692C45.7339 12.7937 45.7844 12.7265 45.8474 12.6722C45.9103 12.6179 45.9842 12.5778 46.0641 12.5545C46.144 12.5312 46.228 12.5253 46.3104 12.5373C53.4165 12.5373 53.8153 4.20794 53.8153 2.53243V2.31546C53.8128 2.24016 53.8255 2.16513 53.8524 2.09476C53.8794 2.02438 53.9202 1.96009 53.9724 1.90562C54.0833 1.79595 54.2331 1.73441 54.3893 1.73441C54.5455 1.73441 54.6953 1.79595 54.8062 1.90562C54.9074 2.01831 54.9633 2.16422 54.9634 2.31546V2.41189V2.53243C54.9634 4.20794 55.3622 12.5373 62.4682 12.5373C62.5506 12.5253 62.6346 12.5312 62.7145 12.5545C62.7944 12.5778 62.8683 12.6179 62.9313 12.6722C62.9942 12.7265 63.0447 12.7937 63.0793 12.8692C63.1139 12.9447 63.1318 13.0268 63.1318 13.1098C63.1318 13.1928 63.1139 13.2749 63.0793 13.3504C63.0447 13.4259 62.9942 13.4931 62.9313 13.5474C62.8683 13.6017 62.7944 13.6419 62.7145 13.6652C62.6346 13.6885 62.5506 13.6943 62.4682 13.6824C55.3622 13.6824 54.9634 22.0117 54.9634 23.6872V23.9042C54.9658 23.9795 54.9532 24.0545 54.9262 24.1249C54.8992 24.1953 54.8584 24.2596 54.8062 24.314C54.6947 24.4276 54.5427 24.4926 54.3833 24.4948ZM49.5492 13.1038C50.7923 13.696 51.8778 14.5722 52.7177 15.6613C53.5576 16.7503 54.1283 18.0216 54.3833 19.3719C54.6419 18.023 55.2139 16.7533 56.0534 15.6648C56.8929 14.5763 57.9766 13.6991 59.2173 13.1038C57.9763 12.512 56.8922 11.6374 56.0524 10.5507C55.2127 9.46395 54.6409 8.19552 54.3833 6.84777C54.1193 8.20646 53.5343 9.48278 52.6768 10.5708C51.8192 11.6588 50.7139 12.5272 49.4525 13.1038H49.5492ZM41.0896 10.8497C40.9419 10.8468 40.801 10.7878 40.6954 10.6847C40.5899 10.5817 40.5277 10.4424 40.5216 10.2952V10.1023C40.5403 8.88463 40.1393 7.69741 39.3856 6.73928C39.1325 6.494 38.8308 6.30406 38.5 6.18161C38.1691 6.05915 37.8163 6.00687 37.464 6.02809C37.3038 6.02809 37.1501 5.9646 37.0368 5.85157C36.9234 5.73854 36.8598 5.58524 36.8598 5.42539C36.8598 5.26555 36.9234 5.11225 37.0368 4.99922C37.1501 4.88619 37.3038 4.82269 37.464 4.82269C37.8216 4.83786 38.1785 4.77811 38.5115 4.64732C38.8445 4.51652 39.1464 4.31757 39.3977 4.06329C40.1332 3.09372 40.5168 1.90365 40.4853 0.688171V0.591739C40.4709 0.468602 40.4974 0.344146 40.5607 0.237456C40.624 0.130767 40.7206 0.0477347 40.8358 0.00109251C40.9402 -0.0458411 41.0567 -0.0594504 41.1691 -0.037874C41.2816 -0.0162977 41.3847 0.0394108 41.4642 0.121633C41.5661 0.230034 41.6261 0.37101 41.6334 0.519415V0.772549C41.6143 1.98296 42.0157 3.16269 42.7694 4.11151C43.0253 4.35991 43.3309 4.55165 43.6662 4.6742C44.0015 4.79675 44.3589 4.84735 44.7151 4.82269C44.8754 4.82269 45.0291 4.88619 45.1424 4.99922C45.2557 5.11225 45.3194 5.26555 45.3194 5.42539C45.3194 5.58524 45.2557 5.73854 45.1424 5.85157C45.0291 5.9646 44.8754 6.02809 44.7151 6.02809C44.3574 6.01141 44.0001 6.07046 43.6668 6.20134C43.3335 6.33223 43.0318 6.53199 42.7815 6.7875C42.0268 7.76297 41.6302 8.96696 41.6576 10.1988V10.2952C41.6598 10.4101 41.6276 10.5231 41.5652 10.6197C41.5028 10.7163 41.4129 10.7922 41.3071 10.8376C41.2365 10.8585 41.162 10.8627 41.0896 10.8497ZM39.5427 5.42539C39.7776 5.57471 39.9928 5.7529 40.1832 5.95577C40.5668 6.34109 40.8743 6.79499 41.0896 7.29376C41.3032 6.80268 41.5972 6.3505 41.9597 5.95577C42.157 5.75553 42.3758 5.57766 42.6123 5.42539C42.3758 5.27313 42.157 5.09526 41.9597 4.89502C41.6027 4.51852 41.3089 4.08707 41.0896 3.61729C40.8841 4.12552 40.5802 4.58837 40.1953 4.9794C39.9929 5.14895 39.7743 5.29833 39.5427 5.42539ZM46.7213 26.3994C46.5757 26.3934 46.4378 26.3331 46.3348 26.2304C46.2318 26.1276 46.1713 25.99 46.1654 25.8449V25.6761C46.1835 24.7454 45.8758 23.8375 45.2952 23.1086C45.1078 22.9209 44.8829 22.7746 44.6352 22.6791C44.3874 22.5836 44.1224 22.541 43.8571 22.5541C43.7192 22.5341 43.5931 22.4652 43.5019 22.3601C43.4107 22.255 43.3605 22.1206 43.3605 21.9816C43.3605 21.8425 43.4107 21.7082 43.5019 21.603C43.5931 21.4979 43.7192 21.429 43.8571 21.409C44.1253 21.4231 44.3935 21.3798 44.6436 21.2821C44.8937 21.1844 45.12 21.0345 45.3073 20.8425C45.8838 20.0659 46.1856 19.1205 46.1654 18.1544C46.1605 18.0405 46.1902 17.9279 46.2506 17.8311C46.3109 17.7343 46.3992 17.658 46.5037 17.612C46.6106 17.5674 46.7283 17.555 46.8421 17.5765C46.956 17.5979 47.061 17.6521 47.1442 17.7325C47.2426 17.8421 47.2984 17.9832 47.3014 18.1303C47.3066 18.1905 47.3066 18.251 47.3014 18.3111C47.2938 19.2365 47.6005 20.1372 48.1715 20.8666C48.3613 21.0503 48.5868 21.1932 48.8342 21.2865C49.0815 21.3798 49.3455 21.4215 49.6096 21.409C49.7476 21.429 49.8736 21.4979 49.9648 21.603C50.056 21.7082 50.1062 21.8425 50.1062 21.9816C50.1062 22.1206 50.056 22.255 49.9648 22.3601C49.8736 22.4652 49.7476 22.5341 49.6096 22.5541C49.3414 22.5401 49.0732 22.5833 48.8231 22.681C48.573 22.7788 48.3467 22.9286 48.1594 23.1207C47.5845 23.898 47.2829 24.8429 47.3014 25.8087C47.3062 25.9226 47.2765 26.0353 47.2161 26.132C47.1558 26.2288 47.0675 26.3052 46.963 26.3511C46.8874 26.3863 46.8046 26.4029 46.7213 26.3994ZM45.7303 21.9876C45.8705 22.0866 46.0001 22.1997 46.117 22.3251C46.3609 22.578 46.5647 22.8666 46.7213 23.1809C46.8778 22.8666 47.0816 22.578 47.3255 22.3251C47.4425 22.1997 47.5721 22.0866 47.7123 21.9876C47.5748 21.8809 47.4455 21.764 47.3255 21.638C47.079 21.3873 46.8749 21.0982 46.7213 20.7822C46.5607 21.1074 46.3485 21.4045 46.0928 21.6621C45.9837 21.783 45.8622 21.892 45.7303 21.9876ZM54.5404 31.3415V43.3955C54.5404 44.0349 54.2857 44.6481 53.8324 45.1002C53.3792 45.5523 52.7644 45.8063 52.1233 45.8063H6.15135C5.51031 45.8063 4.89553 45.5523 4.44225 45.1002C3.98897 44.6481 3.73432 44.0349 3.73432 43.3955V7.23349C3.73432 6.59411 3.98897 5.98091 4.44225 5.5288C4.89553 5.07669 5.51031 4.82269 6.15135 4.82269H32.7387V6.02809H6.15135C5.83083 6.02809 5.52344 6.15509 5.2968 6.38115C5.07016 6.6072 4.94283 6.9138 4.94283 7.23349V43.3955C4.94283 43.7152 5.07016 44.0218 5.2968 44.2478C5.52344 44.4739 5.83083 44.6009 6.15135 44.6009H52.1596C52.4801 44.6009 52.7875 44.4739 53.0141 44.2478C53.2408 44.0218 53.3681 43.7152 53.3681 43.3955V31.3415H54.5404ZM0 22.1805V18.8053C0 18.6135 0.0763953 18.4296 0.21238 18.2939C0.348364 18.1583 0.532799 18.0821 0.72511 18.0821C0.819772 18.0821 0.913488 18.1009 1.00079 18.1374C1.0881 18.1739 1.16725 18.2273 1.23362 18.2946C1.29999 18.362 1.35225 18.4418 1.38737 18.5295C1.42248 18.6172 1.43974 18.7109 1.43814 18.8053V22.1805C1.43974 22.2749 1.42248 22.3686 1.38737 22.4563C1.35225 22.544 1.29999 22.6238 1.23362 22.6912C1.16725 22.7585 1.0881 22.8119 1.00079 22.8484C0.913488 22.8849 0.819772 22.9037 0.72511 22.9037C0.532799 22.9037 0.348364 22.8275 0.21238 22.6919C0.0763953 22.5562 0 22.3723 0 22.1805H0ZM0 25.7967V24.8323C0 24.6405 0.0763953 24.4566 0.21238 24.3209C0.348364 24.1853 0.532799 24.1091 0.72511 24.1091C0.819772 24.1091 0.913488 24.1279 1.00079 24.1644C1.0881 24.2009 1.16725 24.2543 1.23362 24.3216C1.29999 24.389 1.35225 24.4688 1.38737 24.5565C1.42248 24.6442 1.43974 24.7379 1.43814 24.8323V25.7967C1.43974 25.8911 1.42248 25.9848 1.38737 26.0725C1.35225 26.1602 1.29999 26.24 1.23362 26.3074C1.16725 26.3747 1.0881 26.4281 1.00079 26.4646C0.913488 26.5011 0.819772 26.5199 0.72511 26.5199C0.629887 26.5199 0.535597 26.5012 0.447623 26.4648C0.359648 26.4285 0.279713 26.3752 0.21238 26.3081C0.145047 26.2409 0.0916359 26.1612 0.0551957 26.0734C0.0187555 25.9857 0 25.8916 0 25.7967H0ZM0 16.1535V11.5729C0 11.3811 0.0763953 11.1972 0.21238 11.0615C0.348364 10.9259 0.532799 10.8497 0.72511 10.8497C0.819772 10.8497 0.913488 10.8685 1.00079 10.905C1.0881 10.9415 1.16725 10.9949 1.23362 11.0622C1.29999 11.1296 1.35225 11.2094 1.38737 11.2971C1.42248 11.3848 1.43974 11.4785 1.43814 11.5729V16.1535C1.43974 16.2479 1.42248 16.3416 1.38737 16.4293C1.35225 16.517 1.29999 16.5968 1.23362 16.6642C1.16725 16.7315 1.0881 16.7849 1.00079 16.8214C0.913488 16.8579 0.819772 16.8767 0.72511 16.8767C0.532799 16.8767 0.348364 16.8005 0.21238 16.6649C0.0763953 16.5292 0 16.3453 0 16.1535H0ZM36.9202 48.5667H40.3161C40.4102 48.565 40.5037 48.5823 40.5909 48.6175C40.6782 48.6526 40.7574 48.705 40.824 48.7713C40.8905 48.8377 40.943 48.9168 40.9782 49.0038C41.0135 49.0908 41.0308 49.184 41.0292 49.2779C41.0308 49.3723 41.0135 49.466 40.9784 49.5537C40.9433 49.6414 40.891 49.7212 40.8246 49.7885C40.7583 49.8559 40.6791 49.9093 40.5918 49.9458C40.5045 49.9823 40.4108 50.0011 40.3161 50.0011H36.9202C36.7279 50.0011 36.5434 49.9249 36.4075 49.7893C36.2715 49.6536 36.1951 49.4697 36.1951 49.2779C36.1951 49.1834 36.2139 49.09 36.2505 49.0029C36.2871 48.9158 36.3407 48.8369 36.4082 48.7707C36.4757 48.7045 36.5557 48.6523 36.6436 48.6173C36.7315 48.5823 36.8255 48.5651 36.9202 48.5667ZM42.9628 48.5667H47.5672C47.6613 48.565 47.7548 48.5823 47.842 48.6175C47.9293 48.6526 48.0085 48.705 48.0751 48.7713C48.1416 48.8377 48.1941 48.9168 48.2293 49.0038C48.2646 49.0908 48.2819 49.184 48.2803 49.2779C48.2819 49.3723 48.2646 49.466 48.2295 49.5537C48.1944 49.6414 48.1421 49.7212 48.0757 49.7885C48.0094 49.8559 47.9302 49.9093 47.8429 49.9458C47.7556 49.9823 47.6619 50.0011 47.5672 50.0011H42.9628C42.7705 50.0011 42.586 49.9249 42.4501 49.7893C42.3141 49.6536 42.2377 49.4697 42.2377 49.2779C42.2377 49.1834 42.2565 49.09 42.2931 49.0029C42.3297 48.9158 42.3833 48.8369 42.4508 48.7707C42.5183 48.7045 42.5983 48.6523 42.6862 48.6173C42.7741 48.5823 42.8681 48.5651 42.9628 48.5667Z" fill="#F0B420"/>
<path d="M14.8527 31.6308C14.7792 31.6291 14.7062 31.6424 14.638 31.6696C14.5698 31.6969 14.5079 31.7377 14.4559 31.7895C14.4039 31.8414 14.3631 31.9031 14.3357 31.9712C14.3084 32.0392 14.2951 32.112 14.2968 32.1853V34.355C14.285 34.4338 14.2904 34.5143 14.3127 34.5908C14.3349 34.6674 14.3734 34.7383 14.4256 34.7986C14.4778 34.859 14.5424 34.9074 14.6151 34.9406C14.6877 34.9738 14.7667 34.991 14.8466 34.991C14.9265 34.991 15.0055 34.9738 15.0782 34.9406C15.1508 34.9074 15.2154 34.859 15.2676 34.7986C15.3198 34.7383 15.3583 34.6674 15.3806 34.5908C15.4028 34.5143 15.4083 34.4338 15.3965 34.355V32.1853C15.3981 32.113 15.3852 32.0412 15.3586 31.974C15.332 31.9068 15.2922 31.8456 15.2416 31.7939C15.1909 31.7423 15.1304 31.7012 15.0636 31.6732C14.9968 31.6452 14.9251 31.6308 14.8527 31.6308ZM14.8527 24.8564C14.7797 24.8564 14.7074 24.8708 14.6399 24.8987C14.5725 24.9265 14.5112 24.9674 14.4596 25.0188C14.408 25.0703 14.367 25.1315 14.3391 25.1987C14.3111 25.266 14.2968 25.3381 14.2968 25.4109V30.0035C14.3164 30.135 14.3827 30.2551 14.4836 30.3419C14.5845 30.4287 14.7134 30.4765 14.8466 30.4765C14.9799 30.4765 15.1087 30.4287 15.2097 30.3419C15.3106 30.2551 15.3769 30.135 15.3965 30.0035V25.4109C15.3965 25.2659 15.3396 25.1267 15.238 25.0231C15.1363 24.9194 14.998 24.8596 14.8527 24.8564ZM14.8527 35.9943C14.7802 35.9927 14.7082 36.0056 14.6408 36.0321C14.5735 36.0587 14.5121 36.0984 14.4603 36.1489C14.4085 36.1994 14.3674 36.2598 14.3393 36.3264C14.3112 36.393 14.2967 36.4645 14.2968 36.5368V37.5734C14.3164 37.7049 14.3827 37.825 14.4836 37.9118C14.5845 37.9986 14.7134 38.0464 14.8466 38.0464C14.9799 38.0464 15.1087 37.9986 15.2097 37.9118C15.3106 37.825 15.3769 37.7049 15.3965 37.5734V36.5368C15.3965 36.3929 15.3392 36.2549 15.2372 36.1532C15.1352 36.0515 14.9969 35.9943 14.8527 35.9943ZM41.0896 28.0628H40.8841V23.1086C40.8847 22.6517 40.7349 22.2073 40.4576 21.8436C40.1803 21.4799 39.7909 21.2171 39.3493 21.0956V17.166C39.3493 16.6129 39.129 16.0825 38.737 15.6914C38.3449 15.3004 37.8131 15.0806 37.2586 15.0806L28.9077 15.1771L26.1281 12.7663C25.7991 12.4841 25.4126 12.2765 24.9953 12.1578C24.578 12.0392 24.1398 12.0124 23.7111 12.0792C23.3211 12.132 22.9461 12.2641 22.6094 12.4673C22.2726 12.6705 21.9812 12.9405 21.7533 13.2605L21.6687 13.3931L20.4602 15.5387L18.0432 14.6708H17.9706C17.5686 14.5911 17.1545 14.5937 16.7535 14.6787C16.3525 14.7637 15.973 14.9291 15.6382 15.165L12.1456 15.0686C11.6859 15.067 11.2305 15.1559 10.8053 15.3303C10.3802 15.5047 9.99373 15.761 9.66813 16.0846C9.34253 16.4083 9.08418 16.7929 8.90791 17.2163C8.73163 17.6397 8.64089 18.0937 8.6409 18.5522V38.8994C8.64407 39.4515 8.86536 39.98 9.25676 40.3704C9.64817 40.7608 10.1781 40.9815 10.7316 40.9847H38.8055C39.36 40.9847 39.8918 40.765 40.2839 40.3739C40.6759 39.9828 40.8962 39.4524 40.8962 38.8994V34.0778H41.0896C41.5415 34.0778 41.9749 33.8987 42.2945 33.58C42.6141 33.2612 42.7936 32.8289 42.7936 32.3781V29.7624C42.7904 29.3126 42.6099 28.8822 42.291 28.5641C41.9721 28.246 41.5405 28.066 41.0896 28.0628ZM37.2465 16.1776C37.5093 16.1776 37.7614 16.2817 37.9472 16.4671C38.1331 16.6524 38.2375 16.9038 38.2375 17.166V21.0112H35.4579L30.1162 16.2619L37.2465 16.1776ZM22.6355 13.9837C22.6332 13.9557 22.6332 13.9274 22.6355 13.8994C22.7697 13.6895 22.9466 13.5103 23.1548 13.3732C23.3631 13.2361 23.5979 13.1443 23.844 13.1038C24.1066 13.0672 24.374 13.087 24.6283 13.1618C24.8825 13.2367 25.1178 13.3648 25.3184 13.5377L28.2189 16.1173L32.6058 20.0228L21.3424 15.9124L22.6355 13.9837ZM15.4932 17.2624C15.5955 16.7726 15.8847 16.3417 16.2996 16.0606C16.7145 15.7794 17.2227 15.6701 17.7169 15.7557L20.4964 16.7682L32.1224 20.9992H14.7439L15.4932 17.2624ZM12.0852 16.1776L14.6472 16.2499C14.519 16.5013 14.4255 16.769 14.3693 17.0455L13.5716 20.9509H12.0852C11.7678 20.9565 11.4524 20.8996 11.157 20.7836C10.8616 20.6675 10.5921 20.4946 10.3637 20.2747C10.1353 20.0547 9.95261 19.7921 9.82601 19.5017C9.69941 19.2113 9.63139 18.8989 9.62584 18.5823C9.62028 18.2657 9.6773 17.9512 9.79364 17.6566C9.90997 17.3619 10.0833 17.0931 10.3039 16.8653C10.7492 16.4053 11.3595 16.1405 12.0006 16.1293L12.0852 16.1776ZM39.7965 38.8994C39.7965 39.1615 39.6921 39.4129 39.5062 39.5983C39.3204 39.7836 39.0683 39.8878 38.8055 39.8878H10.7316C10.4688 39.8878 10.2167 39.7836 10.0309 39.5983C9.84505 39.4129 9.74065 39.1615 9.74065 38.8994V21.0956C10.3974 21.7037 11.2615 22.0399 12.1577 22.0358L35.2887 22.1081H38.8297C39.0925 22.1081 39.3445 22.2123 39.5304 22.3976C39.7162 22.583 39.8206 22.8344 39.8206 23.0966V28.0508H29.1132C28.6643 28.0571 28.2358 28.2385 27.9195 28.5562C27.6032 28.874 27.4244 29.3026 27.4213 29.7504V32.342C27.4212 32.7907 27.5991 33.2212 27.9161 33.5395C28.233 33.8579 28.6633 34.0384 29.1132 34.0416H39.7965V38.8994ZM41.7059 32.354C41.7059 32.5139 41.6423 32.6672 41.5289 32.7802C41.4156 32.8932 41.2619 32.9567 41.1017 32.9567H29.1253C28.965 32.9567 28.8113 32.8932 28.698 32.7802C28.5847 32.6672 28.521 32.5139 28.521 32.354V29.7624C28.521 29.6838 28.5367 29.606 28.5672 29.5336C28.5977 29.4611 28.6424 29.3955 28.6987 29.3405C28.755 29.2854 28.8217 29.2422 28.8949 29.2132C28.9682 29.1843 29.0465 29.1702 29.1253 29.1718H41.0896C41.1684 29.1702 41.2467 29.1843 41.3199 29.2132C41.3932 29.2422 41.4599 29.2854 41.5161 29.3405C41.5724 29.3955 41.6171 29.4611 41.6476 29.5336C41.6782 29.606 41.6939 29.6838 41.6938 29.7624L41.7059 32.354ZM30.6842 29.666C30.4147 29.6684 30.1518 29.7503 29.9289 29.9014C29.7059 30.0525 29.5327 30.266 29.4312 30.5151C29.3297 30.7642 29.3044 31.0377 29.3584 31.3011C29.4125 31.5646 29.5435 31.8061 29.735 31.9954C29.9264 32.1847 30.1698 32.3133 30.4343 32.3648C30.6989 32.4164 30.9729 32.3888 31.2217 32.2853C31.4705 32.1819 31.6831 32.0073 31.8326 31.7836C31.9822 31.5598 32.0619 31.297 32.062 31.0281C32.0588 30.6657 31.9122 30.3193 31.6542 30.0642C31.3962 29.8091 31.0476 29.666 30.6842 29.666ZM30.6842 31.2933C30.6322 31.2909 30.5821 31.2734 30.54 31.2428C30.4979 31.2123 30.4657 31.1701 30.4474 31.1215C30.4291 31.0729 30.4255 31.02 30.4371 30.9694C30.4487 30.9187 30.4749 30.8726 30.5126 30.8367C30.5502 30.8008 30.5975 30.7768 30.6488 30.7675C30.7 30.7582 30.7528 30.7641 30.8007 30.7845C30.8486 30.8048 30.8894 30.8388 30.9181 30.8821C30.9468 30.9254 30.9622 30.9762 30.9622 31.0281C30.9622 31.064 30.955 31.0995 30.9409 31.1324C30.9268 31.1654 30.9061 31.1952 30.8801 31.22C30.8541 31.2448 30.8234 31.2641 30.7897 31.2767C30.756 31.2893 30.7202 31.2949 30.6842 31.2933ZM54.3833 24.4948C54.2278 24.4907 54.0802 24.4258 53.9724 24.314C53.9202 24.2596 53.8794 24.1953 53.8524 24.1249C53.8255 24.0545 53.8128 23.9795 53.8153 23.9042V23.6872C53.8153 22.0117 53.4165 13.6824 46.3104 13.6824C46.228 13.6943 46.144 13.6885 46.0641 13.6652C45.9842 13.6419 45.9103 13.6017 45.8474 13.5474C45.7844 13.4931 45.7339 13.4259 45.6993 13.3504C45.6647 13.2749 45.6468 13.1928 45.6468 13.1098C45.6468 13.0268 45.6647 12.9447 45.6993 12.8692C45.7339 12.7937 45.7844 12.7265 45.8474 12.6722C45.9103 12.6179 45.9842 12.5778 46.0641 12.5545C46.144 12.5312 46.228 12.5253 46.3104 12.5373C53.4165 12.5373 53.8153 4.20794 53.8153 2.53243V2.31546C53.8128 2.24016 53.8255 2.16513 53.8524 2.09476C53.8794 2.02438 53.9202 1.96009 53.9724 1.90562C54.0833 1.79595 54.2331 1.73441 54.3893 1.73441C54.5455 1.73441 54.6953 1.79595 54.8062 1.90562C54.9074 2.01831 54.9633 2.16422 54.9634 2.31546V2.41189V2.53243C54.9634 4.20794 55.3622 12.5373 62.4682 12.5373C62.5506 12.5253 62.6346 12.5312 62.7145 12.5545C62.7944 12.5778 62.8683 12.6179 62.9313 12.6722C62.9942 12.7265 63.0447 12.7937 63.0793 12.8692C63.1139 12.9447 63.1318 13.0268 63.1318 13.1098C63.1318 13.1928 63.1139 13.2749 63.0793 13.3504C63.0447 13.4259 62.9942 13.4931 62.9313 13.5474C62.8683 13.6017 62.7944 13.6419 62.7145 13.6652C62.6346 13.6885 62.5506 13.6943 62.4682 13.6824C55.3622 13.6824 54.9634 22.0117 54.9634 23.6872V23.9042C54.9658 23.9795 54.9532 24.0545 54.9262 24.1249C54.8992 24.1953 54.8584 24.2596 54.8062 24.314C54.6947 24.4276 54.5427 24.4926 54.3833 24.4948ZM49.5492 13.1038C50.7923 13.696 51.8778 14.5722 52.7177 15.6613C53.5576 16.7503 54.1283 18.0216 54.3833 19.3719C54.6419 18.023 55.2139 16.7533 56.0534 15.6648C56.8929 14.5763 57.9766 13.6991 59.2173 13.1038C57.9763 12.512 56.8922 11.6374 56.0524 10.5507C55.2127 9.46395 54.6409 8.19552 54.3833 6.84777C54.1193 8.20646 53.5343 9.48278 52.6768 10.5708C51.8192 11.6588 50.7139 12.5272 49.4525 13.1038H49.5492ZM41.0896 10.8497C40.9419 10.8468 40.801 10.7878 40.6954 10.6847C40.5899 10.5817 40.5277 10.4424 40.5216 10.2952V10.1023C40.5403 8.88463 40.1393 7.69741 39.3856 6.73928C39.1325 6.494 38.8308 6.30406 38.5 6.18161C38.1691 6.05915 37.8163 6.00687 37.464 6.02809C37.3038 6.02809 37.1501 5.9646 37.0368 5.85157C36.9234 5.73854 36.8598 5.58524 36.8598 5.42539C36.8598 5.26555 36.9234 5.11225 37.0368 4.99922C37.1501 4.88619 37.3038 4.82269 37.464 4.82269C37.8216 4.83786 38.1785 4.77811 38.5115 4.64732C38.8445 4.51652 39.1464 4.31757 39.3977 4.06329C40.1332 3.09372 40.5168 1.90365 40.4853 0.688171V0.591739C40.4709 0.468602 40.4974 0.344146 40.5607 0.237456C40.624 0.130767 40.7206 0.0477347 40.8358 0.00109251C40.9402 -0.0458411 41.0567 -0.0594504 41.1691 -0.037874C41.2816 -0.0162977 41.3847 0.0394108 41.4642 0.121633C41.5661 0.230034 41.6261 0.37101 41.6334 0.519415V0.772549C41.6143 1.98296 42.0157 3.16269 42.7694 4.11151C43.0253 4.35991 43.3309 4.55165 43.6662 4.6742C44.0015 4.79675 44.3589 4.84735 44.7151 4.82269C44.8754 4.82269 45.0291 4.88619 45.1424 4.99922C45.2557 5.11225 45.3194 5.26555 45.3194 5.42539C45.3194 5.58524 45.2557 5.73854 45.1424 5.85157C45.0291 5.9646 44.8754 6.02809 44.7151 6.02809C44.3574 6.01141 44.0001 6.07046 43.6668 6.20134C43.3335 6.33223 43.0318 6.53199 42.7815 6.7875C42.0268 7.76297 41.6302 8.96696 41.6576 10.1988V10.2952C41.6598 10.4101 41.6276 10.5231 41.5652 10.6197C41.5028 10.7163 41.4129 10.7922 41.3071 10.8376C41.2365 10.8585 41.162 10.8627 41.0896 10.8497ZM39.5427 5.42539C39.7776 5.57471 39.9928 5.7529 40.1832 5.95577C40.5668 6.34109 40.8743 6.79499 41.0896 7.29376C41.3032 6.80268 41.5972 6.3505 41.9597 5.95577C42.157 5.75553 42.3758 5.57766 42.6123 5.42539C42.3758 5.27313 42.157 5.09526 41.9597 4.89502C41.6027 4.51852 41.3089 4.08707 41.0896 3.61729C40.8841 4.12552 40.5802 4.58837 40.1953 4.9794C39.9929 5.14895 39.7743 5.29833 39.5427 5.42539ZM46.7213 26.3994C46.5757 26.3934 46.4378 26.3331 46.3348 26.2304C46.2318 26.1276 46.1713 25.99 46.1654 25.8449V25.6761C46.1835 24.7454 45.8758 23.8375 45.2952 23.1086C45.1078 22.9209 44.8829 22.7746 44.6352 22.6791C44.3874 22.5836 44.1224 22.541 43.8571 22.5541C43.7192 22.5341 43.5931 22.4652 43.5019 22.3601C43.4107 22.255 43.3605 22.1206 43.3605 21.9816C43.3605 21.8425 43.4107 21.7082 43.5019 21.603C43.5931 21.4979 43.7192 21.429 43.8571 21.409C44.1253 21.4231 44.3935 21.3798 44.6436 21.2821C44.8937 21.1844 45.12 21.0345 45.3073 20.8425C45.8838 20.0659 46.1856 19.1205 46.1654 18.1544C46.1605 18.0405 46.1902 17.9279 46.2506 17.8311C46.3109 17.7343 46.3992 17.658 46.5037 17.612C46.6106 17.5674 46.7283 17.555 46.8421 17.5765C46.956 17.5979 47.061 17.6521 47.1442 17.7325C47.2426 17.8421 47.2984 17.9832 47.3014 18.1303C47.3066 18.1905 47.3066 18.251 47.3014 18.3111C47.2938 19.2365 47.6005 20.1372 48.1715 20.8666C48.3613 21.0503 48.5868 21.1932 48.8342 21.2865C49.0815 21.3798 49.3455 21.4215 49.6096 21.409C49.7476 21.429 49.8736 21.4979 49.9648 21.603C50.056 21.7082 50.1062 21.8425 50.1062 21.9816C50.1062 22.1206 50.056 22.255 49.9648 22.3601C49.8736 22.4652 49.7476 22.5341 49.6096 22.5541C49.3414 22.5401 49.0732 22.5833 48.8231 22.681C48.573 22.7788 48.3467 22.9286 48.1594 23.1207C47.5845 23.898 47.2829 24.8429 47.3014 25.8087C47.3062 25.9226 47.2765 26.0353 47.2161 26.132C47.1558 26.2288 47.0675 26.3052 46.963 26.3511C46.8874 26.3863 46.8046 26.4029 46.7213 26.3994ZM45.7303 21.9876C45.8705 22.0866 46.0001 22.1997 46.117 22.3251C46.3609 22.578 46.5647 22.8666 46.7213 23.1809C46.8778 22.8666 47.0816 22.578 47.3255 22.3251C47.4425 22.1997 47.5721 22.0866 47.7123 21.9876C47.5748 21.8809 47.4455 21.764 47.3255 21.638C47.079 21.3873 46.8749 21.0982 46.7213 20.7822C46.5607 21.1074 46.3485 21.4045 46.0928 21.6621C45.9837 21.783 45.8622 21.892 45.7303 21.9876ZM54.5404 31.3415V43.3955C54.5404 44.0349 54.2857 44.6481 53.8324 45.1002C53.3792 45.5523 52.7644 45.8063 52.1233 45.8063H6.15135C5.51031 45.8063 4.89553 45.5523 4.44225 45.1002C3.98897 44.6481 3.73432 44.0349 3.73432 43.3955V7.23349C3.73432 6.59411 3.98897 5.98091 4.44225 5.5288C4.89553 5.07669 5.51031 4.82269 6.15135 4.82269H32.7387V6.02809H6.15135C5.83083 6.02809 5.52344 6.15509 5.2968 6.38115C5.07016 6.6072 4.94283 6.9138 4.94283 7.23349V43.3955C4.94283 43.7152 5.07016 44.0218 5.2968 44.2478C5.52344 44.4739 5.83083 44.6009 6.15135 44.6009H52.1596C52.4801 44.6009 52.7875 44.4739 53.0141 44.2478C53.2408 44.0218 53.3681 43.7152 53.3681 43.3955V31.3415H54.5404ZM0 22.1805V18.8053C0 18.6135 0.0763953 18.4296 0.21238 18.2939C0.348364 18.1583 0.532799 18.0821 0.72511 18.0821C0.819772 18.0821 0.913488 18.1009 1.00079 18.1374C1.0881 18.1739 1.16725 18.2273 1.23362 18.2946C1.29999 18.362 1.35225 18.4418 1.38737 18.5295C1.42248 18.6172 1.43974 18.7109 1.43814 18.8053V22.1805C1.43974 22.2749 1.42248 22.3686 1.38737 22.4563C1.35225 22.544 1.29999 22.6238 1.23362 22.6912C1.16725 22.7585 1.0881 22.8119 1.00079 22.8484C0.913488 22.8849 0.819772 22.9037 0.72511 22.9037C0.532799 22.9037 0.348364 22.8275 0.21238 22.6919C0.0763953 22.5562 0 22.3723 0 22.1805H0ZM0 25.7967V24.8323C0 24.6405 0.0763953 24.4566 0.21238 24.3209C0.348364 24.1853 0.532799 24.1091 0.72511 24.1091C0.819772 24.1091 0.913488 24.1279 1.00079 24.1644C1.0881 24.2009 1.16725 24.2543 1.23362 24.3216C1.29999 24.389 1.35225 24.4688 1.38737 24.5565C1.42248 24.6442 1.43974 24.7379 1.43814 24.8323V25.7967C1.43974 25.8911 1.42248 25.9848 1.38737 26.0725C1.35225 26.1602 1.29999 26.24 1.23362 26.3074C1.16725 26.3747 1.0881 26.4281 1.00079 26.4646C0.913488 26.5011 0.819772 26.5199 0.72511 26.5199C0.629887 26.5199 0.535597 26.5012 0.447623 26.4648C0.359648 26.4285 0.279713 26.3752 0.21238 26.3081C0.145047 26.2409 0.0916359 26.1612 0.0551957 26.0734C0.0187555 25.9857 0 25.8916 0 25.7967H0ZM0 16.1535V11.5729C0 11.3811 0.0763953 11.1972 0.21238 11.0615C0.348364 10.9259 0.532799 10.8497 0.72511 10.8497C0.819772 10.8497 0.913488 10.8685 1.00079 10.905C1.0881 10.9415 1.16725 10.9949 1.23362 11.0622C1.29999 11.1296 1.35225 11.2094 1.38737 11.2971C1.42248 11.3848 1.43974 11.4785 1.43814 11.5729V16.1535C1.43974 16.2479 1.42248 16.3416 1.38737 16.4293C1.35225 16.517 1.29999 16.5968 1.23362 16.6642C1.16725 16.7315 1.0881 16.7849 1.00079 16.8214C0.913488 16.8579 0.819772 16.8767 0.72511 16.8767C0.532799 16.8767 0.348364 16.8005 0.21238 16.6649C0.0763953 16.5292 0 16.3453 0 16.1535H0ZM36.9202 48.5667H40.3161C40.4102 48.565 40.5037 48.5823 40.5909 48.6175C40.6782 48.6526 40.7574 48.705 40.824 48.7713C40.8905 48.8377 40.943 48.9168 40.9782 49.0038C41.0135 49.0908 41.0308 49.184 41.0292 49.2779C41.0308 49.3723 41.0135 49.466 40.9784 49.5537C40.9433 49.6414 40.891 49.7212 40.8246 49.7885C40.7583 49.8559 40.6791 49.9093 40.5918 49.9458C40.5045 49.9823 40.4108 50.0011 40.3161 50.0011H36.9202C36.7279 50.0011 36.5434 49.9249 36.4075 49.7893C36.2715 49.6536 36.1951 49.4697 36.1951 49.2779C36.1951 49.1834 36.2139 49.09 36.2505 49.0029C36.2871 48.9158 36.3407 48.8369 36.4082 48.7707C36.4757 48.7045 36.5557 48.6523 36.6436 48.6173C36.7315 48.5823 36.8255 48.5651 36.9202 48.5667ZM42.9628 48.5667H47.5672C47.6613 48.565 47.7548 48.5823 47.842 48.6175C47.9293 48.6526 48.0085 48.705 48.0751 48.7713C48.1416 48.8377 48.1941 48.9168 48.2293 49.0038C48.2646 49.0908 48.2819 49.184 48.2803 49.2779C48.2819 49.3723 48.2646 49.466 48.2295 49.5537C48.1944 49.6414 48.1421 49.7212 48.0757 49.7885C48.0094 49.8559 47.9302 49.9093 47.8429 49.9458C47.7556 49.9823 47.6619 50.0011 47.5672 50.0011H42.9628C42.7705 50.0011 42.586 49.9249 42.4501 49.7893C42.3141 49.6536 42.2377 49.4697 42.2377 49.2779C42.2377 49.1834 42.2565 49.09 42.2931 49.0029C42.3297 48.9158 42.3833 48.8369 42.4508 48.7707C42.5183 48.7045 42.5983 48.6523 42.6862 48.6173C42.7741 48.5823 42.8681 48.5651 42.9628 48.5667Z" stroke="#F0B420" stroke-width="0.4" mask="url(#path-1-outside-1)"/>
</svg>
