<svg width="114" height="114" viewBox="0 0 114 114" fill="none" xmlns="http://www.w3.org/2000/svg">
<path d="M57 0C25.5702 0 0 25.5702 0 57C0 88.4298 25.5702 114 57 114C88.4298 114 114 88.4298 114 57C114 25.5702 88.4298 0 57 0ZM57 108.3C28.7133 108.3 5.7 85.2867 5.7 57C5.7 28.7133 28.7133 5.7 57 5.7C85.2867 5.7 108.3 28.7133 108.3 57C108.3 85.2867 85.2867 108.3 57 108.3Z" fill="#F0B420"/>
<path d="M56.9998 11.5879C31.9597 11.5879 11.5879 31.9597 11.5879 56.9998C11.5879 82.0399 31.9597 102.412 56.9998 102.412C82.0399 102.412 102.412 82.0399 102.412 56.9998C102.412 31.9597 82.0399 11.5879 56.9998 11.5879ZM56.9998 98.3403C34.2047 98.3403 15.6593 79.7957 15.6593 56.9998C15.6593 34.2039 34.2047 15.6593 56.9998 15.6593C79.7949 15.6593 98.3403 34.2047 98.3403 56.9998C98.3403 79.7949 79.7949 98.3403 56.9998 98.3403Z" fill="#F0B420"/>
<path d="M57.0496 37.8887C58.5544 37.8887 60.0315 38.0662 61.4606 38.4025C61.472 38.405 61.4834 38.4082 61.4948 38.4099C64.9001 39.2176 68.0253 40.9496 70.5626 43.4861C71.6758 44.5984 73.481 44.5993 74.5925 43.4861C75.7057 42.373 75.7057 40.5685 74.5925 39.4554C71.824 36.6868 68.5139 34.6609 64.905 33.4598V25.8471C64.905 24.2731 63.629 22.9971 62.055 22.9971C60.481 22.9971 59.205 24.2731 59.205 25.8471V32.2856C58.4917 32.2246 57.7735 32.1879 57.0496 32.1879C56.3249 32.1879 55.6067 32.2246 54.8933 32.2856V25.8471C54.8933 24.2731 53.6174 22.9971 52.0433 22.9971C50.4693 22.9971 49.1933 24.2731 49.1933 25.8471V33.4598C45.5844 34.6609 42.2744 36.6877 39.5066 39.4554C34.8196 44.1416 32.2383 50.3725 32.2383 57C32.2383 63.6275 34.8196 69.8576 39.5058 74.5438C42.2744 77.3124 45.5836 79.3383 49.1925 80.5394V88.1521C49.1925 89.7262 50.4685 91.0021 52.0425 91.0021C53.6165 91.0021 54.8925 89.7262 54.8925 88.1521V81.7136C55.6058 81.7747 56.3249 81.8113 57.0488 81.8113C57.7727 81.8113 58.4917 81.7747 59.2042 81.7136V88.1521C59.2042 89.7262 60.4802 91.0021 62.0542 91.0021C63.6282 91.0021 64.9042 89.7262 64.9042 88.1521V80.5402C68.5139 79.3391 71.824 77.3124 74.5917 74.5438C75.7049 73.4315 75.7049 71.6262 74.5917 70.5139C73.4786 69.4008 71.675 69.4008 70.5618 70.5139C68.0237 73.0512 64.8968 74.7832 61.4907 75.591C61.4817 75.5926 61.4728 75.595 61.4638 75.5967C60.0331 75.9338 58.5544 76.1113 57.0479 76.1113C55.5497 76.1113 54.0799 75.9354 52.6565 75.6024C52.6329 75.5975 52.6101 75.591 52.5865 75.5869C49.1876 74.7775 46.0673 73.0471 43.5341 70.5139C39.926 66.9034 37.9383 62.1048 37.9383 57C37.9383 51.8944 39.926 47.0959 43.5357 43.4869C47.1454 39.8772 51.9448 37.8887 57.0496 37.8887Z" fill="#F0B420"/>
</svg>
