<svg width="90" height="90" viewBox="0 0 90 90" fill="none" xmlns="http://www.w3.org/2000/svg">
<path d="M45 0C20.187 0 0 20.187 0 45C0 69.813 20.187 90 45 90C69.813 90 90 69.813 90 45C90 20.187 69.813 0 45 0ZM45 85.5C22.6684 85.5 4.5 67.3316 4.5 45C4.5 22.6684 22.6684 4.5 45 4.5C67.3316 4.5 85.5 22.6684 85.5 45C85.5 67.3316 67.3316 85.5 45 85.5Z" fill="#D7DBDD" fill-opacity="0.7"/>
<path d="M44.9999 9.14844C25.2314 9.14844 9.14844 25.2314 9.14844 44.9999C9.14844 64.7684 25.2314 80.8514 44.9999 80.8514C64.7684 80.8514 80.8514 64.7684 80.8514 44.9999C80.8514 25.2314 64.7684 9.14844 44.9999 9.14844ZM44.9999 77.6371C27.0038 77.6371 12.3627 62.9967 12.3627 44.9999C12.3627 27.0031 27.0038 12.3627 44.9999 12.3627C62.9961 12.3627 77.6371 27.0038 77.6371 44.9999C77.6371 62.9961 62.9961 77.6371 44.9999 77.6371Z" fill="#D7DBDD" fill-opacity="0.7"/>
<path d="M45.039 29.9118C46.227 29.9118 47.3932 30.052 48.5214 30.3175C48.5304 30.3194 48.5394 30.322 48.5484 30.3233C51.2368 30.961 53.7041 32.3283 55.7072 34.3308C56.586 35.209 58.0112 35.2096 58.8887 34.3308C59.7675 33.4521 59.7675 32.0275 58.8887 31.1487C56.703 28.963 54.0898 27.3636 51.2407 26.4153V20.4053C51.2407 19.1626 50.2333 18.1553 48.9907 18.1553C47.748 18.1553 46.7407 19.1626 46.7407 20.4053V25.4883C46.1775 25.4401 45.6105 25.4112 45.039 25.4112C44.4669 25.4112 43.8999 25.4401 43.3367 25.4883V20.4053C43.3367 19.1626 42.3294 18.1553 41.0867 18.1553C39.8441 18.1553 38.8367 19.1626 38.8367 20.4053V26.4153C35.9876 27.3636 33.3744 28.9636 31.1893 31.1487C27.489 34.8483 25.4512 39.7675 25.4512 44.9997C25.4512 50.2319 27.489 55.1504 31.1887 58.8501C33.3744 61.0358 35.987 62.6352 38.8361 63.5834V69.5935C38.8361 70.8361 39.8435 71.8435 41.0861 71.8435C42.3287 71.8435 43.3361 70.8361 43.3361 69.5935V64.5104C43.8992 64.5586 44.4669 64.5876 45.0384 64.5876C45.6099 64.5876 46.1775 64.5586 46.74 64.5104V69.5935C46.74 70.8361 47.7474 71.8435 48.99 71.8435C50.2327 71.8435 51.24 70.8361 51.24 69.5935V63.5841C54.0898 62.6358 56.703 61.0358 58.8881 58.8501C59.7669 57.9719 59.7669 56.5467 58.8881 55.6686C58.0093 54.7898 56.5854 54.7898 55.7066 55.6686C53.7028 57.6717 51.2342 59.0391 48.5452 59.6768C48.5381 59.6781 48.531 59.68 48.524 59.6813C47.3945 59.9474 46.227 60.0876 45.0377 60.0876C43.8549 60.0876 42.6945 59.9487 41.5708 59.6858C41.5522 59.6819 41.5342 59.6768 41.5155 59.6736C38.8322 59.0346 36.3688 57.6685 34.3689 55.6686C31.5204 52.8181 29.9512 49.0298 29.9512 44.9997C29.9512 40.969 31.5204 37.1806 34.3702 34.3315C37.22 31.4817 41.009 29.9118 45.039 29.9118Z" fill="#D7DBDD" fill-opacity="0.7"/>
</svg>
