<svg width="90" height="90" viewBox="0 0 90 90" fill="none" xmlns="http://www.w3.org/2000/svg">
<path d="M45 90C20.1768 90 1.76392e-06 69.8232 3.93402e-06 45C6.10415e-06 20.1767 20.1768 -5.92712e-05 45 -5.71011e-05C69.8233 -5.4931e-05 90.0001 20.1767 90.0001 45C90.0001 69.8232 69.8232 90 45 90ZM45 85C67.121 85 85.0001 67.121 85.0001 45C85.0001 22.8789 67.121 4.99994 45 4.99994C22.879 4.99994 5.00001 22.8789 5.00001 45C5 67.121 22.879 85 45 85Z" fill="#D7DBDD" fill-opacity="0.7"/>
<path d="M32.75 73.0146C41.3833 73.0146 48.5 66.0146 48.5 57.2646C48.5 48.6313 41.5 41.5146 32.75 41.5146C24.1167 41.5146 17 48.5146 17 57.2646C17 66.0146 24 73.0146 32.75 73.0146ZM32.75 43.9646C40.1 43.9646 46.1666 49.9146 46.1666 57.3813C46.1666 64.7313 40.2167 70.798 32.75 70.798C25.2833 70.6813 19.3333 64.7313 19.3333 57.2646C19.3333 49.9146 25.2833 43.9646 32.75 43.9646Z" fill="#D7DBDD" fill-opacity="0.7"/>
<path d="M57.25 17.0146C48.6167 17.0146 41.5 24.0146 41.5 32.7646C41.5 41.398 48.5 48.5146 57.25 48.5146C65.8833 48.5146 73 41.5146 73 32.7646C73 24.0146 66 17.0146 57.25 17.0146ZM57.25 46.0646C49.9 46.0646 43.8333 40.1146 43.8333 32.648C43.8333 25.298 49.7833 19.2313 57.25 19.2313C64.7167 19.348 70.6666 25.298 70.6666 32.7646C70.6666 40.1146 64.7167 46.0646 57.25 46.0646Z" fill="#D7DBDD" fill-opacity="0.7"/>
<path d="M18.05 41.515C18.05 41.515 18.1667 41.515 18.05 41.515C18.75 41.515 19.2167 41.0483 19.3333 40.465C20.2667 29.265 29.1333 20.3983 40.45 19.3483C41.0333 19.3483 41.6167 18.765 41.5 18.065C41.5 17.4817 40.9167 16.8983 40.2167 17.015C27.85 18.065 18.05 27.865 17 40.2317C17 40.815 17.4667 41.3983 18.05 41.515Z" fill="#D7DBDD" fill-opacity="0.7"/>
<path d="M49.7832 73.0146C62.1499 71.9646 71.8332 62.1646 72.9999 49.798C72.9999 49.2146 72.5332 48.6313 71.9499 48.5146C71.2499 48.5146 70.7832 48.9813 70.6666 49.5646C69.6166 60.7646 60.7499 69.6313 49.6666 70.5646C49.0832 70.5646 48.4999 71.148 48.6166 71.848C48.6166 72.548 49.0832 73.0146 49.7832 73.0146Z" fill="#D7DBDD" fill-opacity="0.7"/>
<path d="M39.9634 55.6384C40.2547 53.6419 38.7721 52.5687 36.7449 51.8527L37.4025 49.1483L35.7969 48.738L35.1567 51.3712C34.7346 51.2633 34.301 51.1616 33.8703 51.0608L34.5151 48.4103L32.9104 48L32.2523 50.7035C31.9029 50.6219 31.5599 50.5413 31.227 50.4564L31.2288 50.448L29.0146 49.8811L28.5874 51.6394C28.5874 51.6394 29.7787 51.9193 29.7536 51.9366C30.4039 52.1031 30.5214 52.5443 30.5017 52.8941L29.7527 55.975C29.7975 55.9867 29.8556 56.0036 29.9196 56.0299C29.8661 56.0163 29.8089 56.0013 29.7499 55.9867L28.6999 60.3027C28.6204 60.5052 28.4187 60.809 27.9641 60.6937C27.9801 60.7176 26.7971 60.395 26.7971 60.395L26 62.2794L28.0894 62.8135C28.4781 62.9133 28.8591 63.0179 29.2341 63.1164L28.5696 65.8517L30.1734 66.262L30.8314 63.5557C31.2695 63.6776 31.6948 63.7901 32.111 63.8961L31.4552 66.5897L33.0608 67L33.7253 64.2698C36.4632 64.801 38.522 64.5867 39.3886 62.0478C40.0869 60.0035 39.3538 58.8243 37.9133 58.0554C38.9624 57.8073 39.7526 57.0998 39.9634 55.6384V55.6384ZM36.2949 60.9127C35.7987 62.9569 32.4416 61.8518 31.3532 61.5747L32.2349 57.9508C33.3233 58.2293 36.8135 58.7807 36.2949 60.9127ZM36.7915 55.6088C36.3388 57.4684 33.5447 56.5236 32.6383 56.292L33.4376 53.0052C34.344 53.2368 37.263 53.6691 36.7915 55.6088V55.6088Z" stroke="#D7DBDD" stroke-opacity="0.7" stroke-width="1.5"/>
<mask id="path-7-inside-1" fill="white">
<path fill-rule="evenodd" clip-rule="evenodd" d="M51 32.5345L57.9996 21L58.0007 21.0137L58.0018 21L65.0015 32.5345L58.0017 29.4032L51 32.5345Z"/>
</mask>
<path d="M57.9996 21L60.9899 20.7591L60.2453 11.5168L55.4349 19.4436L57.9996 21ZM51 32.5345L48.4353 30.9781L43.4466 39.1989L52.2248 35.2731L51 32.5345ZM58.0007 21.0137L55.0104 21.2547L60.9912 21.2532L58.0007 21.0137ZM58.0018 21L60.5665 19.4436L55.7522 11.5102L55.0114 20.7605L58.0018 21ZM65.0015 32.5345L63.7764 35.273L72.5557 39.2003L67.5662 30.9781L65.0015 32.5345ZM58.0017 29.4032L59.2267 26.6647L58.0019 26.1168L56.7769 26.6646L58.0017 29.4032ZM55.4349 19.4436L48.4353 30.9781L53.5647 34.0909L60.5643 22.5564L55.4349 19.4436ZM60.991 20.7728L60.9899 20.7591L55.0093 21.2409L55.0104 21.2547L60.991 20.7728ZM60.9912 21.2532L60.9923 21.2395L55.0114 20.7605L55.0103 20.7742L60.9912 21.2532ZM55.4371 22.5564L62.4368 34.0909L67.5662 30.9781L60.5665 19.4436L55.4371 22.5564ZM66.2265 29.796L59.2267 26.6647L56.7767 32.1417L63.7764 35.273L66.2265 29.796ZM52.2248 35.2731L59.2264 32.1418L56.7769 26.6646L49.7752 29.7959L52.2248 35.2731Z" fill="#D7DBDD" fill-opacity="0.7" mask="url(#path-7-inside-1)"/>
<mask id="path-9-inside-2" fill="white">
<path fill-rule="evenodd" clip-rule="evenodd" d="M57.9995 37.9601L57.9996 37.96L65.0034 33.8525L57.9996 43.6495V43.6498L51 33.8527L57.9995 37.9601Z"/>
</mask>
<path d="M57.9996 37.96L56.482 35.3722L56.0248 35.6403L55.6871 36.0488L57.9996 37.96ZM57.9995 37.9601L56.4812 40.5475L58.6846 41.8404L60.312 39.8712L57.9995 37.9601ZM65.0034 33.8525L67.4439 35.5972L63.4858 31.2647L65.0034 33.8525ZM57.9996 43.6495L55.5591 41.9049L54.9996 42.6875V43.6495H57.9996ZM57.9996 43.6498L55.5586 45.3938L60.9996 53.0093V43.6498H57.9996ZM51 33.8527L52.5183 31.2653L48.559 35.5967L51 33.8527ZM55.6871 36.0488L55.6871 36.0489L60.312 39.8712L60.3121 39.8711L55.6871 36.0488ZM63.4858 31.2647L56.482 35.3722L59.5173 40.5478L66.5211 36.4403L63.4858 31.2647ZM60.4402 45.3942L67.4439 35.5972L62.5629 32.1078L55.5591 41.9049L60.4402 45.3942ZM60.9996 43.6498V43.6495H54.9996V43.6498H60.9996ZM48.559 35.5967L55.5586 45.3938L60.4406 41.9058L53.441 32.1087L48.559 35.5967ZM59.5179 35.3727L52.5183 31.2653L49.4817 36.4401L56.4812 40.5475L59.5179 35.3727Z" fill="#D7DBDD" fill-opacity="0.7" mask="url(#path-9-inside-2)"/>
<mask id="path-11-inside-3" fill="white">
<path fill-rule="evenodd" clip-rule="evenodd" d="M64.4019 32.8853L57.9995 36.6439L57.9992 36.6412L57.9991 36.6441L51.5967 32.8855L57.9991 29.9953L57.9992 29.9979L57.9995 29.9951L64.4019 32.8853Z"/>
</mask>
<path d="M57.9995 36.6439L55.0144 36.9422L55.48 41.6017L59.5183 39.231L57.9995 36.6439ZM64.4019 32.8853L65.9207 35.4724L70.9213 32.5368L65.6362 30.151L64.4019 32.8853ZM57.9992 36.6412L60.9843 36.3429L55.0031 36.4888L57.9992 36.6412ZM57.9991 36.6441L56.4803 39.2312L60.744 41.7343L60.9952 36.7965L57.9991 36.6441ZM51.5967 32.8855L50.3623 30.1512L45.0773 32.537L50.0779 35.4727L51.5967 32.8855ZM57.9991 29.9953L60.9952 29.8435L60.7727 25.4518L56.7647 27.261L57.9991 29.9953ZM57.9992 29.9979L55.003 30.1497L60.9845 30.295L57.9992 29.9979ZM57.9995 29.9951L59.2338 27.2608L55.4277 25.5426L55.0142 29.6981L57.9995 29.9951ZM59.5183 39.231L65.9207 35.4724L62.8831 30.2982L56.4807 34.0567L59.5183 39.231ZM55.0141 36.9396L55.0144 36.9422L60.9846 36.3455L60.9843 36.3429L55.0141 36.9396ZM60.9952 36.7965L60.9953 36.7937L55.0031 36.4888L55.0029 36.4917L60.9952 36.7965ZM50.0779 35.4727L56.4803 39.2312L59.5179 34.057L53.1155 30.2984L50.0779 35.4727ZM56.7647 27.261L50.3623 30.1512L52.831 35.6198L59.2334 32.7296L56.7647 27.261ZM60.9954 29.8461L60.9952 29.8435L55.0029 30.1472L55.003 30.1497L60.9954 29.8461ZM55.0142 29.6981L55.0139 29.7009L60.9845 30.295L60.9847 30.2922L55.0142 29.6981ZM65.6362 30.151L59.2338 27.2608L56.7652 32.7294L63.1675 35.6196L65.6362 30.151Z" fill="#D7DBDD" fill-opacity="0.7" mask="url(#path-11-inside-3)"/>
</svg>
