<svg width="114" height="114" viewBox="0 0 114 114" fill="none" xmlns="http://www.w3.org/2000/svg">
<path d="M57 114C25.5573 114 2.23429e-06 88.4427 4.98309e-06 57C7.73191e-06 25.5572 25.5573 2.23429e-06 57 4.9831e-06C88.4427 7.73191e-06 114 25.5572 114 57C114 88.4427 88.4427 114 57 114ZM57 107.667C85.0199 107.667 107.667 85.0199 107.667 57C107.667 28.98 85.0199 6.33334 57 6.33333C28.9801 6.33333 6.33334 28.98 6.33334 57C6.33334 85.0199 28.9801 107.667 57 107.667Z" fill="#F0B420"/>
<path d="M41.4832 92.4859C52.4187 92.4859 61.4332 83.6192 61.4332 72.5359C61.4332 61.6004 52.5665 52.5859 41.4832 52.5859C30.5476 52.5859 21.5332 61.4526 21.5332 72.5359C21.5332 83.6192 30.3999 92.4859 41.4832 92.4859ZM41.4832 55.6893C50.7932 55.6893 58.4776 63.2259 58.4776 72.6837C58.4776 81.9937 50.9409 89.6781 41.4832 89.6781C32.0254 89.5303 24.4888 81.9937 24.4888 72.5359C24.4888 63.2259 32.0254 55.6893 41.4832 55.6893Z" fill="#F0B420"/>
<path d="M72.5164 21.5527C61.5808 21.5527 52.5664 30.4194 52.5664 41.5027C52.5664 52.4383 61.4331 61.4527 72.5164 61.4527C83.4519 61.4527 92.4664 52.586 92.4664 41.5027C92.4664 30.4194 83.5997 21.5527 72.5164 21.5527ZM72.5164 58.3494C63.2064 58.3494 55.522 50.8127 55.522 41.3549C55.522 32.0449 63.0586 24.3605 72.5164 24.3605C81.9741 24.5083 89.5108 32.0449 89.5108 41.5027C89.5108 50.8127 81.9741 58.3494 72.5164 58.3494Z" fill="#F0B420"/>
<path d="M22.8632 52.5855C22.8632 52.5855 23.011 52.5855 22.8632 52.5855C23.7499 52.5855 24.341 51.9944 24.4888 51.2555C25.671 37.0689 36.9021 25.8378 51.2365 24.5078C51.9754 24.5078 52.7143 23.7689 52.5665 22.8822C52.5665 22.1433 51.8276 21.4044 50.9409 21.5522C35.2765 22.8822 22.8632 35.2955 21.5332 50.96C21.5332 51.6988 22.1243 52.4377 22.8632 52.5855Z" fill="#F0B420"/>
<path d="M63.0588 92.4854C78.7232 91.1554 90.9888 78.7421 92.4666 63.0777C92.4666 62.3388 91.8754 61.5999 91.1366 61.4521C90.2499 61.4521 89.6588 62.0433 89.511 62.7821C88.181 76.9688 76.9499 88.1999 62.911 89.3821C62.1721 89.3821 61.4333 90.121 61.581 91.0077C61.581 91.8943 62.1721 92.4854 63.0588 92.4854Z" fill="#F0B420"/>
<path d="M50.6201 70.475C50.9891 67.9462 49.1111 66.5868 46.5433 65.6799L47.3763 62.2543L45.3425 61.7346L44.5315 65.07C43.9969 64.9334 43.4477 64.8045 42.9021 64.6768L43.7188 61.3195L41.6862 60.7998L40.8527 64.2242C40.4101 64.1209 39.9757 64.0187 39.554 63.9113L39.5563 63.9006L36.7516 63.1825L36.2105 65.4097C36.2105 65.4097 37.7195 65.7642 37.6876 65.7862C38.5113 65.997 38.6602 66.5559 38.6353 66.9989L37.6865 70.9015C37.7432 70.9163 37.8168 70.9377 37.8979 70.971C37.8301 70.9537 37.7577 70.9347 37.683 70.9163L36.353 76.3832C36.2522 76.6397 35.9968 77.0246 35.421 76.8785C35.4413 76.9088 33.9427 76.5002 33.9427 76.5002L32.9331 78.8871L35.5797 79.5635C36.0721 79.69 36.5546 79.8225 37.0296 79.9472L36.1879 83.412L38.2194 83.9317L39.0529 80.5037C39.6079 80.6581 40.1466 80.8006 40.6737 80.9348L39.843 84.3468L41.8768 84.8665L42.7185 81.4082C46.1865 82.0811 48.7943 81.8096 49.892 78.5937C50.7765 76.0043 49.8479 74.5106 48.0233 73.5366C49.3521 73.2224 50.353 72.3262 50.6201 70.475V70.475ZM45.9733 77.1558C45.3448 79.7452 41.0925 78.3454 39.7139 77.9944L40.8307 73.4042C42.2093 73.7569 46.6302 74.4554 45.9733 77.1558ZM46.6024 70.4376C46.0289 72.793 42.4897 71.5963 41.3416 71.3029L42.3541 67.1397C43.5022 67.4331 47.1996 67.9807 46.6024 70.4376V70.4376Z" stroke="#F0B420" stroke-width="1.5"/>
<mask id="path-7-inside-1" fill="white">
<path fill-rule="evenodd" clip-rule="evenodd" d="M82.3352 41.21L73.469 26.5997L73.4676 26.6172L73.4663 26.6005L64.6001 41.2109L73.4698 37.2442L82.3352 41.21Z"/>
</mask>
<path d="M73.469 26.5997L76.8886 24.5245L70.4695 13.9467L69.4818 26.2804L73.469 26.5997ZM82.3352 41.21L80.7018 44.8614L92.4076 50.0978L85.7548 39.1349L82.3352 41.21ZM73.4676 26.6172L69.4806 26.9384L77.4549 26.9365L73.4676 26.6172ZM73.4663 26.6005L77.4534 26.2793L76.4604 13.9563L70.0467 24.5254L73.4663 26.6005ZM64.6001 41.2109L61.1805 39.1357L54.5289 50.0967L66.2331 44.8624L64.6001 41.2109ZM73.4698 37.2442L75.1032 33.5929L73.47 32.8623L71.8368 33.5927L73.4698 37.2442ZM70.0494 28.6749L78.9156 43.2852L85.7548 39.1349L76.8886 24.5245L70.0494 28.6749ZM77.4549 26.9365L77.4563 26.919L69.4818 26.2804L69.4804 26.2979L77.4549 26.9365ZM77.4547 26.2959L77.4534 26.2793L69.4792 26.9218L69.4806 26.9384L77.4547 26.2959ZM70.0467 24.5254L61.1805 39.1357L68.0197 43.2861L76.8859 28.6757L70.0467 24.5254ZM66.2331 44.8624L75.1028 40.8957L71.8368 33.5927L62.9671 37.5594L66.2331 44.8624ZM83.9686 37.5587L75.1032 33.5929L71.8364 40.8955L80.7018 44.8614L83.9686 37.5587Z" fill="#F0B420" mask="url(#path-7-inside-1)"/>
<mask id="path-9-inside-2" fill="white">
<path fill-rule="evenodd" clip-rule="evenodd" d="M73.4661 48.0829L73.4663 48.0827L82.3378 42.8799L73.4663 55.2895V55.2899L64.6001 42.8802L73.4661 48.0829Z"/>
</mask>
<path d="M73.4663 48.0827L71.4428 44.6323L70.8329 44.9899L70.3826 45.535L73.4663 48.0827ZM73.4661 48.0829L71.4417 51.5328L74.3799 53.257L76.5498 50.6306L73.4661 48.0829ZM82.3378 42.8799L85.5918 45.2061L80.3142 39.4295L82.3378 42.8799ZM73.4663 55.2895L70.2123 52.9633L69.4663 54.0068V55.2895H73.4663ZM73.4663 55.2899L70.2116 57.6152L77.4663 67.7692V55.2899H73.4663ZM64.6001 42.8802L66.6245 39.4303L61.3454 45.2055L64.6001 42.8802ZM70.3826 45.535L70.3824 45.5352L76.5498 50.6306L76.55 50.6304L70.3826 45.535ZM80.3142 39.4295L71.4428 44.6323L75.4898 51.5331L84.3613 46.3303L80.3142 39.4295ZM76.7203 57.6158L85.5918 45.2061L79.0838 40.5536L70.2123 52.9633L76.7203 57.6158ZM77.4663 55.2899V55.2895H69.4663V55.2899H77.4663ZM61.3454 45.2055L70.2116 57.6152L76.721 52.9645L67.8548 40.5549L61.3454 45.2055ZM75.4906 44.633L66.6245 39.4303L62.5757 46.3301L71.4417 51.5328L75.4906 44.633Z" fill="#F0B420" mask="url(#path-9-inside-2)"/>
<mask id="path-11-inside-3" fill="white">
<path fill-rule="evenodd" clip-rule="evenodd" d="M81.5763 41.6541L73.4667 46.4149L73.4663 46.4116L73.4661 46.4153L65.3564 41.6545L73.4661 37.9936L73.4663 37.9967L73.4667 37.9932L81.5763 41.6541Z"/>
</mask>
<path d="M73.4667 46.4149L69.4864 46.8121L70.1065 53.0258L75.4917 49.8644L73.4667 46.4149ZM81.5763 41.6541L83.6014 45.1036L90.2689 41.1894L83.2221 38.0083L81.5763 41.6541ZM73.4663 46.4116L77.4466 46.0144L69.4715 46.2078L73.4663 46.4116ZM73.4661 46.4153L71.4411 49.8648L77.1251 53.2017L77.4609 46.6191L73.4661 46.4153ZM65.3564 41.6545L63.7107 38.0087L56.6639 41.1898L63.3314 45.104L65.3564 41.6545ZM73.4661 37.9936L77.461 37.7915L77.1648 31.9352L71.8204 34.3478L73.4661 37.9936ZM73.4663 37.9967L69.4714 38.1988L77.4466 38.3931L73.4663 37.9967ZM73.4667 37.9932L75.1124 34.3474L70.0381 32.0567L69.4863 37.5968L73.4667 37.9932ZM75.4917 49.8644L83.6014 45.1036L79.5513 38.2046L71.4416 42.9654L75.4917 49.8644ZM69.4861 46.8088L69.4864 46.8121L77.4469 46.0177L77.4466 46.0144L69.4861 46.8088ZM77.4609 46.6191L77.4611 46.6154L69.4715 46.2078L69.4713 46.2115L77.4609 46.6191ZM63.3314 45.104L71.4411 49.8648L75.4912 42.9658L67.3815 38.205L63.3314 45.104ZM71.8204 34.3478L63.7107 38.0087L67.0022 45.3002L75.1119 41.6393L71.8204 34.3478ZM77.4612 37.7947L77.461 37.7915L69.4712 38.1956L69.4714 38.1988L77.4612 37.7947ZM69.4863 37.5968L69.486 37.6003L77.4466 38.3931L77.447 38.3896L69.4863 37.5968ZM83.2221 38.0083L75.1124 34.3474L71.8209 41.6389L79.9306 45.2998L83.2221 38.0083Z" fill="#F0B420" mask="url(#path-11-inside-3)"/>
</svg>
