<svg width="114" height="114" viewBox="0 0 114 114" fill="none" xmlns="http://www.w3.org/2000/svg">
<path fill-rule="evenodd" clip-rule="evenodd" d="M22.1349 82.333C21.5048 82.3328 20.8891 82.1447 20.3665 81.7927C19.8439 81.4407 19.4381 80.9408 19.2012 80.3569C18.9642 79.7731 18.9069 79.1318 19.0364 78.5151C19.1659 77.8985 19.4764 77.3345 19.9282 76.8952L42.0949 54.7286C42.6887 54.1349 43.4941 53.8015 44.3338 53.8015C45.1735 53.8015 45.9788 54.1349 46.5727 54.7286L57.0005 65.1563L84.1893 37.9675L66.5376 37.9675C66.1191 37.9735 65.7037 37.8959 65.3154 37.7394C64.9271 37.583 64.5737 37.3507 64.2757 37.056C63.9777 36.7614 63.7411 36.4103 63.5795 36.0231C63.418 35.636 63.3349 35.2205 63.3349 34.8008C63.3349 34.3812 63.418 33.9657 63.5795 33.5786C63.7411 33.1914 63.9777 32.8403 64.2757 32.5457C64.5737 32.251 64.9271 32.0187 65.3154 31.8623C65.7037 31.7058 66.1191 31.6283 66.5376 31.6342L91.7992 31.6342C91.8917 31.6342 91.9841 31.6384 92.0763 31.6466C92.1118 31.6493 92.1472 31.6526 92.1826 31.6565C92.2497 31.6634 92.3165 31.6725 92.383 31.6837C92.4211 31.6912 92.4591 31.6995 92.4968 31.7084C92.5734 31.7237 92.6493 31.7419 92.7244 31.7628C92.7335 31.7661 92.7426 31.7694 92.7517 31.7727C92.8437 31.7999 92.9346 31.8313 93.0238 31.8667C93.0329 31.8708 93.042 31.8749 93.051 31.8791C93.1282 31.9107 93.2041 31.9454 93.2786 31.983C93.3161 32.0029 93.3532 32.0235 93.3899 32.0449C93.4479 32.0777 93.5048 32.1123 93.5606 32.1488C93.5898 32.1681 93.6187 32.1879 93.6472 32.2081C93.6995 32.2437 93.7506 32.2808 93.8006 32.3195C93.8462 32.357 93.8908 32.3958 93.9342 32.4357C93.9687 32.4655 94.0025 32.496 94.0356 32.5273C94.0754 32.5658 94.1142 32.6054 94.1519 32.646C94.1857 32.6815 94.2187 32.7178 94.2509 32.7549C94.311 32.8257 94.368 32.8992 94.4216 32.9751C94.4241 32.9784 94.4265 32.9817 94.429 32.985C94.4708 33.047 94.5104 33.1106 94.5477 33.1755C94.569 33.2097 94.5896 33.2443 94.6096 33.2794C94.6383 33.3322 94.6656 33.3858 94.6912 33.4402C94.7093 33.4769 94.7266 33.5141 94.7432 33.5515C94.8151 33.7194 94.8722 33.8933 94.9139 34.071C94.9209 34.1006 94.9275 34.1303 94.9337 34.1601C94.9463 34.2224 94.957 34.2851 94.9658 34.3481C94.9723 34.3868 94.9781 34.4255 94.9832 34.4644C94.9895 34.5327 94.9936 34.6012 94.9955 34.6697C94.9972 34.7118 94.998 34.7538 94.998 34.7959C94.9989 34.8099 94.9998 34.8239 95.0005 34.838L95.0005 60.0996C95.007 60.5183 94.9299 60.9342 94.7737 61.323C94.6174 61.7118 94.3852 62.0657 94.0905 62.3641C93.7958 62.6626 93.4445 62.8996 93.0571 63.0614C92.6697 63.2231 92.2538 63.3065 91.8338 63.3065C91.4138 63.3065 90.9979 63.2231 90.6105 63.0614C90.2231 62.8996 89.8718 62.6626 89.5771 62.3641C89.2824 62.0657 89.0502 61.7118 88.894 61.323C88.7377 60.9342 88.6606 60.5183 88.6671 60.0996L88.6671 42.4454L59.2394 71.8731C58.6455 72.4668 57.8402 72.8002 57.0005 72.8002C56.1607 72.8002 55.3554 72.4668 54.7615 71.8731L44.3338 61.4454L24.406 81.3731C24.1109 81.6768 23.7578 81.9183 23.3677 82.0832C22.9776 82.248 22.5584 82.333 22.1349 82.333Z" fill="#F0B420"/>
<path d="M57 114C25.5573 114 2.23429e-06 88.4427 4.9831e-06 57C7.73192e-06 25.5572 25.5573 -7.40597e-05 57 -7.13108e-05C88.4428 -6.8562e-05 114 25.5572 114 57C114 88.4427 88.4428 114 57 114ZM57 107.667C85.02 107.667 107.667 85.0199 107.667 57C107.667 28.98 85.02 6.33327 57 6.33326C28.9801 6.33326 6.33334 28.9799 6.33334 57C6.33334 85.0199 28.9801 107.667 57 107.667Z" fill="#F0B420"/>
</svg>
