<svg width="90" height="90" viewBox="0 0 90 90" fill="none" xmlns="http://www.w3.org/2000/svg">
<path fill-rule="evenodd" clip-rule="evenodd" d="M17.4742 65C16.9768 64.9999 16.4907 64.8514 16.0781 64.5735C15.6655 64.2955 15.3452 63.9009 15.1581 63.4399C14.9711 62.979 14.9257 62.4727 15.028 61.9859C15.1302 61.4991 15.3754 61.0538 15.732 60.707L33.2321 43.207C33.7009 42.7384 34.3367 42.4751 34.9996 42.4751C35.6626 42.4751 36.2984 42.7384 36.7672 43.207L44.9996 51.4395L66.4645 29.9746L52.5289 29.9746C52.1986 29.9793 51.8706 29.9181 51.5641 29.7946C51.2575 29.671 50.9785 29.4876 50.7432 29.255C50.508 29.0224 50.3212 28.7452 50.1937 28.4396C50.0662 28.1339 50.0005 27.8059 50.0005 27.4746C50.0005 27.1433 50.0662 26.8153 50.1937 26.5096C50.3212 26.204 50.508 25.9268 50.7432 25.6942C50.9785 25.4616 51.2575 25.2782 51.5641 25.1547C51.8706 25.0311 52.1986 24.9699 52.5289 24.9746L72.4723 24.9746C72.5453 24.9747 72.6183 24.9779 72.6911 24.9844C72.7191 24.9865 72.7471 24.9891 72.7751 24.9922C72.828 24.9977 72.8808 25.0048 72.9333 25.0137C72.9633 25.0196 72.9933 25.0262 73.0231 25.0332C73.0835 25.0453 73.1434 25.0596 73.2028 25.0762C73.21 25.0787 73.2171 25.0814 73.2243 25.084C73.297 25.1054 73.3687 25.1302 73.4391 25.1582C73.4463 25.1614 73.4535 25.1647 73.4606 25.168C73.5215 25.1929 73.5815 25.2203 73.6403 25.25C73.6699 25.2657 73.6992 25.282 73.7282 25.2988C73.7739 25.3247 73.8189 25.3521 73.8629 25.3809C73.886 25.3961 73.9088 25.4117 73.9313 25.4277C73.9725 25.4558 74.0129 25.4851 74.0524 25.5156C74.0884 25.5452 74.1236 25.5759 74.1579 25.6074C74.1851 25.6309 74.2118 25.655 74.2379 25.6797C74.2694 25.7101 74.3 25.7414 74.3297 25.7734C74.3564 25.8015 74.3825 25.8301 74.4079 25.8594C74.4553 25.9153 74.5003 25.9733 74.5426 26.0332C74.5446 26.0358 74.5465 26.0384 74.5485 26.041C74.5815 26.09 74.6128 26.1402 74.6422 26.1914C74.659 26.2184 74.6753 26.2458 74.6911 26.2734C74.7138 26.3151 74.7353 26.3575 74.7555 26.4004C74.7698 26.4294 74.7834 26.4587 74.7965 26.4883C74.8533 26.6209 74.8984 26.7581 74.9313 26.8984C74.9368 26.9218 74.9421 26.9452 74.9469 26.9688C74.9569 27.018 74.9654 27.0675 74.9723 27.1172C74.9774 27.1477 74.982 27.1783 74.986 27.209C74.991 27.2629 74.9943 27.317 74.9958 27.3711C74.9971 27.4043 74.9977 27.4375 74.9977 27.4707C74.9984 27.4818 74.9991 27.4928 74.9997 27.5039L74.9997 47.4473C75.0048 47.7779 74.9439 48.1062 74.8206 48.4132C74.6973 48.7201 74.5139 48.9995 74.2813 49.2351C74.0486 49.4707 73.7713 49.6578 73.4654 49.7855C73.1596 49.9133 72.8313 49.979 72.4997 49.979C72.1681 49.979 71.8398 49.9133 71.5339 49.7855C71.228 49.6578 70.9507 49.4707 70.718 49.2351C70.4854 48.9995 70.302 48.7201 70.1787 48.4132C70.0554 48.1062 69.9945 47.7779 69.9997 47.4473L69.9997 33.5098L46.7672 56.7422C46.2984 57.2109 45.6626 57.4741 44.9996 57.4741C44.3367 57.4741 43.7009 57.2109 43.2321 56.7422L34.9996 48.5098L19.2672 64.2422C19.0342 64.482 18.7555 64.6726 18.4475 64.8027C18.1395 64.9329 17.8086 65 17.4742 65Z" fill="#D7DBDD" fill-opacity="0.7"/>
<path d="M45 90C20.1768 90 1.76392e-06 69.8232 3.93402e-06 45C6.10415e-06 20.1767 20.1768 -5.92712e-05 45 -5.71011e-05C69.8233 -5.4931e-05 90.0001 20.1767 90.0001 45C90.0001 69.8232 69.8232 90 45 90ZM45 85C67.121 85 85.0001 67.121 85.0001 45C85.0001 22.8789 67.121 4.99994 45 4.99994C22.879 4.99994 5.00001 22.8789 5.00001 45C5 67.121 22.879 85 45 85Z" fill="#D7DBDD" fill-opacity="0.7"/>
</svg>
