<svg width="435" height="411" viewBox="0 0 435 411" fill="none" xmlns="http://www.w3.org/2000/svg">
<path d="M101.794 15.7097C103.444 16.1976 105.403 15.6121 107.26 15.7097C108.6 15.8073 109.941 16.0024 111.282 16.2951C116.954 17.5637 122.627 19.4176 128.402 20.1983C136.55 21.3692 145.11 19.7104 152.639 24.4917C153.773 25.2723 155.836 24.6869 157.383 24.9796C169.243 27.8094 181.31 30.0537 192.758 33.8592C201.009 36.689 207.919 42.934 216.169 45.471C229.886 49.6669 239.684 59.4247 251.854 65.5721C259.898 69.6704 267.221 75.0372 275.059 79.6234C286.094 86.1611 296.202 93.3819 301.977 105.091C303.524 108.311 306.412 111.044 308.887 113.873C311.362 116.801 313.941 119.728 316.622 122.655L320.954 118.167C316.313 114.556 312.703 109.19 309.712 104.018C297.13 82.258 278.256 67.0358 255.67 55.1312C247.522 50.8378 240.2 45.2759 232.465 40.2994C231.33 39.5187 229.989 38.1526 228.855 38.2502C222.151 38.8357 219.367 33.0786 214.622 30.7367C205.444 26.2481 195.646 22.9305 186.157 19.0273C174.4 14.1484 161.611 17.0758 149.545 14.8315C135.003 12.1969 120.048 10.3429 106.125 5.95186C95.193 2.6342 84.7765 1.756 73.638 1.756C70.1314 1.756 66.6249 1.07295 63.1183 0.097168H40.8413C41.5632 0.292324 42.2852 0.487481 42.8009 0.877793C60.3337 13.3678 82.1981 10.3429 101.794 15.7097Z" fill="#979797" fill-opacity="0.1"/>
<path d="M202.246 63.2305C194.099 59.7177 185.538 56.9855 177.185 54.0581C175.534 53.4727 173.575 53.6678 171.822 53.3751C165.324 52.3017 158.827 51.2284 152.432 49.8623C149.132 49.1792 146.038 47.3252 142.738 46.5446C127.061 42.9342 111.179 41.0802 94.9866 40.4948C87.4578 40.202 79.929 39.2263 72.4002 37.665C61.6743 35.5183 50.2264 36.982 39.0879 36.1038C26.093 35.128 13.098 32.4934 0 33.7619V44.7882C1.85642 45.0809 3.6097 45.3737 5.46611 45.764C13.6137 47.5204 21.8645 49.1792 30.0121 50.8381C31.3528 51.1308 32.6936 51.9114 34.0343 51.9114C43.2132 51.7163 52.4953 53.9606 61.6743 50.4477C65.3871 48.9841 70.1313 49.8623 74.3598 49.8623C78.6914 49.7647 82.9199 49.6671 87.2516 49.8623C98.5963 50.4478 110.147 50.0574 121.08 52.1066C140.469 55.717 159.549 60.8886 178.732 65.5724C185.332 67.1336 192.552 67.4263 197.296 73.281C197.811 73.9641 199.049 74.0617 200.184 74.2568H219.882C217.407 72.9883 214.829 71.8174 212.353 70.5488C208.641 68.6949 206.062 64.8893 202.246 63.2305Z" fill="#979797" fill-opacity="0.1"/>
<path d="M150.988 9.36815C153.67 10.0512 156.867 10.8318 159.445 10.1488C171.512 6.92869 182.857 11.5149 194.202 13.1737C208.434 15.2228 221.842 21.2727 233.805 29.3717C245.15 36.9828 256.495 44.4963 268.046 51.6195C285.785 62.6458 298.883 77.4777 309.196 94.6515C313.631 101.97 318.272 108.8 324.976 113.874L328.276 110.362C327.451 110.166 326.832 109.874 326.42 109.483C321.16 103.434 316.106 97.0909 311.156 90.7483C310.021 89.2847 309.506 87.3331 308.784 85.6743C309.299 85.1864 309.918 84.6985 310.434 84.2106C312.6 85.6743 315.281 86.7476 316.931 88.6016C321.882 94.2612 326.523 100.018 331.061 105.971C331.267 106.263 331.473 106.751 331.576 107.141L335.805 102.653C333.639 99.1401 331.473 95.7248 329.101 92.4072C324.77 86.1622 319.819 80.2099 311.156 78.3559C309.299 77.9656 307.546 76.5019 306.205 75.1358C301.874 70.6472 297.026 66.4514 293.829 61.2797C288.673 53.1807 279.287 50.1558 272.687 43.7157C268.974 40.1053 263.405 38.2513 258.764 35.4215C248.76 29.3717 238.962 23.1267 229.061 16.9792C227.514 16.0035 226.07 15.0277 224.523 14.1495C216.169 9.5633 207.712 4.97713 199.255 0.390957C199.049 0.293379 198.843 0.293379 198.636 0.390957C196.574 0.878848 194.717 0.683692 193.067 0.195801H185.435C186.57 1.5619 186.982 3.41588 186.363 6.05049C184.507 5.85533 182.96 5.75776 181.413 5.46502C175.431 4.58682 169.552 3.12315 163.571 2.92799C155.526 2.63526 147.585 1.85463 139.85 0.195801H101.484C107.259 1.46432 113.035 2.53768 118.914 3.22072C129.846 4.58682 140.469 6.53838 150.988 9.36815Z" fill="#979797" fill-opacity="0.1"/>
<path d="M12.2733 2.24389C13.6141 2.43904 15.0579 2.73178 16.3987 2.53662C23.515 1.756 30.6312 0.877793 37.6443 0.097168H1.54736C1.6505 0.097168 1.75363 0.194746 1.75363 0.194746C5.2602 1.07295 8.76676 1.65842 12.2733 2.24389Z" fill="#979797" fill-opacity="0.1"/>
<path d="M145.935 64.5964C142.222 62.5473 137.581 61.8642 133.146 61.1812C128.196 60.4981 123.142 60.7909 118.192 60.2054C112.21 59.5223 106.228 57.5708 100.246 57.4732C92.3051 57.278 84.2607 59.5223 76.3193 57.3756C75.5974 57.1805 74.7723 57.5708 73.9472 57.7659C60.6429 61.7666 47.1323 62.157 33.7249 59.3272C24.1334 57.278 14.9545 54.058 5.36298 51.9112C3.6097 51.6185 1.75328 51.2282 0 50.8379V56.595C6.60059 57.3756 13.2012 58.0587 19.6986 59.2296C21.8645 59.6199 23.4115 62.4497 25.2679 64.2061C22.7927 64.7916 20.2143 66.1577 17.8422 65.7674C11.8604 64.7916 5.87865 63.1327 0 61.8642V70.4511C4.33164 71.2317 8.66327 72.0124 12.9949 72.793C14.0263 72.9881 15.0576 72.9881 16.0889 72.8906C28.1556 72.1099 40.2223 71.3293 52.289 70.4511C53.4235 70.3535 54.558 69.6705 55.6925 69.3777C58.6834 68.6947 61.6743 67.3286 64.562 67.4262C82.0948 68.4995 99.5245 69.7681 117.057 71.2317C121.698 71.622 126.236 73.2809 130.877 73.8663C132.115 74.0615 133.249 74.1591 134.487 74.2566H182.96C177.494 72.3051 171.925 70.5487 166.252 69.6705C159.239 68.4995 152.432 68.0116 145.935 64.5964Z" fill="#979797" fill-opacity="0.1"/>
<path d="M237.208 183.058C234.321 182.179 231.227 180.423 229.267 178.179C217.819 165.298 203.896 156.516 186.157 153.589C183.166 153.101 180.175 152.711 177.287 152.418L171.203 158.761C173.368 158.956 175.431 159.151 177.494 159.541C187.807 161.395 197.708 165.493 207.712 169.006C209.775 169.689 211.322 171.934 213.075 173.495C212.456 174.373 211.734 175.251 211.115 176.129C201.421 173.105 191.829 169.201 181.928 167.25C176.566 166.274 171.203 165.006 165.633 164.518L157.176 173.3C164.293 172.519 172.028 173.69 179.35 173.983C182.754 174.08 186.054 175.642 189.457 176.617C196.161 178.569 202.968 180.423 209.568 182.472C215.138 184.131 221.016 185.497 226.173 187.936C230.814 190.181 234.63 194.084 239.271 196.426C240.818 197.206 242.159 198.085 243.293 199.158L250.203 191.937C246.903 187.741 242.881 184.716 237.208 183.058Z" fill="#979797" fill-opacity="0.1"/>
<path d="M249.275 167.542C247.419 165.883 245.665 164.029 243.396 162.956C235.558 159.053 225.864 158.272 220.913 149.978C220.604 149.49 219.469 149.588 218.747 149.198C215.86 147.929 212.559 147.051 210.084 145.197C204.824 141.294 199.049 139.635 192.448 139.83C191.52 139.83 190.488 139.83 189.56 139.732L182.753 146.856C190.798 148.514 199.461 149.393 206.268 153.198C222.151 162.175 237.208 172.616 252.266 182.862C253.607 183.838 254.947 184.814 256.185 185.887L262.476 179.349C262.373 179.154 262.167 179.056 262.064 178.861C257.938 174.861 253.503 171.25 249.275 167.542Z" fill="#979797" fill-opacity="0.1"/>
<path d="M302.699 113.679C294.758 100.897 284.238 90.9436 270.315 83.6252C254.638 75.3311 239.993 65.5733 224.833 56.4009C224.008 55.913 222.976 55.6203 222.151 55.23C216.891 52.693 211.735 50.1559 206.475 47.6189C201.009 44.8867 195.749 41.3739 189.87 39.6175C179.35 36.495 168.521 34.5434 157.795 32.0064C152.536 30.8355 147.379 29.3718 142.119 28.396C137.684 27.6154 133.043 27.713 128.505 27.0299C118.604 25.4687 108.807 23.5171 99.0089 21.7607C97.6681 21.468 96.1211 21.468 94.9866 20.7849C88.6954 17.0769 81.8886 17.0769 74.7723 17.9551C72.2971 18.2479 69.7187 17.2721 67.2435 17.2721C57.8583 17.1745 48.2668 11.2222 40.1192 17.4672C35.9938 16.1012 32.4873 14.5399 28.7744 13.8569C25.1648 13.1738 21.4519 13.2714 17.8422 12.9787C13.6137 12.5883 9.28208 12.1004 5.05358 11.7101C3.40343 11.6126 1.75328 11.4174 0 11.3198V19.5164C1.65015 20.297 3.3003 21.3704 4.74417 22.834C4.84731 22.9316 5.15671 22.834 5.36298 22.834C11.4479 23.1268 17.5328 23.5171 23.7209 23.6147C29.7027 23.8098 36.4064 20.9801 40.738 27.713C41.0474 28.2008 42.5944 28.0057 43.6258 28.2008C46.8229 28.7863 49.917 29.4694 53.1141 30.0548C56.105 30.5427 59.0959 31.1282 62.0868 31.3233C70.3375 31.9088 78.5883 32.3967 86.839 32.9822C88.386 33.0798 90.0362 33.958 91.5832 33.958C100.659 34.0555 110.147 32.6894 118.811 34.4459C128.918 36.3974 139.025 37.8611 149.029 40.0078C159.446 42.2521 169.656 45.0819 179.763 48.0092C191.211 51.3269 203.587 52.9857 211.631 62.8411C212.044 63.4266 213.075 63.5241 213.797 63.8169C220.501 67.3297 227.205 70.8425 233.805 74.3553H251.957L245.872 80.6979C256.082 86.0647 266.396 91.5291 276.606 96.9935C277.844 97.5789 278.669 98.8474 279.7 99.7256C282.175 101.872 284.65 104.214 287.332 106.166C293.004 110.362 296.82 115.533 298.367 122.364C293.726 120.705 289.807 118.461 286.094 115.826C277.637 109.776 269.283 103.629 260.93 97.3838C258.351 95.5298 255.979 93.3831 253.504 91.4315C251.957 90.2606 250.41 88.8945 248.657 88.1138C246.388 87.0405 244.119 85.9671 241.953 84.8938L235.249 91.9194C241.128 95.4322 246.903 98.8474 252.782 102.36C254.638 103.531 256.701 104.409 258.557 105.678C263.302 108.703 268.768 111.24 272.584 115.143C281.556 124.413 292.901 129.487 305.071 133.293C305.484 133.39 305.793 133.488 306.206 133.683L312.394 127.243C312.084 126.657 311.775 126.072 311.569 125.389C309.815 120.998 305.277 117.778 302.699 113.679Z" fill="#979797" fill-opacity="0.1"/>
<path d="M260.414 141.586C248.451 134.365 236.384 127.047 224.317 119.924C220.914 117.874 217.407 115.825 213.798 114.167L206.062 122.265C212.972 124.607 219.882 127.047 226.792 129.389C231.743 131.048 237.415 131.633 241.541 134.463C246.285 137.78 249.379 143.147 253.607 147.148C260.517 153.686 267.737 159.931 274.853 166.273L279.907 161.004C274.337 155.052 268.356 149.49 262.58 143.635C261.858 142.952 261.239 142.171 260.414 141.586Z" fill="#979797" fill-opacity="0.1"/>
<path d="M244.119 146.27C238.756 141.098 233.187 139.244 226.483 137.488C221.429 136.219 216.788 133.389 211.941 131.535C208.331 130.169 204.722 128.608 201.009 127.535L195.233 133.487C205.547 135.341 215.241 138.171 223.595 145.099C224.214 145.587 225.039 145.879 225.761 146.075C235.559 148.319 242.675 154.466 249.482 160.906C253.092 164.322 255.876 168.517 261.858 168.42C262.889 168.42 264.127 169.884 264.952 170.859C265.777 171.835 266.602 172.713 267.53 173.689L270.212 170.859C268.871 169.688 267.634 168.615 266.396 167.347C259.073 160.321 251.545 153.295 244.119 146.27Z" fill="#979797" fill-opacity="0.1"/>
<path d="M296.201 138.658C296.717 140.024 297.129 141.293 297.645 142.464L302.08 137.78C300.327 137.682 298.367 137.975 296.201 138.658Z" fill="#979797" fill-opacity="0.1"/>
<path d="M279.906 133.78C278.978 133.39 278.05 132.707 277.637 131.926C273.924 125.486 269.696 119.632 261.961 116.997C261.033 116.704 260.723 115.045 259.898 114.265C254.226 109.483 249.172 102.653 242.469 100.506C238.446 99.2378 234.94 97.3838 231.536 95.5298L226.998 100.214C230.917 102.36 234.837 104.507 238.549 107.044C245.769 111.923 252.473 117.582 259.279 123.144C260.311 123.925 260.62 125.486 261.342 126.657C258.454 126.267 256.392 125.194 254.535 123.827C249.791 120.51 245.356 116.607 240.303 113.777C234.527 110.654 228.442 108.02 222.357 105.288L217.716 110.167C222.564 112.704 227.308 115.436 232.155 118.168C242.778 124.218 253.298 130.268 263.714 136.415C264.849 137.098 265.674 138.367 266.602 139.342C270.727 144.026 274.337 149.393 279.081 153.394C280.628 154.662 282.072 156.028 283.516 157.394L293.314 147.149C290.013 141.587 286.61 136.415 279.906 133.78ZM278.669 139.44C280.731 142.367 282.794 145.197 284.857 148.124C279.391 147.441 276.503 145.099 278.669 139.44Z" fill="#979797" fill-opacity="0.1"/>
<path d="M8.04447 401.828C3.50656 392.558 7.42566 382.702 4.53791 373.432C3.40343 369.822 1.95955 365.138 3.40343 362.211C8.97268 350.989 5.15671 337.231 14.5419 327.18C14.8513 326.79 15.1607 326.107 14.9545 325.619C14.6451 324.546 14.4388 323.57 14.4388 322.594L0 337.621V410.902H9.17895C9.28208 407.682 9.28208 404.462 8.04447 401.828Z" fill="#979797" fill-opacity="0.1"/>
<path d="M232.362 202.28C229.061 200.035 225.761 197.596 222.151 195.937C212.869 191.644 203.793 187.448 193.48 185.008C185.023 182.959 176.256 179.837 167.799 179.934C161.921 180.032 155.939 180.325 150.06 180.813L142.222 189.009C151.504 187.253 160.993 188.619 170.275 189.497C175.019 189.985 179.454 191.058 184.404 190.473C187.189 190.082 190.489 190.863 193.17 191.936C197.502 193.693 201.421 196.718 205.856 198.084C211.528 199.743 215.241 202.085 215.86 208.134C216.066 210.379 217.716 212.721 219.367 214.575C220.81 216.233 222.357 217.795 223.904 219.454L236.796 206.085C235.456 204.719 234.012 203.451 232.362 202.28ZM227.514 214.477C225.039 209.988 223.389 207.061 221.739 204.036C222.254 203.743 222.873 203.548 223.389 203.256C226.792 205.5 228.546 208.525 227.514 214.477Z" fill="#979797" fill-opacity="0.1"/>
<path d="M199.977 206.378C196.677 203.353 192.242 200.036 188.014 199.743C176.978 198.865 166.665 194.669 154.908 195.84C146.554 196.718 138.716 197.987 131.29 200.426L114.892 217.502C118.398 215.551 122.008 213.794 125.514 212.136C136.962 206.866 149.648 205.11 162.333 203.939C164.912 203.744 167.799 203.549 170.068 202.475C176.256 199.548 181.619 201.109 186.57 204.915C187.704 205.793 188.942 207.94 188.633 209.013C188.22 210.184 186.054 211.452 184.61 211.55C174.709 212.233 164.602 211.843 154.908 213.502C144.491 215.258 133.868 217.795 124.483 222.186C113.551 227.26 103.856 234.578 93.7491 241.116C91.9958 242.19 90.7582 244.336 89.83 246.19C87.1485 251.557 83.4357 255.558 77.7633 258.68C74.0505 260.827 71.7815 265.608 69.5126 269.609C64.8715 277.415 60.5399 285.417 56.2082 293.321C54.6612 296.248 53.2174 299.175 51.7735 302.103C47.9575 310.006 44.1415 317.91 40.4287 325.912C39.5005 327.863 38.9848 329.912 38.366 331.962C35.7877 341.524 33.1062 351.087 30.9404 360.649C29.8059 365.626 29.2902 370.7 29.0839 375.774C28.8777 381.238 26.815 385.434 21.9677 388.264C21.2457 388.167 20.5238 387.971 19.8019 387.874C20.0081 385.825 20.1113 383.678 20.6269 381.629C21.0395 379.97 22.4834 378.604 22.7928 376.945C25.1648 362.601 27.3307 348.257 29.909 333.913C30.4247 331.083 33.3124 328.644 34.3438 325.814C35.6845 322.399 36.2002 318.691 37.1284 315.178C37.2315 314.593 37.1284 314.007 37.3347 313.519C40.9444 306.884 44.4509 300.346 48.1638 293.808C50.8453 289.027 54.2487 284.636 56.6208 279.66C57.0333 278.879 57.4459 278.098 57.8584 277.318L30.5278 305.811C26.6087 313.031 22.8959 320.447 20.4207 328.058C18.1517 334.986 16.5016 342.207 14.0263 349.135C11.8605 355.185 11.2417 362.016 11.6543 368.358C12.3762 379.287 9.17904 390.704 15.6765 401.047C16.5016 402.413 16.5016 404.462 16.1922 406.121C15.9859 407.78 15.8828 409.341 15.7796 411H27.2275C27.2275 410.414 27.3307 409.926 27.3307 409.341C27.5369 406.316 26.2993 402.901 27.3307 400.266C30.0122 393.436 33.6219 386.996 36.6127 380.36C37.3347 378.799 37.541 377.043 37.6441 375.286C38.4692 361.625 40.2224 347.964 45.6886 335.279C51.6703 321.325 57.4459 307.177 65.1809 294.101C72.2972 282.099 82.3012 271.658 90.1394 259.949C96.2243 250.776 104.166 243.946 113.757 238.384C120.77 234.383 127.268 229.602 134.281 225.601C136.962 224.138 140.572 224.04 143.666 223.162C148.72 221.796 153.876 220.43 158.93 219.064C160.064 218.771 161.199 218.478 162.436 218.381C172.131 217.697 181.826 216.917 191.623 216.527C193.686 216.429 196.265 217.112 197.915 218.381C203.587 222.772 207.609 227.943 210.394 233.408L218.438 225.016C212.663 218.576 206.475 212.233 199.977 206.378Z" fill="#979797" fill-opacity="0.1"/>
<path d="M162.952 264.047C162.848 262.291 162.023 259.461 160.889 259.168C159.136 258.583 156.66 259.656 154.495 260.046C155.113 260.534 155.732 261.022 156.351 261.608C155.526 264.828 155.423 268.341 153.773 271.17C149.338 279.074 143.562 286.392 139.54 294.491C132.63 308.543 124.895 322.009 113.447 333.23C112.828 333.913 112.519 334.889 112.106 335.865L154.701 291.467C155.217 290.588 155.732 289.808 156.351 288.93C161.508 281.318 163.467 272.927 162.952 264.047Z" fill="#979797" fill-opacity="0.1"/>
<path d="M188.942 227.163C177.494 227.163 167.284 221.991 154.495 225.894C134.487 232.041 117.882 242.482 102.515 254.875C91.8924 263.462 82.9197 274.098 76.5254 285.905C67.0371 303.566 58.4769 321.716 49.7105 339.67C48.7823 341.524 48.576 343.768 48.0604 345.818C44.8632 359.869 45.3789 374.31 39.3971 388.167C36.5093 394.997 35.9937 403.194 36.5093 410.902H40.2222L47.9572 402.803C47.751 392.07 52.2889 381.726 53.3202 370.993C53.7327 366.895 54.0421 362.796 54.4547 358.698C55.0735 351.77 48.8854 343.085 59.9208 338.694C60.1271 338.597 60.1271 338.402 60.2302 338.207C64.0462 330.205 67.6559 322.204 71.575 314.397C73.5345 310.592 75.9066 306.982 78.0724 303.274C79.6194 300.444 81.3727 297.614 82.4041 294.589C84.9824 286.978 87.4576 279.269 94.4708 274.195C96.5334 272.634 99.4212 272.049 102 270.975C102.515 271.561 102.928 272.146 103.443 272.732C101.896 275.073 100.865 278.001 98.6993 279.757C88.2827 288.344 85.3949 301.029 79.1038 311.86C72.5032 323.277 67.2433 335.474 61.0553 347.184C58.4769 351.965 57.5487 356.454 61.3647 360.649C64.1493 363.772 64.1493 366.699 63.0148 370.212C61.2615 375.872 58.7863 381.531 58.1675 387.386C57.9612 389.142 57.8581 390.996 57.755 392.753L72.1938 377.726C73.122 374.798 74.3596 371.969 76.216 369.334C77.1442 368.065 77.8661 366.504 78.0724 365.041C79.6194 349.038 91.9955 336.938 95.8115 321.716C96.1209 320.545 98.3899 319.764 99.7306 318.788C100.349 319.179 100.865 319.569 101.484 319.862C100.246 324.838 99.4212 329.912 97.5648 334.694C93.7488 344.354 89.7266 354.014 85.7043 363.674L100.968 347.769C103.856 341.329 106.847 334.986 109.838 328.644C110.972 326.302 113.654 324.741 115.304 322.496C118.398 318.496 121.492 314.495 124.173 310.202C130.258 300.541 136.343 290.881 142.119 281.026C144.388 277.123 146.038 272.927 147.997 268.828C137.168 273.61 135.312 284.148 128.299 291.467C122.111 297.907 115.82 306.006 114.994 315.959C114.891 317.13 111.9 318.105 110.25 319.081C109.838 317.422 108.497 315.373 109.116 314.105C111.9 308.152 114.376 302.005 118.295 296.736C128.918 282.587 139.747 268.536 151.298 255.168C154.701 251.167 160.992 249.313 166.149 246.776C167.077 246.288 168.934 246.971 170.068 247.556C175.019 250.191 176.669 255.07 174.297 260.534C171.925 266.096 170.274 272.049 168.109 277.708L181.31 263.95C182.238 261.705 183.063 259.461 183.785 257.119C184.404 254.875 183.269 251.752 182.032 249.41C175.637 237.018 160.992 235.262 150.576 245.605C143.975 252.045 136.653 258.095 131.187 265.316C119.739 280.538 104.784 293.711 97.9773 311.86C97.3585 313.617 95.9146 315.178 94.4708 316.544C87.4576 322.789 82.6103 330.108 80.2382 339.182C78.7944 344.842 75.7003 350.111 73.0188 355.478C72.5032 356.551 70.3374 356.942 68.9966 357.625C68.3778 357.137 67.6559 356.746 67.0371 356.258C69.7185 349.916 71.7812 343.281 75.1847 337.328C84.673 320.74 94.4708 304.347 104.681 288.051C106.847 284.636 109.322 282.197 107.053 277.806C106.331 276.342 107.569 273.903 108.084 271.951C111.075 260.925 120.564 254.289 127.783 246.093C128.505 245.215 130.361 244.336 131.187 244.727C132.115 245.117 133.352 247.166 132.94 247.849C131.29 250.776 129.846 254.68 127.061 256.046C120.873 259.168 119.017 265.023 115.51 269.804C114.685 270.878 114.891 272.732 114.273 275.757C116.851 273.512 117.985 272.829 118.81 271.756C127.061 261.998 135.415 252.338 143.356 242.287C153.051 230.09 172.543 227.163 185.538 236.335C191.314 240.336 193.789 246.288 192.448 252.24L200.08 244.239C199.874 243.263 199.771 242.287 199.771 241.311C199.874 233.895 191.829 232.432 188.942 227.163Z" fill="#979797" fill-opacity="0.1"/>
<path d="M409.959 20.491C410.474 21.5644 410.99 22.6377 411.402 23.8087L423.985 10.8308C423.882 10.7332 423.882 10.538 423.779 10.4405C423.366 9.65983 422.85 8.78162 422.438 7.80584C421.51 5.7567 420.478 3.70756 418.931 1.95115C418.416 1.36568 417.9 0.780215 417.487 0.097168H399.026C400.986 2.53662 402.842 5.26881 404.493 8.58647C406.349 12.4896 408.205 16.5879 409.959 20.491Z" fill="#979797" fill-opacity="0.1"/>
<path d="M389.125 42.3485C389.847 43.1291 390.466 44.1049 391.085 45.1783L398.304 37.5672C392.219 32.4931 386.444 26.1505 380.462 18.2467C375.821 12.1969 371.077 6.04944 366.436 0.097168H352.719C353.131 0.487481 353.544 0.975371 353.956 1.36568C366.951 16.4903 378.502 29.8585 389.125 42.3485Z" fill="#979797" fill-opacity="0.1"/>
<path d="M401.914 33.7627L410.474 24.8831C409.03 22.7364 407.483 20.5896 406.142 18.5405C401.914 12.2955 397.582 5.95291 392.322 0.195801H389.435H372.314C375.202 3.41588 378.09 6.63596 380.875 9.85604C387.785 17.5647 395.004 25.6637 401.914 33.7627Z" fill="#979797" fill-opacity="0.1"/>
<path d="M304.865 7.6111C313.631 14.6367 322.294 21.9551 330.648 28.9807C333.742 31.5177 336.733 34.1524 339.827 36.6894C340.343 37.1773 340.859 37.7627 341.374 38.3482C341.684 38.7385 342.096 39.1288 342.406 39.5192C343.437 40.6901 344.571 41.7635 345.603 42.9344C347.356 44.7884 349.109 46.6424 350.759 48.4963C353.028 50.9358 355.297 53.3752 357.566 55.8147C361.279 59.8154 365.095 63.9137 368.808 68.1096L377.884 58.6445C374.583 53.3752 369.736 47.2278 361.589 43.5199C359.732 42.6417 358.082 40.7877 356.432 38.9337L356.122 38.5434C354.266 36.3967 352.41 33.9572 350.759 31.7129C347.15 26.9316 343.334 21.8575 338.383 18.3447C334.155 15.3198 330.133 11.7094 326.317 8.19657C323.223 5.46438 320.129 2.63461 316.828 0H295.789H295.479C298.264 2.2443 301.049 4.39102 303.833 6.63531L304.865 7.6111Z" fill="#979797" fill-opacity="0.1"/>
<path d="M336.321 8.78162C338.796 13.2702 341.271 17.8564 344.881 21.5644C346.737 23.4184 348.491 25.2723 350.347 27.1263C359.938 36.8841 369.839 47.0323 380.565 56.0095L389.332 46.8371C386.96 44.2025 384.381 41.6655 381.081 39.7139C380.153 39.226 379.431 38.1527 378.503 37.0793C378.193 36.689 377.884 36.2011 377.471 35.8108C376.44 34.6398 375.615 33.2737 374.79 31.8101C372.418 28.0045 369.736 23.7111 363.548 22.7353C363.548 22.6377 363.445 22.6377 363.445 22.5401C363.342 22.4426 363.239 22.2474 363.239 22.1498C357.669 14.8315 352.1 7.51311 346.531 0.097168H330.751C331.886 1.36568 333.02 2.92693 334.155 4.8785C334.877 6.14701 335.599 7.41553 336.321 8.78162Z" fill="#979797" fill-opacity="0.1"/>
<path d="M239.271 10.2453C240.818 11.0259 242.159 12.392 243.5 13.9533C244.841 15.4169 246.285 16.8806 247.935 17.954C250.41 19.5152 253.195 20.8813 255.876 22.2474C260.105 24.3941 264.127 26.3457 267.118 29.1755C270.521 32.3955 274.543 35.1277 278.359 37.7623C285.579 42.6412 292.282 47.325 295.892 55.1313C296.923 57.3755 299.089 58.9368 301.152 60.4981C302.08 61.1811 303.008 61.8641 303.73 62.5472C308.475 66.8406 313.116 71.2317 317.86 75.6227L322.604 80.0137C322.913 80.2088 323.12 80.5016 323.326 80.7943C323.635 81.087 323.945 81.3798 324.254 81.6725C325.801 83.0386 327.451 84.4047 328.998 85.6732C332.402 88.4054 335.599 90.9424 337.661 94.1625C338.487 95.5286 339.312 96.7971 340.137 98.1632L348.491 89.4788C344.778 84.9902 341.168 80.5016 337.455 76.2081C333.949 72.0123 330.442 67.8164 326.936 63.523C326.214 62.6448 325.285 62.0593 324.46 61.4738C324.254 61.2787 323.945 61.1811 323.738 60.9859C321.676 59.5223 319.716 58.1562 317.653 56.6925C313.012 53.4724 308.165 50.0572 303.73 46.5444C302.08 45.1783 300.636 43.5194 299.192 41.6655C298.058 40.2994 296.923 38.8357 295.583 37.5672C293.52 35.518 291.354 33.6641 289.188 31.8101C287.332 30.2488 285.476 28.59 283.619 26.8336C281.866 25.1748 280.216 23.4184 278.566 21.7595C276.09 19.2225 273.615 16.5879 270.831 14.246C266.602 10.6356 262.064 7.22037 257.629 3.90272C255.979 2.6342 254.329 1.36568 252.679 0.097168H216.685C217.613 0.487481 218.541 0.877793 219.367 1.26811C226.173 4.09787 232.877 6.92764 239.271 10.2453Z" fill="#979797" fill-opacity="0.1"/>
<path d="M306.102 39.8125C310.331 44.106 314.766 48.497 319.2 52.7904C320.644 54.1565 322.398 54.9371 324.151 55.8154C324.873 56.1081 325.595 56.4984 326.214 56.7911L327.864 57.6693L331.267 52.888L329.926 51.7171C328.689 50.6437 327.554 49.5704 326.317 48.5946C323.635 46.2527 320.747 43.7157 318.066 41.2762L316.828 40.1053C314.147 37.6658 311.259 35.0312 308.99 32.299C308.578 31.7135 308.268 30.7378 308.062 29.762C309.3 30.5426 310.434 31.3232 311.465 32.2014C314.663 35.1288 317.86 38.1537 320.954 41.1786C324.77 44.8866 328.792 48.6922 332.814 52.3025C334.774 54.0589 335.702 55.2299 335.599 55.7178C335.599 55.7178 335.393 56.596 332.092 57.8645L329.411 58.8403L334.671 64.5974C336.733 66.9393 338.59 68.9884 340.446 70.94C344.675 75.5261 348.903 80.2099 352.925 84.8936L363.961 73.3794C360.145 69.086 356.123 64.3047 351.378 58.5475C349.316 56.0105 347.253 53.3759 345.293 50.7413C343.54 48.3994 341.684 46.0575 339.827 43.7157C337.868 41.2762 335.702 38.9343 333.227 36.5925C331.577 35.0312 329.926 33.3724 328.379 31.7136C324.151 27.5177 319.819 23.1267 314.869 19.6139C305.38 12.881 295.789 6.4408 286.301 0.195801H259.589C267.015 5.17229 274.44 10.4415 281.247 16.101C289.807 23.4194 298.058 31.7135 306.102 39.8125Z" fill="#979797" fill-opacity="0.1"/>
<path d="M434.195 0.097168H426.15C427.079 1.85357 428.11 3.70756 429.038 5.46397L434.195 0.097168Z" fill="#979797" fill-opacity="0.1"/>
</svg>
