<svg width="107" height="100" viewBox="0 0 107 100" fill="none" xmlns="http://www.w3.org/2000/svg">
<path d="M95.6598 76.9881H99.9753C100.419 76.9881 100.844 77.1644 101.158 77.4782C101.472 77.7921 101.648 78.2178 101.648 78.6617C101.648 79.1056 101.472 79.5313 101.158 79.8451C100.844 80.159 100.419 80.3353 99.9753 80.3353H95.6598C95.2162 80.3353 94.7907 80.159 94.477 79.8451C94.1634 79.5313 93.9871 79.1056 93.9871 78.6617C93.9871 78.2178 94.1634 77.7921 94.477 77.4782C94.7907 77.1644 95.2162 76.9881 95.6598 76.9881ZM58.9951 98.7454H101.447C102.181 98.7498 102.909 98.6089 103.589 98.3308C104.269 98.0527 104.887 97.6429 105.407 97.1249C105.928 96.6069 106.341 95.9911 106.623 95.3127C106.905 94.6343 107.051 93.9069 107.051 93.1721V67.9839C107.055 66.9371 106.763 65.9105 106.21 65.0222C105.657 64.1339 104.864 63.4201 103.923 62.9629C103.725 62.8626 103.51 62.8025 103.289 62.7861C103.068 62.7697 102.846 62.7974 102.636 62.8674C102.426 62.9375 102.232 63.0486 102.065 63.1943C101.899 63.3399 101.762 63.5173 101.665 63.7161C101.554 63.9456 101.496 64.1975 101.497 64.4525C101.48 64.7588 101.555 65.0632 101.713 65.326C101.871 65.5888 102.105 65.7977 102.384 65.9253C102.775 66.1012 103.107 66.3854 103.341 66.7443C103.575 67.1032 103.701 67.5218 103.705 67.9504V85.3563H65.6188C65.1752 85.3563 64.7498 85.5326 64.4361 85.8465C64.1224 86.1603 63.9462 86.586 63.9462 87.0299C63.9462 87.4738 64.1224 87.8995 64.4361 88.2133C64.7498 88.5272 65.1752 88.7035 65.6188 88.7035H103.705V93.1721C103.703 93.4681 103.642 93.7607 103.527 94.033C103.411 94.3054 103.243 94.5521 103.031 94.7591C102.82 94.966 102.569 95.129 102.295 95.2387C102.02 95.3483 101.726 95.4025 101.43 95.3981H59.0286C58.4488 95.3849 57.8975 95.1441 57.4938 94.7276C57.09 94.3111 56.8663 93.7524 56.8708 93.1721V67.465C56.8749 66.8934 57.1002 66.3457 57.4995 65.9368C57.8987 65.528 58.4408 65.2899 59.0118 65.2726H84.821C85.2646 65.2726 85.69 65.0962 86.0037 64.7824C86.3174 64.4685 86.4936 64.0428 86.4936 63.5989C86.4936 63.1551 86.3174 62.7294 86.0037 62.4155C85.69 62.1016 85.2646 61.9253 84.821 61.9253H59.0453C57.5707 61.9559 56.1668 62.5637 55.1349 63.6181C54.103 64.6725 53.5252 66.0897 53.5255 67.5655V93.2056C53.521 94.6647 54.0937 96.0662 55.1185 97.1041C56.1433 98.1421 57.537 98.7321 58.9951 98.7454ZM63.8124 50.9295C63.9148 51.3096 64.0973 51.6634 64.3476 51.9671C65.8213 53.4179 67.0274 55.1176 67.9104 56.9881C68.1012 57.4541 68.4251 57.8536 68.8416 58.1364C69.2581 58.4192 69.7488 58.5728 70.2521 58.578C70.5143 58.5691 70.7708 58.4987 71.0008 58.3723C71.2308 58.2459 71.4279 58.0671 71.576 57.8504C71.7242 57.6337 71.8194 57.3852 71.8538 57.1249C71.8882 56.8646 71.861 56.5999 71.7742 56.3521C70.7908 53.9339 69.3736 51.716 67.5926 49.8081C67.1793 49.2576 66.5883 48.8673 65.9199 48.7035C65.631 48.6903 65.3425 48.7393 65.0741 48.847C64.8056 48.9548 64.5634 49.1189 64.3637 49.3283C64.164 49.5376 64.0114 49.7874 63.9163 50.0607C63.8212 50.334 63.7858 50.6245 63.8124 50.9127V50.9295ZM46.9687 49.4232C50.1744 50.6627 53.7265 50.6638 56.933 49.4262C60.1395 48.1887 62.7707 45.8011 64.3142 42.7286C65.1987 40.861 65.6492 38.8172 65.6318 36.7506C65.6144 34.6839 65.1296 32.648 64.2138 30.7956C63.0546 28.6116 61.333 26.7773 59.2274 25.4826C57.1217 24.1878 54.7085 23.4797 52.2376 23.4316H52.0703C48.9601 23.4612 45.9554 24.5634 43.563 26.552C41.1705 28.5407 39.5368 31.2941 38.9374 34.3479C38.338 37.4017 38.8096 40.5689 40.2727 43.3152C41.7358 46.0615 44.1008 48.2188 46.9687 49.4232ZM42.7034 35.0132C43.1945 32.8698 44.3819 30.9498 46.0798 29.5537C47.7777 28.1577 49.8904 27.3642 52.087 27.2977H52.3379C54.5371 27.3876 56.6436 28.2082 58.3247 29.6296C60.0058 31.0511 61.1657 32.9924 61.6212 35.147C61.9852 37.3308 61.6103 39.5737 60.5558 41.5202C59.5014 43.4666 57.8278 45.0051 55.8003 45.8918C54.1836 46.5563 52.4167 46.7681 50.6888 46.5047C48.9609 46.2413 47.3372 45.5126 45.9916 44.3966C44.6459 43.2806 43.629 41.8193 43.0498 40.1693C42.4706 38.5193 42.3508 36.7428 42.7034 35.0299V35.0132ZM48.2901 71.9671C48.2908 71.4062 48.0875 70.8643 47.7182 70.4423C47.3488 70.0204 46.8387 69.7474 46.2829 69.6742C43.3833 69.3797 40.5551 68.593 37.9196 67.3479C36.364 66.578 34.7081 65.5236 34.7248 63.9169C34.8258 59.5561 36.5288 55.3853 39.5086 52.2014C39.8663 51.9075 40.1242 51.51 40.247 51.0635C40.3698 50.617 40.3514 50.1434 40.1944 49.7077C40.0274 49.4232 39.794 49.1834 39.5141 49.0089C39.2342 48.8344 38.9163 48.7304 38.5875 48.7057C38.2586 48.681 37.9287 48.7364 37.626 48.8672C37.3232 48.998 37.0566 49.2003 36.8491 49.4567C33.0782 53.3763 30.953 58.5936 30.9112 64.0341C30.9585 65.0851 31.2527 66.1102 31.77 67.0261C32.2873 67.9421 33.0131 68.7232 33.8885 69.306C37.5516 72.0843 42.0678 72.9713 46.4836 73.5069C46.7116 73.5206 46.9399 73.4874 47.1546 73.4095C47.3692 73.3316 47.5657 73.2105 47.7318 73.0537C47.8979 72.8969 48.0302 72.7077 48.1204 72.4978C48.2107 72.2879 48.257 72.0617 48.2566 71.8332L48.2901 71.9671ZM103.705 48.7203C103.623 48.4912 103.482 48.2875 103.298 48.1291C103.113 47.9707 102.89 47.863 102.651 47.8165L96.0445 46.578C94.9884 36.2069 90.3095 26.541 82.8315 19.2821C75.3535 12.0232 65.5559 7.63663 55.1636 6.89474C44.7713 6.15285 34.4505 9.10317 26.0183 15.2263C17.5861 21.3494 11.5832 30.2527 9.06622 40.3688C9.02339 40.5446 9.01559 40.7272 9.04326 40.906C9.07094 41.0849 9.13355 41.2565 9.22752 41.4111C9.32148 41.5658 9.44497 41.7004 9.59093 41.8073C9.73689 41.9142 9.90246 41.9912 10.0782 42.0341C10.2539 42.0769 10.4363 42.0847 10.6151 42.0571C10.7938 42.0294 10.9654 41.9667 11.1199 41.8727C11.2745 41.7787 11.409 41.6551 11.5158 41.5091C11.6226 41.363 11.6996 41.1974 11.7425 41.0215C14.0629 31.5764 19.6235 23.246 27.4543 17.4834C35.2851 11.7207 44.8891 8.8915 54.5914 9.48916C64.2936 10.0868 73.4784 14.0734 80.5436 20.7537C87.6088 27.4339 92.1061 36.3838 93.2512 46.0424L90.1567 45.4567C89.9097 45.4002 89.6518 45.4142 89.4123 45.497C89.1728 45.5798 88.9613 45.7282 88.8019 45.9253C88.6368 46.1149 88.5262 46.3459 88.482 46.5935C88.4379 46.8411 88.4617 47.096 88.551 47.3312L92.7494 59.3646C92.8303 59.5945 92.9703 59.7991 93.1553 59.9577C93.3402 60.1164 93.5637 60.2235 93.8031 60.2684H94.1711C94.534 60.2328 94.8693 60.059 95.1078 59.783L103.471 50.1094C103.632 49.9206 103.739 49.6918 103.78 49.4472C103.821 49.2026 103.795 48.9514 103.705 48.7203ZM99.7411 50.2098L94.5391 56.1847L91.9967 48.6199L99.7411 50.2098ZM48.2901 93.7245C48.2644 93.388 48.1213 93.0712 47.8859 92.8295C47.6505 92.5878 47.3377 92.4366 47.0021 92.4023C44.4236 92.0864 41.8808 91.526 39.4083 90.7286C32.1948 88.4663 25.7356 84.2763 20.7275 78.6104C15.7194 72.9446 12.3524 66.018 10.9898 58.578L13.666 59.0801C13.7825 59.0966 13.9008 59.0966 14.0173 59.0801C14.1996 59.0736 14.3789 59.0312 14.5449 58.9554C14.7109 58.8795 14.8603 58.7717 14.9846 58.638C15.1088 58.5043 15.2056 58.3474 15.2692 58.1763C15.3328 58.0052 15.3621 57.8232 15.3554 57.6408C15.3715 57.5074 15.3715 57.3725 15.3554 57.2391L11.0734 45.1889C10.9878 44.9682 10.8478 44.7727 10.6665 44.6206C10.4852 44.4684 10.2685 44.3646 10.0364 44.3186C9.7893 44.2714 9.53417 44.2898 9.29644 44.372C9.05871 44.4542 8.84668 44.5974 8.68151 44.7872L0.318216 54.4441C0.146989 54.6301 0.0311836 54.8604 -0.01611 55.1088C-0.0634036 55.3573 -0.0402997 55.614 0.0505902 55.85C0.131545 56.0799 0.271538 56.2844 0.456508 56.4431C0.641478 56.6017 0.864911 56.7089 1.10437 56.7537L8.06263 58.0759C9.58934 67.642 14.2076 76.4436 21.2103 83.133C28.213 89.8224 37.214 94.0307 46.8349 95.1136C47.0296 95.1343 47.2265 95.1114 47.4113 95.0467C47.5961 94.9819 47.7642 94.8769 47.9035 94.7391C48.0428 94.6014 48.1497 94.4344 48.2166 94.2502C48.2834 94.066 48.3085 93.8693 48.2901 93.6742V93.7245ZM8.78187 55.3814L4.01479 54.4943L9.20004 48.5362L11.8261 56.0508L10.1535 55.7496L8.78187 55.3814ZM53.5255 1.54036C53.5322 1.34335 53.4997 1.14697 53.43 0.962612C53.3603 0.77825 53.2547 0.609569 53.1193 0.466346C52.984 0.323123 52.8215 0.208207 52.6415 0.12826C52.4614 0.0483123 52.2672 0.00492292 52.0703 0.000606868C40.3317 -0.532587 28.8055 3.26223 19.6769 10.6657C10.5483 18.0691 4.45167 28.5666 2.54285 40.168C2.51133 40.3766 2.5255 40.5896 2.58437 40.7922C2.64325 40.9948 2.74543 41.1822 2.88384 41.3413C3.02225 41.5005 3.19358 41.6277 3.38597 41.7141C3.57836 41.8005 3.78721 41.844 3.99807 41.8416C4.34914 41.8456 4.68979 41.7224 4.95723 41.4948C5.22466 41.2671 5.40084 40.9505 5.45328 40.6031C7.25793 29.7453 12.9754 19.9252 21.5248 12.999C30.0743 6.07276 40.8634 2.52032 51.8528 3.01316C52.0623 3.04202 52.2755 3.02539 52.4779 2.96441C52.6804 2.90343 52.8673 2.79953 53.026 2.65978C53.1847 2.52002 53.3115 2.3477 53.3977 2.15454C53.4839 1.96137 53.5275 1.75189 53.5255 1.54036ZM38.4716 98.4943C38.4665 98.1763 38.3598 97.8683 38.1672 97.6154C37.9746 97.3624 37.7061 97.1778 37.4011 97.0885C36.7153 96.8876 36.0295 96.6701 35.3437 96.419C25.776 93.0806 17.6254 86.5893 12.2275 78.009C12.0264 77.6824 11.7059 77.4472 11.3342 77.3535C10.9625 77.2597 10.5689 77.3147 10.2371 77.5069C10.0648 77.6071 9.91418 77.7405 9.79385 77.8995C9.67353 78.0584 9.58593 78.2396 9.53615 78.4326C9.48636 78.6257 9.47536 78.8267 9.5038 79.024C9.53225 79.2214 9.59956 79.4111 9.70183 79.5822C15.8906 89.3896 25.4225 96.62 36.5313 99.9337C36.7561 100.005 36.9946 100.022 37.2273 99.9837C37.46 99.945 37.6801 99.8515 37.8696 99.7109C38.0591 99.5704 38.2125 99.3867 38.3172 99.1752C38.4218 98.9637 38.4747 98.7303 38.4716 98.4943Z" fill="#F0B420"/>
</svg>
