<svg width="56" height="56" viewBox="0 0 56 56" fill="none" xmlns="http://www.w3.org/2000/svg">
<path d="M47.871 37.9355C44.4044 37.9355 41.3506 40.1312 40.2134 43.3548H23.0756C22.5463 39.0148 21.6765 33.3426 21.6666 33.2821L21.588 32.7726L19.871 32.0853V28.9032H47.871C52.3528 28.9032 56 25.256 56 20.7742C56 16.2924 52.3528 12.6452 47.871 12.6452C47.525 12.6452 47.1854 12.6741 46.8503 12.7165C45.9904 5.50968 39.8901 0 32.5161 0C26.2685 0 20.9503 3.99226 18.937 9.55432C18.0889 9.21561 17.1812 9.03226 16.2581 9.03226C13.5014 9.03226 11.1034 10.5849 9.8849 12.8601C9.30865 12.7328 8.72516 12.6452 8.12903 12.6452C3.64723 12.6452 0 16.2924 0 20.7742C0 23.4857 1.37832 26.0111 3.6129 27.5132V32.0853L1.89587 32.7717L1.81729 33.2812C1.74323 33.7644 0 45.1243 0 47.871C0 49.8535 3.23084 52.425 9.6031 55.5123C10.2733 55.8356 10.9923 56 11.7419 56C12.4916 56 13.2106 55.8356 13.8808 55.5114C15.5879 54.684 18.6245 53.1133 20.7742 51.4947V54.1935H26.1935V50.5806H28V54.1935H33.4194V50.5806H40.2134C41.3497 53.8043 44.4044 56 47.871 56C52.3528 56 56 52.3537 56 47.871V46.0645C56 41.5818 52.3528 37.9355 47.871 37.9355ZM1.80645 20.7742C1.80645 17.2877 4.64258 14.4516 8.12903 14.4516C8.50568 14.4516 8.876 14.4923 9.24271 14.5573C9.10993 15.1037 9.03226 15.671 9.03226 16.2581H10.8387C10.8387 13.2693 13.2693 10.8387 16.2581 10.8387C17.0077 10.8387 17.7439 10.9968 18.4231 11.293C18.1946 12.311 18.0645 13.3659 18.0645 14.4516H19.871C19.871 7.47871 25.5432 1.80645 32.5161 1.80645C39.0419 1.80645 44.4252 6.73806 45.08 13.1492C41.9702 14.2917 39.7419 17.2742 39.7419 20.7742H41.5484C41.5484 17.2877 44.3845 14.4516 47.871 14.4516C51.3574 14.4516 54.1935 17.2877 54.1935 20.7742C54.1935 24.2606 51.3574 27.0968 47.871 27.0968H19.871V26.1935C19.871 21.7117 16.2237 18.0645 11.7419 18.0645C7.57806 18.0645 4.13948 21.2132 3.67161 25.2542C2.49652 24.0809 1.80645 22.4714 1.80645 20.7742ZM5.41935 26.1935C5.41935 22.7071 8.25548 19.871 11.7419 19.871C15.2284 19.871 18.0645 22.7071 18.0645 26.1935V31.3627L16.2581 30.6401V26.1935C16.2581 23.7034 14.2321 21.6774 11.7419 21.6774C9.25174 21.6774 7.22581 23.7034 7.22581 26.1935V30.6401L5.41935 31.3627V26.1935ZM14.4516 29.9175L11.7419 28.8337L9.03226 29.9175V26.1935C9.03226 24.6996 10.248 23.4839 11.7419 23.4839C13.2359 23.4839 14.4516 24.6996 14.4516 26.1935V29.9175ZM13.0941 53.8855C12.2495 54.2947 11.2343 54.2947 10.3907 53.8855C4.09252 50.8344 1.80645 48.617 1.80645 47.871C1.80645 45.5768 3.18026 36.344 3.52529 34.0661L11.7419 30.7792L19.9586 34.0661C20.1799 35.5257 20.823 39.8386 21.2556 43.3548H18.5938L16.2581 45.6906V48.2449L18.5938 50.5806H18.947C16.8804 51.9924 14.2719 53.3147 13.0941 53.8855ZM54.1935 47.871C54.1935 51.3565 51.3574 54.1935 47.871 54.1935C44.9906 54.1935 42.476 52.2435 41.7561 49.4516L41.5818 48.7742H31.6129V52.3871H29.8064V48.7742H24.3871V52.3871H22.5806V48.7742H19.3417L18.0645 47.497V46.4384L19.3417 45.1613H41.5818L41.7561 44.4839C42.476 41.692 44.9906 39.7419 47.871 39.7419C51.3574 39.7419 54.1935 42.579 54.1935 46.0645V47.871Z" fill="#F0B420"/>
</svg>
