<svg width="90" height="90" viewBox="0 0 90 90" fill="none" xmlns="http://www.w3.org/2000/svg">
<path d="M45 90C20.1768 90 1.76392e-06 69.8232 3.93402e-06 45C6.10415e-06 20.1767 20.1768 -5.92712e-05 45 -5.71011e-05C69.8233 -5.4931e-05 90.0001 20.1767 90.0001 45C90.0001 69.8232 69.8232 90 45 90ZM45 85C67.121 85 85.0001 67.121 85.0001 45C85.0001 22.8789 67.121 4.99994 45 4.99994C22.879 4.99994 5.00001 22.8789 5.00001 45C5 67.121 22.879 85 45 85Z" fill="#D7DBDD" fill-opacity="0.7"/>
<path d="M31.3273 49.8663C31.4535 49.7402 31.5536 49.5905 31.6219 49.4257C31.6902 49.261 31.7254 49.0844 31.7254 48.906C31.7254 48.7276 31.6902 48.551 31.6219 48.3862C31.5536 48.2215 31.4535 48.0718 31.3273 47.9457L22.9462 39.5646L52.9826 39.5646C53.3425 39.5646 53.6878 39.4216 53.9423 39.167C54.1968 38.9125 54.3398 38.5673 54.3398 38.2073L54.3398 37.5287C54.3398 37.1687 54.1968 36.8235 53.9423 36.5689C53.6878 36.3144 53.3425 36.1714 52.9826 36.1714L22.9462 36.1714L31.3273 27.7903C31.4535 27.6642 31.5536 27.5145 31.6219 27.3497C31.6902 27.185 31.7254 27.0084 31.7254 26.83C31.7254 26.6516 31.6902 26.475 31.6219 26.3102C31.5536 26.1455 31.4535 25.9958 31.3273 25.8697L30.8455 25.3947C30.5912 25.1419 30.2472 25 29.8886 25C29.5301 25 29.1861 25.1419 28.9318 25.3947L17.395 36.9315C17.1422 37.1858 17.0003 37.5298 17.0003 37.8883C17.0003 38.2469 17.1422 38.5909 17.395 38.8452L28.9318 50.382C29.1861 50.6348 29.5301 50.7767 29.8886 50.7767C30.2472 50.7767 30.5912 50.6348 30.8455 50.382L31.3273 49.8663Z" fill="#D7DBDD" fill-opacity="0.7"/>
<path d="M60.0651 68.63L71.6019 57.0932C71.7281 56.9672 71.8282 56.8175 71.8965 56.6527C71.9648 56.4879 72 56.3113 72 56.133C72 55.9546 71.9648 55.778 71.8965 55.6132C71.8282 55.4484 71.7281 55.2987 71.6019 55.1727L60.0651 43.6359C59.8108 43.3831 59.4668 43.2412 59.1083 43.2412C58.7497 43.2412 58.4057 43.3831 58.1514 43.6359L57.6696 44.1109C57.5434 44.237 57.4433 44.3867 57.3749 44.5515C57.3066 44.7162 57.2715 44.8928 57.2715 45.0712C57.2715 45.2496 57.3066 45.4262 57.3749 45.591C57.4433 45.7557 57.5434 45.9054 57.6696 46.0315L66.0507 54.4533L36.693 54.4533C36.333 54.4533 35.9878 54.5963 35.7332 54.8509C35.4787 55.1054 35.3357 55.4506 35.3357 55.8106L35.3357 56.4892C35.3357 56.8492 35.4787 57.1944 35.7332 57.449C35.9878 57.7035 36.333 57.8465 36.693 57.8465L66.0507 57.8465L57.6696 66.2276C57.5434 66.3537 57.4433 66.5034 57.3749 66.6682C57.3066 66.8329 57.2715 67.0095 57.2715 67.1879C57.2715 67.3663 57.3066 67.5429 57.3749 67.7077C57.4433 67.8724 57.5434 68.0221 57.6696 68.1482L58.1514 68.63C58.4057 68.8828 58.7497 69.0247 59.1083 69.0247C59.4668 69.0247 59.8108 68.8828 60.0651 68.63Z" fill="#D7DBDD" fill-opacity="0.7"/>
</svg>
