<svg width="114" height="114" viewBox="0 0 114 114" fill="none" xmlns="http://www.w3.org/2000/svg">
<path d="M57 114C25.5573 114 2.23429e-06 88.4427 4.9831e-06 57C7.73192e-06 25.5572 25.5573 -6.64303e-05 57 -6.36815e-05C88.4428 -6.09326e-05 114 25.5572 114 57C114 88.4427 88.4428 114 57 114ZM57 107.667C85.02 107.667 107.667 85.0199 107.667 57C107.667 28.98 85.02 6.33327 57 6.33327C28.9801 6.33327 6.33334 28.98 6.33334 57C6.33334 85.0199 28.9801 107.667 57 107.667Z" fill="#F0B420"/>
<path d="M39.6809 63.1642C39.8407 63.0046 39.9676 62.815 40.0541 62.6063C40.1406 62.3975 40.1851 62.1738 40.1851 61.9479C40.1851 61.722 40.1406 61.4983 40.0541 61.2895C39.9676 61.0808 39.8407 60.8912 39.6809 60.7316L29.0648 50.1155L67.1109 50.1155C67.5668 50.1155 68.0041 49.9343 68.3265 49.6119C68.6489 49.2895 68.8301 48.8522 68.8301 48.3962L68.8301 47.5366C68.8301 47.0807 68.6489 46.6434 68.3265 46.321C68.0041 45.9986 67.5668 45.8174 67.1109 45.8174L29.0648 45.8174L39.6809 35.2013C39.8407 35.0417 39.9676 34.852 40.0541 34.6433C40.1406 34.4346 40.1851 34.2109 40.1851 33.985C40.1851 33.7591 40.1406 33.5353 40.0541 33.3266C39.9676 33.1179 39.8407 32.9283 39.6809 32.7686L39.0706 32.1669C38.7485 31.8467 38.3127 31.667 37.8585 31.667C37.4044 31.667 36.9686 31.8467 36.6465 32.1669L22.0332 46.7802C21.713 47.1023 21.5333 47.538 21.5333 47.9922C21.5333 48.4464 21.713 48.8822 22.0332 49.2043L36.6465 63.8175C36.9686 64.1377 37.4044 64.3175 37.8585 64.3175C38.3127 64.3175 38.7485 64.1377 39.0706 63.8175L39.6809 63.1642Z" fill="#F0B420"/>
<path d="M76.0827 86.9326L90.696 72.3193C90.8558 72.1596 90.9826 71.97 91.0691 71.7613C91.1557 71.5526 91.2002 71.3289 91.2002 71.103C91.2002 70.877 91.1557 70.6533 91.0691 70.4446C90.9826 70.2359 90.8558 70.0463 90.696 69.8866L76.0827 55.2734C75.7606 54.9532 75.3249 54.7734 74.8707 54.7734C74.4165 54.7734 73.9807 54.9532 73.6586 55.2734L73.0483 55.8751C72.8885 56.0348 72.7617 56.2244 72.6751 56.4331C72.5886 56.6418 72.5441 56.8655 72.5441 57.0914C72.5441 57.3174 72.5886 57.5411 72.6751 57.7498C72.7617 57.9585 72.8885 58.1481 73.0483 58.3078L83.6644 68.9755L46.4779 68.9755C46.022 68.9755 45.5847 69.1566 45.2623 69.479C44.9399 69.8014 44.7587 70.2387 44.7587 70.6947L44.7587 71.5543C44.7587 72.0102 44.9399 72.4475 45.2623 72.7699C45.5847 73.0923 46.022 73.2735 46.4779 73.2735L83.6644 73.2735L73.0483 83.8896C72.8885 84.0493 72.7617 84.2389 72.6751 84.4476C72.5886 84.6563 72.5441 84.88 72.5441 85.1059C72.5441 85.3319 72.5886 85.5556 72.6751 85.7643C72.7617 85.973 72.8885 86.1626 73.0483 86.3223L73.6586 86.9326C73.9807 87.2528 74.4165 87.4325 74.8707 87.4325C75.3249 87.4325 75.7606 87.2528 76.0827 86.9326Z" fill="#F0B420"/>
</svg>
