<svg width="520" height="492" viewBox="0 0 520 492" fill="none" xmlns="http://www.w3.org/2000/svg">
<path d="M121.802 18.7976C123.777 19.3813 126.122 18.6808 128.343 18.7976C129.947 18.9143 131.552 19.1478 133.156 19.4981C139.943 21.016 146.731 23.2344 153.641 24.1684C163.39 25.5695 173.633 23.5847 182.642 29.3058C183.999 30.2399 186.468 29.5393 188.319 29.8896C202.51 33.2756 216.949 35.961 230.647 40.5146C240.52 43.9006 248.788 51.3732 258.66 54.4089C275.073 59.4295 286.797 71.1053 301.359 78.4611C310.985 83.365 319.747 89.7867 329.126 95.2743C342.33 103.097 354.424 111.737 361.335 125.748C363.186 129.601 366.641 132.871 369.603 136.257C372.565 139.759 375.65 143.262 378.858 146.765L384.042 141.394C378.488 137.074 374.169 130.652 370.59 124.464C355.535 98.4268 332.951 80.2125 305.925 65.968C296.176 60.8306 287.414 54.1754 278.159 48.2207C276.801 47.2866 275.197 45.652 273.839 45.7687C265.818 46.4693 262.486 39.5806 256.809 36.7784C245.826 31.4075 234.102 27.4377 222.749 22.7673C208.681 16.9294 193.378 20.4322 178.94 17.7467C161.539 14.5943 143.645 12.3758 126.986 7.12172C113.904 3.15193 101.44 2.1011 88.1124 2.1011C83.9166 2.1011 79.7208 1.2838 75.525 0.116211H48.8691C49.733 0.349728 50.5968 0.583245 51.2139 1.05028C72.193 15.9954 98.3552 12.3758 121.802 18.7976Z" fill="#358C62" fill-opacity="0.06"/>
<path d="M242 75.6593C232.251 71.456 222.008 68.1868 212.013 64.684C210.038 63.9835 207.693 64.217 205.595 63.8667C197.821 62.5824 190.046 61.298 182.395 59.6634C178.446 58.8461 174.744 56.6277 170.795 55.6936C152.037 51.3735 133.032 49.1551 113.657 48.4546C104.649 48.1043 95.6401 46.9367 86.6314 45.0686C73.7971 42.4999 60.099 44.2513 46.7711 43.2005C31.2219 42.0329 15.6726 38.8804 0 40.3983V53.592C2.22132 53.9422 4.31923 54.2925 6.54055 54.7595C16.2897 56.8612 26.1622 58.8461 35.9113 60.831C37.5156 61.1813 39.1199 62.1153 40.7242 62.1153C51.7074 61.8818 62.814 64.5673 73.7972 60.3639C78.2398 58.6126 83.9165 59.6634 88.9762 59.6634C94.1592 59.5466 99.2189 59.4299 104.402 59.6634C117.977 60.3639 131.798 59.8969 144.879 62.3488C168.08 66.6689 190.91 72.8571 213.864 78.4615C221.762 80.3296 230.4 80.6799 236.077 87.6854C236.694 88.5027 238.175 88.6195 239.532 88.853H263.103C260.141 87.3351 257.056 85.934 254.094 84.4162C249.652 82.1978 246.566 77.6442 242 75.6593Z" fill="#358C62" fill-opacity="0.06"/>
<path d="M180.668 11.2097C183.876 12.027 187.702 12.961 190.787 12.1437C205.226 8.29071 218.8 13.7784 232.375 15.7632C249.405 18.2152 265.448 25.4542 279.763 35.1451C293.338 44.2523 306.913 53.2427 320.734 61.7661C341.96 74.9598 357.633 92.7071 369.974 113.257C375.28 122.013 380.833 130.187 388.855 136.258L392.804 132.055C391.817 131.821 391.076 131.471 390.582 131.004C384.289 123.765 378.242 116.175 372.318 108.586C370.961 106.835 370.344 104.5 369.48 102.515C370.097 101.931 370.837 101.347 371.454 100.763C374.046 102.515 377.255 103.799 379.229 106.018C385.153 112.789 390.706 119.678 396.136 126.801C396.383 127.151 396.629 127.735 396.753 128.202L401.812 122.831C399.221 118.627 396.629 114.541 393.791 110.571C388.608 103.099 382.684 95.9763 372.318 93.7579C370.097 93.2908 367.999 91.5395 366.395 89.9049C361.212 84.534 355.412 79.5134 351.586 73.3252C345.416 63.6342 334.186 60.0147 326.288 52.3086C321.845 47.9886 315.181 45.7702 309.628 42.3842C297.657 35.1451 285.934 27.6726 274.087 20.3168C272.236 19.1492 270.508 17.9817 268.657 16.9308C258.661 11.4432 248.541 5.95554 238.422 0.467892C238.175 0.351133 237.928 0.351133 237.682 0.467892C235.214 1.05168 232.992 0.818167 231.018 0.234375H221.886C223.243 1.86899 223.737 4.0874 222.996 7.23988C220.775 7.00636 218.924 6.88961 217.073 6.53933C209.915 5.4885 202.881 3.73713 195.723 3.50361C186.098 3.15334 176.595 2.21927 167.34 0.234375H121.433C128.343 1.75223 135.254 3.03658 142.288 3.85389C155.369 5.4885 168.08 7.82367 180.668 11.2097Z" fill="#358C62" fill-opacity="0.06"/>
<path d="M14.6859 2.6849C16.2901 2.91841 18.0178 3.26869 19.6221 3.03517C28.1372 2.1011 36.6522 1.05028 45.0439 0.116211H1.85156C1.97497 0.116211 2.09838 0.232969 2.09838 0.232969C6.2942 1.2838 10.49 1.98435 14.6859 2.6849Z" fill="#358C62" fill-opacity="0.06"/>
<path d="M174.62 77.294C170.178 74.8421 164.624 74.0248 159.318 73.2074C153.394 72.3901 147.347 72.7404 141.424 72.0399C134.266 71.2226 127.109 68.8874 119.951 68.7706C110.449 68.5371 100.823 71.2226 91.3209 68.6539C90.457 68.4204 89.4698 68.8874 88.4825 69.1209C72.5631 73.908 56.3968 74.375 40.354 70.989C28.8771 68.5371 17.894 64.6841 6.41714 62.1154C4.31923 61.7651 2.09791 61.2981 0 60.8311V67.7198C7.89802 68.6539 15.796 69.4712 23.5707 70.8723C26.1622 71.3393 28.0133 74.7253 30.2346 76.827C27.2729 77.5275 24.1877 79.1621 21.3493 78.6951C14.1918 77.5275 7.03418 75.5426 0 74.0248V84.2995C5.18308 85.2336 10.3662 86.1676 15.5492 87.1017C16.7833 87.3352 18.0174 87.3352 19.2514 87.2185C33.69 86.2844 48.1286 85.3503 62.5672 84.2995C63.9246 84.1827 65.2821 83.3654 66.6396 83.0152C70.2184 82.1978 73.7971 80.5632 77.2525 80.68C98.2317 81.9643 119.087 83.4822 140.067 85.2336C145.62 85.7006 151.05 87.6855 156.603 88.386C158.084 88.6196 159.441 88.7363 160.922 88.8531H218.923C212.383 86.5179 205.719 84.4163 198.931 83.3654C190.54 81.9643 182.395 81.3805 174.62 77.294Z" fill="#358C62" fill-opacity="0.06"/>
<path d="M283.835 219.039C280.379 217.988 276.677 215.887 274.333 213.201C260.634 197.789 243.974 187.281 222.749 183.778C219.17 183.194 215.591 182.727 212.136 182.377L204.855 189.966C207.446 190.2 209.914 190.433 212.382 190.9C224.723 193.119 236.57 198.023 248.541 202.226C251.009 203.043 252.86 205.729 254.958 207.597C254.217 208.648 253.353 209.698 252.613 210.749C241.013 207.13 229.536 202.459 217.689 200.124C211.272 198.957 204.855 197.439 198.191 196.855L188.071 207.363C196.586 206.429 205.842 207.83 214.604 208.181C218.676 208.297 222.625 210.165 226.698 211.333C234.719 213.668 242.864 215.887 250.762 218.339C257.426 220.323 264.46 221.958 270.63 224.877C276.184 227.562 280.75 232.233 286.303 235.035C288.154 235.969 289.758 237.02 291.116 238.304L299.384 229.664C295.435 224.644 290.622 221.024 283.835 219.039Z" fill="#358C62" fill-opacity="0.06"/>
<path d="M298.274 200.475C296.053 198.49 293.955 196.272 291.24 194.988C281.861 190.317 270.261 189.383 264.337 179.459C263.967 178.875 262.61 178.992 261.746 178.525C258.29 177.007 254.341 175.956 251.38 173.738C245.086 169.067 238.175 167.082 230.277 167.316C229.166 167.316 227.932 167.316 226.822 167.199L218.677 175.723C228.302 177.707 238.669 178.758 246.813 183.312C265.818 194.054 283.835 206.547 301.853 218.806C303.457 219.974 305.061 221.142 306.542 222.426L314.07 214.603C313.947 214.37 313.7 214.253 313.576 214.019C308.64 209.232 303.334 204.912 298.274 200.475Z" fill="#358C62" fill-opacity="0.06"/>
<path d="M362.198 136.025C352.696 120.729 340.109 108.82 323.449 100.063C304.691 90.1385 287.167 78.4626 269.026 67.4873C268.039 66.9035 266.805 66.5533 265.818 66.0862C259.524 63.0505 253.354 60.0148 247.06 56.9791C240.52 53.7098 234.226 49.5065 227.192 47.4049C214.604 43.6686 201.646 41.3334 188.812 38.2977C182.518 36.8966 176.348 35.1452 170.054 33.9776C164.748 33.0436 159.195 33.1603 153.765 32.343C141.918 30.4749 130.194 28.1397 118.47 26.0381C116.866 25.6878 115.015 25.6878 113.658 24.8705C106.13 20.4337 97.9849 20.4337 89.4698 21.4845C86.508 21.8348 83.4229 20.6672 80.4611 20.6672C69.2311 20.5504 57.7543 13.4282 48.0052 20.9007C43.0689 19.2661 38.8731 17.398 34.4304 16.5806C30.1112 15.7633 25.6686 15.8801 21.3493 15.5298C16.2897 15.0628 11.1066 14.479 6.04692 14.012C4.07242 13.8952 2.09791 13.6617 0 13.5449V23.3526C1.97451 24.2867 3.94901 25.571 5.6767 27.3224C5.80011 27.4392 6.17033 27.3224 6.41714 27.3224C13.6981 27.6727 20.9791 28.1397 28.3835 28.2565C35.5411 28.49 43.5625 25.104 48.7456 33.1603C49.1158 33.7441 50.9669 33.5106 52.201 33.7441C56.0266 34.4447 59.7288 35.262 63.5544 35.9625C67.1332 36.5463 70.712 37.2469 74.2908 37.4804C84.1633 38.181 94.0358 38.7647 103.908 39.4653C105.759 39.5821 107.734 40.6329 109.585 40.6329C120.445 40.7496 131.798 39.115 142.164 41.2167C154.258 43.5518 166.352 45.3032 178.323 47.8719C190.787 50.5574 203.004 53.9433 215.098 57.4461C228.796 61.4159 243.605 63.4008 253.23 75.1934C253.724 75.8939 254.958 76.0107 255.822 76.361C263.843 80.5643 271.865 84.7676 279.763 88.9709H301.482L294.201 96.5602C306.419 102.982 318.759 109.52 330.977 116.059C332.457 116.759 333.445 118.277 334.679 119.328C337.641 121.897 340.602 124.699 343.811 127.034C350.598 132.055 355.164 138.243 357.015 146.416C351.462 144.431 346.773 141.746 342.33 138.593C332.211 131.354 322.215 123.998 312.219 116.526C309.134 114.307 306.295 111.739 303.333 109.404C301.482 108.003 299.631 106.368 297.533 105.434C294.818 104.149 292.103 102.865 289.512 101.581L281.491 109.987C288.525 114.191 295.435 118.277 302.47 122.481C304.691 123.882 307.159 124.932 309.38 126.45C315.057 130.07 321.598 133.106 326.164 137.776C336.9 148.868 350.475 154.939 365.037 159.493C365.53 159.61 365.901 159.726 366.394 159.96L373.799 152.254C373.428 151.553 373.058 150.853 372.811 150.036C370.714 144.781 365.284 140.928 362.198 136.025Z" fill="#358C62" fill-opacity="0.06"/>
<path d="M311.602 169.417C297.287 160.776 282.848 152.02 268.409 143.496C264.337 141.044 260.141 138.592 255.822 136.607L246.566 146.298C254.835 149.101 263.103 152.02 271.371 154.822C277.295 156.807 284.082 157.507 289.018 160.893C294.695 164.863 298.397 171.285 303.457 176.072C311.725 183.895 320.364 191.367 328.879 198.956L334.926 192.651C328.262 185.529 321.104 178.874 314.193 171.868C313.329 171.051 312.589 170.117 311.602 169.417Z" fill="#358C62" fill-opacity="0.06"/>
<path d="M292.104 175.021C285.687 168.833 279.023 166.615 271.002 164.513C264.955 162.995 259.401 159.609 253.601 157.391C249.282 155.756 244.963 153.888 240.52 152.604L233.609 159.726C245.95 161.944 257.55 165.33 267.546 173.62C268.287 174.204 269.274 174.554 270.138 174.788C281.861 177.473 290.376 184.829 298.521 192.535C302.84 196.621 306.172 201.642 313.33 201.525C314.564 201.525 316.045 203.277 317.032 204.444C318.019 205.612 319.007 206.663 320.117 207.83L323.326 204.444C321.722 203.043 320.241 201.759 318.76 200.241C309.998 191.834 300.989 183.428 292.104 175.021Z" fill="#358C62" fill-opacity="0.06"/>
<path d="M354.423 165.914C355.04 167.548 355.534 169.066 356.151 170.467L361.457 164.863C359.359 164.746 357.014 165.096 354.423 165.914Z" fill="#358C62" fill-opacity="0.06"/>
<path d="M334.926 160.076C333.815 159.609 332.705 158.792 332.211 157.858C327.768 150.151 322.709 143.146 313.453 139.993C312.342 139.643 311.972 137.658 310.985 136.724C304.198 131.003 298.151 122.83 290.129 120.261C285.316 118.743 281.121 116.525 277.048 114.307L271.618 119.911C276.308 122.48 280.997 125.048 285.44 128.084C294.078 133.922 302.1 140.694 310.245 147.349C311.479 148.283 311.849 150.151 312.713 151.553C309.257 151.086 306.789 149.801 304.568 148.167C298.891 144.197 293.585 139.526 287.538 136.14C280.627 132.404 273.346 129.252 266.065 125.982L260.512 131.82C266.312 134.856 271.989 138.125 277.789 141.395C290.5 148.634 303.087 155.873 315.551 163.228C316.909 164.046 317.896 165.564 319.006 166.731C323.943 172.336 328.262 178.757 333.939 183.544C335.79 185.062 337.517 186.697 339.245 188.331L350.969 176.072C347.02 169.417 342.947 163.228 334.926 160.076ZM333.445 166.848C335.913 170.351 338.381 173.737 340.849 177.239C334.309 176.422 330.853 173.62 333.445 166.848Z" fill="#358C62" fill-opacity="0.06"/>
<path d="M9.62572 480.813C4.19582 469.721 8.88527 457.928 5.42989 446.836C4.07242 442.516 2.34473 436.912 4.07242 433.409C10.7364 419.982 6.17033 403.519 17.4003 391.493C17.7706 391.026 18.1408 390.208 17.894 389.624C17.5237 388.34 17.2769 387.172 17.2769 386.005L0 403.986V491.671H10.9832C11.1066 487.818 11.1066 483.965 9.62572 480.813Z" fill="#358C62" fill-opacity="0.06"/>
<path d="M278.035 242.041C274.086 239.356 270.137 236.437 265.818 234.452C254.711 229.314 243.851 224.294 231.511 221.375C221.391 218.923 210.902 215.187 200.783 215.303C193.748 215.42 186.591 215.77 179.557 216.354L170.178 226.162C181.284 224.06 192.638 225.695 203.744 226.746C209.421 227.33 214.728 228.614 220.651 227.913C223.983 227.446 227.932 228.38 231.141 229.665C236.324 231.766 241.013 235.386 246.32 237.021C253.107 239.005 257.55 241.808 258.29 249.047C258.537 251.732 260.511 254.534 262.486 256.753C264.214 258.738 266.065 260.606 267.916 262.591L283.342 246.595C281.737 244.96 280.01 243.442 278.035 242.041ZM272.235 256.636C269.273 251.265 267.299 247.762 265.324 244.143C265.941 243.793 266.682 243.559 267.299 243.209C271.371 245.894 273.469 249.514 272.235 256.636Z" fill="#358C62" fill-opacity="0.06"/>
<path d="M239.286 246.945C235.337 243.325 230.03 239.355 224.971 239.005C211.766 237.954 199.425 232.934 185.357 234.335C175.361 235.386 165.982 236.903 157.097 239.822L137.475 260.255C141.671 257.92 145.99 255.818 150.186 253.833C163.884 247.528 179.063 245.427 194.242 244.026C197.327 243.792 200.783 243.559 203.498 242.274C210.902 238.772 217.319 240.64 223.243 245.193C224.6 246.244 226.081 248.813 225.711 250.097C225.217 251.498 222.626 253.016 220.898 253.133C209.051 253.95 196.957 253.483 185.357 255.468C172.893 257.57 160.182 260.605 148.952 265.86C135.871 271.931 124.271 280.688 112.177 288.511C110.079 289.795 108.598 292.364 107.487 294.582C104.279 301.004 99.8363 305.791 93.0489 309.527C88.6063 312.096 85.8913 317.817 83.1764 322.604C77.6231 331.945 72.44 341.519 67.2569 350.976C65.4058 354.479 63.6781 357.982 61.9505 361.485C57.3844 370.942 52.8184 380.4 48.3757 389.974C47.2651 392.309 46.648 394.761 45.9076 397.213C42.8224 408.655 39.6139 420.097 37.0223 431.54C35.6648 437.494 35.0478 443.566 34.801 449.637C34.5542 456.176 32.0861 461.196 26.2859 464.582C25.4221 464.466 24.5583 464.232 23.6944 464.115C23.9412 461.663 24.0646 459.095 24.6817 456.643C25.1753 454.658 26.903 453.023 27.2732 451.038C30.1115 433.875 32.7031 416.711 35.7883 399.548C36.4053 396.162 39.8607 393.243 41.0947 389.857C42.699 385.77 43.3161 381.334 44.4267 377.13C44.5501 376.43 44.4267 375.729 44.6735 375.145C48.9928 367.206 53.1886 359.383 57.6312 351.56C60.8398 345.839 64.9122 340.585 67.7506 334.63C68.2442 333.696 68.7378 332.762 69.2314 331.828L36.5287 365.922C31.8392 374.562 27.3966 383.435 24.4348 392.542C21.7199 400.832 19.7454 409.472 16.7836 417.762C14.1921 425.001 13.4517 433.174 13.9453 440.764C14.8091 453.841 10.9835 467.501 18.7581 479.878C19.7454 481.512 19.7454 483.964 19.3752 485.949C19.1284 487.934 19.005 489.802 18.8815 491.787H32.5797C32.5797 491.087 32.7031 490.503 32.7031 489.802C32.9499 486.183 31.469 482.096 32.7031 478.944C35.9117 470.771 40.2309 463.065 43.8097 455.125C44.6735 453.257 44.9203 451.155 45.0437 449.054C46.031 432.707 48.1289 416.361 54.6695 401.183C61.827 384.486 68.7378 367.556 77.9933 351.911C86.5084 337.549 98.4788 325.056 107.858 311.045C115.139 300.07 124.641 291.897 136.118 285.241C144.509 280.454 152.284 274.733 160.676 269.946C163.884 268.195 168.204 268.078 171.906 267.027C177.953 265.393 184.123 263.758 190.17 262.123C191.527 261.773 192.885 261.423 194.366 261.306C205.966 260.489 217.566 259.555 229.29 259.088C231.758 258.971 234.843 259.788 236.818 261.306C243.605 266.56 248.418 272.748 251.75 279.287L261.376 269.246C254.465 261.539 247.06 253.95 239.286 246.945Z" fill="#358C62" fill-opacity="0.06"/>
<path d="M194.982 315.949C194.859 313.847 193.871 310.461 192.514 310.111C190.416 309.41 187.454 310.695 184.863 311.162C185.603 311.746 186.344 312.329 187.084 313.03C186.097 316.883 185.973 321.086 183.999 324.472C178.692 333.93 171.782 342.687 166.969 352.378C158.701 369.191 149.445 385.303 135.747 398.731C135.006 399.548 134.636 400.716 134.143 401.883L185.11 348.758C185.727 347.707 186.344 346.773 187.084 345.722C193.254 336.615 195.599 326.574 194.982 315.949Z" fill="#358C62" fill-opacity="0.06"/>
<path d="M226.081 271.815C212.382 271.815 200.165 265.626 184.863 270.297C160.922 277.653 141.053 290.146 122.666 304.974C109.955 315.249 99.2186 327.975 91.5673 342.103C80.2139 363.236 69.9712 384.954 59.4816 406.437C58.371 408.656 58.1242 411.341 57.5071 413.793C53.6815 430.606 54.2986 447.886 47.141 464.466C43.6856 472.639 43.0686 482.447 43.6856 491.671H48.1282L57.3837 481.98C57.1369 469.136 62.5668 456.76 63.8009 443.917C64.2945 439.013 64.6647 434.109 65.1583 429.205C65.8988 420.915 58.4944 410.524 71.6989 405.27C71.9457 405.153 71.9457 404.919 72.0691 404.686C76.6352 395.112 80.9544 385.537 85.6438 376.197C87.9886 371.643 90.8269 367.323 93.4184 362.886C95.2695 359.5 97.3675 356.114 98.6015 352.495C101.687 343.388 104.648 334.164 113.04 328.092C115.508 326.224 118.964 325.524 122.049 324.239C122.666 324.94 123.159 325.64 123.776 326.341C121.925 329.143 120.691 332.646 118.1 334.747C105.636 345.022 102.18 360.201 94.6525 373.161C86.7545 386.822 80.4608 401.416 73.0564 415.428C69.9712 421.149 68.8605 426.52 73.4266 431.54C76.7586 435.276 76.7586 438.779 75.4011 442.982C73.3032 449.754 70.3414 456.526 69.601 463.532C69.3542 465.634 69.2308 467.852 69.1073 469.954L86.3843 451.973C87.4949 448.47 88.9758 445.084 91.1971 441.932C92.3078 440.414 93.1716 438.546 93.4184 436.794C95.2695 417.646 110.078 403.168 114.644 384.954C115.015 383.552 117.73 382.618 119.334 381.451C120.074 381.918 120.691 382.385 121.432 382.735C119.951 388.69 118.964 394.761 116.742 400.482C112.176 412.041 107.363 423.601 102.551 435.16L120.815 416.128C124.27 408.422 127.849 400.833 131.428 393.243C132.785 390.441 135.994 388.573 137.968 385.888C141.67 381.101 145.373 376.313 148.581 371.176C155.862 359.617 163.143 348.058 170.054 336.265C172.769 331.595 174.743 326.574 177.088 321.67C164.13 327.392 161.909 340.002 153.517 348.758C146.113 356.465 138.585 366.155 137.598 378.065C137.475 379.466 133.896 380.633 131.921 381.801C131.428 379.816 129.823 377.364 130.564 375.846C133.896 368.724 136.858 361.368 141.547 355.063C154.258 338.133 167.216 321.32 181.037 305.324C185.11 300.537 192.637 298.319 198.808 295.283C199.918 294.699 202.14 295.517 203.497 296.217C209.421 299.37 211.395 305.208 208.557 311.746C205.718 318.401 203.744 325.524 201.152 332.295L216.948 315.833C218.059 313.147 219.046 310.462 219.91 307.659C220.651 304.974 219.293 301.238 217.812 298.436C210.161 283.607 192.637 281.506 180.173 293.882C172.275 301.588 163.513 308.827 156.973 317.467C143.275 335.681 125.381 351.444 117.236 373.161C116.495 375.263 114.768 377.131 113.04 378.765C104.648 386.238 98.8483 394.995 96.01 405.853C94.2823 412.625 90.5801 418.93 87.3715 425.352C86.7545 426.636 84.163 427.103 82.5587 427.921C81.8182 427.337 80.9544 426.87 80.2139 426.286C83.4225 418.697 85.8907 410.757 89.9631 403.635C101.316 383.786 113.04 364.171 125.257 344.672C127.849 340.585 130.811 337.666 128.096 332.412C127.232 330.661 128.713 327.742 129.33 325.407C132.909 312.213 144.262 304.273 152.9 294.466C153.764 293.415 155.986 292.364 156.973 292.831C158.084 293.298 159.564 295.75 159.071 296.567C157.096 300.07 155.369 304.74 152.037 306.375C144.632 310.111 142.411 317.117 138.215 322.838C137.228 324.122 137.475 326.341 136.734 329.96C139.819 327.275 141.177 326.458 142.164 325.173C152.037 313.497 162.033 301.938 171.535 289.912C183.135 275.317 206.459 271.815 222.008 282.79C228.919 287.577 231.881 294.699 230.276 301.822L239.408 292.247C239.162 291.08 239.038 289.912 239.038 288.745C239.162 279.871 229.536 278.12 226.081 271.815Z" fill="#358C62" fill-opacity="0.06"/>
<path d="M490.541 24.5187C491.158 25.8031 491.775 27.0874 492.269 28.4885L507.324 12.9596C507.201 12.8429 507.201 12.6094 507.078 12.4926C506.584 11.5585 505.967 10.5077 505.473 9.34013C504.363 6.8882 503.129 4.43627 501.277 2.33462C500.66 1.63407 500.043 0.93352 499.55 0.116211H477.46C479.805 3.03517 482.026 6.30441 484.001 10.2742C486.222 14.9445 488.443 19.8484 490.541 24.5187Z" fill="#358C62" fill-opacity="0.06"/>
<path d="M465.613 50.6726C466.477 51.6067 467.218 52.7743 467.958 54.0586L476.597 44.9515C469.316 38.88 462.405 31.2907 455.247 21.8333C449.694 14.5943 444.017 7.23847 438.464 0.116211H422.051C422.544 0.583245 423.038 1.16704 423.532 1.63407C439.081 19.7316 452.902 35.7275 465.613 50.6726Z" fill="#358C62" fill-opacity="0.06"/>
<path d="M480.915 40.3993L491.158 29.7743C489.43 27.2056 487.579 24.6369 485.974 22.185C480.915 14.7124 475.732 7.12312 469.438 0.234375H465.983H445.497C448.952 4.0874 452.408 7.94043 455.74 11.7935C464.008 21.0174 472.647 30.7083 480.915 40.3993Z" fill="#358C62" fill-opacity="0.06"/>
<path d="M364.791 9.10716C375.28 17.5138 385.646 26.2706 395.642 34.6773C399.344 37.713 402.923 40.8654 406.625 43.9012C407.242 44.485 407.859 45.1855 408.476 45.8861C408.847 46.3531 409.34 46.8201 409.711 47.2872C410.945 48.6883 412.302 49.9726 413.536 51.3737C415.634 53.5921 417.732 55.8105 419.706 58.0289C422.421 60.9479 425.136 63.8669 427.851 66.7858C432.294 71.5729 436.86 76.4768 441.303 81.4974L452.162 70.1718C448.213 63.8669 442.413 56.5111 432.664 52.0743C430.443 51.0234 428.468 48.805 426.494 46.5866L426.124 46.1196C423.902 43.5509 421.681 40.6319 419.706 37.9465C415.387 32.2253 410.821 26.1539 404.898 21.9506C399.838 18.3311 395.025 14.011 390.459 9.80771C386.757 6.53847 383.055 3.15248 379.106 0H353.931H353.561C356.893 2.68544 360.225 5.25413 363.556 7.93957L364.791 9.10716Z" fill="#358C62" fill-opacity="0.06"/>
<path d="M402.429 10.5077C405.39 15.8786 408.352 21.3662 412.671 25.8031C414.893 28.0215 416.991 30.2399 419.212 32.4583C430.689 44.1341 442.536 56.277 455.37 67.0188L465.86 56.0435C463.021 52.891 459.936 49.8553 455.987 47.5201C454.876 46.9363 454.013 45.652 452.902 44.3677C452.532 43.9006 452.161 43.3168 451.668 42.8498C450.434 41.4487 449.447 39.8141 448.459 38.0627C445.621 33.5091 442.412 28.3718 435.008 27.2042C435.008 27.0874 434.885 27.0874 434.885 26.9706C434.761 26.8539 434.638 26.6204 434.638 26.5036C427.974 17.7467 421.31 8.98985 414.646 0.116211H395.765C397.122 1.63407 398.48 3.50221 399.837 5.83737C400.701 7.35523 401.565 8.87309 402.429 10.5077Z" fill="#358C62" fill-opacity="0.06"/>
<path d="M286.303 12.2591C288.154 13.1932 289.759 14.8278 291.363 16.6959C292.967 18.4473 294.695 20.1987 296.67 21.483C299.631 23.3511 302.963 24.9858 306.172 26.6204C311.232 29.1891 316.044 31.5242 319.623 34.9102C323.696 38.7633 328.508 42.0325 333.074 45.185C341.713 51.0229 349.734 56.6273 354.054 65.968C355.288 68.6534 357.879 70.5216 360.347 72.3897C361.458 73.207 362.569 74.0243 363.433 74.8416C369.109 79.979 374.663 85.2331 380.339 90.4872L386.016 95.7414C386.386 95.9749 386.633 96.3252 386.88 96.6754C387.25 97.0257 387.62 97.376 387.99 97.7263C389.842 99.3609 391.816 100.995 393.667 102.513C397.74 105.783 401.565 108.818 404.033 112.671C405.021 114.306 406.008 115.824 406.995 117.458L416.991 107.067C412.548 101.696 408.229 96.3252 403.786 91.1878C399.591 86.1672 395.395 81.1466 391.199 76.0092C390.335 74.9584 389.225 74.2578 388.237 73.5573C387.99 73.3238 387.62 73.207 387.373 72.9735C384.905 71.2221 382.561 69.5875 380.092 67.8361C374.539 63.9831 368.739 59.8965 363.433 55.6932C361.458 54.0586 359.73 52.0737 358.003 49.8553C356.645 48.2207 355.288 46.4693 353.683 44.9515C351.215 42.4995 348.624 40.2811 346.032 38.0627C343.811 36.1946 341.59 34.2097 339.368 32.108C337.27 30.1231 335.296 28.0215 333.321 26.0366C330.36 23.0009 327.398 19.8484 324.066 17.0462C319.006 12.7261 313.576 8.63958 308.27 4.66979C306.295 3.15193 304.321 1.63407 302.346 0.116211H259.277C260.388 0.583245 261.499 1.05028 262.486 1.51731C270.631 4.90331 278.652 8.2893 286.303 12.2591Z" fill="#358C62" fill-opacity="0.06"/>
<path d="M366.271 47.6383C371.33 52.7757 376.637 58.0298 381.943 63.1672C383.671 64.8018 385.769 65.7359 387.867 66.7867C388.731 67.137 389.594 67.604 390.335 67.9543L392.309 69.0051L396.382 63.2839L394.778 61.8828C393.297 60.5985 391.939 59.3141 390.458 58.1466C387.25 55.3444 383.794 52.3086 380.586 49.3897L379.105 47.9886C375.896 45.0696 372.441 41.9171 369.726 38.6479C369.232 37.9474 368.862 36.7798 368.615 35.6122C370.096 36.5462 371.454 37.4803 372.688 38.5311C376.513 42.0339 380.339 45.6534 384.041 49.2729C388.607 53.7097 393.42 58.2633 398.233 62.5834C400.578 64.685 401.688 66.0861 401.565 66.6699C401.565 66.6699 401.318 67.7208 397.369 69.2386L394.161 70.4062L400.454 77.2949C402.922 80.0972 405.144 82.5491 407.365 84.8842C412.425 90.3719 417.484 95.9763 422.297 101.581L435.502 87.8032C430.936 82.6658 426.123 76.9447 420.446 70.0559C417.978 67.0202 415.51 63.8677 413.165 60.7153C411.067 57.913 408.846 55.1108 406.625 52.3086C404.28 49.3897 401.688 46.5875 398.727 43.7853C396.752 41.9171 394.778 39.9322 392.926 37.9474C387.867 32.9267 382.684 27.6726 376.76 23.4693C365.407 15.413 353.93 7.70692 342.577 0.234375H310.614C319.5 6.18906 328.385 12.494 336.53 19.266C346.772 28.0229 356.645 37.9474 366.271 47.6383Z" fill="#358C62" fill-opacity="0.06"/>
<path d="M519.542 0.116211H509.916C511.027 2.21786 512.261 4.43627 513.371 6.53793L519.542 0.116211Z" fill="#358C62" fill-opacity="0.06"/>
</svg>
