<svg width="135" height="39" viewBox="0 0 135 39" fill="none" xmlns="http://www.w3.org/2000/svg">
<circle cx="19.1772" cy="19.1772" r="19.1772" fill="#D89713"/>
<mask id="mask0" mask-type="alpha" maskUnits="userSpaceOnUse" x="0" y="0" width="39" height="39">
<circle cx="19.1772" cy="19.1772" r="19.1772" fill="#EFB420"/>
</mask>
<g mask="url(#mask0)">
<path d="M5.81484 31.0026C5.77116 29.918 5.82212 28.7751 5.34168 27.7342C5.31257 27.6759 5.31257 27.5886 5.31985 27.5231C5.61102 26.1327 5.07963 24.837 4.73751 23.5559C4.51913 22.7479 4.14061 21.9763 3.97318 21.1392C3.91495 20.848 3.77664 20.5641 3.63106 20.302C3.15062 19.4649 2.65563 18.6351 2.16064 17.8052C2.10241 17.7106 2.00778 17.6378 1.93498 17.5432C1.76756 17.3321 1.5783 17.1283 1.43999 16.8953C1.04691 16.262 0.704786 15.5996 0.289867 14.9809C-0.0158625 14.515 -0.365267 14.071 -0.976727 13.9327C-1.10775 13.9036 -1.2315 13.7944 -1.32613 13.6925C-1.63186 13.3576 -1.97399 13.0446 -2.19964 12.6588C-2.56361 12.0546 -3.22602 11.829 -3.69189 11.3485C-3.95395 11.0792 -4.34703 10.9409 -4.6746 10.7298C-5.38069 10.2785 -6.07222 9.8126 -6.77103 9.354C-6.88022 9.28121 -6.98213 9.20842 -7.09132 9.1429C-7.68094 8.80078 -8.27784 8.45865 -8.87474 8.11653C-8.8893 8.10925 -8.90386 8.10925 -8.91842 8.11653C-9.34061 8.21844 -9.61723 7.91999 -9.94479 7.75256C-10.6509 7.39588 -11.3424 7.01736 -12.0703 6.71891C-12.3542 6.60244 -12.6454 6.50781 -12.9439 6.42773C-13.468 6.71163 -13.9848 6.99552 -14.5089 7.27941C-13.8829 7.425 -13.2277 7.47595 -12.6381 7.72345C-12.6236 7.73073 -12.609 7.71617 -12.5944 7.71617C-11.8083 7.78168 -11.0148 7.83264 -10.2287 7.92727C-9.92296 7.96366 -9.70458 8.13836 -9.78465 8.546C-9.91568 8.53145 -10.0249 8.52417 -10.1341 8.50233C-10.5563 8.43681 -10.9712 8.32763 -11.3934 8.31307C-12.3688 8.27667 -13.3151 8.13109 -14.2177 7.738C-14.2832 7.70889 -14.3488 7.67977 -14.4215 7.66521C-14.6035 7.62154 -14.7855 7.58514 -14.9675 7.54146C-15.2951 7.71617 -15.6226 7.89815 -15.9502 8.07285C-15.4843 8.18204 -15.0184 8.27667 -14.5526 8.34218C-13.781 8.44409 -13.0312 8.59696 -12.2814 8.80078C-12.0922 8.85173 -11.8665 8.90997 -11.6845 8.85901C-10.8329 8.6188 -10.0321 8.96092 -9.23142 9.08467C-8.22688 9.23753 -7.28058 9.68885 -6.43618 10.293C-5.63546 10.8608 -4.83474 11.4213 -4.01946 11.9527C-2.76743 12.7753 -1.84296 13.8817 -1.11503 15.1629C-0.678275 15.9272 -0.212401 16.6187 0.631994 16.9827C0.784859 17.0482 0.908606 17.2302 1.01052 17.383C1.1925 17.6451 1.29441 17.9799 1.52007 18.1838C2.72842 19.3048 3.22341 20.7897 3.67473 22.2966C4.03141 23.4831 4.4245 24.655 4.72295 25.8561C4.86125 26.4166 4.79574 27.0281 4.86126 27.6104C4.94133 28.3384 5.05779 29.0663 5.15243 29.7942C5.29801 30.9516 5.11603 32.0726 4.72295 33.15C4.69383 33.2227 4.66471 33.3028 4.6356 33.3756C4.86853 33.281 5.10147 33.1864 5.33441 33.0844C5.57462 32.3929 5.84396 31.6868 5.81484 31.0026ZM0.107885 16.262C-0.263357 15.8107 -0.620041 15.3376 -0.969446 14.8644C-1.04952 14.7552 -1.08592 14.6096 -1.13687 14.4859C-1.10047 14.4495 -1.0568 14.4131 -1.0204 14.3767C-0.867537 14.4859 -0.678275 14.566 -0.561807 14.7043C-0.212401 15.1265 0.115164 15.5559 0.435453 16C0.500967 16.0946 0.471849 16.2548 0.486408 16.3858C0.348103 16.3421 0.173399 16.3494 0.107885 16.262Z" fill="#202832"/>
<path d="M4.70151 31.7158C4.69423 30.7258 4.78886 29.7286 4.65056 28.7532C4.54137 27.9524 4.41762 27.1444 4.27204 26.351C3.89352 24.3346 3.30389 22.3765 2.3867 20.5203C1.72429 19.1809 1.04732 17.8706 -0.219275 16.968C-0.590519 16.706 -0.859854 16.2692 -1.08551 15.8543C-1.97358 14.231 -3.30569 13.0954 -4.89985 12.2074C-5.47491 11.8871 -5.99174 11.4721 -6.53769 11.1009C-6.61776 11.0427 -6.71239 10.9408 -6.79246 10.948C-7.26561 10.9917 -7.46216 10.5622 -7.797 10.3875C-8.44486 10.0527 -9.13639 9.8052 -9.80608 9.51402C-10.6359 9.15006 -11.5385 9.36844 -12.3902 9.20102C-13.4166 9.00447 -14.4721 8.86617 -15.4548 8.5386C-15.7751 8.42941 -16.0954 8.35662 -16.4084 8.30566C-16.7942 8.51676 -17.1873 8.72786 -17.5731 8.94624C-16.9616 9.02631 -16.3429 9.08455 -15.7532 9.25197C-15.6368 9.28837 -15.4985 9.24469 -15.3674 9.25197C-15.2728 9.25925 -15.1782 9.27381 -15.0836 9.29565C-14.6832 9.39028 -14.2828 9.52858 -13.8752 9.58682C-13.3001 9.67417 -12.696 9.55042 -12.1646 9.90711C-12.0845 9.96534 -11.9389 9.92166 -11.8297 9.9435C-10.9926 10.1546 -10.1409 10.322 -9.33293 10.6059C-8.75059 10.817 -8.26288 11.2829 -7.68053 11.4722C-6.71239 11.7852 -6.02086 12.5131 -5.1619 12.9717C-4.59412 13.2774 -4.07729 13.6778 -3.52407 14.0199C-2.74519 14.5076 -2.03181 15.0463 -1.62417 15.9198C-1.51499 16.16 -1.31117 16.3638 -1.13647 16.5749C-0.423098 17.463 0.384905 18.2928 0.981806 19.2464C1.67334 20.3601 2.19016 21.5758 2.75067 22.7623C3.04912 23.3956 3.36213 24.0435 3.52227 24.7204C3.74793 25.6886 3.84256 26.6786 3.98815 27.6613C4.00998 27.7996 4.0027 27.9524 3.96631 28.0907C3.93719 28.1781 3.82072 28.3091 3.75521 28.3018C3.66786 28.2946 3.53683 28.1708 3.52955 28.0907C3.50043 27.8505 3.52227 27.603 3.52955 27.3555C3.52955 27.1808 3.57323 26.9989 3.52227 26.8387C3.06367 25.2955 2.82346 23.6941 2.05914 22.2455C1.6151 21.4011 1.21474 20.5349 0.850779 19.6613C0.464977 18.7369 -0.583239 18.3656 -0.947203 17.412C-1.07095 17.0918 -1.39124 16.8515 -1.57322 16.5385C-2.13373 15.5849 -2.87621 14.8425 -3.85891 14.2965C-4.96536 13.6778 -5.99902 12.9498 -7.06907 12.2656C-7.12731 12.2292 -7.2001 12.2074 -7.25833 12.1782C-7.62958 11.989 -7.99354 11.7997 -8.36479 11.6105C-8.75059 11.4066 -9.12183 11.1446 -9.53675 11.0136C-10.2792 10.7806 -11.0436 10.635 -11.8006 10.4458C-12.1718 10.3584 -12.5358 10.2492 -12.9071 10.1764C-13.2201 10.1182 -13.5476 10.1255 -13.8679 10.0745C-14.5594 9.95806 -15.251 9.81247 -15.9425 9.68145C-16.0371 9.65961 -16.1463 9.65961 -16.2264 9.60865C-16.6704 9.33204 -17.1509 9.33204 -17.6531 9.39756C-17.8278 9.41939 -18.0098 9.3466 -18.1845 9.3466C-18.2355 9.3466 -18.2792 9.3466 -18.3301 9.33932C-18.8324 9.61593 -19.3347 9.89255 -19.8296 10.1692C-19.6185 10.2128 -19.4002 10.2565 -19.1891 10.3002C-18.978 10.3366 -18.7669 10.3803 -18.5558 10.3948C-17.9734 10.4385 -17.3911 10.4749 -16.8087 10.5186C-16.6996 10.5258 -16.5831 10.5914 -16.4739 10.5914C-15.8333 10.5986 -15.1636 10.4967 -14.5522 10.6278C-13.8388 10.7733 -13.1254 10.8825 -12.4193 11.0427C-11.6841 11.2101 -10.9635 11.4212 -10.2501 11.6396C-9.44212 11.8871 -8.5686 12.0108 -8.00082 12.746C-7.9717 12.7897 -7.89891 12.797 -7.84796 12.8188C-6.37026 13.6414 -4.89257 14.4639 -3.41488 15.2938C-3.32753 15.3374 -3.26929 15.4321 -3.1965 15.4976C-3.0218 15.6577 -2.84709 15.8324 -2.65783 15.978C-2.25747 16.291 -1.98814 16.6768 -1.87895 17.1864C-2.20652 17.0626 -2.48313 16.8952 -2.74518 16.6987C-3.34208 16.2474 -3.93171 15.7888 -4.52133 15.3229C-4.70331 15.1846 -4.87073 15.0244 -5.04543 14.8789C-5.15462 14.7915 -5.26381 14.6896 -5.38756 14.6314C-6.23924 14.1946 -7.10547 13.7724 -7.94987 13.3211C-8.21192 13.1828 -8.40118 12.8989 -8.66324 12.7751C-9.2383 12.5131 -9.84248 12.3093 -10.4321 12.0909C-10.5486 12.0472 -10.6869 12.0618 -10.8106 12.0399C-11.2692 11.9599 -11.7278 11.8798 -12.1791 11.7779C-12.4121 11.7269 -12.6304 11.5886 -12.8634 11.5304C-13.9698 11.2611 -15.0908 11.1227 -16.2337 11.0791C-16.7651 11.0572 -17.2965 10.9844 -17.8278 10.868C-18.5849 10.7078 -19.3929 10.817 -20.179 10.7515C-20.3829 10.7369 -20.5867 10.7151 -20.7832 10.6933C-21.2855 10.9699 -21.7878 11.2465 -22.29 11.5304C-21.8023 11.6396 -21.3146 11.7415 -20.8196 11.8507C-20.725 11.8725 -20.6304 11.9307 -20.5357 11.9307C-19.8879 11.9162 -19.2327 12.0836 -18.5849 11.8216C-18.3228 11.7196 -17.988 11.7852 -17.6823 11.7779C-17.3765 11.7706 -17.0781 11.7633 -16.7723 11.7779C-15.9716 11.8216 -15.1563 11.7924 -14.3847 11.9453C-13.0162 12.2146 -11.6696 12.6004 -10.3156 12.9498C-9.84976 13.0663 -9.34021 13.0881 -9.00536 13.5249C-8.96169 13.5831 -8.84522 13.5831 -8.76515 13.6123C-8.46669 13.7214 -8.15369 13.8015 -7.88435 13.9617C-6.94533 14.5222 -6.02814 15.1118 -5.10367 15.6941C-4.97264 15.7815 -4.82706 15.847 -4.69603 15.9416C-4.36118 16.1673 -3.97538 16.3565 -3.70605 16.6477C-3.07275 17.3392 -2.27203 17.7178 -1.41308 18.0017C-1.26749 18.0526 -1.10735 18.0963 -0.976322 18.1764C-0.0518532 18.766 0.552328 19.5885 0.909012 20.6295C1.17834 21.4156 1.54231 22.1727 1.86988 22.937C2.00818 23.2646 2.18288 23.5849 2.29935 23.927C2.47405 24.4147 2.62692 24.9097 2.76523 25.4047C2.93993 26.0525 3.20198 26.7077 3.2311 27.3628C3.26749 28.2363 3.13647 29.1098 3.0564 29.9906C2.95449 31.148 2.75795 32.2909 2.23384 33.3464C2.08826 33.6448 1.97907 33.9942 1.46952 34.0816C1.50591 33.8341 1.49135 33.6157 1.56415 33.441C1.70245 33.128 1.95723 32.8514 2.05186 32.5311C2.51045 30.9952 2.90353 29.452 2.48133 27.836C2.45222 27.7341 2.51045 27.6103 2.49589 27.5011C2.44494 26.7732 2.52501 26.0016 2.30663 25.3319C1.83348 23.9124 1.15651 22.5658 0.646955 21.1536C0.29755 20.1854 -0.262953 19.3993 -0.954485 18.6714C-1.26021 18.3511 -1.58778 18.271 -2.03182 18.4093C-1.97358 18.5549 -1.94446 18.6932 -1.87167 18.8169C-0.779779 20.746 0.290274 22.6895 1.41856 24.5967C1.70245 25.0771 1.86988 25.5284 1.90627 26.0817C1.98635 27.3337 1.9645 28.5493 1.37488 29.714C0.952686 30.5439 0.617838 31.4101 0.282991 32.2763C0.0646133 32.8368 -0.102806 33.4265 -0.277508 34.0015C-0.495888 34.7222 -0.808899 35.3991 -1.39124 35.8723C-2.19196 36.5201 -2.26475 37.5975 -2.94173 38.3181C-3.21106 38.6093 -3.32752 39.0533 -3.51679 39.4246C-3.56046 39.5119 -3.60414 39.5993 -3.65509 39.6866C-3.52407 39.8468 -3.40032 40.0069 -3.26201 40.1598C-3.1601 39.9414 -3.05091 39.723 -2.91261 39.5119C-2.67239 39.1334 -2.54137 38.6894 -2.32299 38.2963C-1.97358 37.6412 -1.60962 36.986 -1.21654 36.36C-1.07095 36.1271 -0.816175 35.9742 -0.605076 35.7777C-0.575958 35.7995 -0.539564 35.8141 -0.510447 35.8359C-0.517725 35.9378 -0.503166 36.0543 -0.546843 36.1489C-0.852571 36.8332 -1.17286 37.5101 -1.47131 38.1944C-1.78432 38.9077 -2.06093 39.6357 -2.38122 40.349C-2.46129 40.531 -2.54864 40.7057 -2.64327 40.8804C-2.53408 40.9969 -2.43218 41.1207 -2.32299 41.2371C-2.25019 41.1061 -2.1774 40.9751 -2.10461 40.8368C-1.55866 39.8468 -0.954483 38.8859 -0.648754 37.7867C-0.219276 36.2654 0.151964 34.7222 0.574163 33.2008C0.727028 32.6403 1.12739 32.1817 1.20018 31.5775C1.24386 31.1699 1.37489 30.7622 1.51319 30.3764C1.59326 30.1581 1.76068 29.9688 1.88443 29.765C1.92811 29.7868 1.97179 29.8087 2.01546 29.8305C2.10281 30.3255 1.95723 30.7841 1.80436 31.25C1.43312 32.3855 0.981804 33.5065 0.967245 34.7294C0.967245 34.8095 0.959967 34.926 0.909012 34.9697C0.719751 35.1444 0.596003 35.3482 0.51593 35.5666C1.04732 34.8386 1.70973 34.5256 2.2484 34.2636C2.48861 33.885 2.64148 33.441 2.98361 33.1498C3.21654 32.0216 3.45676 30.886 3.67514 29.7577C3.74793 29.3937 3.7916 29.037 4.25748 28.7823C4.26476 29.0807 4.29388 29.2918 4.27204 29.4956C4.20653 30.26 4.0027 30.9952 3.80616 31.7377C3.74793 31.956 3.78433 32.2254 3.67514 32.4074C3.39124 32.8878 3.21654 33.4192 3.00544 33.936C3.23838 33.8487 3.50772 33.754 3.79889 33.6448C4.09734 33.0479 4.36666 32.4365 4.65056 31.8396C4.68695 31.8323 4.70151 31.7741 4.70151 31.7158ZM-1.17286 19.443C-1.14375 19.4211 -1.12191 19.392 -1.09279 19.3702C-0.97632 19.4575 -0.808897 19.5158 -0.743383 19.6322C-0.292068 20.4548 0.144688 21.2919 0.581446 22.129C-0.262951 21.3865 -0.517729 20.2874 -1.17286 19.443Z" fill="#202832"/>
<path d="M-1.84167 41.63C-1.8635 41.6591 -1.88534 41.6882 -1.8999 41.7246C-1.80527 41.8265 -1.71064 41.9357 -1.61601 42.0376C-1.59417 42.0595 -1.56506 42.0958 -1.53594 42.0958H-1.28116C-1.21565 41.9503 -1.15014 41.8047 -1.09918 41.6591C-0.880804 41.0767 -0.444047 40.5745 -0.11648 40.0358C-0.0582455 39.9412 0.0145482 39.8247 0.00726891 39.7228C-1.03712e-05 39.6355 -1.03712e-05 39.5481 0.00726891 39.4607C-0.0364068 39.0167 -0.0800829 38.5727 -0.1092 38.165C-0.174713 38.3325 -0.247505 38.4926 -0.313019 38.66C-0.735217 39.701 -1.06278 40.7856 -1.84167 41.63Z" fill="#202832"/>
<path d="M-3.11749 37.1245C-2.81176 36.6223 -2.4478 36.1637 -2.09111 35.6978C-1.79266 35.3047 -1.43598 34.948 -1.31223 34.4385C-1.29039 34.3366 -1.15937 34.2711 -1.09385 34.1764C-0.999222 34.0381 -0.897312 33.8926 -0.831799 33.7397C-0.496952 32.9608 -0.176662 32.1819 0.150904 31.403C0.1873 31.3084 0.19458 31.2065 0.230976 31.1119C0.318329 30.8571 0.369282 30.5878 0.507587 30.3621C1.23552 29.1901 1.78146 27.9672 1.6286 26.5478C1.57764 26.0819 1.51213 25.5796 1.30103 25.1793C0.733246 24.0874 0.0781116 23.0319 -0.540627 21.9618C-1.05746 21.081 -1.6034 20.2148 -2.09839 19.3194C-2.37501 18.8244 -2.60794 18.3149 -3.17573 18.082C-3.24124 18.0528 -3.30675 18.0019 -3.33587 17.9437C-3.59792 17.4632 -3.89637 17.0265 -4.44232 16.8299C-4.50783 16.8081 -4.52967 16.6843 -4.58791 16.6261C-4.98827 16.2694 -5.34495 15.7599 -5.8181 15.5997C-6.29854 15.4323 -6.67706 15.163 -7.09926 14.93C-7.34675 14.7844 -7.60881 14.668 -7.87086 14.5515C-8.46048 14.2895 -9.0501 14.0201 -9.65428 13.7872C-10.1566 13.5906 -10.6734 13.3941 -11.2048 13.2995C-11.6925 13.2121 -12.1802 13.183 -12.6315 12.9282C-12.8936 12.7754 -13.2211 12.7244 -13.5341 12.6735C-13.8835 12.6225 -14.2402 12.6443 -14.5896 12.6007C-15.0118 12.5497 -15.434 12.4041 -15.8562 12.3968C-16.4167 12.3823 -16.9845 12.5497 -17.545 12.3896C-17.596 12.375 -17.6542 12.4041 -17.7124 12.4187C-18.6515 12.7171 -19.6051 12.7463 -20.5514 12.5352C-21.2283 12.3823 -21.8762 12.1421 -22.5532 11.9819C-22.6696 11.9528 -22.7788 11.931 -22.8953 11.9019C-23.1064 12.0183 -23.3102 12.1348 -23.5213 12.2513C-23.4995 12.2585 -23.4776 12.2658 -23.4485 12.2731C-23.3684 12.3022 -23.2738 12.2804 -23.1937 12.2949C-22.6405 12.3677 -22.0873 12.4187 -21.5486 12.5279C-21.3958 12.557 -21.2866 12.7681 -21.1555 12.8991C-21.3302 12.9428 -21.5122 13.0447 -21.6796 13.0156C-22.1455 12.9355 -22.6041 12.7972 -23.07 12.6953C-23.3757 12.6298 -23.6742 12.5643 -23.9799 12.506C-24.2711 12.6735 -24.5695 12.8336 -24.8607 13.001C-23.9144 13.183 -22.9681 13.365 -22.0291 13.547C-21.9563 13.5615 -21.8835 13.5615 -21.8107 13.5543C-20.959 13.496 -20.1073 13.4305 -19.2556 13.365C-19.1756 13.3577 -19.0955 13.3068 -19.0154 13.2849C-18.8043 13.234 -18.5932 13.1321 -18.3894 13.1393C-17.1519 13.2194 -15.9217 13.314 -14.6843 13.4232C-14.3567 13.4523 -14.0364 13.5761 -13.7088 13.6198C-13.0537 13.7071 -12.3767 13.6998 -11.7434 13.8527C-10.3167 14.1948 -8.86812 14.4787 -7.56513 15.2285C-7.07014 15.5124 -6.56059 15.7744 -6.102 16.102C-5.59245 16.466 -5.11929 16.8882 -4.63886 17.3031C-4.56607 17.3613 -4.54423 17.4778 -4.49327 17.5651C-4.69709 17.536 -4.84268 17.4559 -4.97371 17.354C-5.30855 17.1065 -5.62156 16.8154 -5.97825 16.6043C-6.49508 16.3058 -7.0483 16.0729 -7.57969 15.8035C-8.69342 15.2285 -9.83626 14.7117 -11.0956 14.5588C-11.7944 14.4787 -12.4932 14.4642 -13.1993 14.4205C-13.2866 14.4132 -13.374 14.4278 -13.4468 14.4059C-14.0073 14.2603 -14.5605 14.0201 -15.1283 13.9764C-16.2202 13.8964 -17.3266 13.5834 -18.4185 13.9983C-18.5423 14.042 -18.7024 13.991 -18.848 13.9837C-19.1319 13.9764 -19.4158 13.9764 -19.707 13.9764C-20.4786 13.9692 -21.272 14.0565 -22.0218 13.9328C-22.6769 13.8236 -23.3248 13.6125 -24.0017 13.5834C-24.5186 13.5615 -25.0427 13.4742 -25.5595 13.4087C-25.8434 13.5688 -26.12 13.7217 -26.3966 13.8818C-25.858 13.9837 -25.3266 14.0856 -24.7806 14.1657C-24.4167 14.2167 -24.0309 14.122 -23.6596 14.1293C-23.4922 14.1293 -23.3248 14.2239 -23.1573 14.2749C-23.1719 14.3331 -23.1865 14.3914 -23.201 14.4496C-23.3248 14.4787 -23.4485 14.5297 -23.5723 14.537C-24.3948 14.5661 -25.2247 14.6316 -26.0327 14.3914C-26.2874 14.3186 -26.5786 14.3768 -26.8479 14.3477C-26.9426 14.3331 -27.0445 14.3259 -27.1464 14.304C-27.2993 14.3914 -27.4521 14.4787 -27.605 14.5588C-27.1173 14.8063 -26.6004 14.799 -26.1127 14.9446C-25.5013 15.1193 -24.8316 15.0829 -24.1837 15.1047C-23.9362 15.112 -23.6814 15.0465 -23.434 14.9955C-22.8152 14.8572 -22.2329 14.6534 -21.5486 14.8427C-20.9736 15.0028 -20.3257 14.8936 -19.707 14.9009C-19.6778 14.9009 -19.656 14.8718 -19.6269 14.8718C-19.4085 14.8572 -19.1829 14.8354 -18.9645 14.8354C-18.8262 14.8354 -18.666 14.93 -18.5423 14.8936C-17.6033 14.6389 -16.6861 14.7917 -15.7325 14.8645C-14.4586 14.9664 -13.1847 15.2794 -11.889 15.0319C-11.8453 15.0247 -11.8017 15.0319 -11.758 15.0392C-11.0155 15.163 -10.2876 15.4323 -9.5087 15.2576C-9.44318 15.243 -9.34127 15.3522 -9.26848 15.4032C-9.19569 15.4614 -9.13017 15.5415 -9.0501 15.5852C-8.67158 15.7817 -8.2785 15.9491 -7.90726 16.153C-7.44866 16.4004 -7.00463 16.6625 -6.56059 16.9318C-5.81083 17.3832 -5.06834 17.8345 -4.33313 18.2931C-4.25306 18.344 -4.19482 18.4386 -4.12931 18.5114C-3.83814 18.8608 -3.58337 19.2612 -3.24852 19.5597C-2.70257 20.0401 -2.28765 20.586 -1.96737 21.2266C-1.74171 21.6779 -1.43598 22.0928 -1.23216 22.5514C-0.970104 23.1411 -0.744446 23.7452 -0.569744 24.3567C-0.402321 24.9318 -0.322248 25.5359 -0.20578 26.1256C-0.169384 26.293 -0.0893116 26.4604 -0.09659 26.6278C-0.125708 27.6397 -0.169384 28.6442 -0.21306 29.6487C-0.21306 29.6924 -0.234898 29.7288 -0.249456 29.7725C-0.438717 30.4495 -0.627977 31.1264 -0.824518 31.7961C-0.868195 31.9563 -0.962824 32.1018 -1.03562 32.2474C-1.15209 32.4731 -1.33407 32.6915 -1.37046 32.9244C-1.52333 33.9653 -2.22942 34.7369 -2.65162 35.6396C-3.05198 36.4985 -3.678 37.2483 -4.18027 38.0636C-4.28946 38.2456 -4.39137 38.4348 -4.49327 38.6314C-4.36225 38.8133 -4.22394 38.9953 -4.08564 39.1773C-4.00556 39.0172 -3.93277 38.8497 -3.87453 38.675C-3.69255 38.1291 -3.41594 37.6123 -3.11749 37.1245ZM-3.27036 18.4969C-3.12477 18.7153 -2.97919 18.9264 -2.8336 19.1447C-3.22668 19.0938 -3.42322 18.9191 -3.27036 18.4969ZM-0.169384 24.6406C-0.220339 24.5387 -0.256737 24.4222 -0.256737 24.313C-0.256737 24.2257 -0.191221 24.1238 -0.125708 24.0728C-0.09659 24.051 0.0489941 24.1019 0.085392 24.1602C0.230976 24.3858 0.383841 24.6188 0.478472 24.8662C0.638617 25.3103 0.849714 25.7689 0.878832 26.2275C0.929787 27.0791 1.09721 27.9454 0.813318 28.7825C0.762363 28.9354 0.638615 29.0664 0.543985 29.2047C0.500309 29.1901 0.456635 29.1829 0.420238 29.1683C0.420238 28.9135 0.420237 28.6588 0.427515 28.4113C0.456633 27.1228 0.471193 25.8344 -0.169384 24.6406Z" fill="#202832"/>
<path d="M13.2411 27.6758C13.2338 27.6467 13.2338 27.6176 13.2338 27.5957C13.2265 27.4793 13.2193 27.3628 13.2193 27.2536C13.2047 26.9916 13.1901 26.7441 13.212 26.4966C13.2848 25.7905 13.3357 24.9679 13.03 24.1745C12.8771 23.7814 12.7461 23.3665 12.6224 22.9734C12.5496 22.755 12.4841 22.5294 12.404 22.3037C12.353 22.1654 12.3021 22.0271 12.2438 21.8888C12.222 21.8378 12.2002 21.7796 12.1783 21.7286C11.9672 21.2118 11.8362 20.6586 11.7052 20.1199C11.5159 19.3265 11.3194 18.5039 10.8753 17.7541C10.7443 17.5358 10.7006 17.2519 10.657 16.9534C10.6278 16.7569 10.5987 16.5531 10.5405 16.3565C10.1256 14.9735 9.46315 13.685 8.82258 12.433C8.62604 12.0472 8.42222 11.6541 8.22568 11.261C7.94907 10.7078 7.65061 10.1546 7.36672 9.61592C7.22841 9.36842 7.09739 9.11364 6.96636 8.86615C6.93724 8.80792 6.90085 8.7424 6.87173 8.66961C6.80622 8.51674 6.73343 8.36388 6.62424 8.23285C6.26755 7.7961 6.12197 7.27927 5.9691 6.73332L5.95454 6.68237C5.83808 6.26745 5.64153 5.81613 5.35036 5.32114C4.62971 4.09822 3.87267 2.86803 3.10107 1.65239C3.08651 1.62327 3.06467 1.59415 3.05011 1.56503C2.91908 1.35394 2.75166 1.07004 2.39498 1.04821L2.40954 0.815269L2.11836 0.691521L2.27123 0.393071L2.18388 0.320278C2.06013 0.218368 1.95094 0.116458 1.85631 0.0145485C1.39044 0.00726918 0.931842 0.029107 0.473248 0.080062C0.698905 0.40035 0.917284 0.720638 1.14294 1.04093C1.43411 1.44857 1.72528 1.84893 2.0019 2.22017C2.05285 2.28568 2.11109 2.3512 2.16204 2.40943C2.24211 2.49678 2.3149 2.58413 2.36586 2.67148C3.18114 4.20013 3.98186 5.36482 4.86993 6.33296C5.05191 6.5295 5.11743 6.71876 5.05919 6.92986C4.97184 6.87163 4.89905 6.82067 4.84809 6.76244C4.73162 6.63141 4.61516 6.49311 4.49869 6.36936C4.19296 6.03451 3.87267 5.67783 3.66157 5.29202C3.12291 4.32388 2.43865 3.46493 1.78352 2.63509C1.50691 2.28568 1.23757 1.929 0.96824 1.58687C0.640672 1.1574 0.298545 0.713359 -0.0435812 0.283882C-0.0799776 0.240206 -0.109094 0.20381 -0.145491 0.167413C-0.560409 0.240206 -0.968048 0.334837 -1.36841 0.458584C-0.873417 1.121 -0.363869 1.80525 0.14568 2.46766C0.502365 2.92626 0.917284 3.45765 1.39772 3.91624C2.06013 4.54954 2.81717 5.27019 3.34856 6.15826C3.72708 6.79156 4.142 7.25015 4.58604 7.54132C5.03007 7.82521 5.3358 8.1819 5.59786 8.73512C5.73616 9.02629 5.86719 9.33202 5.99094 9.62319C6.27483 10.2929 6.57328 10.9844 6.9882 11.5813C7.29393 12.0181 7.50503 12.4985 7.70885 12.9644C7.85443 13.2992 8.0073 13.6559 8.20384 13.9835C8.66971 14.7988 9.10647 15.5631 9.36124 16.4439C9.50683 16.9461 9.68153 17.4921 9.91447 18.1618C9.95086 18.271 9.98726 18.3802 10.0237 18.4966C10.1401 18.8533 10.2566 19.2246 10.4459 19.5521C10.8317 20.2 11.0792 20.8478 11.2175 21.5539C11.2757 21.8524 11.3776 22.1436 11.4795 22.4202C11.5232 22.5366 11.5596 22.6458 11.6033 22.7623C11.6542 22.9079 11.7052 23.0607 11.7561 23.2063C11.8435 23.4538 11.9381 23.7159 12.0109 23.9707C12.2438 24.7423 12.2802 25.5575 12.3239 26.3437C12.3312 26.4966 12.3385 26.6494 12.3457 26.8023C12.353 26.8824 12.3603 26.9552 12.3676 27.0352C12.3821 27.1881 12.3967 27.3337 12.3894 27.4793C12.3749 27.7632 12.3676 28.047 12.353 28.3237C12.3385 28.6076 12.3312 28.8914 12.3166 29.1753C12.5568 29.0953 12.8116 29.0079 13.0737 28.9278C13.1101 28.5784 13.161 28.229 13.2338 27.8869C13.2629 27.8141 13.2484 27.7413 13.2411 27.6758Z" fill="#202832"/>
<path d="M12.1189 27.5523C12.2136 26.868 12.1553 26.2129 11.9297 25.4922C11.8933 25.3831 11.886 25.2666 11.8787 25.1356C11.8787 25.0992 11.8715 25.0555 11.8715 25.0191C11.8642 24.8953 11.8569 24.7643 11.8496 24.6333C11.8423 24.3567 11.8351 24.0728 11.7623 23.7962C11.6895 23.5123 11.573 23.2429 11.4638 22.9736C11.391 22.7989 11.3182 22.6242 11.2527 22.4495C11.0998 22.0127 10.9251 21.5833 10.7504 21.1611C10.4156 20.3531 10.0662 19.5087 9.92788 18.6133C9.85509 18.1475 9.62943 17.7034 9.41106 17.2739C9.30915 17.0774 9.20724 16.8736 9.11989 16.6698C8.99614 16.3859 8.87967 16.0874 8.7632 15.8108C8.58122 15.374 8.39923 14.9227 8.20269 14.4787C8.03527 14.1002 7.84601 13.7289 7.65675 13.365C7.59123 13.2339 7.51844 13.0956 7.45293 12.9646C7.3947 12.8481 7.32918 12.7317 7.27095 12.6152C7.16904 12.4187 7.05985 12.2148 6.9725 12.011C6.87787 11.7999 6.79051 11.567 6.71044 11.3486C6.54302 10.9119 6.3756 10.4533 6.11354 10.0602C5.98252 9.86364 5.84421 9.65254 5.72046 9.456C5.25459 8.72807 4.77416 7.9783 4.05351 7.4178C3.92976 7.32317 3.83513 7.17758 3.7405 7.01744C3.68226 6.93009 3.62403 6.84274 3.5658 6.75538C3.1072 6.15848 2.75052 5.70717 2.40839 5.28497C2.37199 5.23402 2.32832 5.18306 2.29192 5.12483C2.16817 4.94284 2.03715 4.76086 1.84061 4.68079C1.36018 4.49153 1.09084 4.09845 0.81423 3.68353L0.734158 3.56706C0.530338 3.26861 0.311959 2.97744 0.0790224 2.70083C-0.0228872 2.57708 -0.132076 2.46789 -0.233985 2.3587C-0.365012 2.2204 -0.49604 2.08937 -0.605229 1.94378C-0.728977 1.77636 -0.852724 1.59438 -0.961913 1.4124C-1.1439 1.12122 -1.34044 0.822774 -1.58065 0.568C-1.60249 0.546162 -1.61705 0.531603 -1.63889 0.509766C-1.95918 0.618955 -2.2649 0.742702 -2.57063 0.881009C-2.35953 1.15034 -2.15572 1.42695 -1.96645 1.71813C-1.72624 2.10393 -1.41323 2.43877 -1.1075 2.75906C-1.04926 2.82458 -0.983751 2.89009 -0.925517 2.94832C-0.714418 3.18126 -0.48876 3.40692 -0.270382 3.6253C0.11542 4.0111 0.51578 4.41146 0.857906 4.84821C0.988933 5.01564 1.1054 5.19762 1.22187 5.37232C1.48392 5.77268 1.75326 6.18032 2.17545 6.48605C2.21913 6.51517 2.25553 6.58068 2.29192 6.65347C2.31376 6.68987 2.3356 6.72627 2.35744 6.76266C2.40839 6.83546 2.45935 6.91553 2.50302 6.9956C2.60493 7.16302 2.71412 7.33045 2.84515 7.49059C3.20911 7.92735 3.57308 8.3641 3.93704 8.79358C4.45387 9.41232 4.99253 10.0456 5.50208 10.6789C5.62583 10.8318 5.72046 11.0283 5.82237 11.2467C5.84421 11.2904 5.86605 11.334 5.88061 11.3777C5.84421 11.3704 5.80781 11.3632 5.80053 11.3559C5.13812 10.9119 4.53394 10.3004 3.90792 9.4196C3.47845 8.81542 3.02713 8.21124 2.59037 7.62162C2.43751 7.4178 2.28464 7.21398 2.13906 7.01016C2.10994 6.97376 2.07354 6.94465 2.04443 6.91553C2.02987 6.90097 2.01531 6.89369 2.00075 6.87913C1.96435 6.84274 1.92796 6.80634 1.89156 6.76994C1.81877 6.69715 1.74598 6.63164 1.70958 6.55884C1.36745 5.84547 0.872464 5.18306 0.188212 4.53521C-0.132076 4.22948 -0.430527 3.88735 -0.721698 3.5525C-0.845446 3.40692 -0.969194 3.26861 -1.10022 3.12303C-1.23853 2.97016 -1.36955 2.8173 -1.48602 2.67899L-1.60977 2.5334C-1.82087 2.28591 -2.03925 2.03113 -2.25035 1.77636C-2.27946 1.73996 -2.30858 1.69629 -2.3377 1.64533C-2.38137 1.56526 -2.43961 1.47791 -2.5124 1.4124C-2.65071 1.28865 -2.78901 1.1649 -2.92732 1.04115C-2.94916 1.05571 -2.97827 1.06299 -3.00011 1.07755C-3.38591 1.28137 -3.77899 1.48519 -4.16479 1.69629C-3.90274 1.92922 -3.6698 2.15488 -3.54606 2.42422C-3.24761 3.06479 -2.7235 3.42148 -2.22123 3.77088C-1.97373 3.9383 -1.74808 4.09845 -1.53698 4.28771C-1.45691 4.3605 -1.37683 4.4333 -1.29676 4.49881C-1.04926 4.70991 -0.816329 4.90645 -0.648905 5.17578C-0.576112 5.29225 -0.488761 5.40144 -0.40141 5.49607L-0.379571 5.52519C-0.28494 5.63438 -0.18303 5.74356 -0.0883999 5.84547C0.122699 6.06385 0.31924 6.26767 0.457546 6.50789L0.5085 6.59524C0.814229 7.10479 1.13452 7.63618 1.7387 7.92007C1.84061 7.97102 1.93524 8.07293 2.00803 8.16756C2.92522 9.28857 3.7405 10.2858 4.49026 11.2176C4.5485 11.2904 4.59945 11.3777 4.65769 11.4724C4.7596 11.6471 4.86151 11.8218 5.03621 11.931C6.04075 12.5715 6.57942 13.5979 7.03801 14.5952C7.21271 14.9664 7.37286 15.3522 7.533 15.7235C7.67859 16.0729 7.83145 16.4368 7.99887 16.7935C8.20269 17.2303 8.41379 17.6743 8.61761 18.1038C9.30187 19.5451 10.008 21.0373 10.4884 22.6024C10.5175 22.7043 10.5466 22.8062 10.5685 22.9081C10.4957 22.6024 10.3501 22.3112 10.1899 22.0127C9.96428 21.5905 9.73862 21.1465 9.52752 20.7243C9.41833 20.4987 9.30187 20.2803 9.19268 20.0546C9.09805 19.8726 9.00342 19.6907 8.90878 19.516C8.86511 19.4359 8.82143 19.3558 8.78504 19.2757L8.73408 19.1738L8.34828 19.2685L8.36284 19.3995C8.37012 19.4796 8.3774 19.5596 8.38468 19.647C8.39923 19.8435 8.41379 20.0473 8.48659 20.2366C8.5885 20.4987 8.71225 20.7534 8.82871 21.0009C8.98886 21.3358 9.15628 21.6779 9.26547 22.0273C9.41834 22.5005 9.5348 22.9954 9.65127 23.4759C9.76046 23.9272 9.87693 24.3931 10.0152 24.8444C10.1681 25.3394 10.139 25.8271 10.1026 26.3439C10.088 26.606 10.0662 26.8753 10.0808 27.1446C10.1026 27.6979 10.0807 28.2656 10.0589 28.7606C10.0589 28.8407 10.0516 28.9135 10.0516 28.9936C10.0444 29.2702 10.0444 29.5541 9.94972 29.787C9.88421 29.9617 9.8187 30.1364 9.76046 30.3111C10.1608 30.0782 10.5685 29.8671 11.0125 29.6633C11.0125 29.656 11.0125 29.6487 11.0125 29.6414C11.0198 29.5832 11.0271 29.5177 11.0271 29.4522C11.0343 29.2047 11.0416 28.9572 11.0489 28.7097C11.0926 27.2829 11.1435 25.8053 10.6704 24.3712C10.583 24.0946 10.5539 23.8835 10.583 23.7234C10.6267 23.4832 10.6267 23.2648 10.5903 23.0537C10.634 23.2793 10.6704 23.505 10.6995 23.7234C10.7504 24.0873 10.8014 24.4586 10.9179 24.8298C10.947 24.9172 10.9761 24.9973 10.9979 25.0846C11.0635 25.2811 11.129 25.4704 11.1508 25.6597C11.2236 26.2274 11.2818 26.737 11.2382 27.2757C11.1799 28.0545 11.1799 28.8189 11.2382 29.5614C11.4929 29.4522 11.7623 29.343 12.0462 29.2411C12.0462 29.1974 12.0462 29.161 12.0462 29.1173C12.068 28.6151 12.0462 28.0691 12.1189 27.5523Z" fill="#202832"/>
<path d="M20.7298 29.3281C20.708 29.168 20.7152 29.0005 20.7225 28.8258C20.7371 28.4182 20.7516 27.9596 20.4532 27.5301C20.4532 27.5156 20.4532 27.501 20.4532 27.4865C20.4532 27.4573 20.4532 27.4282 20.4532 27.3991C20.4459 27.0497 20.4386 26.7076 20.4241 26.3582C20.4095 25.8705 20.4022 25.3755 20.3877 24.8878C20.3877 24.8077 20.3586 24.7422 20.344 24.6985C20.344 24.6912 20.3367 24.6839 20.3367 24.6767L20.1402 24.087C19.9727 23.5775 19.798 23.0679 19.6306 22.5511C19.6088 22.4856 19.5869 22.4128 19.5578 22.3473C19.4996 22.1726 19.4414 22.0124 19.405 21.845C19.2521 21.0152 19.0992 20.1271 18.9027 18.9697C18.8881 18.8823 18.8881 18.7877 18.8809 18.6858C18.8736 18.5184 18.8663 18.351 18.8153 18.1763C18.6989 17.7686 18.5606 17.361 18.4223 16.9679C18.3495 16.7641 18.284 16.553 18.2112 16.3492C18.2039 16.3273 18.1966 16.2764 18.1966 16.2327C18.1966 16.2036 18.1893 16.1745 18.1893 16.1453L18.1093 15.4465C18.051 14.9224 17.9928 14.391 17.9273 13.8669C17.2139 13.7577 16.6024 13.5466 16.0929 13.2482C16.1439 13.5248 16.1875 13.8087 16.2312 14.078C16.2822 14.3983 16.3404 14.7259 16.3986 15.0535C16.4277 15.199 16.4787 15.3301 16.5224 15.4538C16.5442 15.512 16.566 15.5703 16.5879 15.6285L16.7262 16.0434C16.9082 16.6039 17.1047 17.179 17.2794 17.7468C17.3013 17.8123 17.3013 17.8996 17.3085 17.987C17.3085 18.0452 17.3158 18.1035 17.3231 18.1617C17.3304 18.2345 17.3377 18.3073 17.3449 18.3801C17.3595 18.5693 17.3813 18.7586 17.4323 18.9551C17.4468 19.0061 17.4614 19.0571 17.476 19.1007C17.3449 18.7513 17.2212 18.3946 17.1266 18.038C17.0683 17.8196 17.0319 17.6012 16.9955 17.361C16.9519 17.0989 16.9082 16.8296 16.8281 16.5603C16.748 16.2909 16.6461 16.0289 16.5515 15.7741C16.3113 15.1626 16.0856 14.5803 16.173 13.9324C16.1948 13.7869 16.122 13.6777 16.0856 13.6194C16.0783 13.6122 16.0711 13.5976 16.0711 13.5903C16.0201 13.4666 15.9691 13.3428 15.9182 13.2191C15.9036 13.1754 15.8818 13.1317 15.8672 13.088C14.4187 12.1199 13.8363 10.4238 13.9819 8.40747C13.9819 8.37107 13.9892 8.3274 13.9892 8.291C13.9309 8.10902 13.9018 7.92704 13.9237 7.7305C13.9528 7.49756 13.8727 7.25734 13.7854 7.03897C13.7344 6.91522 13.6835 6.79147 13.6252 6.66044C13.3122 6.43479 13.0283 6.12906 12.7517 5.73598C12.315 5.11724 11.82 4.54217 11.2886 4.01807C11.3104 4.12726 11.3395 4.23644 11.3905 4.34563C11.456 4.4985 11.5288 4.64408 11.5943 4.78967C11.8928 5.43025 12.1766 6.02715 12.0602 6.71868C12.0456 6.81331 12.0675 6.89338 12.082 6.92978V6.93706C12.1766 7.23551 12.2713 7.54124 12.3586 7.83969C12.577 8.5385 12.7954 9.26642 13.0429 9.97251C13.1812 10.3729 13.3559 10.766 13.5233 11.1445C13.6835 11.5157 13.8509 11.8942 13.9819 12.28C14.3459 13.3137 14.6734 14.3546 14.9573 15.3665C15.001 15.5339 15.0665 15.694 15.1248 15.8469C15.2485 16.1672 15.365 16.4729 15.3286 16.8005C15.2995 17.0553 15.445 17.2809 15.5761 17.4774C15.627 17.5502 15.6707 17.623 15.6998 17.6885C15.7144 17.7177 15.7362 17.7541 15.7508 17.7905C15.7653 17.8196 15.7944 17.8633 15.8017 17.8924C15.6853 18.5111 15.9036 19.0425 16.1002 19.5084C16.2239 19.7995 16.3331 20.0762 16.3768 20.36C16.4714 21.0152 16.6607 21.6485 16.8499 22.2672C16.9446 22.5802 17.0465 22.9078 17.1266 23.2281C17.1557 23.3518 17.1702 23.4829 17.1775 23.6284C17.1921 23.7667 17.1993 23.9123 17.2285 24.0652C17.2794 24.2909 17.3377 24.5165 17.4032 24.7349C17.5051 25.1134 17.607 25.4701 17.6361 25.8268C17.6652 26.1762 17.7016 26.5329 17.738 26.875C17.8545 28.0033 17.9782 29.168 17.8181 30.3108C17.738 30.8859 17.7162 31.4682 17.7016 32.036V32.0433C17.7016 32.087 17.6943 32.1379 17.6943 32.1816C17.7744 32.3417 17.8472 32.5092 17.9273 32.6766C18.1457 33.1352 18.6698 33.3172 19.1065 33.1643C19.0701 32.6693 19.0337 32.167 19.0192 31.672C19.0119 31.3226 19.0483 30.9805 19.0847 30.6093C19.1065 30.42 19.1284 30.2162 19.1429 30.0196C19.1575 29.7721 19.1793 29.4883 19.1648 29.2044C19.1429 28.7094 19.1065 28.2653 19.0628 27.8504C18.9464 26.8022 18.8081 25.5647 18.6552 24.3345C18.6042 23.9487 18.5242 23.5702 18.4441 23.199L18.4223 23.0825C18.3931 22.9515 18.3495 22.8277 18.3131 22.7112C18.284 22.6312 18.2621 22.5511 18.2403 22.4783C18.2039 22.3546 18.1602 22.2235 18.1093 22.0998C18.0219 21.8741 17.9346 21.6339 17.9709 21.4956C18.0146 21.3427 18.0292 21.1972 18.0365 21.0516C18.0656 21.1462 18.0874 21.2481 18.1093 21.3427C18.1529 21.5174 18.1675 21.7067 18.1893 21.9105C18.2184 22.2163 18.2476 22.5293 18.3713 22.8277L18.3931 22.8787C18.6989 23.6066 18.99 24.2981 18.9755 25.0843C18.9609 25.6739 19.0192 26.2708 19.0701 26.8386C19.092 27.0715 19.1138 27.3045 19.1284 27.5374C19.1284 27.5665 19.1356 27.5956 19.1356 27.6248C19.1429 27.7849 19.1575 27.9669 19.2157 28.1489C19.4341 28.855 19.4341 29.5683 19.2157 30.2817L19.2084 30.3108C19.1138 30.6165 18.9828 31.0387 19.3467 31.4318C19.3613 31.4537 19.3758 31.5119 19.3758 31.541C19.1866 31.985 19.1939 32.4291 19.2011 32.8513C19.2011 32.9386 19.2011 33.026 19.2011 33.1133C19.3031 33.0624 19.3977 32.9969 19.4778 32.9168C19.8927 32.48 20.2494 32.087 20.4677 31.6284C20.5696 31.4245 20.6716 31.2353 20.788 31.0533C20.8099 30.5001 20.8026 29.9105 20.7298 29.3281Z" fill="#202832"/>
<path d="M17.0607 10.3946C17.0607 10.3655 17.068 10.3291 17.068 10.3C17.0971 10.0015 17.1262 9.69578 17.1189 9.38277C17.1117 9.02609 17.0461 8.67668 16.9879 8.33456C16.9661 8.23265 16.9515 8.13074 16.937 8.02155C16.9224 7.91964 16.9078 7.81045 16.886 7.70854C16.8569 7.50472 16.8278 7.29362 16.7841 7.08252C16.3837 7.0898 15.9834 7.10436 15.583 7.1262C15.583 8.62573 16.2818 9.71762 17.0607 10.3946Z" fill="#202832"/>
<path d="M17.0549 7.78163C17.0913 8.10192 17.1204 8.43676 17.1495 8.75705C17.1932 9.20109 17.2296 9.65968 17.2951 10.1037C17.3169 10.2493 17.3679 10.3876 17.4116 10.5114C17.4407 10.5914 17.4625 10.6569 17.4771 10.7079C17.9284 11.0063 18.3724 11.1665 18.6927 11.181C18.831 11.1883 18.962 11.2247 19.0931 11.2684C18.9475 10.4167 18.7801 9.55049 18.5107 8.71337C18.5107 8.69882 18.518 8.67698 18.518 8.66242C18.6126 8.10919 18.6126 7.57781 18.5544 7.06826C18.0012 7.06098 17.4407 7.06098 16.8875 7.07554C16.9093 7.14833 16.9238 7.22112 16.9457 7.29392C16.9966 7.46862 17.0403 7.62876 17.0549 7.78163Z" fill="#202832"/>
<path d="M22.4694 28.8986C22.4476 28.5055 22.4257 28.1415 22.4694 27.7848C22.5495 27.1006 22.4913 26.4163 22.2802 25.6884C22.2438 25.5646 22.2292 25.4191 22.2146 25.2735C22.2001 25.157 22.1928 25.0333 22.1637 24.9168C22.0472 24.3344 22.0545 23.7739 22.1782 23.1989C22.2219 23.0096 22.171 22.8349 22.1273 22.6821C22.1127 22.6311 22.0982 22.5801 22.0909 22.5365C22.0836 22.4855 22.0691 22.4418 22.0545 22.4054C22.0399 22.3618 22.0254 22.3035 22.0254 22.2817C22.0545 21.8813 22.0836 21.481 22.1127 21.0879C22.1418 20.753 22.1637 20.4109 22.1855 20.0761C22.1928 19.9742 22.1637 19.8795 22.1418 19.814C22.1346 19.7922 22.1273 19.7703 22.1273 19.7558C22.0982 19.5956 22.0691 19.4355 22.0399 19.2754C21.9599 18.8532 21.8798 18.4164 21.8216 17.9796C21.7924 17.7613 21.7706 17.5429 21.7488 17.3172C21.7342 17.1207 21.7124 16.9169 21.6833 16.713C21.6614 16.5602 21.6323 16.4146 21.5959 16.269C21.5595 16.1161 21.5304 15.9706 21.5158 15.8323C21.494 15.6576 21.4867 15.4756 21.4794 15.2863C21.4649 14.9369 21.443 14.5729 21.3484 14.2235L21.3338 14.1653C21.2611 13.8887 21.1883 13.6194 21.1737 13.3427C21.1591 13.1171 21.1009 12.906 21.0427 12.7094C20.999 12.542 20.948 12.3819 20.9335 12.229C20.8534 11.3409 20.7224 10.3874 20.3147 9.46289C20.2274 9.25907 20.191 9.01885 20.2347 8.88055C20.4312 8.26909 20.4167 7.68674 20.3293 7.11896C19.7761 7.1044 19.2229 7.09712 18.6696 7.08984C18.6842 7.15536 18.706 7.22815 18.7206 7.29366C18.7715 7.51204 18.8298 7.74498 18.8735 7.96336C18.8807 7.99975 18.8735 8.06527 18.8589 8.1235C18.8443 8.20357 18.8298 8.2982 18.8371 8.39283C18.8443 8.5457 18.8443 8.69856 18.8443 8.86599C18.8443 9.28818 18.8516 9.73222 18.9972 10.1326C19.1646 10.5985 19.2956 11.0207 19.3539 11.4283C19.7324 11.6903 19.9799 12.1344 19.9508 12.6294C19.9362 12.9497 19.8052 13.2408 19.6087 13.4592C19.6159 13.4883 19.6305 13.5247 19.6378 13.5538C19.7178 13.7795 19.7979 14.0197 19.8562 14.2454C19.8634 14.2818 19.8634 14.34 19.8634 14.3982C19.8634 14.471 19.8634 14.5584 19.878 14.6457C19.9799 15.2572 20.0818 15.8614 20.191 16.4728C20.373 17.5356 20.5622 18.6348 20.7369 19.7121C20.7588 19.8286 20.7515 19.9523 20.7442 20.0906C20.7442 20.1561 20.7369 20.2217 20.7369 20.2872C20.635 19.9814 20.555 19.6903 20.4822 19.4282C20.3439 18.9332 20.3147 18.4091 20.2856 17.8632C20.242 17.077 20.1983 16.2617 19.8052 15.4901C19.878 15.0461 19.7615 14.6603 19.6451 14.2818C19.6014 14.1362 19.565 14.0052 19.5359 13.8668C19.514 13.7722 19.4995 13.6849 19.4776 13.5902C19.2229 13.8159 18.888 13.9469 18.5313 13.9324H18.5168C18.5095 13.9324 18.5022 13.9324 18.5022 13.9324C18.4513 13.9324 18.4076 13.9251 18.3639 13.9178C18.3057 13.9105 18.2547 13.9032 18.1965 13.896C18.1965 13.896 18.1965 13.9032 18.2038 13.9032C18.3348 14.1507 18.3348 14.1799 18.211 14.289C18.0436 14.4419 18.0873 14.704 18.1601 14.8932C18.2183 15.0534 18.2838 15.2135 18.3493 15.3664C18.4149 15.5265 18.4804 15.6939 18.5386 15.8541L18.5896 15.9851C18.6842 16.2326 18.7715 16.4656 18.8152 16.7058C18.9171 17.259 19.019 17.8268 19.1137 18.3727C19.2374 19.057 19.3612 19.7703 19.4922 20.4692C19.5431 20.7312 19.6451 20.9787 19.747 21.2116C19.7906 21.3208 19.8343 21.4227 19.878 21.5319C19.9144 21.6338 19.9581 21.7503 19.9872 21.8668C20.0381 22.0706 20.0818 22.2744 20.1255 22.471C20.2128 22.864 20.3075 23.2717 20.4167 23.672C20.4676 23.854 20.5477 24.0287 20.6205 24.1961C20.7224 24.4218 20.817 24.6329 20.8243 24.8294C20.8607 25.4627 20.8316 26.1106 20.8097 26.7439C20.8025 27.0205 20.7879 27.3044 20.7806 27.5883C20.7806 27.7411 20.7879 27.894 20.7952 28.0396V28.0833C20.817 28.4982 20.8389 28.9058 20.8607 29.3208C20.8898 29.8376 20.9116 30.3544 20.9408 30.8712C21.363 30.2816 21.8871 29.8303 22.4913 29.4372V29.4227C22.4913 29.248 22.4767 29.066 22.4694 28.8986Z" fill="#202832"/>
<path d="M14.077 7.76715C14.1352 7.51965 14.2153 7.26488 14.3099 7.01738C14.1061 6.95187 13.9096 6.86452 13.7349 6.74805C13.7713 6.86452 13.8149 6.9737 13.8513 7.08289C13.9387 7.32311 14.0115 7.54877 14.077 7.76715Z" fill="#202832"/>
<path d="M26.1401 24.4729C26.1328 24.4583 26.1328 24.4437 26.1328 24.4292C26.1182 24.3345 26.0964 24.2472 26.0745 24.1526C26.0309 23.9633 25.9945 23.7813 25.9799 23.6066C25.9654 23.3373 25.9581 23.0607 25.9581 22.7986C25.9581 22.5875 25.9508 22.3691 25.9435 22.158C25.9362 22.0416 25.8926 21.9397 25.8562 21.8669C25.8416 21.845 25.8271 21.8086 25.8271 21.7941C25.8052 21.6703 25.7761 21.5466 25.747 21.4228C25.6742 21.0953 25.6087 20.7895 25.5941 20.4838C25.5796 20.0689 25.616 19.6467 25.6451 19.2318C25.6596 19.0352 25.6742 18.8314 25.6887 18.6276L25.696 18.4966C25.7106 18.2927 25.7179 18.0889 25.7106 17.8778C25.6887 17.3828 25.6087 16.8951 25.5359 16.4292C25.4267 15.7013 25.3175 15.0171 25.383 14.311C25.3976 14.1508 25.3539 14.0052 25.3175 13.8742C25.2957 13.8087 25.2811 13.7505 25.2738 13.7068C25.2593 13.6122 25.2447 13.5175 25.2302 13.4229C25.1865 13.139 25.1355 12.8624 25.1428 12.6003C25.1501 12.4475 25.1938 12.2728 25.2447 12.0981C25.2811 11.9671 25.3175 11.836 25.3393 11.6977C25.3612 11.5812 25.3466 11.4793 25.3393 11.3847C25.3321 11.3265 25.3248 11.2537 25.3393 11.2246C25.5577 10.5185 25.6815 9.76143 25.7179 8.92431C25.2593 8.56035 24.757 8.24006 24.2183 7.97073C24.2111 8.45844 24.1674 8.95343 24.1237 9.44114C24.0946 9.78327 24.0655 10.1327 24.0436 10.4748V10.533C24.0364 10.7441 24.0218 10.9188 23.9563 11.0717C23.9417 10.8388 23.949 10.5985 23.9563 10.3511C23.9636 10.0235 23.9708 9.68864 23.9344 9.35379C23.9126 9.12085 23.9417 8.87336 23.9708 8.61858C24 8.37837 24.0291 8.13087 24.0145 7.86882C23.454 7.61404 22.8571 7.4175 22.2311 7.28647C22.333 7.57037 22.4276 7.8397 22.4349 8.09447C22.4567 8.69137 22.3912 9.29555 22.3184 9.79783C22.3257 9.2446 22.2457 8.71321 22.1729 8.1891C22.1292 7.86882 22.0782 7.56309 22.0564 7.25008C21.6196 7.17001 21.161 7.11905 20.6952 7.11177C20.6369 7.11177 20.5714 7.11177 20.5132 7.10449C20.6297 7.57037 20.7316 8.0144 20.7316 8.45116C20.7316 8.64042 20.7243 8.83696 20.7243 9.02622C20.7097 9.64496 20.6952 10.2855 20.8116 10.9188C20.8335 11.0499 20.848 11.1954 20.8699 11.341C20.9135 11.7414 20.9645 12.1636 21.1756 12.513C21.5104 13.0808 21.6487 13.6631 21.576 14.18C21.5032 14.7041 21.656 15.1627 21.8016 15.5994C21.9545 16.058 22.0855 16.4511 21.9618 16.8733C21.9181 17.0261 21.9909 17.1499 22.0273 17.2081C22.0273 17.2154 22.0345 17.2154 22.0345 17.2227C22.0709 17.4629 22.1146 17.6958 22.151 17.9361C22.2529 18.5402 22.3621 19.1663 22.4204 19.7777C22.4713 20.3601 22.4713 20.9642 22.4786 21.5539C22.4786 21.7868 22.4786 22.0125 22.4859 22.2454C22.4931 22.7986 22.5004 23.3591 22.4931 23.9196C22.4931 24.0288 22.4859 24.1453 22.4786 24.2618C22.4713 24.4292 22.4567 24.6039 22.464 24.7859C22.4713 24.946 22.4931 25.1061 22.515 25.2663C22.5441 25.4628 22.5659 25.6521 22.5587 25.8341C22.5514 26.1107 22.6315 26.3727 22.697 26.5984C22.7843 26.8823 22.8571 27.1225 22.777 27.37C22.7188 27.5301 22.8134 27.7049 22.9299 27.7849C23.0755 27.8796 23.0828 27.9378 23.01 28.2581C22.9954 28.3236 22.9809 28.3891 22.9663 28.4619C22.9226 28.6948 22.9081 28.9205 22.9226 29.1316C22.9226 29.1461 22.9226 29.1607 22.9226 29.1753C23.1192 29.0588 23.323 28.9496 23.5341 28.8477C23.8107 28.7094 24.0946 28.5274 24.3712 28.3163C24.3275 28.0397 24.2766 27.7704 24.2402 27.5301C24.2111 27.3773 24.1528 27.2317 24.1019 27.0934C24.0509 26.9769 23.9854 26.8022 24 26.744C24.2038 26.0961 24.131 25.4847 24.0582 24.8878C24.0218 24.6039 23.9927 24.3273 23.9927 24.0579C23.9927 23.8104 23.9417 23.5775 23.8835 23.3518C23.8253 23.0971 23.7743 22.8569 23.7889 22.6166C23.8325 21.8887 23.7889 21.1535 23.7452 20.4474L23.7379 20.3382C23.7088 19.8141 23.6505 19.2827 23.5996 18.7732C23.5778 18.5621 23.5559 18.351 23.5341 18.1399C23.5268 18.0671 23.5195 17.987 23.505 17.9142C23.4904 17.7978 23.4758 17.6813 23.4686 17.5794C23.4613 17.4411 23.4686 17.31 23.4686 17.1645C23.4686 16.9461 23.4758 16.7204 23.454 16.4948C23.4322 16.2909 23.3521 16.109 23.2793 15.9415C23.1556 15.6649 23.0973 15.5193 23.2138 15.3301C23.323 15.1554 23.2284 14.988 23.1774 14.886C23.1628 14.8642 23.1483 14.8351 23.1483 14.8205C23.141 14.7914 23.1264 14.7623 23.1192 14.7259C23.1119 14.7041 23.0973 14.6677 23.09 14.6458C23.2939 14.0489 23.1192 13.503 22.9736 13.0225C22.9445 12.9425 22.9226 12.8551 22.9008 12.775C22.8353 12.5421 22.7479 12.3019 22.6678 12.069C22.5004 11.5812 22.3257 11.079 22.2966 10.6131C22.333 10.8606 22.4131 11.0863 22.4931 11.3046C22.5805 11.5449 22.6533 11.7705 22.6751 11.9962C22.6897 12.1709 22.828 12.2946 22.9081 12.3456C23.0536 12.4475 23.1556 12.6076 23.2647 12.775C23.3375 12.8842 23.4031 12.9934 23.4904 13.1026C23.7961 13.4666 23.7525 13.8815 23.7015 14.3183C23.6869 14.4274 23.6797 14.5439 23.6724 14.6531C23.636 15.381 23.6505 16.2473 23.9636 17.1353C23.9781 17.179 24.0218 17.3028 24.0145 17.3828C23.9927 17.6158 24.0145 17.8341 24.0364 18.0525C24.0727 18.3801 24.1019 18.6713 23.9781 18.9406C23.9344 19.0498 23.9417 19.1735 24.0072 19.3046C24.1383 19.5739 24.1019 19.8578 24.0509 20.1854C24.0291 20.3455 24.0072 20.5129 24.0072 20.6876C24.0072 20.7386 24 20.7895 24 20.8405C23.9927 20.9642 23.9854 21.1025 24.0072 21.2409C24.0364 21.4592 24.0727 21.6703 24.1091 21.8814C24.1674 22.2017 24.2183 22.5074 24.2475 22.8132C24.2838 23.199 24.2911 23.5993 24.3057 23.9851C24.313 24.2035 24.3202 24.4292 24.3275 24.6476C24.3348 24.7422 24.3639 24.815 24.3858 24.8732C24.393 24.8878 24.4003 24.9096 24.4003 24.9169C24.4222 25.077 24.4513 25.2445 24.4731 25.4046C24.5386 25.8122 24.6041 26.1908 24.6114 26.5838C24.6187 26.8022 24.5896 27.0279 24.5605 27.2681C24.5241 27.552 24.4877 27.865 24.5168 28.1853C25.0191 27.7704 25.4485 27.2608 25.6305 26.7367C25.7834 26.2999 25.929 25.8632 26.0818 25.4192C26.0891 25.1935 26.1109 24.9678 26.1619 24.7422C26.1837 24.6403 26.1619 24.5384 26.1401 24.4729Z" fill="#202832"/>
<path d="M9.39035 30.3547C9.41219 30.3183 9.43402 30.2746 9.45586 30.2237C9.4777 30.1581 9.49954 30.0999 9.52137 30.0344C9.58689 29.8524 9.64512 29.6632 9.66696 29.4593C9.71791 28.9643 9.75431 28.4694 9.79071 27.9816C9.80527 27.7633 9.81982 27.5449 9.84166 27.3265C9.84166 27.3119 9.84894 27.2974 9.85622 27.2756C9.8635 27.2392 9.87806 27.1955 9.87806 27.1445C9.87806 27.0499 9.87806 26.9625 9.87806 26.8679C9.87806 26.584 9.88534 26.2856 9.8635 25.9944C9.84894 25.8197 9.81982 25.645 9.79071 25.4776C9.76887 25.3684 9.74703 25.2519 9.73247 25.1354C9.71063 24.9389 9.6888 24.7496 9.66696 24.5531C9.52137 23.2356 9.36851 21.8743 8.56779 20.6805C8.50227 20.5859 8.47316 20.4694 8.43676 20.3384C8.41492 20.2583 8.39308 20.1783 8.36397 20.1055C8.32757 20.0181 8.29846 19.9308 8.26206 19.8434C8.13103 19.494 7.99272 19.13 7.83986 18.7806C7.76707 18.6132 7.73067 18.504 7.77435 18.4021L8.34941 19.2028L8.74977 18.9772L8.70609 18.8607C8.68426 18.7952 8.66242 18.7297 8.64058 18.6569C8.58962 18.4967 8.54595 18.3293 8.4586 18.1837C8.37125 18.0381 8.27662 17.8926 8.18199 17.7543C7.94177 17.4049 7.70883 17.0773 7.69427 16.6478C7.69427 16.5532 7.63604 16.4804 7.59237 16.4221C7.57781 16.4003 7.56325 16.3785 7.54869 16.3639C7.49045 16.262 7.43222 16.1674 7.37399 16.0727C7.24296 15.8616 7.12649 15.6578 7.04642 15.4394C6.53687 13.9763 5.92541 12.9791 5.07374 12.2002C4.92815 12.0691 4.8044 11.9163 4.67337 11.7561C4.46955 11.5014 4.25846 11.2393 3.94545 11.0573C3.87993 11.0209 3.82898 10.9409 3.76347 10.8608C3.74163 10.8317 3.71979 10.7953 3.69067 10.7662C3.61788 10.6788 3.55965 10.5769 3.50141 10.4677C3.33399 10.1838 3.14473 9.86352 2.70797 9.79073C2.70797 9.78345 2.70069 9.78345 2.70069 9.77617C2.69341 9.76889 2.68613 9.75433 2.68613 9.74705C1.84173 8.56053 0.99734 7.38129 0.152944 6.19477C0.138385 6.17293 0.123826 6.15109 0.109267 6.12925C0.0728712 6.0783 0.0437536 6.02006 -0.00720119 5.97639C-0.0654354 5.91087 -0.12367 5.84536 -0.181904 5.78713C-0.400282 5.54691 -0.625939 5.30669 -0.866155 5.07376L-0.91711 5.0228C-1.13549 4.8117 -1.35387 4.6006 -1.6232 4.45502L-1.69599 4.41862C-2.12547 4.20024 -2.52583 3.98914 -2.73693 3.55239C-2.79516 3.4432 -2.92619 3.37041 -3.0281 3.33401C-3.52309 3.18842 -3.79242 2.80262 -3.98896 2.43866C-4.06904 2.28579 -4.20734 2.16933 -4.32381 2.06742L-4.36021 2.0383C-4.41116 1.99462 -4.45484 1.95095 -4.50579 1.91455C-4.8188 2.08197 -5.13181 2.24212 -5.44482 2.40954C-5.35747 2.49689 -5.2774 2.58424 -5.2046 2.67887C-4.66594 3.34129 -3.98169 4.08378 -3.02082 4.56421C-2.52583 4.8117 -2.0454 5.13199 -1.60864 5.48868C-1.28835 5.75801 -0.989902 6.08558 -0.70601 6.39859C-0.596821 6.52233 -0.480353 6.65336 -0.356606 6.77711C-0.283813 6.85718 -0.247416 6.92269 -0.247416 6.98093C-0.247416 7.01005 -0.261974 7.03916 -0.276533 7.06828C-0.305651 7.04644 -0.327488 7.01732 -0.349326 6.99549C-0.837037 6.34763 -1.47033 5.80168 -2.41664 5.2339C-2.57678 5.13927 -2.74421 5.05192 -2.91163 4.97185C-3.21736 4.81898 -3.50853 4.6734 -3.74147 4.4623C-3.98897 4.23664 -4.27286 4.06194 -4.54947 3.89451C-5.05902 3.58151 -5.54673 3.29033 -5.77967 2.70799C-5.79423 2.6716 -5.81606 2.64248 -5.8379 2.61336C-6.23826 2.82446 -6.63134 3.03556 -7.02442 3.24666C-6.79877 3.4432 -6.56583 3.61062 -6.34017 3.76349C-6.24554 3.829 -6.16547 3.91635 -6.0854 4.0037C-6.04172 4.05466 -5.99077 4.10561 -5.93981 4.15657C-5.89614 4.20024 -5.85974 4.24392 -5.81606 4.2876C-5.70687 4.40406 -5.59768 4.52781 -5.4521 4.60788C-5.13909 4.78259 -4.81152 4.95729 -4.49851 5.11743C-4.0836 5.33581 -3.65412 5.56147 -3.24648 5.80168C-3.10817 5.88176 -2.9917 6.0055 -2.86796 6.13653C-2.75149 6.253 -2.63502 6.37675 -2.49671 6.47138C-2.03084 6.79895 -1.54313 7.10468 -1.06997 7.4104C-0.931667 7.49776 -0.786083 7.59239 -0.647777 7.67974C-0.625939 7.6943 -0.611382 7.70886 -0.589543 7.72341C-0.480354 7.79621 -0.356606 7.88356 -0.2183 7.869C0.203898 7.82532 0.414998 8.05098 0.640656 8.45862C0.691611 8.55325 0.742564 8.65516 0.793519 8.74979C0.968222 9.08464 1.14293 9.42676 1.3977 9.70338C1.52873 9.84168 1.65247 9.97999 1.7835 10.1183C2.5915 10.9918 3.4359 11.8944 4.36765 12.6588C4.85536 13.0591 5.13197 13.5614 5.42314 14.1001C5.6124 14.4495 5.81622 14.8134 6.071 15.1337C6.07827 15.1483 6.08555 15.192 6.08555 15.2283C6.09283 15.272 6.09283 15.3303 6.11467 15.3812C6.23114 15.7525 6.35489 16.1237 6.45679 16.4367C6.47863 16.4949 6.50047 16.5532 6.52231 16.6041C6.55143 16.6842 6.58054 16.757 6.60238 16.8298C6.65334 17.0118 6.69702 17.201 6.73341 17.3757C6.77709 17.565 6.82804 17.7615 6.879 17.9581L6.92995 18.1546C7.06098 18.6569 7.19929 19.1737 7.35215 19.676C7.44678 19.989 7.55597 20.3093 7.65788 20.615C7.73795 20.8407 7.81074 21.0736 7.89081 21.2993C7.95633 21.4958 8.02184 21.6996 8.08735 21.9034C7.96361 21.5613 7.81802 21.2265 7.67972 20.9062C7.59965 20.7169 7.51229 20.5204 7.43222 20.3311C7.38854 20.2292 7.33759 20.12 7.29391 20.0254C7.22112 19.8798 7.15561 19.7342 7.10465 19.5886C6.95907 19.1446 6.82076 18.6933 6.68246 18.2565C6.44952 17.5213 6.21658 16.7643 5.94725 16.0218L5.91085 15.9272C5.52505 14.8498 5.13197 13.7434 4.10559 13.0082C3.98184 12.9208 3.88721 12.7534 3.79986 12.6005L3.7853 12.5787C3.55237 12.1711 3.20296 11.6688 2.58422 11.3703C2.45319 11.3048 2.33673 11.1665 2.22026 11.0282L2.19842 10.9991C2.06739 10.8389 1.93637 10.657 1.8199 10.4895C1.56512 10.1329 1.29579 9.75433 0.946384 9.49228C0.647934 9.26662 0.364043 8.99729 0.0947104 8.73523C-0.356605 8.30576 -0.822479 7.86172 -1.4121 7.56327C-1.43394 7.54871 -1.46306 7.53415 -1.49217 7.52687C-1.6232 7.46136 -1.76151 7.39585 -1.82702 7.30122C-2.2201 6.74071 -2.78788 6.43498 -3.33383 6.14381C-3.43574 6.08558 -3.53765 6.03462 -3.63956 5.97639L-3.95985 5.75801C-4.93527 5.20478 -5.94709 4.637 -6.8934 4.01098C-7.11905 3.8654 -7.33743 3.69797 -7.54853 3.53055C-7.91977 3.72709 -8.29102 3.92363 -8.66226 4.12017C-8.62586 4.15657 -8.58219 4.18569 -8.54579 4.22208C-7.89066 4.82626 -7.13361 5.25574 -6.17275 5.56875C-4.37477 6.15109 -2.91163 7.38857 -1.49945 8.58965L-1.42666 8.64788C-0.807921 9.17199 -0.196463 9.71794 0.393159 10.242C0.611537 10.4313 0.822638 10.6278 1.04102 10.8171C1.07741 10.8535 1.11381 10.8972 1.15021 10.9409C1.17204 10.97 1.20116 10.9991 1.223 11.0282C1.29579 11.1156 1.37586 11.1956 1.44865 11.283C1.5724 11.4213 1.69615 11.5596 1.81262 11.6979C1.97276 11.8799 2.13291 12.0619 2.29305 12.2438C2.67885 12.6806 3.07921 13.1319 3.44318 13.5978C3.65428 13.8671 3.85082 14.1656 4.04008 14.4567C4.25846 14.7843 4.47683 15.1264 4.73161 15.4394C4.95727 15.7161 5.19748 16.0582 5.27028 16.5095C5.3649 17.0627 5.53233 17.6014 5.69975 18.1182C5.8599 18.6278 6.02732 19.1592 6.12195 19.6978C6.2093 20.2147 6.40584 20.7096 6.60238 21.1901C6.73341 21.5104 6.86444 21.8379 6.95907 22.1728C7.30847 23.3593 7.54869 24.342 7.71611 25.2519C7.78891 25.6304 7.78163 26.0235 7.78163 26.4312C7.78163 26.635 7.78163 26.8461 7.78891 27.0572C7.78891 27.1372 7.81074 27.2173 7.83258 27.2828C7.84714 27.3411 7.8617 27.392 7.86898 27.4357C7.89809 27.8142 7.91993 28.2073 7.91993 28.5858C7.91265 28.6004 7.89809 28.6222 7.87626 28.6513C7.86897 28.6295 7.86898 28.6149 7.8617 28.6004C7.83986 28.2946 7.8253 27.9816 7.81074 27.6686C7.79618 27.3775 7.78163 27.079 7.75979 26.7878C7.75251 26.6641 7.74523 26.5403 7.73795 26.4093C7.72339 26.0454 7.70155 25.6741 7.63604 25.3101C7.5778 24.9971 7.48318 24.6914 7.39582 24.4002C7.33031 24.1819 7.25752 23.9562 7.20656 23.7378C6.90084 22.4494 6.4568 21.161 5.86718 19.807C5.77983 19.6032 5.69975 19.3848 5.61968 19.1737C5.58328 19.0791 5.54689 18.9772 5.51049 18.8825L5.38674 18.5623C5.27755 18.2856 5.16837 18.0018 5.06646 17.7251C5.0519 17.6815 5.03734 17.6378 5.0155 17.6014C4.94999 17.4267 4.88447 17.2665 4.85536 17.0991L4.84808 17.07C4.75345 16.5896 4.65882 16.0946 4.18566 15.7597C4.14199 15.7306 4.09831 15.6578 4.07647 15.5923C3.88721 14.8789 3.42134 14.3403 2.9773 13.8162L2.86811 13.6851C2.5551 13.3212 2.23482 12.9135 1.84174 12.4113C1.69615 12.222 1.55056 12.0255 1.41226 11.8289C1.28851 11.6542 1.15748 11.4795 1.02646 11.3048C0.88815 11.1228 0.735287 10.9481 0.560584 10.7734C0.444116 10.657 0.327646 10.5332 0.218456 10.4095C-0.0799932 10.0965 -0.385724 9.76889 -0.735129 9.50684C-1.92165 8.61876 -3.13729 7.78165 -4.27286 7.01004C-4.48395 6.86446 -4.71689 6.76255 -4.94255 6.66064C-5.10269 6.58785 -5.27012 6.51505 -5.42298 6.4277C-5.58313 6.34035 -5.73599 6.23844 -5.88886 6.14381C-6.38385 5.83808 -6.8934 5.52507 -7.49758 5.38677C-7.67956 5.05192 -7.99257 4.91361 -8.27646 4.78986C-8.42204 4.72435 -8.56763 4.66612 -8.6841 4.57877C-8.83696 4.46958 -8.99711 4.3895 -9.15725 4.33127C-9.50666 4.52053 -9.84878 4.70251 -10.1982 4.89177C-10.0672 5.0592 -9.94341 5.21934 -9.79055 5.35037C-9.50666 5.59059 -9.19365 5.79441 -8.88792 5.93271C-8.49484 6.11469 -8.0872 6.253 -7.68684 6.39131L-7.48302 6.4641C-7.38839 6.49322 -7.29376 6.51505 -7.20641 6.52961C-7.09722 6.55145 -7.00259 6.56601 -6.92251 6.60968C-6.48576 6.82806 -6.09268 7.03188 -5.73599 7.28666C-5.55401 7.41041 -5.37931 7.54143 -5.19732 7.66518C-4.49123 8.15289 -3.77059 8.66244 -3.13001 9.2375C-2.51127 9.79073 -1.92893 10.4095 -1.36842 11.0064C-1.06997 11.3267 -0.756967 11.6542 -0.443958 11.9745C-0.342048 12.0764 -0.218299 12.1347 -0.0945511 12.2002C-0.0435963 12.222 0.00735855 12.2511 0.051034 12.273L0.167503 12.3385L0.407719 11.9818L0.313088 11.8944C0.225738 11.8144 0.145665 11.7343 0.0583143 11.6615C-0.130947 11.4868 -0.334767 11.2975 -0.524028 11.1156L-0.611381 11.0282C-0.800642 10.8462 -1.00446 10.6497 -1.16461 10.4459C-1.19372 10.4022 -1.21556 10.3294 -1.23012 10.2566C-1.14277 10.3148 -1.0627 10.3731 -0.989903 10.4386C-0.764246 10.657 -0.538588 10.8826 -0.32021 11.1083C-0.0508757 11.3849 0.233016 11.6688 0.516908 11.9381C0.655213 12.0691 0.720728 12.1565 0.713449 12.1929C0.713449 12.1929 0.698889 12.2584 0.465952 12.353L0.276692 12.4258L0.647934 12.8553C0.793519 13.03 0.924546 13.1829 1.05557 13.3285C2.08923 14.515 3.07193 15.6942 3.6106 17.1646C3.66883 17.3248 3.77802 17.4485 3.88721 17.5723C3.96 17.6523 4.02552 17.7324 4.07647 17.8125C4.23662 18.0964 4.35308 18.3512 4.43316 18.5914C4.53507 18.9044 4.62242 19.232 4.71705 19.545C4.8408 19.9744 4.96455 20.4112 5.11013 20.8407C5.11741 20.8625 5.12469 20.8843 5.13197 20.9062C5.11013 20.8698 5.09557 20.8334 5.07374 20.8043C5.04462 20.7533 5.02278 20.7096 5.00094 20.6587C4.9791 20.6223 4.96454 20.5786 4.94271 20.5422C4.89175 20.4403 4.8408 20.3384 4.8044 20.2438C4.74617 20.0836 4.68793 19.9162 4.6297 19.7488C4.52051 19.4139 4.40404 19.0718 4.22934 18.7515C3.74163 17.8271 3.29031 16.9972 2.73709 16.2111C2.13291 15.3594 1.48505 14.5223 0.851755 13.7215C0.604259 13.4085 0.356763 13.0955 0.109267 12.7752C0.0583124 12.7097 -0.00720024 12.666 -0.0654345 12.6224C-0.0799932 12.6078 -0.101831 12.6005 -0.11639 12.586C-0.261976 12.4768 -0.400282 12.3749 -0.545867 12.2657C-0.873435 12.0255 -1.21556 11.7707 -1.52857 11.5086C-1.64504 11.4067 -1.74695 11.283 -1.84886 11.1447C-1.92893 11.0428 -2.009 10.9336 -2.10363 10.8389C-2.24922 10.6861 -2.40208 10.5478 -2.55495 10.4095C-2.68598 10.293 -2.817 10.1693 -2.94803 10.0382C-3.07178 9.91448 -3.18824 9.78345 -3.30471 9.6597C-3.47942 9.47044 -3.65412 9.2739 -3.85066 9.0992C-4.14911 8.82986 -4.4694 8.57509 -4.78241 8.32759C-4.92071 8.2184 -5.05174 8.10922 -5.19004 8.00003C-5.21916 7.97819 -5.24828 7.94907 -5.2774 7.91995C-5.34291 7.85444 -5.42298 7.78165 -5.51761 7.73797C-6.03444 7.50504 -6.58039 7.25754 -7.14817 7.03188C-7.33743 6.95909 -7.54125 6.91541 -7.73051 6.87174C-8.07992 6.79895 -8.40749 6.72615 -8.66226 6.47866C-8.71322 6.4277 -8.77873 6.41314 -8.81513 6.40586C-8.82241 6.40586 -8.83696 6.39859 -8.84424 6.39859C-8.92431 6.34035 -9.00439 6.27484 -9.08446 6.20932C-9.16453 6.14381 -9.25188 6.0783 -9.33923 6.01278C-9.37563 5.98367 -9.41203 5.95455 -9.4557 5.91815C-9.57217 5.82352 -9.71048 5.70705 -9.87062 5.67794C-9.92886 5.66338 -10.1036 5.62698 -10.1472 5.56147C-10.1618 5.53963 -10.1618 5.49595 -10.1545 5.445L-10.1254 5.30669L-10.2637 5.2703C-10.3583 5.24846 -10.4457 5.2339 -10.5403 5.21934C-10.6349 5.20478 -10.7223 5.19023 -10.7951 5.16839C-11.2391 5.4086 -11.6832 5.64882 -12.1272 5.88904C-11.7996 5.99095 -11.4648 6.10013 -11.1372 6.20932C-11.0135 6.253 -10.897 6.34035 -10.7805 6.4277C-10.7077 6.47866 -10.6349 6.53689 -10.5622 6.58057C-10.5185 6.60241 -10.4821 6.63152 -10.4384 6.65336C-10.271 6.75527 -10.1036 6.86446 -9.9143 6.95181C-9.72503 7.03188 -9.52121 7.09012 -9.33195 7.14107C-8.8952 7.25754 -8.48756 7.36673 -8.24006 7.78165C-8.18911 7.869 -8.09448 7.87628 -8.02896 7.88356C-8.0144 7.88356 -7.98529 7.89084 -7.97801 7.89084C-7.81787 7.96363 -7.65772 8.03642 -7.49758 8.10922C-7.03898 8.32031 -6.56583 8.53141 -6.12179 8.77163C-6.0126 8.82986 -5.91797 8.93177 -5.82334 9.04824C-5.72871 9.15743 -5.6268 9.26662 -5.51033 9.34669C-5.33563 9.46316 -5.13909 9.56507 -4.94983 9.66698C-4.65138 9.82712 -4.36749 9.97271 -4.15639 10.1838C-3.91617 10.424 -3.63228 10.6278 -3.36295 10.8244C-2.8534 11.1883 -2.38024 11.5378 -2.12547 12.1201C-2.05268 12.2875 -1.89981 12.404 -1.75423 12.5205C-1.68871 12.5714 -1.6232 12.6224 -1.57225 12.6733C-1.2374 12.9936 -0.909831 13.3212 -0.574984 13.6487L-0.240137 13.9763C-0.218299 13.9909 -0.203742 14.0127 -0.189183 14.0345C-0.167345 14.0564 -0.145506 14.0782 -0.123668 14.1001C-0.0144787 14.202 0.101988 14.3039 0.211177 14.3985C0.451393 14.6023 0.677052 14.7916 0.822638 15.0318C1.83446 16.7497 2.839 18.5186 3.79986 20.2292L4.31669 21.1464C4.37493 21.2483 4.39676 21.3721 4.42588 21.5031C4.43316 21.5395 4.44044 21.5686 4.44772 21.605C4.52051 21.9253 4.5933 22.2456 4.6661 22.5659C4.78984 23.1191 4.92815 23.6941 5.06646 24.2619C5.12469 24.4876 5.1902 24.7132 5.263 24.9243C5.35763 25.2228 5.45954 25.5358 5.51049 25.8415C5.56145 26.14 5.59784 26.4457 5.62696 26.7442C5.68519 27.3265 5.74343 27.938 5.97637 28.513C6.00548 28.5931 6.00548 28.695 6.00548 28.8042C6.00548 28.8624 6.00548 28.9207 6.00548 28.9789L6.02004 29.2264C6.0346 29.4739 6.04916 29.7214 6.05643 29.9689C6.06371 30.0635 6.071 30.1509 6.07828 30.2455C6.10011 30.4493 6.11467 30.6386 6.07828 30.8133C6.00548 31.1408 5.94725 31.4757 5.88901 31.796C5.83078 32.1308 5.77254 32.4657 5.69247 32.8005C6.07099 32.6185 6.42768 32.4293 6.73341 32.2255C6.76981 31.9852 6.79892 31.7523 6.82076 31.5048L6.82804 31.4029C6.89355 30.5731 6.95907 29.7214 6.879 28.8697C6.85716 28.6222 6.78437 28.382 6.71885 28.1491C6.69701 28.0617 6.6679 27.9816 6.64606 27.8943C6.6315 27.8361 6.60966 27.7851 6.58783 27.7414C6.56599 27.6905 6.54415 27.6468 6.54415 27.6104C6.51503 26.6059 6.39128 25.7833 6.16562 25.0335C5.91085 24.1819 5.70703 23.3011 5.50321 22.4494C5.40858 22.0417 5.30667 21.6196 5.20476 21.2119C5.39402 21.736 5.60512 22.2456 5.80894 22.7551C5.87446 22.908 5.93269 23.0608 5.99092 23.2137C6.04916 23.3593 6.12195 23.5049 6.19474 23.6505C6.32577 23.9052 6.44952 24.1382 6.47864 24.3857C6.51503 24.6405 6.56599 24.8952 6.61694 25.1427C6.76253 25.8561 6.89355 26.5331 6.70429 27.2319C6.68246 27.3192 6.71157 27.3993 6.73341 27.4648C6.74069 27.4794 6.74797 27.5012 6.74797 27.5158L6.88627 28.0617C7.01002 28.5494 7.14105 29.059 7.27208 29.554C7.27935 29.5685 7.27208 29.6122 7.2648 29.6486C7.25752 29.6704 7.25752 29.6923 7.25752 29.7141C7.2284 29.9325 7.20656 30.1581 7.18472 30.3765C7.13377 30.8642 7.07553 31.3665 6.9809 31.8542C6.96635 31.9416 6.95179 32.0216 6.93723 32.109C7.28664 31.8615 7.62148 31.6358 7.93449 31.4175C7.93449 31.3738 7.93449 31.3301 7.92721 31.2792C7.91993 31.1627 7.91993 31.0535 7.94177 30.9661C8.11647 30.3547 8.29845 29.7359 8.47316 29.139C8.58962 28.7387 8.71337 28.3456 8.82256 27.9452C8.85896 27.8142 8.85168 27.6759 8.83712 27.5594C8.81528 27.3338 8.79345 27.1081 8.77161 26.8752C8.69882 26.1473 8.62602 25.3902 8.53139 24.6477C8.51683 24.5313 8.50227 24.4148 8.48771 24.291C8.40764 23.6286 8.32757 22.9444 8.15287 22.2965C8.14559 22.282 8.14559 22.2601 8.13831 22.2456C8.32757 22.8352 8.52411 23.4685 8.74249 24.1746C8.74249 24.1819 8.74249 24.211 8.73521 24.2255C8.72793 24.2619 8.72065 24.3129 8.72793 24.3638C8.74249 24.5021 8.74977 24.655 8.75705 24.8006C8.77889 25.1646 8.80072 25.5358 8.92447 25.8779C9.04822 26.2128 9.07734 26.5258 9.02638 26.897C8.95359 27.3993 8.86624 27.938 8.76433 28.564C8.6333 29.3429 8.48043 30.2309 8.31301 31.1408C8.6333 30.9225 8.93903 30.7186 9.24476 30.5294C9.25204 30.4712 9.25204 30.4129 9.25932 30.3474C9.35395 30.4056 9.37579 30.3765 9.39035 30.3547ZM6.79892 32.0872C6.8062 32.0872 6.8062 32.0872 6.79892 32.0872V32.0872Z" fill="#202832"/>
<path d="M15.9537 27.5667C15.961 27.21 15.9682 26.846 15.9391 26.4821C15.8882 25.8706 15.779 25.2592 15.6843 24.7132C15.6479 24.5094 15.6188 24.3129 15.5824 24.109C15.4441 23.2865 15.2985 22.4421 15.102 21.6122C15.0438 21.3502 14.9273 21.1027 14.8108 20.8625C14.6798 20.5713 14.5488 20.302 14.5269 20.0326C14.4833 19.4649 14.2649 18.999 14.0538 18.5477C13.9883 18.4094 13.9228 18.2711 13.8645 18.1327C13.7917 17.958 13.7335 17.7542 13.6898 17.5286C13.668 17.4048 13.6534 17.2738 13.6461 17.1428C13.6243 16.9171 13.6025 16.6769 13.5297 16.4512C13.2312 15.585 12.9109 14.7115 12.5979 13.8598C12.4451 13.4522 12.2995 13.0445 12.1466 12.6369C12.1175 12.5641 12.1029 12.484 12.0811 12.404C12.0665 12.3312 12.0447 12.2584 12.0229 12.1856C11.8773 11.7051 11.7244 11.232 11.5716 10.7516C11.3896 10.1765 11.2149 9.60872 11.0329 9.03365L11.0256 9.01181C11.0183 8.98998 11.0038 8.95358 11.0038 8.92446C11.1857 8.5605 11.0547 8.24749 10.9528 7.98544C10.9383 7.94904 10.9237 7.90536 10.9091 7.86897C10.7635 7.47589 10.6325 7.06825 10.5161 6.68972C10.4505 6.47863 10.385 6.26753 10.3195 6.05643C9.93371 4.79711 9.54063 3.5014 8.81998 2.33672C8.80542 2.3076 8.79087 2.28576 8.79087 2.2712C8.79815 2.20569 8.80542 2.14018 8.8127 2.08194C8.17213 1.68886 7.50971 1.34674 6.82546 1.06284C6.89826 1.20843 7.00017 1.34674 7.13119 1.47776C7.14575 1.49232 7.16031 1.55783 7.16759 1.60151C7.18215 1.65247 7.18943 1.70342 7.21126 1.76165C7.24766 1.85628 7.27678 1.95819 7.31317 2.06738C7.39325 2.31488 7.47332 2.56237 7.60435 2.79531C7.70626 2.97729 7.81544 3.15928 7.91735 3.34126C8.49242 4.31668 9.03108 5.24115 9.1985 6.39127C9.29314 7.03185 9.56247 7.64331 9.82453 8.23293C9.95555 8.53138 10.0939 8.84439 10.203 9.15012C10.2831 9.38306 10.3414 9.61599 10.3996 9.87077C10.3559 9.81254 10.3195 9.76158 10.2904 9.70335C10.2322 9.5796 10.1739 9.45585 10.123 9.32482C9.89004 8.80799 9.64254 8.27661 9.5188 7.73794C9.34409 6.98817 8.99469 6.32576 8.65984 5.68518C8.45602 5.2921 8.23764 4.89174 8.07022 4.47682C7.82272 3.85081 7.48788 3.25391 7.17487 2.67884C7.00744 2.37311 6.83274 2.0601 6.67988 1.75437C6.51245 1.41953 6.35959 1.12108 6.22856 0.837186C5.66078 0.626087 5.07844 0.458664 4.49609 0.327637C4.50337 0.334916 4.50337 0.342195 4.51065 0.349475C4.91101 1.0774 5.28225 1.73254 5.63894 2.35128C5.69717 2.45319 5.75541 2.56237 5.81364 2.66428C6.0393 3.06464 6.27224 3.47228 6.54885 3.85081C7.05112 4.52778 7.29133 5.11012 7.34229 5.74342C7.35685 5.96908 7.47332 6.18018 7.56067 6.3476C7.66258 6.53686 7.76449 6.71884 7.87368 6.89354C8.04838 7.18472 8.22308 7.49045 8.36139 7.80345C8.44146 7.98544 8.51426 8.1747 8.58705 8.35668C8.81998 8.95358 9.0602 9.5796 9.58431 10.06C9.59158 10.0673 9.59887 10.0964 9.60615 10.111C9.62071 10.1401 9.62798 10.1692 9.64982 10.1983C9.72989 10.3366 9.80268 10.4749 9.87548 10.6205C10.0502 10.9554 10.2322 11.3048 10.4869 11.596C10.7126 11.858 10.8218 12.171 10.931 12.4986C10.9965 12.6951 11.062 12.8917 11.1566 13.0882C11.3095 13.4012 11.4041 13.7433 11.4988 14.1073C11.557 14.3402 11.6225 14.5732 11.7026 14.8061C11.8118 15.1046 11.9355 15.4103 12.052 15.6942C12.2776 16.2401 12.4887 16.7497 12.5979 17.2884C12.809 18.3293 13.1293 19.2974 13.5952 20.2292C13.7189 20.4767 13.7699 20.7751 13.8208 21.0663C13.8281 21.11 13.8354 21.1609 13.8427 21.2046C13.8864 21.4303 13.9155 21.6705 13.9519 21.9034C14.0028 22.3111 14.0611 22.726 14.1775 23.1263C14.5852 24.5312 14.7526 25.7032 14.6944 26.8096C14.6871 26.9116 14.7089 27.0062 14.7235 27.0863C14.7308 27.1372 14.738 27.1809 14.7453 27.2173C14.7526 27.2755 14.7526 27.341 14.7599 27.3993C14.7817 27.6322 14.7963 27.8651 14.8035 28.0981C14.8035 28.2218 14.8108 28.3601 14.8108 28.4984C15.2767 28.4329 15.6479 28.4693 15.9464 28.6731C15.9464 28.4256 15.9537 28.1709 15.9537 27.9234C15.9464 27.8069 15.9537 27.6832 15.9537 27.5667Z" fill="#202832"/>
<path d="M17.4696 30.7042C17.4915 30.4713 17.5133 30.2238 17.5133 29.9836C17.5206 29.7288 17.506 29.4813 17.4987 29.2338C17.4915 29.0591 17.4842 28.8844 17.4842 28.7097C17.4842 28.5932 17.4915 28.484 17.4987 28.3603C17.506 28.2293 17.5133 28.091 17.5133 27.9526C17.5133 27.7852 17.4987 27.6251 17.4842 27.4649C17.4696 27.2975 17.4623 27.1301 17.4623 26.9699C17.4623 26.9117 17.4696 26.8389 17.4842 26.7661C17.506 26.6569 17.5206 26.5259 17.506 26.3949C17.4696 26.1474 17.4187 25.8999 17.375 25.6597C17.3386 25.4704 17.2949 25.2666 17.2658 25.0773C17.2294 24.8517 17.2003 24.626 17.1712 24.4004C17.1275 24.0291 17.0765 23.6506 16.9965 23.2794C16.9091 22.8863 16.7926 22.5005 16.6689 22.1292C16.6107 21.9472 16.5524 21.758 16.4942 21.5687C16.4141 21.2921 16.3341 21.0228 16.2613 20.7462C16.1812 20.4623 16.1011 20.1784 16.021 19.8945C15.9774 19.7489 15.9264 19.596 15.8682 19.4577C15.759 19.1738 15.6644 18.9045 15.6571 18.6497C15.6425 17.9072 15.4023 17.2521 15.1548 16.6552L15.133 16.597C14.9073 16.0729 14.6962 15.5779 14.6671 15.0028C14.6453 14.6607 14.507 14.3477 14.3686 14.042C14.3104 13.9182 14.2595 13.8017 14.2158 13.6925C14.1939 13.627 14.1503 13.5761 14.1139 13.5324C14.1139 13.5324 14.1139 13.5251 14.1066 13.5251C14.1867 13.0301 13.9901 12.6152 13.8227 12.244C13.7717 12.1275 13.7208 12.0183 13.6771 11.9091C13.4951 11.436 13.2986 10.9701 13.1093 10.5115C12.9929 10.2349 12.8764 9.95828 12.7672 9.67439L12.7599 9.65983C12.6799 9.46329 12.6071 9.2813 12.5634 9.09204C12.4688 8.69168 12.3741 8.28404 12.2795 7.89096C12.1776 7.45421 12.0757 7.01017 11.9665 6.56613C11.8719 6.17305 11.7554 5.76541 11.6025 5.2777C11.5443 5.08844 11.4715 4.89918 11.406 4.7172C11.3477 4.57161 11.2895 4.41147 11.2386 4.26588C11.1876 4.11302 11.1366 3.96743 11.093 3.81457C10.547 3.29774 9.96469 2.83187 9.34595 2.40967C9.46969 2.76635 9.62256 3.10848 9.76814 3.43605C9.86277 3.65442 9.92101 3.89464 9.97925 4.14942C10.0084 4.26588 10.0375 4.38963 10.0666 4.51338C10.1103 4.6808 10.1539 4.84823 10.1976 5.01565C10.2995 5.40873 10.4087 5.81637 10.5325 6.21673C10.5834 6.37687 10.6562 6.52974 10.7217 6.6826C10.8164 6.8937 10.911 7.09024 10.9328 7.28678C10.9983 7.84001 11.173 8.36412 11.4861 8.94646C11.668 9.2813 11.7845 9.68166 11.8209 10.0747C11.8719 10.6134 11.9519 11.2322 12.2941 11.8145C12.3668 11.9455 12.4032 12.1129 12.4396 12.2949C12.4542 12.375 12.476 12.4623 12.4979 12.5424C12.5415 12.7098 12.5852 12.8773 12.6289 13.0447C12.709 13.3723 12.7963 13.7071 12.891 14.042L12.9565 14.2676C13.1894 15.0319 13.4296 15.8254 13.7135 16.5824C13.7426 16.6625 13.779 16.7426 13.8081 16.8226C13.9319 17.1211 14.0484 17.3977 14.012 17.7034C13.9974 17.8272 14.0775 17.9145 14.1139 17.9582C14.1212 17.9655 14.1284 17.9728 14.1284 17.98C14.4997 18.5915 14.7836 19.1083 14.7399 19.7489C14.7253 19.96 14.7763 20.2002 14.8709 20.3968C15.2931 21.2703 15.4678 22.2384 15.6352 23.1774C15.708 23.5924 15.7881 24.0218 15.89 24.4368L15.9191 24.5751C15.9774 24.808 16.0356 25.0482 16.0647 25.2884C16.0866 25.4631 16.1011 25.6306 16.123 25.8125C16.1375 25.9727 16.1521 26.1401 16.1739 26.3075C16.2249 26.7079 16.2904 27.1083 16.3486 27.5013C16.3777 27.7052 16.4068 27.9017 16.436 28.1055C16.4942 28.484 16.4651 28.8626 16.4214 29.2556C16.4796 29.3648 16.5306 29.4959 16.5815 29.6342C16.8218 30.2893 17.1057 30.9372 17.4187 31.6068C17.4187 31.3302 17.4478 31.0245 17.4696 30.7042Z" fill="#202832"/>
<path d="M14.391 27.7265C14.4128 27.4281 14.4347 27.1151 14.4055 26.8021C14.3983 26.7147 14.4274 26.6128 14.4565 26.5036C14.4929 26.3726 14.5293 26.2343 14.5147 26.0887C14.471 25.7539 14.4128 25.419 14.3473 25.0987C14.2672 24.6765 14.1872 24.2398 14.1508 23.803C14.0634 22.8276 13.6922 21.9468 13.3355 21.0951L13.2845 20.9714C13.27 20.9277 13.2481 20.8913 13.2263 20.8549C13.1972 20.804 13.1753 20.7603 13.1681 20.7239C13.1025 20.4327 13.037 20.1415 12.9715 19.8577C12.855 19.3408 12.7386 18.8022 12.6003 18.278C12.4474 17.6957 12.2509 17.1206 12.0543 16.5965C11.734 15.7303 11.4065 14.8568 11.0789 14.0051C10.9624 13.6921 10.8387 13.3791 10.7222 13.0661C10.7077 13.0224 10.6858 12.986 10.6713 12.9569C10.664 12.9423 10.6567 12.9205 10.6421 12.9059C10.5475 12.6948 10.4529 12.4837 10.3583 12.2799C10.1326 11.7777 9.89966 11.2535 9.65945 10.744L9.60849 10.6421C9.49203 10.3946 9.37556 10.1325 9.19357 9.92144C8.48021 9.08432 8.03617 8.06522 7.61397 7.08252C7.33008 6.4201 7.03163 5.73585 6.65311 5.10255C6.57303 4.97153 6.52208 4.81866 6.47112 4.65124C6.36921 4.34551 6.25275 3.9961 5.9179 3.77045C5.91062 3.75589 5.89606 3.71221 5.88878 3.6831C5.87422 3.62486 5.85967 3.56663 5.82327 3.50839C5.76504 3.3992 5.69224 3.29001 5.62673 3.18811C5.57577 3.10075 5.51754 3.0134 5.46658 2.92605C5.37195 2.75863 5.29188 2.61304 5.22637 2.46746C5.13174 2.25636 5.03711 2.03798 4.94975 1.8196C4.75321 1.35373 4.55667 0.873295 4.3019 0.421979C4.27278 0.363745 4.23639 0.31279 4.19999 0.261835C3.69044 0.159925 3.17361 0.0871327 2.66406 0.043457C2.67134 0.0580156 2.67862 0.0652949 2.6859 0.0798534C2.92612 0.451097 3.18089 0.829619 3.40655 1.21542C3.58125 1.51387 3.7414 1.83416 3.90154 2.14717C4.06896 2.47474 4.23639 2.80958 4.42565 3.12987C4.49116 3.23906 4.55667 3.33369 4.62947 3.42832C4.80417 3.66854 4.96431 3.87236 4.92792 4.17081C4.91336 4.28728 4.98615 4.38919 5.04439 4.46926C5.05895 4.4911 5.0735 4.50565 5.08078 4.52749C5.21909 4.74587 5.35739 4.97153 5.4957 5.18263C5.78687 5.63394 6.08532 6.09982 6.3401 6.57297C6.79869 7.43192 7.24273 8.32 7.67949 9.17895C7.91242 9.63754 8.15264 10.1107 8.38557 10.5766C8.75682 11.2972 9.03343 11.916 9.26637 12.5129C9.47747 13.0588 9.71768 13.6048 9.94334 14.1289C10.2855 14.9077 10.6349 15.7157 10.9115 16.5383C10.9988 16.8004 11.0643 17.077 11.1299 17.3463C11.29 17.9942 11.4501 18.6638 11.8942 19.2244C11.8942 19.2389 11.8942 19.2607 11.8942 19.2826C11.8942 19.3263 11.8942 19.3845 11.9087 19.4355C12.0107 19.7703 12.1053 20.1051 12.2072 20.44C12.4984 21.4154 12.7968 22.42 13.1098 23.4027L13.1681 23.5774C13.4592 24.48 13.7286 25.3244 13.4883 26.2489C13.4665 26.3362 13.4665 26.4381 13.4883 26.5691C13.583 27.0933 13.532 27.6101 13.4811 28.156C13.4592 28.3817 13.4374 28.6073 13.4228 28.8403C13.7067 28.7602 14.0125 28.6801 14.3327 28.6001C14.3473 28.5928 14.3691 28.5928 14.3837 28.5855C14.3546 28.3016 14.3691 28.0177 14.391 27.7265Z" fill="#202832"/>
<path d="M27.5212 19.1156C27.4848 18.9336 27.4557 18.7516 27.4193 18.5696C27.6813 18.3294 27.6086 18.031 27.5722 17.8636C27.5649 17.8344 27.5576 17.8053 27.5503 17.7762C27.5212 17.6233 27.5066 17.4705 27.4921 17.3103C27.4775 17.172 27.463 17.0337 27.4411 16.8881C27.3829 16.495 27.3174 16.0947 27.2519 15.7162C27.2082 15.4541 27.1645 15.1993 27.1281 14.9373C27.1208 14.8863 27.1208 14.8208 27.1208 14.7626C27.1281 14.6388 27.15 14.5151 27.1718 14.3768C27.2228 14.0783 27.2664 13.7653 27.2155 13.4523C27.0481 12.4623 27.099 11.4942 27.2009 10.4969C26.8588 10.0311 26.473 9.5943 26.0362 9.2085C26.0362 9.21578 26.029 9.23033 26.029 9.24489C25.9926 9.41232 25.9634 9.57974 25.9343 9.74716C25.8979 9.95098 25.8688 10.1548 25.847 10.3586C25.8179 10.5624 25.7887 10.7735 25.7596 10.9701C25.7087 11.2758 25.6504 11.5815 25.5995 11.88C25.5558 12.1056 25.5121 12.3386 25.4757 12.5715C25.4539 12.6807 25.4976 12.7608 25.5121 12.8117C25.5194 12.8773 25.5267 12.9355 25.534 13.001C25.5631 13.2339 25.5922 13.4742 25.614 13.7071C25.6286 13.8818 25.6359 14.0638 25.6432 14.2385C25.6577 14.4714 25.665 14.7189 25.6941 14.9591C25.7159 15.1338 25.7451 15.3085 25.7815 15.476C25.8324 15.7526 25.8906 16.0146 25.8615 16.2548C25.8106 16.7862 25.9052 17.2448 26.1454 17.667C26.342 18.0091 26.3711 18.2348 26.2473 18.4969C26.1381 18.7371 26.2037 19.0137 26.2692 19.2393C26.5749 20.2657 26.5967 21.1174 26.3347 21.9181C26.3056 22.02 26.2692 22.1365 26.291 22.2602C26.3274 22.5296 26.3711 22.7916 26.4148 23.061C26.4584 23.3594 26.5094 23.6579 26.5531 23.9636C26.9534 22.7116 27.3392 21.445 27.6886 20.1784C27.6886 20.1492 27.6813 20.1201 27.6813 20.091C27.645 19.7562 27.5794 19.4286 27.5212 19.1156Z" fill="#202832"/>
<path d="M27.7474 11.334C27.6674 11.7125 27.58 12.1347 27.8566 12.586C27.8421 12.6443 27.7984 12.7534 27.7765 12.819C27.762 12.8626 27.7474 12.899 27.7329 12.9354C27.7256 12.9645 27.6892 13.0155 27.6601 13.0519C27.58 13.1611 27.4708 13.3139 27.4999 13.5105C27.5363 13.7653 27.5582 14.0346 27.5873 14.2894C27.6601 15.0537 27.7401 15.8399 28.0095 16.5605C28.1551 16.9609 28.257 17.3612 28.3225 17.7616C28.388 17.4995 28.4462 17.2448 28.5045 16.9827C28.9703 14.9518 28.6428 12.9791 27.7474 11.334Z" fill="#202832"/>
<path d="M19.2079 11.9742C19.2952 12.5056 19.3898 13.0589 19.499 13.5975C19.5427 13.5538 19.5864 13.5175 19.6301 13.4665C19.6155 13.4155 19.5937 13.3646 19.5791 13.3136C19.5646 13.2627 19.5354 13.1972 19.5063 13.1389C19.4262 12.9642 19.3316 12.7604 19.3753 12.542C19.4408 12.1635 19.4408 11.8068 19.3826 11.4356C19.2952 11.3773 19.2006 11.3264 19.106 11.2827C19.1351 11.5157 19.1715 11.7413 19.2079 11.9742Z" fill="white"/>
<path d="M15.3435 7.51959C15.3654 7.6579 15.3872 7.78164 15.4091 7.90539C15.4527 8.08009 15.4891 8.2548 15.5255 8.4295C15.5983 8.75707 15.6711 9.09919 15.7585 9.42676C15.7148 9.04824 15.6566 8.66244 15.5765 8.2548C15.511 7.89083 15.4309 7.51231 15.329 7.13379C15.3071 7.13379 15.2926 7.13379 15.2708 7.13379C15.2999 7.26482 15.3217 7.38856 15.3435 7.51959Z" fill="white"/>
<path d="M15.2775 7.14101C15.2994 7.14101 15.3139 7.14101 15.3357 7.14101C15.3721 7.14101 15.4013 7.14101 15.4377 7.14101C15.4886 7.14101 15.5396 7.13373 15.5905 7.13373C15.5905 7.03182 15.5905 6.92991 15.5978 6.82072C15.6269 6.37668 15.707 4.59326 15.707 4.59326C15.1902 5.26296 14.6515 6.14375 14.3167 7.02454C14.6005 7.10461 14.9136 7.14829 15.2775 7.14101Z" fill="white"/>
<path d="M17.5489 11.9601C17.4979 11.7927 17.447 11.6253 17.3887 11.4651C17.3378 11.3123 17.3523 11.1812 17.4251 11.0793C17.5052 10.9701 17.5125 10.8755 17.4761 10.7226C17.3378 10.628 17.1922 10.5261 17.0539 10.4023C17.0393 10.5552 17.0248 10.7081 17.0175 10.8609C17.0102 10.941 17.0393 11.0429 17.0684 11.1521C17.0757 11.1739 17.083 11.2031 17.083 11.2249C17.083 11.2322 17.0903 11.2322 17.0903 11.2395C17.1267 11.2904 17.1849 11.3778 17.1849 11.5015C17.1849 11.88 17.3523 12.2222 17.527 12.5861C17.6435 12.8263 17.76 13.0738 17.84 13.3432C17.8692 13.4378 17.891 13.5397 17.9056 13.6416C17.9128 13.7144 17.9201 13.7945 17.9347 13.8673C18.022 13.8818 18.1094 13.8964 18.204 13.9037C18.1603 13.8236 18.1167 13.7363 18.0875 13.6416C17.9056 13.0811 17.7236 12.5133 17.5489 11.9601Z" fill="white"/>
<path d="M15.8766 12.4403C15.8475 12.3821 15.8184 12.3312 15.7965 12.2729C15.7892 12.2656 15.7747 12.2438 15.7601 12.2292C15.7019 12.1564 15.6145 12.0473 15.6218 11.8871C15.6291 11.5304 15.4398 11.2538 15.2215 10.9335C15.1414 10.8171 15.0613 10.7006 14.9885 10.5696C14.7337 10.1328 14.4498 9.6451 14.4571 9.0118C14.4571 8.93901 14.4135 8.84438 14.3625 8.74247C14.297 8.60416 14.2242 8.4513 14.2024 8.26204C14.1805 8.09461 14.1368 7.92719 14.0932 7.75977C14.0495 7.94175 14.0204 8.11645 13.9985 8.29115C14.0422 8.43674 14.1077 8.58232 14.1732 8.73519C14.2024 8.8007 14.2315 8.87349 14.2606 8.93901C14.5445 9.6451 14.8211 10.3585 15.0831 11.0573C15.2287 11.4431 15.3816 11.8507 15.5345 12.2438C15.6436 12.5277 15.7601 12.8116 15.8766 13.0882C15.9567 13.1392 16.0367 13.1901 16.1241 13.2411C16.1022 13.0955 16.0731 12.9572 16.044 12.8189C16.0076 12.7097 15.9421 12.5786 15.8766 12.4403Z" fill="white"/>
<path d="M15.0657 11.0718C14.8037 10.373 14.5344 9.65233 14.2432 8.95352C14.2141 8.88073 14.1849 8.81521 14.1558 8.7497C14.0903 8.59683 14.0248 8.45125 13.9811 8.30566C13.9738 8.34206 13.9738 8.38574 13.9738 8.42213C13.8283 10.4385 14.4106 12.1346 15.8592 13.1027C15.7427 12.8261 15.6262 12.5422 15.5171 12.2583C15.3642 11.858 15.2113 11.4576 15.0657 11.0718Z" fill="white"/>
<path d="M14.1861 8.26922C14.2152 8.45848 14.288 8.61134 14.3462 8.74965C14.3972 8.85884 14.4409 8.95347 14.4409 9.01898C14.4336 9.65228 14.7175 10.14 14.9723 10.5767C15.045 10.7005 15.1251 10.8242 15.2052 10.9407C15.4236 11.261 15.6128 11.5376 15.6056 11.8943C15.6056 12.0472 15.6856 12.1563 15.7439 12.2364C15.7584 12.251 15.773 12.2728 15.7803 12.2801C15.8094 12.3383 15.8312 12.3893 15.8603 12.4475C15.9258 12.5858 15.9914 12.7096 16.0205 12.8333C16.0496 12.9716 16.0714 13.1172 16.1005 13.2555C16.6174 13.5467 17.2216 13.7578 17.9349 13.8743C17.9276 13.8015 17.9204 13.7214 17.9058 13.6486C17.8912 13.5467 17.8694 13.4448 17.8403 13.3501C17.7602 13.0808 17.6438 12.8333 17.5273 12.5931C17.3526 12.2291 17.1852 11.887 17.1852 11.5085C17.1852 11.3847 17.1269 11.2974 17.0905 11.2464C17.0905 11.2392 17.0832 11.2392 17.0832 11.2319C17.076 11.21 17.0687 11.1882 17.0687 11.1591C17.0396 11.0499 17.0177 10.948 17.0177 10.8679C17.025 10.7151 17.0396 10.5622 17.0541 10.4093C16.2752 9.73235 15.5764 8.64046 15.5764 7.14093C15.5255 7.14093 15.4745 7.14821 15.4236 7.14821C15.3872 7.14821 15.3508 7.14821 15.3217 7.14821C15.4236 7.51945 15.4964 7.90525 15.5692 8.26922C15.6419 8.66958 15.7075 9.06266 15.7511 9.44118C15.6638 9.11361 15.591 8.77149 15.5182 8.44392C15.4818 8.26922 15.4454 8.09451 15.4017 7.91981C15.3726 7.79606 15.3508 7.67231 15.3362 7.53401C15.3144 7.41026 15.2998 7.27923 15.2707 7.15549C14.914 7.16277 14.5937 7.11909 14.3098 7.03174C14.2152 7.28651 14.1351 7.53401 14.0769 7.7815C14.1279 7.93437 14.1643 8.10179 14.1861 8.26922Z" fill="white"/>
<path d="M19.3681 12.5352C19.3317 12.7535 19.4191 12.9574 19.4991 13.1321C19.5283 13.1976 19.5574 13.2558 19.5719 13.3068C19.5865 13.3577 19.6083 13.4087 19.6229 13.4596C19.8194 13.234 19.9505 12.9501 19.965 12.6298C19.9869 12.1348 19.7466 11.6908 19.3681 11.4287C19.4336 11.8 19.4336 12.1639 19.3681 12.5352Z" fill="white"/>
<path d="M19.0922 11.2827C18.9684 11.2317 18.8301 11.2026 18.6918 11.1953C18.3715 11.1808 17.9275 11.0206 17.4762 10.7222C17.5198 10.875 17.5126 10.9697 17.4252 11.0789C17.3524 11.1808 17.3379 11.3118 17.3888 11.4647C17.4398 11.6321 17.4907 11.7995 17.549 11.9596C17.7237 12.5129 17.9056 13.0879 18.0876 13.6412C18.1167 13.7358 18.1677 13.8231 18.2041 13.9032C18.2623 13.9105 18.3133 13.9178 18.3715 13.925C18.4152 13.9323 18.4661 13.9396 18.5098 13.9396C18.5171 13.9396 18.5244 13.9396 18.5244 13.9396C18.5317 13.9396 18.5389 13.9396 18.5389 13.9396C18.8956 13.9542 19.2305 13.8231 19.4852 13.5975C19.3761 13.0588 19.2814 12.5056 19.1941 11.9742C19.1722 11.7413 19.1358 11.5156 19.0922 11.2827Z" fill="white"/>
<path d="M6.79712 32.092C6.79712 32.0878 6.79712 32.0878 6.79712 32.092C6.80134 32.0878 6.80134 32.0878 6.79712 32.092Z" fill="#202832"/>
</g>
<path fill-rule="evenodd" clip-rule="evenodd" d="M83.5942 29.1673H85.3885H88.5806H98.4579V26.3733H90.0751L98.4579 17.1192V14.104H96.8869" fill="#D89713"/>
<path fill-rule="evenodd" clip-rule="evenodd" d="M66.1661 17.1268H60.2831V11.8291H66.1661C67.9308 11.8291 69.0712 12.9713 69.0712 14.478C69.0712 15.9846 67.9308 17.1268 66.1661 17.1268ZM60.2831 19.8961H67.4887C69.3639 19.8961 70.6238 21.1286 70.6238 23.055C70.6238 24.9772 69.3818 26.1571 67.4598 26.1571H60.2831V19.8961ZM70.5404 17.9271C71.6524 16.9275 72.3469 15.5005 72.3469 14.151C72.3469 11.0329 69.8632 8.93945 66.1667 8.93945H56.8818V29.1673H67.4604C71.3118 29.1673 73.8996 26.7962 73.8996 23.2689C73.8996 20.9566 72.5714 18.8789 70.5404 17.9271Z" fill="#F4F6F8"/>
<path fill-rule="evenodd" clip-rule="evenodd" d="M75.6238 29.1673H78.6396V14.104H75.6238V29.1673Z" fill="#F4F6F8"/>
<path fill-rule="evenodd" clip-rule="evenodd" d="M75.6238 11.7369H78.6396V8.93945H75.6238V11.7369Z" fill="#F4F6F8"/>
<path fill-rule="evenodd" clip-rule="evenodd" d="M100.397 29.1673H103.197V8.93945H100.397V29.1673Z" fill="#F4F6F8"/>
<path fill-rule="evenodd" clip-rule="evenodd" d="M104.705 29.1673H107.721V8.93945H104.705V29.1673Z" fill="#F4F6F8"/>
<path fill-rule="evenodd" clip-rule="evenodd" d="M116.984 16.2908C118.994 16.2908 120.67 17.7356 121.273 19.7244H112.695C113.298 17.7356 114.973 16.2908 116.984 16.2908ZM121.12 23.9504C120.463 25.4418 118.838 26.6517 116.983 26.6517C114.507 26.6517 112.742 24.9446 112.501 22.4587H124.308V21.7699V21.6292C124.308 16.8709 121.381 13.6738 116.897 13.6738C112.414 13.6738 109.444 16.7794 109.444 21.4017C109.444 26.0243 112.478 29.1675 116.962 29.1675C120.276 29.1675 123.166 27.182 124.137 23.9504H121.12Z" fill="#F4F6F8"/>
<path fill-rule="evenodd" clip-rule="evenodd" d="M95.0112 14.104H93.3827H90.2111H80.363V17.0195H88.7261L80.363 26.6694V29.1673H81.8038" fill="#F4F6F8"/>
<path fill-rule="evenodd" clip-rule="evenodd" d="M134.002 17.1336V14.2455H129.584V9.15479L126.639 11.3263V14.2455H124.308V17.1336H126.639V25.0245C126.639 27.6142 128.052 29.1674 130.469 29.1674H132.897V26.7607H130.99C130.06 26.7607 129.584 25.973 129.584 25.0245V17.1336H134.002Z" fill="#F4F6F8"/>
</svg>
