<svg width="27" height="16" viewBox="0 0 27 16" fill="none" xmlns="http://www.w3.org/2000/svg">
<path fill-rule="evenodd" clip-rule="evenodd" d="M0 7.9999C0 7.40399 0.483087 6.9209 1.07901 6.9209H23.7381C24.334 6.9209 24.8171 7.40399 24.8171 7.9999C24.8171 8.59582 24.334 9.07891 23.7381 9.07891H1.07901C0.483087 9.07891 0 8.59582 0 7.9999Z" fill="#96D9AD"/>
<path fill-rule="evenodd" clip-rule="evenodd" d="M18.0546 0.736228C18.4907 0.330168 19.1735 0.354569 19.5795 0.790728L25.6068 7.26476C26.0129 7.70092 25.9884 8.38368 25.5523 8.78974C25.1161 9.1958 24.4334 9.17139 24.0273 8.73524L18.0001 2.2612C17.594 1.82504 17.6184 1.14229 18.0546 0.736228Z" fill="#96D9AD"/>
<path fill-rule="evenodd" clip-rule="evenodd" d="M18.0548 15.2638C18.491 15.6698 19.1737 15.6454 19.5798 15.2093L25.6068 8.73522C26.0128 8.29905 25.9884 7.6163 25.5523 7.21025C25.1161 6.8042 24.4333 6.82861 24.0273 7.26478L18.0003 13.7388C17.5942 14.175 17.6187 14.8577 18.0548 15.2638Z" fill="#96D9AD"/>
</svg>
