<svg width="73" height="72" viewBox="0 0 73 72" fill="none" xmlns="http://www.w3.org/2000/svg">
<path d="M27.8504 10C21.0504 16 10.017 17.1667 5.35036 17C3.01703 26.3333 -1.24964 47 0.350363 55C2.35036 65 22.8504 72 27.8504 72C32.8504 72 54.3504 63.5 54.8504 55C55.2504 48.2 52.017 26.8333 49.8503 17C40.6503 17.8 31.017 12.6667 27.8504 10Z" fill="#202932"/>
<path d="M68.5762 15.8536L67.1215 8.4297H62.305C55.5654 8.4297 49.029 6.02204 43.899 1.65104L41.961 0L41.2124 0.704963C35.9263 5.68678 29.0144 8.4297 21.7513 8.4297H16.8785L15.4204 15.8709C14.6821 19.9709 11 40.773 11 47.7538C11 56.2122 18.4044 62.969 34.3028 69.0198C36.7576 69.9555 39.3466 70.4297 42 70.4297C44.6522 70.4297 47.2402 69.9555 49.6926 69.0209C65.5933 62.9702 73 56.2122 73 47.7538C73 40.773 69.3179 19.9709 68.5762 15.8536ZM48.8751 66.875C44.4949 68.5444 39.5062 68.5456 35.1203 66.8739C20.2311 61.2078 13.2963 55.1318 13.2963 47.7538C13.2963 40.9682 16.9486 20.344 17.6765 16.2957L18.7684 10.726H21.7513C29.2579 10.726 36.4166 8.01522 42.0253 3.0713L42.4099 3.39852C47.9543 8.12315 55.02 10.726 62.305 10.726H65.2316L66.3201 16.2784C67.0514 20.344 70.7037 40.9682 70.7037 47.7538C70.7037 55.1318 63.7677 61.2078 48.8751 66.875Z" fill="#F0B420"/>
<path d="M64.0696 16.7365L63.5231 13.9488L63.2499 13.0222H62.3049C55.3047 13.0222 48.3469 10.7305 42.7129 6.56964L42.0298 6.06445L41.3478 6.56964C35.6484 10.7914 28.872 13.0222 21.7512 13.0222H20.6582L19.9394 16.6848C17.9348 27.8242 15.5925 42.6445 15.5925 47.7537C15.5925 50.0374 15.5925 56.986 35.9389 64.7279C37.8678 65.4639 39.908 65.837 41.9999 65.837C44.0919 65.837 46.131 65.4639 48.0587 64.7291C68.4073 56.986 68.4073 50.0374 68.4073 47.7537C68.4073 42.6468 66.072 27.862 64.0696 16.7365ZM47.2412 62.5832C43.9059 63.8531 40.0917 63.8542 36.7552 62.5821C24.2369 57.8184 17.8888 52.8285 17.8888 47.7537C17.8888 42.796 20.2104 28.1376 22.1967 17.1096L22.5492 15.3093C29.593 15.1555 36.2959 12.9522 42.0321 8.90842C47.6775 12.8684 54.4826 15.1187 61.4496 15.3059L61.8124 17.1613C63.7952 28.1766 66.111 42.7983 66.111 47.7537C66.111 52.8285 59.7629 57.8184 47.2412 62.5832Z" fill="#F0B420"/>
<path d="M29.9445 23.3555L22.167 33.7267L39.2354 54.2085C39.9208 55.0317 40.9289 55.5036 42.0001 55.5036C43.0713 55.5036 44.0794 55.0317 44.7648 54.2085L61.8332 33.7267L54.0557 23.3555H29.9445ZM42.0001 50.066L37.7692 34.837H46.2299L42.0001 50.066ZM44.0714 25.6518H51.4092L47.7408 31.5222L44.0714 25.6518ZM45.6696 32.5407H38.3318L42.0001 26.6702L45.6696 32.5407ZM36.2594 31.5222L32.5899 25.6518H39.9277L36.2594 31.5222ZM34.1881 32.5407H25.926L30.4325 26.5324L34.1881 32.5407ZM53.5677 26.5324L58.0742 32.5407H49.8121L53.5677 26.5324ZM26.081 34.837H35.3868L40.0402 51.5884L26.081 34.837ZM43.96 51.5884L48.6134 34.837H57.9192L43.96 51.5884Z" fill="#F0B420"/>
</svg>
