<svg width="58" height="58" viewBox="0 0 58 58" fill="none" xmlns="http://www.w3.org/2000/svg">
<mask id="path-1-inside-1" fill="white">
<path fill-rule="evenodd" clip-rule="evenodd" d="M37.8919 22.1449L40.1528 26.4149L23.8287 34.6955V48.2661H19.0545V10.8408H23.8287V16.9907L37.8919 9.83791L40.1528 14.1075L23.8287 22.3864V29.2964L37.8919 22.1449ZM28.9792 0.0429688C12.9733 0.0429688 0 13.0167 0 29.0238C0 45.0267 12.9733 58 28.9792 58C44.9833 58 57.957 45.0267 57.957 29.0238C57.957 13.0167 44.9833 0.0429688 28.9792 0.0429688Z"/>
</mask>
<path d="M37.8919 22.1449L36.9854 20.3622L38.7389 19.4705L39.6595 21.2091L37.8919 22.1449ZM40.1528 26.4149L41.9203 25.4791L42.8727 27.2778L41.0576 28.1986L40.1528 26.4149ZM23.8287 34.6955H21.8287V33.4675L22.924 32.9119L23.8287 34.6955ZM23.8287 48.2661H25.8287V50.2661H23.8287V48.2661ZM19.0545 48.2661V50.2661H17.0545V48.2661H19.0545ZM19.0545 10.8408H17.0545V8.84078H19.0545V10.8408ZM23.8287 10.8408V8.84078H25.8287V10.8408H23.8287ZM23.8287 16.9907L24.7354 18.7733L21.8287 20.2517V16.9907H23.8287ZM37.8919 9.83791L36.9853 8.05524L38.7388 7.16336L39.6594 8.90198L37.8919 9.83791ZM40.1528 14.1075L41.9203 13.1715L42.8728 14.9705L41.0574 15.8912L40.1528 14.1075ZM23.8287 22.3864H21.8287V21.1582L22.9241 20.6027L23.8287 22.3864ZM23.8287 29.2964L24.7353 31.0791L21.8287 32.5572V29.2964H23.8287ZM39.6595 21.2091L41.9203 25.4791L38.3852 27.3508L36.1244 23.0808L39.6595 21.2091ZM41.0576 28.1986L24.7335 36.4792L22.924 32.9119L39.248 24.6313L41.0576 28.1986ZM25.8287 34.6955V48.2661H21.8287V34.6955H25.8287ZM23.8287 50.2661H19.0545V46.2661H23.8287V50.2661ZM17.0545 48.2661V10.8408H21.0545V48.2661H17.0545ZM19.0545 8.84078H23.8287V12.8408H19.0545V8.84078ZM25.8287 10.8408V16.9907H21.8287V10.8408H25.8287ZM22.922 15.208L36.9853 8.05524L38.7986 11.6206L24.7354 18.7733L22.922 15.208ZM39.6594 8.90198L41.9203 13.1715L38.3853 15.0434L36.1245 10.7738L39.6594 8.90198ZM41.0574 15.8912L24.7334 24.1701L22.9241 20.6027L39.2481 12.3238L41.0574 15.8912ZM25.8287 22.3864V29.2964H21.8287V22.3864H25.8287ZM22.9222 27.5137L36.9854 20.3622L38.7985 23.9277L24.7353 31.0791L22.9222 27.5137ZM28.9792 2.04297C14.078 2.04297 2 14.1212 2 29.0238H-2C-2 11.9123 11.8687 -1.95703 28.9792 -1.95703V2.04297ZM2 29.0238C2 43.922 14.0778 56 28.9792 56V60C11.8689 60 -2 46.1314 -2 29.0238H2ZM28.9792 56C43.8788 56 55.957 43.922 55.957 29.0238H59.957C59.957 46.1313 46.0877 60 28.9792 60V56ZM55.957 29.0238C55.957 14.1212 43.8786 2.04297 28.9792 2.04297V-1.95703C46.088 -1.95703 59.957 11.9123 59.957 29.0238H55.957Z" fill="#F0B420" mask="url(#path-1-inside-1)"/>
</svg>
