<svg width="58" height="57" viewBox="0 0 58 57" fill="none" xmlns="http://www.w3.org/2000/svg">
<path d="M28.9961 1C44.1819 1 56.4961 13.3115 56.4961 28.5C56.4961 43.6885 44.1846 56 28.9961 56C13.8076 56 1.49609 43.6858 1.49609 28.5C1.49609 13.3142 13.8076 1 28.9961 1Z" stroke="#F0B420" stroke-width="2"/>
<path d="M44.9956 14.8446C44.0962 15.5763 43.4287 16.5534 43.0741 17.6573L39.3976 31.1748L26.9024 14.0489C26.9024 14.0489 24.1162 13.891 23.1022 14.2615C22.0882 14.632 20.747 15.6315 20.1781 17.7829C19.6092 19.9344 12.9961 44.1027 12.9961 44.1027C12.9961 44.1027 16.2075 44.2147 17.2141 43.6575C18.2207 43.1004 19.2305 42.489 19.8395 40.3544C20.2587 38.8923 23.4761 26.8739 23.4761 26.8739L36.011 44.1053C36.011 44.1053 39.0212 44.1942 40.0295 43.7376C41.2359 43.1918 42.2699 41.8649 42.6692 40.3567C43.0684 38.8484 49.7813 14.0312 49.7813 14.0312C49.7813 14.0312 46.4292 13.7553 44.9959 14.844L44.9956 14.8446ZM37.0792 39.4008L24.7079 22.3846L25.627 18.636L38.1853 35.9335" fill="#202932"/>
<path d="M42.606 14.8444C41.7066 15.5761 41.039 16.5532 40.6845 17.6571L37.008 31.1747L24.5127 14.0487C24.5127 14.0487 21.7266 13.8908 20.7125 14.2613C19.6985 14.6318 18.3573 15.6313 17.7884 17.7828C17.2196 19.9343 10.6064 44.1025 10.6064 44.1025C10.6064 44.1025 13.8178 44.2146 14.8244 43.6574C15.8311 43.1002 16.8408 42.4889 17.4499 40.3542C17.8691 38.8922 21.0865 26.8737 21.0865 26.8737L33.6213 44.1051C33.6213 44.1051 36.6315 44.194 37.6398 43.7375C38.8462 43.1917 39.8802 41.8647 40.2795 40.3565C40.6788 38.8483 47.3917 14.0311 47.3917 14.0311C47.3917 14.0311 44.0392 13.7558 42.606 14.8444ZM34.6895 39.4006L22.3182 22.3844L23.2374 18.6358L35.7956 35.9333" stroke="#F0B420" stroke-width="2"/>
</svg>
