<svg width="66" height="66" viewBox="0 0 66 66" fill="none" xmlns="http://www.w3.org/2000/svg">
<path d="M40.4517 25.3518V27.6767H42.5807V25.5477H44.7097V22.3541C44.7097 20.5934 43.2769 19.1605 41.5162 19.1605C40.9286 19.1605 40.4517 18.6826 40.4517 18.096V17.0315H41.5162C42.1038 17.0315 42.5807 17.5095 42.5807 18.096V19.1605H44.7097V18.096C44.7097 16.71 43.8166 15.5391 42.5807 15.0983V12.7734H40.4517V14.9025H38.3226V18.096C38.3226 19.8567 39.7555 21.2896 41.5162 21.2896C42.1038 21.2896 42.5807 21.7676 42.5807 22.3541V23.4186H41.5162C40.9286 23.4186 40.4517 22.9407 40.4517 22.3541V21.2896H38.3226V22.3541C38.3226 23.7401 39.2158 24.9111 40.4517 25.3518Z" fill="#F0B420"/>
<path d="M42.5807 0H40.4517V4.25807H42.5807V0Z" fill="#F0B420"/>
<path d="M34.952 1.53822L33.1804 2.71924L35.3096 5.91343L37.0812 4.73241L34.952 1.53822Z" fill="#F0B420"/>
<path d="M48.0824 1.53584L45.9531 4.72998L47.7247 5.91095L49.854 2.71681L48.0824 1.53584Z" fill="#F0B420"/>
<path d="M51.824 23.534C52.6394 22.0532 53.2259 20.3138 53.2259 18.0964C53.2259 11.6401 47.9725 6.38672 41.5162 6.38672C35.0599 6.38672 29.8065 11.6401 29.8065 18.0964C29.8065 20.2553 30.3601 21.9628 31.1414 23.419H27.4816C27.0409 22.1831 25.8699 21.29 24.4839 21.29H18.5865C16.9046 21.29 15.4994 22.429 15.0597 23.9704C10.8868 25.2926 7.77418 28.847 7.04818 33.2041L6.92895 33.9216C6.66921 35.4811 5.57595 36.7606 4.07604 37.2609L3.63959 37.4057C1.46265 38.1317 0 40.1618 0 42.4558V51.5957C0 54.2751 2.00449 56.5458 4.66259 56.8768L13.1234 57.935C15.4983 58.232 17.3942 60.0938 17.7327 62.4634L17.8456 63.2575C18.0691 64.8213 19.4275 65.9997 21.0072 65.9997H26.9376C28.5067 65.9997 29.831 64.8767 30.0875 63.331L30.5591 60.5015C30.6454 59.9863 31.0871 59.6126 31.6098 59.6126H46.099C46.6217 59.6126 47.0634 59.9863 47.1486 60.5026L47.6202 63.331C47.8788 64.8767 49.2031 65.9997 50.7711 65.9997H55.2293C56.346 65.9997 57.3626 65.4313 57.9492 64.4796L59.7046 61.6256C63.8232 54.9351 66.0001 47.2451 66.0001 39.3879C66.0001 31.207 59.8132 24.4516 51.824 23.534ZM41.5162 8.51576C46.7994 8.51576 51.0969 12.8143 51.0969 18.0964C51.0969 21.5146 49.3724 23.6138 47.7043 25.6428C46.66 26.9138 45.5891 28.2232 44.9972 29.8061H38.0352C37.4423 28.2232 36.3714 26.9138 35.3282 25.6428C33.6601 23.6138 31.9356 21.5146 31.9356 18.0964C31.9356 12.8143 36.233 8.51576 41.5162 8.51576ZM44.7098 34.0642H38.3227V31.9352H44.7098V34.0642ZM36.3011 36.1932H31.9356V34.0642H36.1936V35.1287C36.1936 35.4928 36.2309 35.8494 36.3011 36.1932ZM44.5139 36.1932C44.0732 37.4291 42.9022 38.3223 41.5162 38.3223C40.1302 38.3223 38.9592 37.4291 38.5185 36.1932H44.5139ZM46.8388 34.0642H51.0969V36.1932H46.7313C46.8016 35.8494 46.8388 35.4928 46.8388 35.1287V34.0642ZM18.5865 23.419H24.4839C25.0715 23.419 25.5484 23.897 25.5484 24.4835V25.3373C25.5484 29.6166 24.9512 33.8726 23.776 37.9869C23.6706 38.3585 23.0724 38.4021 22.9116 38.054L17.1749 25.6247C17.0802 25.4182 17.0323 25.2 17.0323 24.9732C17.0323 24.1163 17.7296 23.419 18.5865 23.419ZM57.8928 60.51L56.1374 63.364C55.9415 63.6812 55.6019 63.8707 55.2304 63.8707H50.7722C50.2495 63.8707 49.8078 63.4971 49.7226 62.9808L49.251 60.1523C48.9923 58.6067 47.6681 57.4836 46.1 57.4836H31.6098C30.0407 57.4836 28.7164 58.6067 28.4599 60.1523L27.9883 62.9818C27.9032 63.4971 27.4614 63.8707 26.9387 63.8707H21.0083C20.4824 63.8707 20.0289 63.4779 19.9555 62.9574L19.8426 62.1622C19.3689 58.8451 16.7151 56.2381 13.3884 55.8219L4.92766 54.7638C3.33194 54.5658 2.12904 53.2032 2.12904 51.5957V42.4558C2.12904 41.0794 3.0062 39.8616 4.31236 39.4262L4.74882 39.2814C6.99814 38.5309 8.63857 36.6116 9.02925 34.2718L9.14847 33.5543C9.70947 30.1904 12.0142 27.4216 15.1385 26.2091C15.1747 26.3113 15.196 26.4167 15.2418 26.5168L20.9785 38.9461C21.4011 39.8605 22.3251 40.4513 23.3321 40.4513C24.4829 40.4513 25.508 39.6785 25.8242 38.5714C27.0345 34.3346 27.6509 29.953 27.67 25.548H32.5317C32.9117 26.0494 33.3013 26.5317 33.6814 26.9947C34.8215 28.3829 35.8019 29.589 36.1926 31.0399V31.9352H31.9345C30.7603 31.9352 29.8055 32.89 29.8055 34.0642V36.1932C29.8055 37.3674 30.7603 38.3223 31.9345 38.3223H37.2848C38.2577 39.6071 39.7842 40.4513 41.5152 40.4513C43.2461 40.4513 44.7736 39.6071 45.7456 38.3223H51.0969C52.271 38.3223 53.2259 37.3674 53.2259 36.1932V34.0642C53.2259 32.89 52.271 31.9352 51.0969 31.9352H46.8388V31.0399C47.2295 29.589 48.2099 28.3829 49.35 26.9947C49.7247 26.5391 50.1069 26.0643 50.4827 25.5715C57.9045 25.812 63.8711 31.9085 63.8711 39.3879C63.8711 46.8512 61.8038 54.1559 57.8928 60.51Z" fill="#F0B420"/>
<path d="M13.8388 34.0645C12.0781 34.0645 10.6453 35.4973 10.6453 37.258C10.6453 39.0187 12.0781 40.4516 13.8388 40.4516C15.5995 40.4516 17.0324 39.0187 17.0324 37.258C17.0324 35.4973 15.5995 34.0645 13.8388 34.0645ZM13.8388 38.3225C13.2512 38.3225 12.7743 37.8446 12.7743 37.258C12.7743 36.6715 13.2512 36.1935 13.8388 36.1935C14.4264 36.1935 14.9033 36.6715 14.9033 37.258C14.9033 37.8446 14.4264 38.3225 13.8388 38.3225Z" fill="#F0B420"/>
</svg>
