<svg width="90" height="90" viewBox="0 0 90 90" fill="none" xmlns="http://www.w3.org/2000/svg">
<g opacity="0.7">
<path fill-rule="evenodd" clip-rule="evenodd" d="M45 3.36898C22.0078 3.36898 3.36898 22.0078 3.36898 45C3.36898 67.9922 22.0078 86.631 45 86.631C67.9922 86.631 86.631 67.9922 86.631 45C86.631 22.0078 67.9922 3.36898 45 3.36898ZM0 45C0 20.1472 20.1472 0 45 0C69.8528 0 90 20.1472 90 45C90 69.8528 69.8528 90 45 90C20.1472 90 0 69.8528 0 45Z" fill="white"/>
<path fill-rule="evenodd" clip-rule="evenodd" d="M71.2205 54.3785L65.5531 52.3355C64.7581 52.0494 63.8821 52.4617 63.5962 53.2572C63.3103 54.0519 63.7223 54.9285 64.5166 55.2146L66.9841 56.1042L44.6028 65.9178L40.5881 57.4083L26.1835 64.004C25.4206 64.3528 25.0819 65.2516 25.4236 66.018C25.7699 66.7944 26.6826 67.1394 27.4555 66.786L39.1128 61.4477L43.1068 69.9144L68.3562 58.8433L67.4313 61.4141C67.1446 62.2088 67.5566 63.0854 68.3516 63.3715C69.1458 63.6575 70.0219 63.2453 70.3078 62.4505L72.3495 56.7796C72.7004 55.8051 72.1951 54.7296 71.2205 54.3785ZM52.0948 29.953C51.8089 30.7477 52.2209 31.6243 53.0152 31.9104C53.8102 32.1972 54.6854 31.7849 54.9721 30.9894L57.1155 25.0339C57.4098 24.2155 56.9863 23.3137 56.1684 23.0192L50.2167 20.8744C49.4224 20.5876 48.5464 20.9998 48.2598 21.7953C47.9739 22.5901 48.3859 23.4666 49.1801 23.7527L51.6675 24.6492L15.7454 40.5537C14.9718 40.8964 14.6232 41.8021 14.968 42.5754V42.5761C15.3112 43.3456 16.2124 43.6929 16.983 43.3517L53.0144 27.399L52.0948 29.953ZM73.7981 35.9934L67.8463 33.8486C67.0513 33.5618 66.1753 33.9741 65.8894 34.7696C65.6035 35.5643 66.0156 36.4409 66.8098 36.727L69.3492 37.6425L48.2689 47.242L45.0362 41.0639L20.7615 51.7978C19.9871 52.1404 19.6386 53.0469 19.9833 53.8202V53.8209C20.3265 54.5904 21.227 54.9369 21.9975 54.5965L43.6549 45.02L46.9029 51.2264L70.6257 40.4229L69.7245 42.9265C69.4379 43.7212 69.8499 44.5978 70.6449 44.8838C71.4391 45.1707 72.3151 44.7576 72.601 43.9629L74.7452 38.0082C75.0395 37.1897 74.6152 36.2879 73.7981 35.9934Z" fill="white"/>
</g>
</svg>
