<svg width="90" height="90" viewBox="0 0 90 90" fill="none" xmlns="http://www.w3.org/2000/svg">
<g opacity="0.7">
<path fill-rule="evenodd" clip-rule="evenodd" d="M45 3.36898C22.0078 3.36898 3.36898 22.0078 3.36898 45C3.36898 67.9922 22.0078 86.631 45 86.631C67.9922 86.631 86.631 67.9922 86.631 45C86.631 22.0078 67.9922 3.36898 45 3.36898ZM0 45C0 20.1472 20.1472 0 45 0C69.8528 0 90 20.1472 90 45C90 69.8528 69.8528 90 45 90C20.1472 90 0 69.8528 0 45Z" fill="white"/>
<path d="M31.75 73.0146C40.3833 73.0146 47.5 66.0146 47.5 57.2646C47.5 48.6313 40.5 41.5146 31.75 41.5146C23.1167 41.5146 16 48.5146 16 57.2646C16 66.0146 23 73.0146 31.75 73.0146ZM31.75 43.9646C39.1 43.9646 45.1666 49.9146 45.1666 57.3813C45.1666 64.7313 39.2167 70.798 31.75 70.798C24.2833 70.6813 18.3333 64.7313 18.3333 57.2646C18.3333 49.9146 24.2833 43.9646 31.75 43.9646Z" fill="white" stroke="white" stroke-width="0.6"/>
<path d="M56.25 17.0146C47.6167 17.0146 40.5 24.0146 40.5 32.7646C40.5 41.398 47.5 48.5146 56.25 48.5146C64.8833 48.5146 72 41.5146 72 32.7646C72 24.0146 65 17.0146 56.25 17.0146ZM56.25 46.0646C48.9 46.0646 42.8333 40.1146 42.8333 32.648C42.8333 25.298 48.7833 19.2313 56.25 19.2313C63.7167 19.348 69.6666 25.298 69.6666 32.7646C69.6666 40.1146 63.7167 46.0646 56.25 46.0646Z" fill="white" stroke="white" stroke-width="0.6"/>
<path d="M17.05 41.515C17.05 41.515 17.1667 41.515 17.05 41.515C17.75 41.515 18.2167 41.0483 18.3333 40.465C19.2667 29.265 28.1333 20.3983 39.45 19.3483C40.0333 19.3483 40.6167 18.765 40.5 18.065C40.5 17.4817 39.9167 16.8983 39.2167 17.015C26.85 18.065 17.05 27.865 16 40.2317C16 40.815 16.4667 41.3983 17.05 41.515Z" fill="white" stroke="white" stroke-width="0.6"/>
<path d="M48.7832 73.0146C61.1499 71.9646 70.8332 62.1646 71.9999 49.798C71.9999 49.2146 71.5332 48.6313 70.9499 48.5146C70.2499 48.5146 69.7832 48.9813 69.6666 49.5646C68.6166 60.7646 59.7499 69.6313 48.6666 70.5646C48.0832 70.5646 47.4999 71.148 47.6166 71.848C47.6166 72.548 48.0832 73.0146 48.7832 73.0146Z" fill="white" stroke="white" stroke-width="0.6"/>
<path d="M38.9634 55.6384C39.2547 53.6419 37.7721 52.5687 35.7449 51.8527L36.4025 49.1483L34.7969 48.738L34.1567 51.3712C33.7346 51.2633 33.301 51.1616 32.8703 51.0608L33.5151 48.4103L31.9104 48L31.2523 50.7035C30.9029 50.6219 30.5599 50.5413 30.227 50.4564L30.2288 50.448L28.0146 49.8811L27.5874 51.6394C27.5874 51.6394 28.7787 51.9193 28.7536 51.9366C29.4039 52.1031 29.5214 52.5443 29.5017 52.8941L28.7527 55.975C28.7975 55.9867 28.8556 56.0036 28.9196 56.0299C28.8661 56.0163 28.8089 56.0013 28.7499 55.9867L27.6999 60.3027C27.6204 60.5052 27.4187 60.809 26.9641 60.6937C26.9801 60.7176 25.7971 60.395 25.7971 60.395L25 62.2794L27.0894 62.8135C27.4781 62.9133 27.8591 63.0179 28.2341 63.1164L27.5696 65.8517L29.1734 66.262L29.8314 63.5557C30.2695 63.6776 30.6948 63.7901 31.111 63.8961L30.4552 66.5897L32.0608 67L32.7253 64.2698C35.4632 64.801 37.522 64.5867 38.3886 62.0478C39.0869 60.0035 38.3538 58.8243 36.9133 58.0554C37.9624 57.8073 38.7526 57.0998 38.9634 55.6384V55.6384ZM35.2949 60.9127C34.7987 62.9569 31.4416 61.8518 30.3532 61.5747L31.2349 57.9508C32.3233 58.2293 35.8135 58.7807 35.2949 60.9127ZM35.7915 55.6088C35.3388 57.4684 32.5447 56.5236 31.6383 56.292L32.4376 53.0052C33.344 53.2368 36.263 53.6691 35.7915 55.6088V55.6088Z" stroke="white" stroke-width="1.3"/>
<mask id="path-7-inside-1" fill="white">
<path fill-rule="evenodd" clip-rule="evenodd" d="M50 32.5345L56.9996 21L57.0007 21.0137L57.0018 21L64.0015 32.5345L57.0017 29.4032L50 32.5345Z"/>
</mask>
<path d="M56.9996 21L59.9899 20.7591L59.2453 11.5168L54.4349 19.4436L56.9996 21ZM50 32.5345L47.4353 30.9781L42.4466 39.1989L51.2248 35.2731L50 32.5345ZM57.0007 21.0137L54.0104 21.2547L59.9912 21.2532L57.0007 21.0137ZM57.0018 21L59.5665 19.4436L54.7522 11.5102L54.0114 20.7605L57.0018 21ZM64.0015 32.5345L62.7764 35.273L71.5557 39.2003L66.5662 30.9781L64.0015 32.5345ZM57.0017 29.4032L58.2267 26.6647L57.0019 26.1168L55.7769 26.6646L57.0017 29.4032ZM54.4349 19.4436L47.4353 30.9781L52.5647 34.0909L59.5643 22.5564L54.4349 19.4436ZM59.991 20.7728L59.9899 20.7591L54.0093 21.2409L54.0104 21.2547L59.991 20.7728ZM59.9912 21.2532L59.9923 21.2395L54.0114 20.7605L54.0103 20.7742L59.9912 21.2532ZM54.4371 22.5564L61.4368 34.0909L66.5662 30.9781L59.5665 19.4436L54.4371 22.5564ZM65.2265 29.796L58.2267 26.6647L55.7767 32.1417L62.7764 35.273L65.2265 29.796ZM51.2248 35.2731L58.2264 32.1418L55.7769 26.6646L48.7752 29.7959L51.2248 35.2731Z" fill="white" mask="url(#path-7-inside-1)"/>
<mask id="path-9-inside-2" fill="white">
<path fill-rule="evenodd" clip-rule="evenodd" d="M56.9995 37.9601L56.9996 37.96L64.0034 33.8525L56.9996 43.6496V43.6498L50 33.8527L56.9995 37.9601Z"/>
</mask>
<path d="M56.9996 37.96L55.482 35.3722L55.0248 35.6403L54.6871 36.0489L56.9996 37.96ZM56.9995 37.9601L55.4812 40.5475L57.6846 41.8405L59.312 39.8713L56.9995 37.9601ZM64.0034 33.8525L66.4439 35.5972L62.4858 31.2647L64.0034 33.8525ZM56.9996 43.6496L54.5591 41.9049L53.9996 42.6876V43.6496H56.9996ZM56.9996 43.6498L54.5586 45.3938L59.9996 53.0093V43.6498H56.9996ZM50 33.8527L51.5183 31.2653L47.559 35.5967L50 33.8527ZM54.6871 36.0489L54.6871 36.049L59.312 39.8713L59.3121 39.8712L54.6871 36.0489ZM62.4858 31.2647L55.482 35.3722L58.5173 40.5478L65.5211 36.4403L62.4858 31.2647ZM59.4402 45.3943L66.4439 35.5972L61.5629 32.1079L54.5591 41.9049L59.4402 45.3943ZM59.9996 43.6498V43.6496H53.9996V43.6498H59.9996ZM47.559 35.5967L54.5586 45.3938L59.4406 41.9058L52.441 32.1087L47.559 35.5967ZM58.5179 35.3727L51.5183 31.2653L48.4817 36.4401L55.4812 40.5475L58.5179 35.3727Z" fill="white" mask="url(#path-9-inside-2)"/>
<mask id="path-11-inside-3" fill="white">
<path fill-rule="evenodd" clip-rule="evenodd" d="M63.4019 32.8853L56.9995 36.6439L56.9992 36.6412L56.9991 36.6441L50.5967 32.8855L56.9991 29.9953L56.9992 29.9979L56.9995 29.9951L63.4019 32.8853Z"/>
</mask>
<path d="M56.9995 36.6439L54.0144 36.9423L54.4801 41.6016L58.5183 39.231L56.9995 36.6439ZM63.4019 32.8853L64.9207 35.4724L69.9213 32.5368L64.6362 30.151L63.4019 32.8853ZM56.9992 36.6412L59.9843 36.3428L54.0031 36.4888L56.9992 36.6412ZM56.9991 36.6441L55.4803 39.2312L59.744 41.7343L59.9952 36.7965L56.9991 36.6441ZM50.5967 32.8855L49.3623 30.1512L44.0773 32.537L49.0779 35.4727L50.5967 32.8855ZM56.9991 29.9953L59.9952 29.8435L59.7727 25.4518L55.7647 27.261L56.9991 29.9953ZM56.9992 29.9979L54.003 30.1497L59.9845 30.295L56.9992 29.9979ZM56.9995 29.9951L58.2338 27.2608L54.4277 25.5426L54.0142 29.6981L56.9995 29.9951ZM58.5183 39.231L64.9207 35.4724L61.8831 30.2982L55.4807 34.0567L58.5183 39.231ZM54.0141 36.9396L54.0144 36.9423L59.9846 36.3455L59.9843 36.3428L54.0141 36.9396ZM59.9952 36.7965L59.9953 36.7937L54.0031 36.4888L54.0029 36.4917L59.9952 36.7965ZM49.0779 35.4727L55.4803 39.2312L58.5179 34.057L52.1155 30.2984L49.0779 35.4727ZM55.7647 27.261L49.3623 30.1512L51.831 35.6198L58.2334 32.7296L55.7647 27.261ZM59.9954 29.8461L59.9952 29.8435L54.0029 30.1472L54.003 30.1497L59.9954 29.8461ZM54.0142 29.6981L54.0139 29.7009L59.9845 30.295L59.9847 30.2922L54.0142 29.6981ZM64.6362 30.151L58.2338 27.2608L55.7652 32.7294L62.1675 35.6196L64.6362 30.151Z" fill="white" mask="url(#path-11-inside-3)"/>
</g>
</svg>
