<svg width="90" height="90" viewBox="0 0 90 90" fill="none" xmlns="http://www.w3.org/2000/svg">
<g opacity="0.7">
<path fill-rule="evenodd" clip-rule="evenodd" d="M45 3.36898C22.0078 3.36898 3.36898 22.0078 3.36898 45C3.36898 67.9922 22.0078 86.631 45 86.631C67.9922 86.631 86.631 67.9922 86.631 45C86.631 22.0078 67.9922 3.36898 45 3.36898ZM0 45C0 20.1472 20.1472 0 45 0C69.8528 0 90 20.1472 90 45C90 69.8528 69.8528 90 45 90C20.1472 90 0 69.8528 0 45Z" fill="white"/>
<path d="M18.5723 18.9482V54.1919H22.663C22.1965 55.5068 21.9288 56.9149 21.9288 58.3875C21.9288 65.328 27.5753 70.9746 34.5158 70.9746C41.4563 70.9746 47.1028 65.328 47.1028 58.3875C47.1028 56.9149 46.8351 55.5068 46.3686 54.1919H50.8722L51.1391 56.3258C51.2649 57.3378 51.656 58.3045 52.2685 59.1209L53.8159 61.1844V62.5832H52.1376V70.9746H70.5986V62.5832H68.9203V61.103L69.9785 58.9867C70.3846 58.1752 70.5986 57.2673 70.5986 56.3602V49.1655V47.4788V18.9482H18.5723ZM68.9203 20.6265V25.6613H20.2505V20.6265H68.9203ZM34.5158 69.2963C28.5009 69.2963 23.6071 64.4025 23.6071 58.3875C23.6071 52.3726 28.5009 47.4788 34.5158 47.4788C40.5307 47.4788 45.4246 52.3726 45.4246 58.3875C45.4246 64.4025 40.5307 69.2963 34.5158 69.2963ZM45.6394 52.5136C43.5248 48.526 39.335 45.8005 34.5158 45.8005C29.6967 45.8005 25.506 48.526 23.3923 52.5136H20.2505V27.3396H68.9203V45.1158C68.6568 45.0218 68.3766 44.9614 68.0812 44.9614C67.7858 44.9614 67.5055 45.0218 67.242 45.1158V44.9614C67.242 43.5735 66.1126 42.444 64.7246 42.444C64.0777 42.444 63.4928 42.6966 63.0464 43.0985C62.6 42.6957 62.0151 42.444 61.3681 42.444C61.0727 42.444 60.7925 42.5044 60.529 42.5984V39.0875H64.7246C66.1126 39.0875 67.242 37.958 67.242 36.5701V31.5353C67.242 30.1473 66.1126 29.0179 64.7246 29.0179H51.2985C49.9106 29.0179 48.7811 30.1473 48.7811 31.5353V36.5701C48.7811 37.958 49.9106 39.0875 51.2985 39.0875H55.4942V47.7926C55.4438 47.7389 55.3926 47.6852 55.3398 47.6332C54.1583 46.4509 52.5866 45.8005 50.915 45.8005C49.7385 45.8005 48.7811 46.7555 48.7811 47.9277C48.7811 48.349 48.9044 48.7568 49.1386 49.1076L50.002 50.4032C50.3217 50.8823 50.5282 51.4378 50.5995 52.0093L50.6624 52.5136H45.6394ZM55.4942 34.8918V37.4092H51.2985C50.8361 37.4092 50.4594 37.0324 50.4594 36.5701V31.5353C50.4594 31.0729 50.8361 30.6961 51.2985 30.6961H64.7246C65.187 30.6961 65.5638 31.0729 65.5638 31.5353V36.5701C65.5638 37.0324 65.187 37.4092 64.7246 37.4092H60.529V34.8918C60.529 33.5039 59.3995 32.3744 58.0116 32.3744C56.6236 32.3744 55.4942 33.5039 55.4942 34.8918ZM68.9203 69.2963H53.8159V64.2615H55.8844L57.8815 64.7389L60.8764 64.2615H68.9203V69.2963ZM68.9203 56.3602C68.9203 57.0072 68.7668 57.6567 68.4772 58.2357L67.242 60.7069V62.5832H60.1816L58.1416 62.9449L56.7822 62.5832H55.4942V60.6255L53.6111 58.114C53.174 57.5316 52.8945 56.8402 52.8047 56.1177L52.2652 51.8012C52.1611 50.9721 51.8616 50.1665 51.3984 49.4726L50.5349 48.177C50.4854 48.1031 50.4594 48.0175 50.4594 47.9277C50.4594 47.676 50.6599 47.4788 50.915 47.4788C52.1385 47.4788 53.2881 47.9546 54.1524 48.8206C55.0175 49.6849 55.4933 50.8345 55.4933 52.058V55.031H57.1716V34.8918C57.1716 34.4294 57.5484 34.0527 58.0107 34.0527C58.4731 34.0527 58.8499 34.4294 58.8499 34.8918V44.9614V48.3179H60.5281V44.9614C60.5281 44.499 60.9049 44.1223 61.3673 44.1223C61.8296 44.1223 62.2064 44.499 62.2064 44.9614V48.3179H63.8847V44.9614C63.8847 44.499 64.2614 44.1223 64.7238 44.1223C65.1862 44.1223 65.5629 44.499 65.5629 44.9614V47.4788V48.3179H67.2412V47.4788C67.2412 47.0156 67.618 46.6397 68.0803 46.6397C68.5427 46.6397 68.9195 47.0156 68.9195 47.4788V49.1655L68.9203 56.3602Z" fill="white" stroke="white" stroke-width="0.6"/>
<path d="M23.606 22.3047H21.9277V23.983H23.606V22.3047Z" fill="white" stroke="white" stroke-width="0.6"/>
<path d="M26.9644 22.3047H25.2861V23.983H26.9644V22.3047Z" fill="white" stroke="white" stroke-width="0.6"/>
<path d="M30.3199 22.3047H28.6416V23.983H30.3199V22.3047Z" fill="white" stroke="white" stroke-width="0.6"/>
<path d="M42.9061 29.0166H24.4451C23.0572 29.0166 21.9277 30.1461 21.9277 31.534V41.6036C21.9277 42.9915 23.0572 44.121 24.4451 44.121H42.9061C44.294 44.121 45.4235 42.9915 45.4235 41.6036V31.534C45.4235 30.1461 44.294 29.0166 42.9061 29.0166ZM43.7452 41.6036C43.7452 42.066 43.3685 42.4427 42.9061 42.4427H24.4451C23.9828 42.4427 23.606 42.066 23.606 41.6036V31.534C23.606 31.0716 23.9828 30.6949 24.4451 30.6949H42.9061C43.3685 30.6949 43.7452 31.0716 43.7452 31.534V41.6036Z" fill="white" stroke="white" stroke-width="0.6"/>
<path d="M26.9644 32.373H25.2861V34.0513H26.9644V32.373Z" fill="white" stroke="white" stroke-width="0.6"/>
<path d="M42.0677 32.373H28.6416V34.0513H42.0677V32.373Z" fill="white" stroke="white" stroke-width="0.6"/>
<path d="M42.0688 35.7314H25.2861V37.4097H42.0688V35.7314Z" fill="white" stroke="white" stroke-width="0.6"/>
<path d="M38.8706 39.0879H25.2861V40.7662H38.8706V39.0879Z" fill="white" stroke="white" stroke-width="0.6"/>
<path d="M41.8462 39.0879H40.168V40.7662H41.8462V39.0879Z" fill="white" stroke="white" stroke-width="0.6"/>
<path d="M34.4339 52.9235C34.8465 52.9235 35.2515 52.9709 35.6434 53.0606C35.6465 53.0613 35.6496 53.0622 35.6527 53.0626C36.5865 53.2783 37.4434 53.7407 38.1391 54.418C38.4443 54.715 38.9393 54.7152 39.2441 54.418C39.5493 54.1208 39.5493 53.639 39.2441 53.3418C38.4849 52.6025 37.5773 52.0616 36.5878 51.7409V49.7082C36.5878 49.288 36.2379 48.9473 35.8064 48.9473C35.3748 48.9473 35.0249 49.288 35.0249 49.7082V51.4274C34.8293 51.4111 34.6324 51.4013 34.4339 51.4013C34.2352 51.4013 34.0383 51.4111 33.8427 51.4274V49.7082C33.8427 49.288 33.4928 48.9473 33.0612 48.9473C32.6297 48.9473 32.2798 49.288 32.2798 49.7082V51.7409C31.2903 52.0616 30.3827 52.6028 29.6238 53.3418C28.3386 54.593 27.6309 56.2567 27.6309 58.0263C27.6309 59.7959 28.3386 61.4594 29.6235 62.7107C30.3827 63.4499 31.29 63.9908 32.2796 64.3115V66.3442C32.2796 66.7645 32.6294 67.1052 33.061 67.1052C33.4926 67.1052 33.8425 66.7645 33.8425 66.3442V64.625C34.0381 64.6413 34.2352 64.6511 34.4337 64.6511C34.6322 64.6511 34.8293 64.6413 35.0247 64.625V66.3442C35.0247 66.7645 35.3746 67.1052 35.8061 67.1052C36.2377 67.1052 36.5876 66.7645 36.5876 66.3442V64.3117C37.5773 63.991 38.4849 63.4499 39.2438 62.7107C39.549 62.4137 39.549 61.9316 39.2438 61.6346C38.9386 61.3374 38.4441 61.3374 38.1389 61.6346C37.4429 62.3121 36.5856 62.7746 35.6516 62.9903C35.6492 62.9907 35.6467 62.9913 35.6443 62.9918C35.252 63.0818 34.8465 63.1292 34.4335 63.1292C34.0226 63.1292 33.6196 63.0822 33.2294 62.9933C33.2229 62.992 33.2166 62.9903 33.2102 62.9892C32.2782 62.7731 31.4227 62.311 30.7281 61.6346C29.7388 60.6706 29.1938 59.3893 29.1938 58.0263C29.1938 56.6631 29.7388 55.3818 30.7285 54.4182C31.7183 53.4544 33.0342 52.9235 34.4339 52.9235Z" fill="white" stroke="white" stroke-width="0.6"/>
</g>
</svg>
