<svg width="90" height="90" viewBox="0 0 90 90" fill="none" xmlns="http://www.w3.org/2000/svg">
<g opacity="0.7">
<path fill-rule="evenodd" clip-rule="evenodd" d="M45 3.36898C22.0078 3.36898 3.36898 22.0078 3.36898 45C3.36898 67.9922 22.0078 86.631 45 86.631C67.9922 86.631 86.631 67.9922 86.631 45C86.631 22.0078 67.9922 3.36898 45 3.36898ZM0 45C0 20.1472 20.1472 0 45 0C69.8528 0 90 20.1472 90 45C90 69.8528 69.8528 90 45 90C20.1472 90 0 69.8528 0 45Z" fill="white"/>
<path d="M68.2914 64.9642L62.4383 50.1689C62.3626 49.9773 62.216 49.8227 62.0294 49.7377C61.8427 49.6528 61.6307 49.644 61.4378 49.7133L55.0572 52.0129C54.957 52.0491 54.8651 52.1053 54.7869 52.1781C54.7088 52.2509 54.6461 52.3389 54.6025 52.4367C54.5589 52.5345 54.5354 52.6401 54.5334 52.7473C54.5313 52.8545 54.5507 52.961 54.5905 53.0604L55.0097 54.1071L52.36 54.9833C51.3745 54.5994 47.9046 53.246 46.927 52.8031C45.3688 52.095 43.9404 52.6574 42.2841 53.7256C41.1174 52.827 40.0251 52.8207 38.5453 53.6626C37.517 54.2473 35.9154 55.2215 35.1742 55.6731L33.9237 54.9634L34.4972 53.7574C34.5864 53.57 34.5994 53.3549 34.5333 53.158C34.4673 52.9612 34.3274 52.7981 34.1436 52.7036L28.4077 49.7563C28.3149 49.7086 28.2138 49.6798 28.11 49.6716C28.0062 49.6634 27.9018 49.6759 27.8029 49.7084C27.7039 49.7408 27.6122 49.7927 27.5332 49.8609C27.4541 49.9292 27.3893 50.0124 27.3422 50.106L20.2601 64.1915C20.1657 64.3793 20.1489 64.597 20.2134 64.7971C20.2779 64.9972 20.4183 65.1635 20.6041 65.2597L26.6328 68.3822C26.7268 68.4309 26.8295 68.4601 26.935 68.4682C27.0404 68.4762 27.1463 68.4628 27.2466 68.4289C27.3468 68.3949 27.4392 68.3411 27.5184 68.2706C27.5976 68.2 27.662 68.1142 27.7077 68.0182L28.1672 67.0536L28.8957 67.5554C28.7546 67.8397 28.6307 68.1323 28.5247 68.4316C28.4995 68.5112 28.4867 68.5942 28.4868 68.6778C28.4868 70.6835 30.5361 71.7923 31.4006 72.1707C31.5412 72.6145 31.7756 73.0223 32.0878 73.3661C32.3999 73.7099 32.7823 73.9815 33.2087 74.1621C33.3885 74.2155 33.575 74.2423 33.7624 74.2417C34.0508 74.2381 34.3356 74.1775 34.6008 74.0633C34.8739 74.6605 35.323 75.1586 35.8869 75.4899C36.3917 75.7601 36.973 75.8484 37.5344 75.7401C37.8813 76.3743 38.4138 76.8855 39.0594 77.2041C39.2967 77.3028 39.5509 77.3539 39.8076 77.3547C40.0748 77.3543 40.3391 77.3001 40.5851 77.1954C41.2615 76.8952 41.8437 76.4149 42.2691 75.8062C42.6646 76.1248 43.2688 76.6027 43.9411 77.1428C44.4569 77.5344 45.0885 77.7398 45.7342 77.7259C46.2763 77.7255 46.8109 77.5991 47.2964 77.3563C47.6546 77.1842 47.9733 76.9387 48.232 76.6356C48.4908 76.3325 48.6839 75.9784 48.7992 75.5959C49.4555 75.5877 50.0974 75.4009 50.6569 75.0553C51.2164 74.7096 51.6726 74.2179 51.9772 73.6324C52.1283 73.6553 52.2808 73.6672 52.4336 73.6682C53.186 73.6636 53.9194 73.4296 54.5372 72.9971C55.155 72.5645 55.6283 71.9537 55.8948 71.2451C55.9288 71.2451 55.962 71.2514 55.9968 71.2514C56.818 71.2768 57.6168 70.9794 58.2241 70.4222C58.6319 70.0459 58.91 69.5484 59.0179 69.0021C59.1259 68.4558 59.0581 67.8891 58.8245 67.3842L60.0963 66.817L60.5598 67.976C60.6374 68.1699 60.7874 68.3253 60.9777 68.4087C61.168 68.4922 61.3832 68.497 61.577 68.4221L67.8397 66.0053C67.9372 65.9675 68.0262 65.9107 68.1017 65.8381C68.1772 65.7655 68.2377 65.6785 68.2797 65.5823C68.3217 65.486 68.3443 65.3823 68.3463 65.2772C68.3483 65.1721 68.3297 65.0676 68.2914 64.9698V64.9642ZM26.6336 66.5924L22.0271 64.2027L28.3958 51.5374L32.7381 53.7678L26.6336 66.5924ZM30.075 68.8004C30.3124 68.2065 30.6176 67.6425 30.9846 67.1197C31.1321 67.0027 31.3109 66.9326 31.4981 66.9184C31.6853 66.9042 31.8725 66.9466 32.0357 67.04C32.1004 67.0595 32.1601 67.0926 32.211 67.1372C32.2619 67.1818 32.3028 67.2368 32.331 67.2985C32.3591 67.3602 32.3738 67.4273 32.3742 67.4952C32.3746 67.5632 32.3606 67.6304 32.3331 67.6924C32.031 68.6722 31.7249 69.7316 31.5185 70.4565C30.8825 70.098 30.1517 69.5173 30.075 68.8004ZM33.6627 72.6343C33.3614 72.5443 33.0664 72.0671 32.8939 71.6497C33.4813 70.6482 34.1237 69.6804 34.8183 68.7511C34.9765 68.5394 35.205 68.3922 35.462 68.3363C35.7191 68.2805 35.9876 68.3197 36.2183 68.4468C36.5347 68.6674 36.3575 69.1063 36.1534 69.4361C36.1471 69.4464 36.1471 69.4584 36.1416 69.4688C36.136 69.4791 36.1123 69.5102 36.102 69.5333C35.9628 69.8519 35.0556 71.3208 34.4141 72.3316C34.2109 72.4989 33.9 72.706 33.6627 72.6343ZM37.4039 74.1398C37.2803 74.1847 37.1487 74.2035 37.0175 74.1949C36.8863 74.1862 36.7583 74.1504 36.6415 74.0896C36.2673 73.8255 35.9948 73.44 35.8695 72.9975C36.3346 72.2599 37.3391 70.6532 37.5447 70.1872C37.6351 70.0844 37.7581 70.0163 37.8927 69.9945C38.0459 69.9677 38.203 69.9738 38.3537 70.0122C38.5044 70.0506 38.6454 70.1206 38.7675 70.2175C38.927 70.3236 39.046 70.481 39.1051 70.6641C39.1641 70.8471 39.1597 71.045 39.0926 71.2252L37.4039 74.1398ZM39.9722 75.7241C39.5624 75.8986 39.1171 75.2924 38.8648 74.8686L40.4649 72.6677C40.6333 72.6629 40.8009 72.6923 40.9577 72.7542C41.1145 72.816 41.2573 72.9091 41.3777 73.0278C41.4554 73.1799 41.5024 73.346 41.5159 73.5165C41.5295 73.687 41.5094 73.8585 41.4568 74.0211C41.1903 74.7547 40.6618 75.362 39.9745 75.7241H39.9722ZM57.1034 69.2935C56.8728 69.4653 56.6061 69.5816 56.3239 69.6333C56.0418 69.6851 55.7515 69.6711 55.4756 69.5922C55.4685 69.5922 55.4629 69.5858 55.4558 69.585C55.4487 69.5843 55.4495 69.585 55.4463 69.585C55.3713 69.5629 55.2998 69.5305 55.2336 69.4887C54.7669 69.1756 52.3284 66.8138 50.9007 65.3991C50.8281 65.3199 50.7402 65.2564 50.6424 65.2124C50.5446 65.1684 50.439 65.1448 50.3319 65.1432C50.2248 65.1415 50.1185 65.1618 50.0194 65.2027C49.9204 65.2437 49.8306 65.3045 49.7555 65.3814C49.6805 65.4583 49.6217 65.5498 49.5828 65.6503C49.5439 65.7508 49.5257 65.8582 49.5292 65.966C49.5328 66.0738 49.558 66.1797 49.6034 66.2774C49.6488 66.3751 49.7135 66.4625 49.7934 66.5342C50.4262 67.1635 53.6295 70.3251 54.358 70.8141C54.237 71.0769 54.0652 71.3128 53.8526 71.5079C53.6401 71.7031 53.3911 71.8537 53.1201 71.9508C52.8927 72.0516 52.6444 72.0954 52.3965 72.0786C52.1486 72.0618 51.9084 71.9849 51.6964 71.8544C50.6729 70.9384 47.8951 68.1425 47.8674 68.1146C47.7183 67.9695 47.5185 67.8892 47.3111 67.891C47.1037 67.8928 46.9053 67.9766 46.7587 68.1243C46.612 68.272 46.5288 68.4718 46.527 68.6806C46.5252 68.8895 46.6049 69.0907 46.749 69.2409C46.8605 69.354 49.4272 71.9365 50.5456 72.9537C50.4079 73.1976 50.2223 73.4108 50.0003 73.5803C49.7783 73.7498 49.5244 73.8722 49.254 73.9398C49.0652 74.0045 48.8649 74.0283 48.6664 74.0098C48.4678 73.9912 48.2754 73.9308 48.1015 73.8323L45.2897 71.0029L44.1705 72.1261L46.98 74.9562C47.0696 75.0428 47.1679 75.1197 47.2734 75.1857C47.2141 75.3483 47.1233 75.4975 47.0062 75.6245C46.8892 75.7516 46.7483 75.8539 46.5916 75.9257C46.3355 76.0651 46.0479 76.1353 45.7569 76.1296C45.4658 76.1239 45.1811 76.0424 44.9306 75.893C44.0985 75.2223 43.3685 74.6424 43.0086 74.358C43.1165 73.9762 43.1412 73.5753 43.081 73.1829C43.0208 72.7906 42.8771 72.4159 42.6598 72.0847C42.4253 71.7884 42.1304 71.5464 41.795 71.3748C41.4596 71.2033 41.0915 71.1064 40.7156 71.0905C40.7519 70.6652 40.6736 70.2378 40.489 69.8534C40.3045 69.4691 40.0204 69.1419 39.6668 68.9064C39.1647 68.5436 38.5559 68.3618 37.9386 68.3902C37.8387 67.8817 37.5459 67.4325 37.1224 67.138C36.6372 66.8307 36.067 66.6881 35.4955 66.7311C34.9239 66.7741 34.3811 67.0005 33.9467 67.377C33.9238 66.9993 33.7986 66.6352 33.5847 66.3242C33.3708 66.0131 33.0763 65.767 32.7334 65.6126C32.2391 65.3479 31.6701 65.2605 31.12 65.3647C30.5699 65.469 30.0713 65.7587 29.7064 66.1861L28.8593 65.6023L33.238 56.4028L34.8009 57.2894C34.9235 57.359 35.0623 57.3945 35.203 57.3921C35.3437 57.3897 35.4812 57.3496 35.6014 57.2758C35.6251 57.2615 38.0051 55.7998 39.3244 55.0494C39.9856 54.6727 40.4056 54.5484 40.8272 54.6974C39.6621 55.5879 38.8787 56.8929 38.637 58.3456C38.2882 59.7459 38.3705 60.7201 38.8933 61.4124C39.3549 61.9365 39.9865 62.2784 40.6753 62.377C40.9882 62.4427 41.3115 62.4388 41.6227 62.3656C41.9339 62.2924 42.2255 62.1516 42.4771 61.9532C43.1922 61.4254 43.6905 60.6521 43.8779 59.7794L44.7084 59.2314C47.1031 60.5723 49.5982 61.7226 52.171 62.6717C52.9074 63.3838 56.2499 66.6234 57.0694 67.5482L57.0741 67.5538C57.2026 67.6578 57.3069 67.7889 57.3795 67.9379C57.4521 68.087 57.4913 68.2502 57.4943 68.4162C57.4974 68.5822 57.4641 68.7468 57.397 68.8984C57.3298 69.05 57.2304 69.1849 57.1057 69.2935H57.1034ZM57.8563 66.0698C56.4999 64.6472 53.2688 61.5294 53.117 61.3829C53.02 61.289 52.9007 61.2218 52.7705 61.1877C50.4356 60.5712 45.1023 57.6343 45.0485 57.6032C44.9229 57.534 44.781 57.5004 44.6379 57.506C44.4949 57.5116 44.356 57.5562 44.2362 57.6351L42.7144 58.6371C42.6141 58.7031 42.5301 58.7912 42.4686 58.8947C42.407 58.9982 42.3697 59.1144 42.3592 59.2346C42.3288 59.5139 42.2421 59.784 42.1043 60.0284C41.9665 60.2727 41.7806 60.4862 41.558 60.6556C41.4827 60.7226 41.3935 60.7717 41.2968 60.7993C41.2001 60.8268 41.0986 60.8322 40.9996 60.8149C40.6873 60.7788 40.3926 60.6505 40.1525 60.4461C40.0378 60.2948 39.8883 59.8702 40.1707 58.7303C40.6927 56.6282 41.3864 56.1813 42.769 55.2996L43.1091 55.0813C44.8294 53.9661 45.5721 53.935 46.2784 54.2537C47.4553 54.7866 51.8673 56.4968 52.0523 56.5693C52.2222 56.635 52.4094 56.6398 52.5823 56.5828L55.5998 55.5863L59.5015 65.3338L57.8563 66.0698ZM61.732 66.6521L56.363 53.2333L61.2487 51.4721L66.5228 64.8041L61.732 66.6521Z" fill="white" stroke="white" stroke-width="0.6"/>
<path d="M44.604 11.1582C33.6242 11.1582 24.6914 20.0967 24.6914 31.0834C24.6914 42.0702 33.6242 51.0087 44.604 51.0087C55.5838 51.0087 64.5166 42.0702 64.5166 31.0834C64.5166 20.0967 55.5838 11.1582 44.604 11.1582ZM44.604 49.2223C34.6086 49.2223 26.4767 41.0855 26.4767 31.0834C26.4767 21.0813 34.6086 12.9446 44.604 12.9446C54.5994 12.9446 62.7313 21.0817 62.7313 31.0834C62.7313 41.0852 54.5994 49.2223 44.604 49.2223Z" fill="white" stroke="white" stroke-width="0.6"/>
<path d="M44.656 23.2936C45.2388 23.2936 45.8108 23.3623 46.3643 23.4923C46.3687 23.4933 46.3731 23.4945 46.3775 23.4952C47.6964 23.8076 48.9067 24.4774 49.8894 25.4584C50.3205 25.8886 51.0197 25.8889 51.4501 25.4584C51.8812 25.0279 51.8812 24.33 51.4501 23.8995C50.3779 22.8288 49.0959 22.0452 47.6983 21.5807V18.6364C47.6983 18.0277 47.2041 17.5342 46.5945 17.5342C45.9849 17.5342 45.4907 18.0277 45.4907 18.6364V21.1266C45.2145 21.103 44.9363 21.0888 44.656 21.0888C44.3753 21.0888 44.0971 21.103 43.8209 21.1266V18.6364C43.8209 18.0277 43.3267 17.5342 42.7171 17.5342C42.1075 17.5342 41.6133 18.0277 41.6133 18.6364V21.5807C40.2157 22.0452 38.9337 22.8291 37.8618 23.8995C36.0466 25.7119 35.0469 28.1218 35.0469 30.685C35.0469 33.2482 36.0466 35.6577 37.8615 37.4701C38.9337 38.5409 40.2153 39.3244 41.613 39.789V42.7332C41.613 43.342 42.1072 43.8355 42.7168 43.8355C43.3264 43.8355 43.8206 43.342 43.8206 42.7332V40.2431C44.0968 40.2667 44.3753 40.2809 44.6556 40.2809C44.936 40.2809 45.2145 40.2667 45.4904 40.2431V42.7332C45.4904 43.342 45.9846 43.8355 46.5942 43.8355C47.2038 43.8355 47.6979 43.342 47.6979 42.7332V39.7893C49.0959 39.3248 50.3779 38.5409 51.4498 37.4701C51.8809 37.04 51.8809 36.3418 51.4498 35.9116C51.0187 35.4811 50.3202 35.4811 49.8891 35.9116C48.9061 36.8929 47.6951 37.5627 46.3759 37.8751C46.3725 37.8758 46.369 37.8767 46.3655 37.8773C45.8115 38.0077 45.2388 38.0764 44.6553 38.0764C44.0751 38.0764 43.5058 38.0084 42.9546 37.8796C42.9454 37.8777 42.9366 37.8751 42.9275 37.8736C41.6111 37.5605 40.4027 36.8913 39.4216 35.9116C38.0242 34.5152 37.2544 32.6593 37.2544 30.685C37.2544 28.7104 38.0242 26.8545 39.4222 25.4587C40.8202 24.0627 42.679 23.2936 44.656 23.2936Z" fill="white" stroke="white" stroke-width="0.6"/>
</g>
</svg>
