<svg width="718" height="498" viewBox="0 0 718 498" fill="none" xmlns="http://www.w3.org/2000/svg">
<path d="M166.798 26.0504C169.534 26.8594 172.784 25.8885 175.862 26.0504C178.085 26.2122 180.309 26.5358 182.532 27.0212C191.938 29.1247 201.344 32.199 210.921 33.4935C224.432 35.4352 238.627 32.6845 251.111 40.613C252.992 41.9075 256.413 40.9366 258.978 41.4221C278.646 46.1145 298.655 49.8361 317.638 56.1466C331.32 60.839 342.778 71.1947 356.46 75.4017C379.206 82.3594 395.453 98.5402 415.633 108.734C428.973 115.53 441.116 124.429 454.113 132.034C472.412 142.875 489.172 154.849 498.75 174.266C501.315 179.606 506.103 184.136 510.208 188.829C514.312 193.683 518.588 198.537 523.034 203.391L530.217 195.948C522.521 189.961 516.536 181.062 511.576 172.486C490.712 136.403 459.415 111.161 421.961 91.4206C408.45 84.3011 396.308 75.0781 383.481 66.8259C381.6 65.5314 379.377 63.2661 377.496 63.4279C366.379 64.3988 361.762 54.8521 353.895 50.9687C338.674 43.5256 322.427 38.0241 306.693 31.5518C287.197 23.4614 265.99 28.3157 245.981 24.5941C221.867 20.2253 197.069 17.1509 173.981 9.86959C155.853 4.36813 138.58 2.91186 120.109 2.91186C114.295 2.91186 108.48 1.77921 102.665 0.161133H65.7246C66.9218 0.484748 68.1189 0.808363 68.974 1.45559C98.0476 22.167 134.304 17.1509 166.798 26.0504Z" fill="#F0B420" fill-opacity="0.09"/>
<path d="M333.372 104.851C319.861 99.0258 305.667 94.4952 291.814 89.641C289.078 88.6701 285.828 88.9937 282.921 88.5083C272.147 86.7284 261.372 84.9485 250.769 82.6832C245.296 81.5506 240.166 78.4762 234.693 77.1818C208.698 71.1949 182.361 68.1205 155.51 67.1497C143.026 66.6643 130.541 65.0462 118.057 62.4573C100.27 58.8975 81.2872 61.3246 62.8169 59.8684C41.2683 58.2503 19.7197 53.8815 -2 55.985V74.2692C1.07838 74.7547 3.98573 75.2401 7.06411 75.8873C20.5748 78.7998 34.2564 81.5506 47.7671 84.3013C49.9904 84.7867 52.2136 86.0812 54.4369 86.0812C69.6578 85.7576 85.0496 89.4791 100.271 83.6541C106.427 81.227 114.294 82.6832 121.306 82.6832C128.489 82.5214 135.501 82.3596 142.684 82.6832C161.496 83.6541 180.65 83.0068 198.779 86.4048C230.93 92.3917 262.569 100.967 294.379 108.734C305.325 111.323 317.296 111.809 325.163 121.517C326.018 122.65 328.07 122.812 329.952 123.135H362.617C358.512 121.032 354.237 119.09 350.132 116.986C343.975 113.912 339.7 107.602 333.372 104.851Z" fill="#F0B420" fill-opacity="0.09"/>
<path d="M248.376 15.5346C252.823 16.6673 258.124 17.9617 262.4 16.8291C282.409 11.4894 301.222 19.0944 320.034 21.8451C343.635 25.2431 365.868 35.2752 385.706 48.7052C404.518 61.3262 423.331 73.7854 442.485 85.5973C471.9 103.882 493.62 128.476 510.722 156.955C518.076 169.09 525.772 180.417 536.888 188.831L542.361 183.006C540.993 182.682 539.967 182.197 539.283 181.549C530.561 171.517 522.181 161 513.972 150.482C512.09 148.055 511.235 144.819 510.038 142.068C510.893 141.259 511.919 140.45 512.774 139.641C516.366 142.068 520.812 143.848 523.549 146.922C531.758 156.307 539.454 165.854 546.979 175.724C547.321 176.21 547.663 177.019 547.834 177.666L554.846 170.223C551.254 164.398 547.663 158.734 543.729 153.233C536.546 142.877 528.337 133.007 513.972 129.933C510.893 129.285 507.986 126.858 505.763 124.593C498.58 117.15 490.542 110.192 485.24 101.616C476.689 88.1863 461.126 83.1702 450.181 72.4909C444.024 66.504 434.789 63.4297 427.093 58.7373C410.504 48.7052 394.257 38.3495 377.839 28.1556C375.274 26.5375 372.879 24.9195 370.314 23.4632C356.461 15.8582 342.438 8.25328 328.414 0.648322C328.072 0.486515 327.73 0.486515 327.388 0.648322C323.967 1.45736 320.889 1.13375 318.153 0.324707H305.497C307.378 2.59001 308.062 5.66436 307.036 10.0332C303.958 9.70955 301.393 9.54774 298.827 9.06232C288.908 7.60605 279.16 5.17894 269.241 4.85532C255.901 4.3699 242.732 3.07544 229.906 0.324707H166.286C175.863 2.42821 185.44 4.20809 195.189 5.34074C213.317 7.60605 230.932 10.8422 248.376 15.5346Z" fill="#F0B420" fill-opacity="0.09"/>
<path d="M18.3506 3.7209C20.5739 4.04452 22.9682 4.52994 25.1915 4.20632C36.9919 2.91186 48.7924 1.45559 60.4218 0.161133H0.564453C0.735474 0.161133 0.906495 0.32294 0.906495 0.32294C6.72121 1.77921 12.5359 2.75006 18.3506 3.7209Z" fill="#F0B420" fill-opacity="0.09"/>
<path d="M239.995 107.116C233.838 103.718 226.142 102.586 218.788 101.453C210.579 100.32 202.199 100.806 193.99 99.8348C184.071 98.7021 174.152 95.466 164.232 95.3042C151.064 94.9806 137.724 98.7021 124.555 95.1424C123.358 94.8188 121.99 95.466 120.622 95.7896C98.5603 102.424 76.1565 103.071 53.9238 98.3785C38.0189 94.9806 22.798 89.6409 6.89309 86.0812C3.98573 85.5957 0.907355 84.9485 -2 84.3013V93.8479C8.94534 95.1424 19.8907 96.275 30.665 98.2167C34.2564 98.864 36.8217 103.556 39.9001 106.469C35.7956 107.44 31.5201 109.705 27.5866 109.058C17.6674 107.44 7.74819 104.689 -2 102.586V116.825C5.18288 118.119 12.3658 119.414 19.5486 120.708C21.2588 121.032 22.9691 121.032 24.6793 120.87C44.6887 119.575 64.6982 118.281 84.7076 116.825C86.5888 116.663 88.47 115.53 90.3513 115.045C95.3109 113.912 100.27 111.647 105.059 111.809C134.133 113.588 163.035 115.692 192.109 118.119C199.805 118.766 207.33 121.517 215.026 122.488C217.078 122.811 218.959 122.973 221.011 123.135H301.391C292.327 119.899 283.092 116.986 273.686 115.53C262.056 113.588 250.769 112.779 239.995 107.116Z" fill="#F0B420" fill-opacity="0.09"/>
<path d="M391.35 303.552C386.561 302.096 381.431 299.183 378.181 295.462C359.198 274.103 336.11 259.541 306.695 254.686C301.735 253.877 296.775 253.23 291.987 252.745L281.897 263.262C285.488 263.586 288.908 263.909 292.329 264.557C309.431 267.631 325.849 274.427 342.438 280.252C345.858 281.385 348.424 285.106 351.331 287.695C350.305 289.151 349.108 290.608 348.082 292.064C332.006 287.048 316.101 280.576 299.683 277.339C290.79 275.721 281.897 273.618 272.661 272.809L258.638 287.371C270.438 286.077 283.265 288.019 295.407 288.504C301.051 288.666 306.524 291.255 312.167 292.873C323.284 296.109 334.571 299.183 345.516 302.581C354.751 305.332 364.5 307.597 373.051 311.643C380.747 315.364 387.074 321.836 394.77 325.72C397.336 327.014 399.559 328.471 401.44 330.25L412.899 318.277C407.426 311.319 400.756 306.303 391.35 303.552Z" fill="#F0B420" fill-opacity="0.09"/>
<path d="M411.356 277.825C408.278 275.074 405.371 272 401.608 270.22C388.611 263.747 372.535 262.453 364.326 248.699C363.813 247.89 361.931 248.052 360.734 247.405C355.946 245.301 350.473 243.845 346.368 240.771C337.646 234.298 328.069 231.548 317.124 231.871C315.585 231.871 313.874 231.871 312.335 231.709L301.048 243.521C314.387 246.272 328.753 247.728 340.041 254.039C366.378 268.925 391.347 286.239 416.316 303.228C418.539 304.847 420.762 306.465 422.815 308.244L433.247 297.403C433.076 297.08 432.734 296.918 432.563 296.594C425.722 289.96 418.368 283.973 411.356 277.825Z" fill="#F0B420" fill-opacity="0.09"/>
<path d="M499.946 188.507C486.778 167.31 469.334 150.806 446.246 138.67C420.251 124.917 395.966 108.736 370.826 93.5259C369.457 92.7168 367.747 92.2314 366.379 91.5842C357.657 87.3772 349.106 83.1702 340.384 78.9632C331.32 74.4326 322.598 68.6075 312.85 65.695C295.405 60.5171 277.448 57.281 259.662 53.074C250.94 51.1323 242.389 48.7052 233.667 47.0871C226.313 45.7926 218.617 45.9544 211.092 44.8218C194.674 42.2329 178.427 38.9967 162.18 36.0842C159.957 35.5987 157.391 35.5987 155.51 34.4661C145.078 28.3174 133.791 28.3174 121.99 29.7737C117.886 30.2591 113.61 28.641 109.506 28.641C93.9427 28.4792 78.0378 18.6089 64.5271 28.9646C57.6863 26.6993 51.8716 24.1104 45.7148 22.9778C39.7291 21.8451 33.5723 22.0069 27.5866 21.5215C20.5748 20.8743 13.3919 20.0652 6.38002 19.418C3.64369 19.2562 0.907356 18.9326 -2 18.7708V32.3626C0.736335 33.6571 3.47267 35.4369 5.86696 37.864C6.03798 38.0259 6.55105 37.864 6.89309 37.864C16.9833 38.3495 27.0736 38.9967 37.3348 39.1585C47.254 39.4821 58.3704 34.7897 65.5533 45.9544C66.0663 46.7635 68.6316 46.4399 70.3418 46.7635C75.6435 47.7343 80.7741 48.867 86.0758 49.8378C91.0354 50.6469 95.995 51.6177 100.955 51.9413C114.636 52.9122 128.318 53.7212 142 54.692C144.565 54.8539 147.301 56.3101 149.867 56.3101C164.916 56.4719 180.65 54.2066 195.016 57.1192C211.776 60.3553 228.536 62.7824 245.125 66.3422C262.398 70.0638 279.329 74.7562 296.089 79.6104C315.073 85.1119 335.595 87.8626 348.935 104.205C349.619 105.176 351.329 105.338 352.526 105.823C363.643 111.648 374.759 117.473 385.704 123.298H415.804L405.714 133.816C422.645 142.715 439.747 151.777 456.678 160.838C458.73 161.809 460.099 163.912 461.809 165.368C465.913 168.928 470.018 172.812 474.464 176.048C483.87 183.005 490.198 191.581 492.763 202.908C485.068 200.157 478.569 196.436 472.412 192.067C458.388 182.035 444.536 171.841 430.683 161.485C426.407 158.411 422.474 154.851 418.369 151.615C415.804 149.673 413.239 147.408 410.331 146.113C406.569 144.333 402.807 142.554 399.215 140.774L388.099 152.424C397.847 158.249 407.424 163.912 417.172 169.737C420.251 171.679 423.671 173.135 426.749 175.239C434.616 180.255 443.68 184.462 450.008 190.934C464.887 206.306 483.699 214.72 503.88 221.03C504.564 221.192 505.077 221.354 505.761 221.678L516.022 210.998C515.509 210.027 514.996 209.057 514.654 207.924C511.747 200.643 504.222 195.303 499.946 188.507Z" fill="#F0B420" fill-opacity="0.09"/>
<path d="M429.828 234.783C409.99 222.81 389.98 210.674 369.971 198.862C364.327 195.464 358.512 192.066 352.527 189.315L339.7 202.745C351.159 206.629 362.617 210.674 374.075 214.557C382.284 217.308 391.691 218.279 398.531 222.971C406.398 228.473 411.529 237.372 418.541 244.006C429.999 254.848 441.971 265.203 453.771 275.721L462.151 266.983C452.916 257.113 442.997 247.89 433.42 238.181C432.223 237.049 431.196 235.754 429.828 234.783Z" fill="#F0B420" fill-opacity="0.09"/>
<path d="M402.807 242.549C393.914 233.973 384.679 230.899 373.563 227.987C365.182 225.883 357.487 221.191 349.449 218.116C343.463 215.851 337.477 213.262 331.32 211.482L321.743 221.352C338.845 224.427 354.921 229.119 368.774 240.608C369.8 241.417 371.168 241.902 372.365 242.226C388.612 245.947 400.413 256.141 411.7 266.82C417.686 272.484 422.303 279.441 432.223 279.28C433.933 279.28 435.985 281.707 437.353 283.325C438.721 284.943 440.09 286.399 441.629 288.017L446.075 283.325C443.852 281.383 441.8 279.603 439.748 277.5C427.605 265.85 415.121 254.199 402.807 242.549Z" fill="#F0B420" fill-opacity="0.09"/>
<path d="M489.171 229.928C490.026 232.193 490.71 234.297 491.565 236.238L498.919 228.472C496.012 228.31 492.762 228.795 489.171 229.928Z" fill="#F0B420" fill-opacity="0.09"/>
<path d="M462.151 221.839C460.612 221.192 459.073 220.059 458.389 218.765C452.232 208.086 445.22 198.377 432.393 194.008C430.854 193.523 430.341 190.772 428.973 189.478C419.567 181.549 411.187 170.223 400.07 166.663C393.401 164.559 387.586 161.485 381.942 158.411L374.417 166.177C380.916 169.737 387.415 173.297 393.572 177.504C405.543 185.594 416.659 194.979 427.947 204.202C429.657 205.497 430.17 208.086 431.367 210.027C426.579 209.38 423.158 207.6 420.08 205.335C412.213 199.833 404.859 193.361 396.479 188.669C386.902 183.491 376.812 179.122 366.721 174.591L359.025 182.682C367.063 186.889 374.93 191.419 382.968 195.95C400.583 205.982 418.028 216.014 435.301 226.208C437.182 227.341 438.55 229.444 440.089 231.062C446.93 238.829 452.916 247.728 460.783 254.363C463.348 256.466 465.742 258.731 468.137 260.997L484.384 244.007C478.911 234.784 473.267 226.208 462.151 221.839ZM460.099 231.224C463.519 236.078 466.94 240.771 470.36 245.625C461.296 244.492 456.507 240.609 460.099 231.224Z" fill="#F0B420" fill-opacity="0.09"/>
<path d="M383.31 335.428C377.837 331.706 372.365 327.661 366.379 324.91C350.987 317.791 335.937 310.833 318.835 306.788C304.812 303.39 290.275 298.212 276.251 298.374C266.503 298.536 256.584 299.021 246.835 299.83L233.838 313.422C249.23 310.509 264.964 312.775 280.356 314.231C288.223 315.04 295.576 316.82 303.785 315.849C308.403 315.202 313.876 316.496 318.322 318.276C325.505 321.189 332.004 326.205 339.358 328.47C348.764 331.221 354.921 335.104 355.947 345.136C356.289 348.858 359.025 352.741 361.762 355.816C364.156 358.566 366.721 361.155 369.286 363.906L390.664 341.738C388.441 339.473 386.046 337.369 383.31 335.428ZM375.272 355.654C371.168 348.211 368.431 343.356 365.695 338.34C366.55 337.855 367.576 337.531 368.431 337.046C374.075 340.767 376.982 345.783 375.272 355.654Z" fill="#F0B420" fill-opacity="0.09"/>
<path d="M329.608 342.225C324.135 337.209 316.781 331.707 309.77 331.222C291.47 329.765 274.368 322.808 254.872 324.749C241.019 326.206 228.022 328.309 215.708 332.354L188.516 360.671C194.331 357.435 200.316 354.522 206.131 351.771C225.114 343.034 246.15 340.121 267.185 338.179C271.461 337.856 276.25 337.532 280.012 335.752C290.273 330.898 299.166 333.487 307.375 339.797C309.257 341.254 311.309 344.814 310.796 346.593C310.112 348.535 306.52 350.639 304.126 350.8C287.708 351.933 270.948 351.286 254.872 354.037C237.599 356.949 219.984 361.156 204.421 368.437C186.293 376.851 170.217 388.987 153.457 399.828C150.549 401.608 148.497 405.168 146.958 408.242C142.511 417.142 136.354 423.776 126.948 428.953C120.792 432.513 117.029 440.442 113.267 447.076C105.571 460.021 98.3878 473.289 91.2049 486.395C88.6396 491.249 86.2453 496.104 83.851 500.958C77.5233 514.064 71.1955 527.171 65.0387 540.439C63.4995 543.675 62.6444 547.073 61.6183 550.471C57.3428 566.328 52.8962 582.185 49.3048 598.042C47.4236 606.295 46.5685 614.709 46.2264 623.123C45.8844 632.184 42.464 639.142 34.426 643.834C33.2288 643.672 32.0317 643.349 30.8345 643.187C31.1766 639.789 31.3476 636.229 32.2027 632.831C32.8868 630.08 35.2811 627.815 35.7941 625.064C39.7276 601.279 43.3191 577.493 47.5946 553.707C48.4497 549.015 53.2383 544.97 54.9485 540.277C57.1718 534.614 58.0269 528.465 59.5661 522.64C59.7371 521.669 59.5661 520.698 59.9081 519.889C65.8938 508.886 71.7085 498.045 77.8653 487.204C82.3118 479.276 87.9555 471.994 91.889 463.742C92.5731 462.448 93.2572 461.153 93.9413 459.859L48.6207 507.107C42.1219 519.08 35.9652 531.378 31.8607 543.999C28.0982 555.487 25.3619 567.461 21.2574 578.949C17.6659 588.981 16.6398 600.308 17.3239 610.825C18.521 628.948 13.2194 647.879 23.9937 665.031C25.3619 667.296 25.3619 670.694 24.8488 673.445C24.5068 676.196 24.3357 678.784 24.1647 681.535H43.148C43.148 680.564 43.3191 679.755 43.3191 678.784C43.6611 673.768 41.6089 668.105 43.3191 663.736C47.7656 652.41 53.7513 641.73 58.711 630.728C59.9081 628.139 60.2501 625.226 60.4212 622.314C61.7893 599.661 64.6967 577.007 73.7608 555.972C83.68 532.834 93.2572 509.372 106.084 487.69C117.884 467.787 134.473 450.474 147.471 431.057C157.561 415.847 170.73 404.521 186.635 395.297C198.264 388.663 209.038 380.735 220.668 374.101C225.114 371.674 231.1 371.512 236.231 370.056C244.611 367.79 253.162 365.525 261.542 363.26C263.423 362.774 265.304 362.289 267.356 362.127C283.432 360.994 299.508 359.7 315.755 359.053C319.176 358.891 323.451 360.023 326.188 362.127C335.594 369.408 342.264 377.984 346.881 387.045L360.221 373.13C350.644 362.451 340.382 351.933 329.608 342.225Z" fill="#F0B420" fill-opacity="0.09"/>
<path d="M268.213 437.853C268.042 434.94 266.674 430.248 264.792 429.763C261.885 428.792 257.78 430.572 254.189 431.219C255.215 432.028 256.241 432.837 257.267 433.808C255.899 439.147 255.728 444.972 252.992 449.665C245.638 462.771 236.061 474.907 229.391 488.337C217.933 511.637 205.106 533.967 186.123 552.574C185.097 553.707 184.583 555.325 183.899 556.943L254.531 483.321C255.386 481.865 256.241 480.57 257.267 479.114C265.818 466.493 269.068 452.577 268.213 437.853Z" fill="#F0B420" fill-opacity="0.09"/>
<path d="M311.311 376.69C292.328 376.69 275.397 368.114 254.19 374.586C221.012 384.78 193.478 402.094 167.996 422.643C150.381 436.882 135.502 454.519 124.898 474.098C109.165 503.385 94.9698 533.481 80.4331 563.254C78.8939 566.328 78.5518 570.05 77.6967 573.448C72.3951 596.748 73.2502 620.696 63.331 643.672C58.5424 654.999 57.6873 668.591 58.5424 681.374H64.6991L77.5257 667.944C77.1837 650.145 84.7086 632.993 86.4188 615.194C87.1029 608.398 87.6159 601.602 88.3 594.807C89.3261 583.318 79.0649 568.917 97.3641 561.636C97.7062 561.474 97.7062 561.151 97.8772 560.827C104.205 547.559 110.191 534.29 116.689 521.346C119.939 515.035 123.872 509.049 127.464 502.9C130.029 498.207 132.936 493.515 134.647 488.499C138.922 475.878 143.027 463.095 154.656 454.681C158.077 452.092 162.865 451.121 167.141 449.342C167.996 450.312 168.68 451.283 169.535 452.254C166.97 456.137 165.259 460.992 161.668 463.904C144.395 478.143 139.606 499.178 129.174 517.139C118.229 536.07 109.507 556.296 99.2454 575.713C94.9698 583.642 93.4306 591.085 99.7584 598.043C104.376 603.221 104.376 608.075 102.495 613.9C99.5874 623.285 95.4829 632.669 94.4568 642.378C94.1147 645.29 93.9437 648.365 93.7727 651.277L117.716 626.359C119.255 621.505 121.307 616.812 124.385 612.444C125.925 610.34 127.122 607.751 127.464 605.324C130.029 578.788 150.552 558.723 156.879 533.481C157.392 531.54 161.155 530.245 163.378 528.627C164.404 529.274 165.259 529.922 166.286 530.407C164.233 538.659 162.865 547.073 159.787 555.002C153.459 571.021 146.789 587.04 140.119 603.059L165.43 576.684C170.219 566.005 175.179 555.487 180.138 544.97C182.019 541.086 186.466 538.497 189.202 534.776C194.333 528.142 199.464 521.508 203.91 514.388C214 498.369 224.091 482.35 233.668 466.008C237.43 459.535 240.167 452.578 243.416 445.782C225.459 453.71 222.38 471.186 210.751 483.321C200.49 494 190.057 507.43 188.689 523.935C188.518 525.877 183.559 527.495 180.822 529.113C180.138 526.362 177.915 522.964 178.941 520.86C183.559 510.99 187.663 500.796 194.162 492.059C211.777 468.597 229.734 445.296 248.889 423.129C254.532 416.495 264.965 413.42 273.516 409.213C275.055 408.404 278.133 409.537 280.014 410.508C288.223 414.876 290.96 422.967 287.026 432.028C283.093 441.251 280.356 451.121 276.765 460.506L298.656 437.691C300.195 433.97 301.563 430.248 302.76 426.365C303.786 422.643 301.905 417.465 299.853 413.582C289.25 393.032 264.965 390.12 247.691 407.272C236.746 417.951 224.604 427.983 215.54 439.957C196.556 465.199 171.758 487.043 160.471 517.139C159.445 520.051 157.05 522.64 154.656 524.906C143.027 535.261 134.989 547.397 131.055 562.445C128.661 571.83 123.53 580.567 119.084 589.467C118.229 591.247 114.637 591.894 112.414 593.027C111.388 592.218 110.191 591.57 109.165 590.761C113.611 580.244 117.032 569.241 122.675 559.371C138.409 531.863 154.656 504.68 171.587 477.658C175.179 471.995 179.283 467.949 175.521 460.668C174.324 458.241 176.376 454.196 177.231 450.96C182.19 432.675 197.924 421.672 209.896 408.081C211.093 406.624 214.171 405.168 215.54 405.815C217.079 406.462 219.131 409.86 218.447 410.993C215.711 415.847 213.316 422.32 208.699 424.585C198.437 429.763 195.359 439.471 189.544 447.4C188.176 449.18 188.518 452.254 187.492 457.27C191.768 453.548 193.649 452.416 195.017 450.636C208.699 434.455 222.551 418.436 235.72 401.77C251.796 381.544 284.119 376.69 305.668 391.9C315.245 398.534 319.349 408.404 317.126 418.274L329.782 405.006C329.439 403.388 329.268 401.77 329.268 400.152C329.439 387.855 316.1 385.427 311.311 376.69Z" fill="#F0B420" fill-opacity="0.09"/>
<path d="M677.807 33.9789C678.663 35.7588 679.518 37.5387 680.202 39.4804L701.066 17.96C700.895 17.7982 700.895 17.4746 700.724 17.3127C700.04 16.0183 699.185 14.562 698.501 12.9439C696.962 9.54598 695.252 6.14802 692.686 3.23548C691.831 2.26463 690.976 1.29379 690.292 0.161133H659.679C662.929 4.20632 666.007 8.73694 668.743 14.2384C671.822 20.7107 674.9 27.5066 677.807 33.9789Z" fill="#F0B420" fill-opacity="0.09"/>
<path d="M643.263 70.2238C644.46 71.5183 645.486 73.1364 646.512 74.9163L658.484 62.2953C648.394 53.8813 638.816 43.3638 628.897 30.2574C621.201 20.2253 613.334 10.0314 605.638 0.161133H582.893C583.577 0.808363 584.261 1.6174 584.945 2.26463C606.493 27.3448 625.648 49.5125 643.263 70.2238Z" fill="#F0B420" fill-opacity="0.09"/>
<path d="M664.471 55.9865L678.665 41.262C676.271 37.7023 673.706 34.1425 671.483 30.7445C664.471 20.3889 657.288 9.87136 648.566 0.324707H643.777H615.388C620.176 5.66436 624.965 11.004 629.582 16.3437C641.041 29.1265 653.012 42.5565 664.471 55.9865Z" fill="#F0B420" fill-opacity="0.09"/>
<path d="M503.538 12.621C518.074 24.2711 532.44 36.4067 546.293 48.0569C551.423 52.2639 556.383 56.6327 561.514 60.8397C562.369 61.6487 563.224 62.6195 564.079 63.5904C564.592 64.2376 565.276 64.8848 565.789 65.5321C567.499 67.4738 569.381 69.2537 571.091 71.1954C573.998 74.2697 576.905 77.344 579.642 80.4184C583.404 84.4636 587.167 88.5088 590.929 92.5539C597.086 99.1881 603.414 105.984 609.57 112.942L624.62 97.2464C619.148 88.5088 611.11 78.3149 597.599 72.1662C594.521 70.7099 591.784 67.6356 589.048 64.5612L588.535 63.914C585.457 60.3542 582.378 56.309 579.642 52.5875C573.656 44.6589 567.328 36.2449 559.119 30.4198C552.107 25.4038 545.438 19.4169 539.11 13.5918C533.979 9.06123 528.849 4.36881 523.376 0H488.488H487.975C492.592 3.72158 497.21 7.28134 501.827 11.0029L503.538 12.621Z" fill="#F0B420" fill-opacity="0.09"/>
<path d="M555.699 14.562C559.803 22.0052 563.908 29.6101 569.894 35.7588C572.972 38.8332 575.879 41.9075 578.958 44.9818C594.863 61.1626 611.281 77.9906 629.067 92.8769L643.604 77.667C639.67 73.2982 635.395 69.0912 629.922 65.855C628.383 65.046 627.186 63.2661 625.647 61.4862C625.133 60.839 624.62 60.03 623.936 59.3827C622.226 57.441 620.858 55.1757 619.49 52.7486C615.556 46.4381 611.11 39.3186 600.848 37.7005C600.848 37.5387 600.677 37.5387 600.677 37.3769C600.506 37.2151 600.335 36.8915 600.335 36.7297C591.1 24.5941 581.865 12.4585 572.63 0.161133H546.464C548.345 2.26463 550.226 4.85355 552.108 8.08971C553.305 10.1932 554.502 12.2967 555.699 14.562Z" fill="#F0B420" fill-opacity="0.09"/>
<path d="M394.768 16.9891C397.333 18.2836 399.557 20.5489 401.78 23.1378C404.003 25.5649 406.397 27.992 409.134 29.7719C413.238 32.3609 417.856 34.6262 422.302 36.8915C429.314 40.4512 435.984 43.6874 440.944 48.3798C446.587 53.7195 453.257 58.2501 459.585 62.6189C471.556 70.7093 482.673 78.476 488.658 91.4206C490.369 95.1422 493.96 97.7311 497.381 100.32C498.92 101.453 500.459 102.585 501.656 103.718C509.523 110.838 517.219 118.119 525.086 125.4L532.953 132.682C533.466 133.005 533.808 133.491 534.15 133.976C534.663 134.461 535.176 134.947 535.689 135.432C538.255 137.698 540.991 139.963 543.556 142.066C549.2 146.597 554.502 150.804 557.922 156.144C559.29 158.409 560.658 160.512 562.026 162.778L575.879 148.377C569.722 140.934 563.737 133.491 557.58 126.371C551.765 119.413 545.95 112.456 540.136 105.336C538.939 103.88 537.399 102.909 536.031 101.938C535.689 101.615 535.176 101.453 534.834 101.129C531.414 98.702 528.164 96.4367 524.744 94.0096C517.048 88.6699 509.01 83.0066 501.656 77.1816C498.92 74.9163 496.525 72.1655 494.131 69.0912C492.25 66.8259 490.369 64.3988 488.145 62.2953C484.725 58.8973 481.134 55.823 477.542 52.7486C474.464 50.1597 471.385 47.409 468.307 44.4964C465.4 41.7457 462.663 38.8332 459.927 36.0824C455.822 31.8754 451.718 27.5066 447.1 23.6232C440.089 17.6364 432.564 11.9731 425.21 6.47163C422.473 4.36813 419.737 2.26463 417.001 0.161133H357.314C358.854 0.808363 360.393 1.45559 361.761 2.10282C373.048 6.79525 384.165 11.4877 394.768 16.9891Z" fill="#F0B420" fill-opacity="0.09"/>
<path d="M505.588 66.0186C512.6 73.1381 519.954 80.4195 527.308 87.539C529.702 89.8043 532.61 91.0988 535.517 92.5551C536.714 93.0405 537.911 93.6877 538.937 94.1731L541.674 95.6294L547.318 87.7008L545.094 85.7591C543.042 83.9792 541.161 82.1994 539.109 80.5813C534.662 76.6979 529.873 72.4909 525.427 68.4457L523.375 66.504C518.928 62.4588 514.139 58.09 510.377 53.5594C509.693 52.5886 509.18 50.9705 508.838 49.3524C510.89 50.6469 512.771 51.9413 514.482 53.3976C519.783 58.2518 525.085 63.2679 530.215 68.2839C536.543 74.4326 543.213 80.7431 549.883 86.73C553.132 89.6425 554.671 91.5842 554.5 92.3932C554.5 92.3932 554.158 93.8495 548.686 95.953L544.239 97.5711L552.961 107.118C556.382 111.001 559.46 114.399 562.538 117.635C569.55 125.24 576.562 133.007 583.232 140.774L601.531 121.68C595.203 114.561 588.534 106.632 580.667 97.0857C577.246 92.8787 573.826 88.5099 570.576 84.1411C567.669 80.2577 564.591 76.3743 561.512 72.4909C558.263 68.4457 554.671 64.5623 550.567 60.679C547.831 58.09 545.094 55.3393 542.529 52.5886C535.517 45.6308 528.334 38.3495 520.125 32.5244C504.391 21.3597 488.486 10.6804 472.752 0.324707H428.458C440.772 8.5769 453.085 17.3145 464.372 26.6993C478.567 38.8349 492.249 52.5886 505.588 66.0186Z" fill="#F0B420" fill-opacity="0.09"/>
<path d="M717.999 0.161133H704.66C706.199 3.07367 707.909 6.14802 709.448 9.06055L717.999 0.161133Z" fill="#F0B420" fill-opacity="0.09"/>
</svg>
