<svg width="85" height="80" viewBox="0 0 85 80" fill="none" xmlns="http://www.w3.org/2000/svg">
<g clip-path="url(#clip0)">
<path d="M75.991 61.59H79.4192C79.7716 61.59 80.1095 61.731 80.3587 61.9821C80.6079 62.2332 80.7479 62.5738 80.7479 62.9289C80.7479 63.284 80.6079 63.6245 80.3587 63.8756C80.1095 64.1267 79.7716 64.2678 79.4192 64.2678H75.991C75.6386 64.2678 75.3006 64.1267 75.0514 63.8756C74.8022 63.6245 74.6622 63.284 74.6622 62.9289C74.6622 62.5738 74.8022 62.2332 75.0514 61.9821C75.3006 61.731 75.6386 61.59 75.991 61.59ZM46.8648 78.9958H80.5885C81.1718 78.9993 81.75 78.8866 82.2899 78.6641C82.8298 78.4417 83.3207 78.1138 83.7344 77.6994C84.1481 77.2851 84.4764 76.7924 84.7004 76.2497C84.9245 75.707 85.0398 75.125 85.0398 74.5372V54.3866C85.0431 53.5492 84.8117 52.7279 84.3721 52.0173C83.9325 51.3067 83.3026 50.7356 82.555 50.3699C82.3982 50.2896 82.2271 50.2415 82.0517 50.2284C81.8763 50.2153 81.7 50.2374 81.5332 50.2935C81.3663 50.3495 81.2121 50.4384 81.0796 50.5549C80.9471 50.6715 80.8389 50.8134 80.7612 50.9724C80.6729 51.156 80.6275 51.3575 80.6283 51.5615C80.6143 51.8065 80.674 52.0501 80.7997 52.2603C80.9253 52.4706 81.1111 52.6377 81.3326 52.7397C81.6429 52.8805 81.9067 53.1079 82.0927 53.395C82.2787 53.6821 82.3792 54.0169 82.3823 54.3598V68.2845H52.1267C51.7743 68.2845 51.4363 68.4256 51.1871 68.6767C50.9379 68.9278 50.7979 69.2683 50.7979 69.6234C50.7979 69.9785 50.9379 70.3191 51.1871 70.5702C51.4363 70.8213 51.7743 70.9623 52.1267 70.9623H82.3823V74.5372C82.3805 74.774 82.3323 75.008 82.2404 75.2259C82.1485 75.4438 82.0147 75.6412 81.8467 75.8068C81.6787 75.9723 81.4799 76.1027 81.2617 76.1904C81.0434 76.2782 80.8101 76.3215 80.5752 76.318H46.8914C46.4309 76.3074 45.9929 76.1148 45.6722 75.7816C45.3515 75.4484 45.1737 75.0014 45.1773 74.5372V53.9715C45.1806 53.5143 45.3596 53.076 45.6767 52.749C45.9939 52.4219 46.4245 52.2314 46.8781 52.2176H67.3807C67.7331 52.2176 68.0711 52.0765 68.3203 51.8254C68.5695 51.5743 68.7095 51.2338 68.7095 50.8787C68.7095 50.5236 68.5695 50.183 68.3203 49.9319C68.0711 49.6808 67.7331 49.5397 67.3807 49.5397H46.9047C45.7333 49.5643 44.6181 50.0505 43.7983 50.894C42.9786 51.7375 42.5196 52.8713 42.5198 54.0519V74.564C42.5163 75.7312 42.9712 76.8525 43.7853 77.6828C44.5994 78.5132 45.7065 78.9852 46.8648 78.9958ZM50.6916 40.7431C50.773 41.0472 50.918 41.3302 51.1168 41.5732C52.2875 42.7338 53.2456 44.0936 53.9471 45.59C54.0986 45.9628 54.3559 46.2824 54.6868 46.5086C55.0177 46.7349 55.4075 46.8578 55.8073 46.8619C56.0156 46.8548 56.2194 46.7984 56.4021 46.6973C56.5848 46.5962 56.7413 46.4532 56.8591 46.2798C56.9768 46.1065 57.0523 45.9077 57.0797 45.6994C57.107 45.4912 57.0854 45.2794 57.0165 45.0812C56.2353 43.1466 55.1095 41.3723 53.6946 39.846C53.3663 39.4056 52.8968 39.0933 52.3659 38.9623C52.1363 38.9518 51.9072 38.9909 51.694 39.0772C51.4807 39.1634 51.2883 39.2946 51.1296 39.4621C50.971 39.6296 50.8498 39.8294 50.7742 40.0481C50.6987 40.2667 50.6705 40.4992 50.6916 40.7297V40.7431ZM37.3111 39.5381C39.8578 40.5297 42.6795 40.5305 45.2267 39.5405C47.7739 38.5504 49.8642 36.6404 51.0903 34.1824C51.7929 32.6883 52.1508 31.0533 52.137 29.4C52.1232 27.7467 51.7381 26.1179 51.0105 24.636C50.0896 22.8888 48.7221 21.4213 47.0494 20.3856C45.3767 19.3498 43.4596 18.7833 41.4967 18.7448H41.3638C38.8932 18.7685 36.5062 19.6502 34.6057 21.2411C32.7051 22.8321 31.4073 25.0348 30.9312 27.4778C30.455 29.9209 30.8297 32.4546 31.9919 34.6516C33.1542 36.8487 35.0329 38.5745 37.3111 39.5381ZM33.9228 28.01C34.3129 26.2954 35.2562 24.7594 36.605 23.6425C37.9539 22.5256 39.6321 21.8909 41.3771 21.8377H41.5764C43.3234 21.9096 44.9968 22.566 46.3323 23.7032C47.6677 24.8404 48.5892 26.3935 48.951 28.1172C49.2402 29.8642 48.9423 31.6585 48.1047 33.2156C47.267 34.7728 45.9375 36.0036 44.3269 36.713C43.0426 37.2445 41.639 37.414 40.2664 37.2033C38.8938 36.9926 37.6039 36.4096 36.5349 35.5168C35.466 34.624 34.6582 33.455 34.198 32.135C33.7379 30.815 33.6428 29.3937 33.9228 28.0234V28.01ZM38.3609 57.5732C38.3614 57.1245 38.2 56.6909 37.9065 56.3534C37.6131 56.0159 37.2079 55.7974 36.7664 55.7389C34.463 55.5033 32.2162 54.8739 30.1226 53.8778C28.8869 53.2619 27.5714 52.4184 27.5847 51.133C27.6649 47.6444 29.0178 44.3078 31.3849 41.7607C31.669 41.5255 31.8739 41.2075 31.9715 40.8503C32.069 40.4931 32.0544 40.1142 31.9297 39.7657C31.7971 39.5381 31.6116 39.3463 31.3893 39.2067C31.167 39.067 30.9144 38.9838 30.6532 38.9641C30.3919 38.9443 30.1299 38.9887 29.8894 39.0933C29.6489 39.1979 29.4371 39.3597 29.2722 39.5648C26.2766 42.7006 24.5884 46.8744 24.5552 51.2268C24.5928 52.0676 24.8265 52.8877 25.2375 53.6204C25.6484 54.3532 26.2249 54.9781 26.9203 55.4443C29.8303 57.6669 33.4179 58.3766 36.9258 58.805C37.1069 58.816 37.2883 58.7895 37.4588 58.7271C37.6293 58.6648 37.7854 58.5679 37.9174 58.4424C38.0493 58.317 38.1544 58.1657 38.2261 57.9977C38.2978 57.8298 38.3346 57.6489 38.3343 57.4661L38.3609 57.5732ZM82.3823 38.9757C82.3168 38.7925 82.2052 38.6295 82.0585 38.5028C81.9118 38.3761 81.7349 38.2899 81.5452 38.2527L76.2966 37.2619C75.4576 28.965 71.7407 21.2323 65.8003 15.4252C59.8598 9.61804 52.0767 6.10881 43.8211 5.5153C35.5655 4.92179 27.3668 7.28205 20.6683 12.1805C13.9699 17.079 9.20116 24.2017 7.20172 32.2946C7.16769 32.4352 7.1615 32.5813 7.18348 32.7243C7.20546 32.8674 7.2552 33.0047 7.32985 33.1284C7.4045 33.2521 7.5026 33.3598 7.61854 33.4453C7.73449 33.5308 7.86602 33.5925 8.00561 33.6268C8.14521 33.6611 8.29014 33.6673 8.43213 33.6452C8.57412 33.623 8.71039 33.5729 8.83316 33.4977C8.95592 33.4224 9.06279 33.3236 9.14764 33.2068C9.2325 33.0899 9.29369 32.9574 9.32772 32.8167C11.1711 25.2606 15.5883 18.5963 21.8091 13.9862C28.0298 9.37609 35.6592 7.11271 43.3666 7.59084C51.074 8.06896 58.3702 11.2583 63.9828 16.6024C69.5953 21.9466 73.168 29.1066 74.0776 36.8335L71.6194 36.3648C71.4232 36.3197 71.2183 36.3308 71.028 36.3971C70.8378 36.4634 70.6698 36.5821 70.5431 36.7397C70.412 36.8915 70.3242 37.0762 70.2891 37.2743C70.254 37.4724 70.2729 37.6763 70.3438 37.8644L73.679 47.4912C73.7433 47.6751 73.8545 47.8388 74.0014 47.9657C74.1484 48.0926 74.3259 48.1783 74.5161 48.2142H74.8084C75.0967 48.1857 75.3631 48.0467 75.5525 47.8259L82.1963 40.087C82.324 39.936 82.4088 39.7529 82.4416 39.5573C82.4743 39.3616 82.4538 39.1606 82.3823 38.9757ZM79.2331 40.1674L75.1007 44.9473L73.081 38.8954L79.2331 40.1674ZM38.3609 74.9791C38.3404 74.7099 38.2268 74.4565 38.0398 74.2631C37.8528 74.0698 37.6043 73.9488 37.3377 73.9213C35.2893 73.6686 33.2694 73.2203 31.3052 72.5824C25.5749 70.7726 20.4438 67.4205 16.4654 62.8878C12.4869 58.3552 9.81223 52.8139 8.72978 46.8619L10.8558 47.2636C10.9483 47.2768 11.0423 47.2768 11.1348 47.2636C11.2797 47.2584 11.4221 47.2245 11.5539 47.1638C11.6858 47.1031 11.8045 47.0168 11.9032 46.9099C12.0019 46.803 12.0788 46.6775 12.1293 46.5406C12.1799 46.4037 12.2031 46.2581 12.1978 46.1121C12.2106 46.0054 12.2106 45.8975 12.1978 45.7908L8.79622 36.1506C8.72819 35.9741 8.61701 35.8177 8.47299 35.696C8.32897 35.5742 8.15678 35.4912 7.97239 35.4544C7.77613 35.4166 7.57346 35.4313 7.3846 35.4971C7.19575 35.5629 7.02732 35.6774 6.89611 35.8293L0.252368 43.5548C0.116347 43.7036 0.0243522 43.8878 -0.0132175 44.0866C-0.0507872 44.2853 -0.0324336 44.4907 0.0397686 44.6795C0.104078 44.8634 0.215288 45.0271 0.362226 45.154C0.509165 45.2809 0.686659 45.3666 0.87688 45.4025L6.40447 46.4602C7.61728 54.1131 11.286 61.1544 16.8489 66.5059C22.4118 71.8574 29.5621 75.2241 37.2048 76.0904C37.3595 76.1069 37.5159 76.0887 37.6628 76.0368C37.8096 75.985 37.9431 75.901 38.0538 75.7908C38.1644 75.6806 38.2493 75.547 38.3025 75.3997C38.3556 75.2523 38.3755 75.095 38.3609 74.9389V74.9791ZM6.97583 44.3046L3.1889 43.595L7.30802 38.8284L9.39415 44.8402L8.06541 44.5992L6.97583 44.3046ZM42.5198 1.2318C42.5252 1.07419 42.4994 0.91709 42.444 0.769601C42.3886 0.622111 42.3047 0.487167 42.1972 0.372588C42.0896 0.25801 41.9606 0.166078 41.8176 0.10212C41.6745 0.0381615 41.5203 0.00345006 41.3638 -2.78279e-06C32.0388 -0.426558 22.8825 2.6093 15.6308 8.53205C8.37904 14.4548 3.53595 22.8528 2.0196 32.1339C1.99456 32.3008 2.00582 32.4712 2.05259 32.6333C2.09936 32.7953 2.18053 32.9452 2.29048 33.0726C2.40043 33.1999 2.53653 33.3017 2.68937 33.3708C2.8422 33.4399 3.00811 33.4747 3.17561 33.4728C3.4545 33.476 3.72512 33.3774 3.93756 33.1953C4.15001 33.0132 4.28997 32.7599 4.33162 32.482C5.76523 23.7958 10.3071 15.9397 17.0987 10.3987C23.8904 4.85772 32.4612 2.01577 41.1911 2.41004C41.3575 2.43312 41.5268 2.41982 41.6877 2.37104C41.8485 2.32225 41.997 2.23913 42.1231 2.12733C42.2491 2.01553 42.3498 1.87767 42.4183 1.72314C42.4868 1.56861 42.5214 1.40102 42.5198 1.2318ZM30.5611 78.795C30.5571 78.5406 30.4724 78.2942 30.3193 78.0918C30.1663 77.8894 29.953 77.7417 29.7107 77.6703C29.1659 77.5096 28.6211 77.3356 28.0763 77.1347C20.4758 74.464 14.0011 69.271 9.71305 62.4067C9.5533 62.1454 9.2987 61.9573 9.0034 61.8823C8.70811 61.8073 8.39542 61.8513 8.13184 62.005C7.99501 62.0852 7.87533 62.1919 7.77974 62.3191C7.68416 62.4462 7.61457 62.5912 7.57502 62.7456C7.53547 62.9001 7.52674 63.0609 7.54933 63.2187C7.57193 63.3766 7.6254 63.5284 7.70664 63.6653C12.623 71.5112 20.195 77.2955 29.0198 79.9464C29.1983 80.0037 29.3878 80.0175 29.5727 79.9865C29.7575 79.9555 29.9324 79.8807 30.0829 79.7682C30.2335 79.6558 30.3553 79.5089 30.4384 79.3397C30.5216 79.1705 30.5636 78.9838 30.5611 78.795Z" fill="#202932"/>
</g>
<defs>
<clipPath id="clip0">
<rect width="85" height="80" fill="white"/>
</clipPath>
</defs>
</svg>
