<svg width="85" height="85" viewBox="0 0 85 85" fill="none" xmlns="http://www.w3.org/2000/svg">
<path d="M17.8221 54.8386C14.0424 54.8386 10.9673 57.9137 10.9673 61.6935C10.9673 63.8363 12.001 65.8612 13.7092 67.1485V76.7741H21.935V67.1485C23.6433 65.8612 24.677 63.8363 24.677 61.6935C24.677 57.9137 21.6019 54.8386 17.8221 54.8386ZM19.8745 65.2319L19.1931 65.6281V74.0322H16.4512V65.6281L15.7698 65.2319C14.4797 64.4806 13.7092 63.1577 13.7092 61.6935C13.7092 59.4259 15.5545 57.5806 17.8221 57.5806C20.0897 57.5806 21.935 59.4259 21.935 61.6935C21.935 63.1577 21.1645 64.4806 19.8745 65.2319Z" fill="#1F2832"/>
<path d="M49.3554 8.22607V5.48413C40.2837 5.48413 32.9038 12.864 32.9038 21.9357H35.6457C35.6457 14.3762 41.7959 8.22607 49.3554 8.22607Z" fill="#1F2832"/>
<path d="M55.3377 6.60699C54.374 6.22997 53.3677 5.94481 52.3449 5.75562L51.8486 8.45231C52.7014 8.60997 53.539 8.84852 54.3397 9.1611L55.3377 6.60699Z" fill="#1F2832"/>
<path d="M79.5161 31.5323C79.5161 27.7526 76.441 24.6775 72.6612 24.6775V27.4194C74.9288 27.4194 76.7741 29.2647 76.7741 31.5323C76.7741 33.7999 74.9288 35.6452 72.6612 35.6452H68.5483V38.3872H72.6612C76.441 38.3872 79.5161 35.3121 79.5161 31.5323Z" fill="#1F2832"/>
<path d="M65.8074 35.6453H63.0654V38.3872H65.8074V35.6453Z" fill="#1F2832"/>
<path d="M60.3225 35.6453H57.5806V38.3872H60.3225V35.6453Z" fill="#1F2832"/>
<path d="M74.0322 63.064C71.0079 63.064 68.5483 65.5235 68.5483 68.5478V74.0317C68.5483 77.0561 71.0079 79.5156 74.0322 79.5156C77.0566 79.5156 79.5161 77.0561 79.5161 74.0317V68.5478C79.5161 65.5235 77.0566 63.064 74.0322 63.064ZM76.7741 74.0317C76.7741 75.5439 75.5444 76.7736 74.0322 76.7736C72.52 76.7736 71.2903 75.5439 71.2903 74.0317V68.5478C71.2903 67.0357 72.52 65.8059 74.0322 65.8059C75.5444 65.8059 76.7741 67.0357 76.7741 68.5478V74.0317Z" fill="#1F2832"/>
<path d="M72.6613 57.5806C67.3995 57.5806 62.7643 60.9135 61.0382 65.8064H35.0255C34.2221 59.219 32.9019 50.6093 32.8868 50.5174L32.7675 49.7442L30.1613 48.7009V43.871H72.6613C79.464 43.871 85 38.335 85 31.5323C85 24.7295 79.464 19.1935 72.6613 19.1935C72.1362 19.1935 71.6207 19.2374 71.1121 19.3019C69.8069 8.3629 60.5474 0 49.3548 0C39.8719 0 31.7996 6.05968 28.7437 14.5021C27.4564 13.988 26.0785 13.7097 24.6774 13.7097C20.4932 13.7097 16.8533 16.0664 15.0039 19.5198C14.1292 19.3265 13.2435 19.1935 12.3387 19.1935C5.53597 19.1935 0 24.7295 0 31.5323C0 35.6479 2.0921 39.4811 5.48387 41.761V48.7009L2.87766 49.7428L2.75839 50.516C2.64597 51.2495 0 68.4922 0 72.6613C0 75.6706 4.90395 79.5737 14.5761 84.2597C15.5934 84.7505 16.6847 85 17.8226 85C18.9605 85 20.0518 84.7505 21.069 84.2583C23.6602 83.0025 28.2694 80.6184 31.5323 78.1616V82.2581H39.7581V76.7742H42.5V82.2581H50.7258V76.7742H61.0382C62.7629 81.6672 67.3995 85 72.6613 85C79.464 85 85 79.4654 85 72.6613V69.9194C85 63.1152 79.464 57.5806 72.6613 57.5806ZM2.74194 31.5323C2.74194 26.2403 7.04677 21.9355 12.3387 21.9355C12.9104 21.9355 13.4725 21.9972 14.0291 22.0959C13.8276 22.9253 13.7097 23.7863 13.7097 24.6774H16.4516C16.4516 20.1409 20.1409 16.4516 24.6774 16.4516C25.8153 16.4516 26.9327 16.6915 27.9636 17.1412C27.6168 18.6863 27.4194 20.2876 27.4194 21.9355H30.1613C30.1613 11.3516 38.771 2.74194 49.3548 2.74194C59.2601 2.74194 67.431 10.2274 68.425 19.9585C63.7048 21.6928 60.3226 26.2198 60.3226 31.5323H63.0645C63.0645 26.2403 67.3694 21.9355 72.6613 21.9355C77.9532 21.9355 82.2581 26.2403 82.2581 31.5323C82.2581 36.8242 77.9532 41.129 72.6613 41.129H30.1613V39.7581C30.1613 32.9553 24.6253 27.4194 17.8226 27.4194C11.5024 27.4194 6.28315 32.1985 5.57298 38.3323C3.78936 36.5514 2.74194 34.1083 2.74194 31.5323ZM8.22581 39.7581C8.22581 34.4661 12.5306 30.1613 17.8226 30.1613C23.1145 30.1613 27.4194 34.4661 27.4194 39.7581V47.6041L24.6774 46.5073V39.7581C24.6774 35.9783 21.6023 32.9032 17.8226 32.9032C14.0428 32.9032 10.9677 35.9783 10.9677 39.7581V46.5073L8.22581 47.6041V39.7581ZM21.9355 45.4106L17.8226 43.7654L13.7097 45.4106V39.7581C13.7097 37.4905 15.555 35.6452 17.8226 35.6452C20.0902 35.6452 21.9355 37.4905 21.9355 39.7581V45.4106ZM19.8749 81.7906C18.5931 82.4116 17.0521 82.4116 15.7716 81.7906C6.21185 77.1594 2.74194 73.7937 2.74194 72.6613C2.74194 69.179 4.82718 55.165 5.35089 51.7074L17.8226 46.7185L30.2943 51.7074C30.6302 53.9229 31.6063 60.4693 32.263 65.8064H28.2227L24.6774 69.3518V73.2289L28.2227 76.7742H28.7588C25.622 78.917 21.6627 80.9241 19.8749 81.7906ZM82.2581 72.6613C82.2581 77.9519 77.9532 82.2581 72.6613 82.2581C68.2893 82.2581 64.4725 79.2981 63.3798 75.0605L63.1152 74.0323H47.9839V79.5161H45.2419V74.0323H37.0161V79.5161H34.2742V74.0323H29.3579L27.4194 72.0937V70.4869L29.3579 68.5484H63.1152L63.3798 67.5202C64.4725 63.2825 68.2893 60.3226 72.6613 60.3226C77.9532 60.3226 82.2581 64.6288 82.2581 69.9194V72.6613Z" fill="#1F2832"/>
</svg>
