<svg width="86" height="86" viewBox="0 0 86 86" fill="none" xmlns="http://www.w3.org/2000/svg">
<path d="M42.5839 25.558C44.856 25.558 46.705 23.709 46.705 21.437C46.705 19.1649 44.856 17.3159 42.5839 17.3159C40.3119 17.3159 38.4629 19.1649 38.4629 21.437C38.4629 23.709 40.3119 25.558 42.5839 25.558ZM42.5839 20.0633C43.3422 20.0633 43.9576 20.6801 43.9576 21.437C43.9576 22.1939 43.3422 22.8107 42.5839 22.8107C41.8257 22.8107 41.2103 22.1939 41.2103 21.437C41.2103 20.6801 41.8257 20.0633 42.5839 20.0633Z" fill="#1F2832"/>
<path d="M84.2605 53.2033C83.042 50.6139 80.7892 48.6893 78.1943 47.9214C77.2011 32.881 66.7075 19.9615 52.2 15.9077V15.5409C52.2 9.33326 48.7507 3.75198 43.1983 0.975765L42.5842 0.669434L41.9702 0.977139C36.4178 3.75198 32.9684 9.33326 32.9684 15.5409V15.9077C17.5543 20.2032 6.86842 34.1681 6.86842 50.2842C6.86842 56.0866 8.29843 61.8328 10.9895 66.9346V72.2631H8.24211V64.021H0V75.0105H16.8263C23.5381 81.9971 32.886 86 42.5842 86C53.7111 86 64.0316 80.8816 70.7805 72.1862C71.7228 73.8621 73.4963 75.0105 75.5527 75.0105C78.583 75.0105 81.0474 72.5461 81.0474 69.5158V68.1421C81.0474 66.9566 81.851 65.5486 82.7013 64.0568C84.3278 61.205 86.3512 57.6567 84.2605 53.2033ZM5.49474 72.2631H2.74737V66.7684H5.49474V72.2631ZM45.6242 48.3981C46.322 49.0959 46.7053 50.0232 46.7053 51.0095C46.7053 51.9367 46.3605 52.8241 45.7327 53.5055C44.745 54.5797 43.5486 55.9602 42.5842 57.3078C41.6199 55.9616 40.4234 54.5797 39.4357 53.5055C38.808 52.8241 38.4632 51.9367 38.4632 51.0095C38.4632 50.0232 38.8464 49.0959 39.5443 48.3981L40.4056 47.5368H44.7629L45.6242 48.3981ZM27.4737 40.4046V35.1736C27.4737 31.8576 29.8378 29.0827 32.9684 28.444V36.6778C30.6881 37.068 28.688 38.4032 27.4737 40.4046ZM49.4527 15.5409V33.8H35.7158V15.5409C35.7158 15.2126 35.757 14.8926 35.7804 14.5684H49.3881C49.4114 14.8926 49.4527 15.2126 49.4527 15.5409ZM46.7053 44.7894H38.4632V42.0421H46.7053V44.7894ZM35.7158 39.2947V36.5473H49.4527V39.2947H35.7158ZM52.2 28.444C55.3307 29.0827 57.6948 31.8562 57.6948 35.1736V40.4046C56.4818 38.4046 54.4803 37.068 52.2 36.6778V28.444ZM42.5842 3.76022C45.7313 5.5364 47.9718 8.439 48.9307 11.821H36.2378C37.1966 8.439 39.4371 5.5364 42.5842 3.76022ZM16.4842 72.2631H13.7368V61.2737H16.4842V72.2631ZM42.5842 83.2526C34.5495 83.2526 26.7745 80.2813 20.7852 75.0105H30.2211V53.0316H21.979V72.2631H19.2316V58.5263H10.9895V59.661C10.0925 56.6292 9.61579 53.467 9.61579 50.2842C9.61579 35.6668 19.1382 22.9671 32.9684 18.7677V25.6678C28.3171 26.3381 24.7263 30.3397 24.7263 35.1736V44.7894H28.3226L29.607 42.2207C30.3007 40.8332 31.5357 39.8552 32.9877 39.4747C33.0811 40.9047 34.2624 42.0421 35.7158 42.0421V44.7894C35.7158 45.784 36.2529 46.6494 37.0469 47.1316C36.198 48.2456 35.7158 49.585 35.7158 51.0095C35.7158 52.6277 36.3175 54.1745 37.4123 55.3654C39.3465 57.4699 40.7476 59.2997 41.3548 60.5154L42.5842 62.9702L43.8137 60.514C44.4208 59.2983 45.822 57.4699 47.7562 55.3641C48.851 54.1745 49.4527 52.6277 49.4527 51.0095C49.4527 49.585 48.9705 48.2456 48.1216 47.1316C48.9155 46.6494 49.4527 45.784 49.4527 44.7894V42.0421C50.906 42.0421 52.0874 40.9047 52.1822 39.4747C53.6328 39.8552 54.8677 40.8332 55.5628 42.2207L56.8458 44.7894H60.4421V35.1736C60.4421 30.3397 56.8513 26.3381 52.2 25.6678V18.7677C65.0316 22.6814 74.2985 34.1585 75.4126 47.5505C73.1281 47.5876 70.9179 48.4201 69.1953 49.938C67.1237 51.7636 65.9369 54.3929 65.9369 57.1526C65.9369 59.8766 67.1814 61.885 68.2804 63.6556C69.2337 65.1942 70.0579 66.5239 70.0579 68.1421V68.4965C63.9203 77.74 53.685 83.2526 42.5842 83.2526ZM24.7263 72.2631V55.7789H27.4737V72.2631H24.7263ZM75.5527 72.2631C74.0375 72.2631 72.8053 71.0309 72.8053 69.5158H78.3C78.3 71.0309 77.0678 72.2631 75.5527 72.2631ZM74.179 57.1526C74.179 56.3957 74.7944 55.7789 75.5527 55.7789C76.3109 55.7789 76.9264 56.3957 76.9264 57.1526C76.9264 57.9095 76.3109 58.5263 75.5527 58.5263C74.7944 58.5263 74.179 57.9095 74.179 57.1526ZM80.3152 62.6954C79.5336 64.0677 78.785 65.3824 78.4649 66.7684H76.9264V61.0209C78.5212 60.4522 79.6737 58.9411 79.6737 57.1526C79.6737 54.8805 77.8247 53.0316 75.5527 53.0316C73.2806 53.0316 71.4316 54.8805 71.4316 57.1526C71.4316 58.9411 72.5841 60.4522 74.179 61.0209V66.7684H72.6693C72.3492 65.0279 71.4756 63.5966 70.6156 62.2091C69.6225 60.6074 68.6842 59.0936 68.6842 57.1526C68.6842 55.1814 69.5332 53.3035 71.0126 51.9985C72.2847 50.8776 73.8672 50.2842 75.5444 50.2842C75.8453 50.2842 76.1488 50.3034 76.4552 50.3419C78.6998 50.6262 80.737 52.1703 81.7727 54.3723C83.259 57.5345 81.829 60.0415 80.3152 62.6954Z" fill="#1F2832"/>
<path d="M43.9583 69.5156H41.2109V72.263H43.9583V69.5156Z" fill="#1F2832"/>
<path d="M49.4534 69.5156H46.7061V72.263H49.4534V69.5156Z" fill="#1F2832"/>
<path d="M38.4642 69.5156H35.7168V72.263H38.4642V69.5156Z" fill="#1F2832"/>
</svg>
