<svg width="27" height="35" viewBox="0 0 27 35" fill="none" xmlns="http://www.w3.org/2000/svg">
<g opacity="0.07">
<path d="M25.8047 5.57954C20.129 5.57954 14.2471 0.318538 14.1889 0.265833C13.7979 -0.0886108 13.202 -0.0886108 12.8111 0.265833C12.7526 0.318948 6.88609 5.57954 1.19531 5.57954C0.629023 5.57954 0.169922 6.03864 0.169922 6.60493V18.8849C0.169922 28.8328 7.56887 32.8079 13.1343 34.9326C13.2521 34.9776 13.376 35 13.5 35C13.624 35 13.7479 34.9775 13.8657 34.9326C21.6692 31.9535 26.8301 27.3065 26.8301 18.8849V6.60493C26.8301 6.03864 26.371 5.57954 25.8047 5.57954Z" fill="white"/>
</g>
</svg>
