<svg width="435" height="411" viewBox="0 0 435 411" fill="none" xmlns="http://www.w3.org/2000/svg">
<path d="M101.793 15.7102C103.443 16.1981 105.403 15.6126 107.259 15.7102C108.6 15.8077 109.941 16.0029 111.281 16.2956C116.954 17.5641 122.626 19.4181 128.402 20.1988C136.549 21.3697 145.11 19.7109 152.638 24.4922C153.773 25.2728 155.835 24.6874 157.382 24.9801C169.243 27.8099 181.31 30.0541 192.758 33.8597C201.008 36.6895 207.918 42.9345 216.169 45.4715C229.886 49.6674 239.684 59.4252 251.853 65.5726C259.898 69.6709 267.22 75.0377 275.059 79.6239C286.094 86.1616 296.201 93.3824 301.977 105.092C303.524 108.312 306.411 111.044 308.887 113.874C311.362 116.801 313.94 119.728 316.622 122.656L320.953 118.167C316.312 114.557 312.703 109.19 309.712 104.018C297.129 82.2585 278.256 67.0363 255.669 55.1317C247.522 50.8383 240.199 45.2763 232.464 40.2999C231.33 39.5192 229.989 38.1531 228.854 38.2507C222.151 38.8362 219.366 33.0791 214.622 30.7372C205.443 26.2486 195.645 22.9309 186.157 19.0278C174.4 14.1489 161.611 17.0763 149.544 14.832C135.002 12.1973 120.048 10.3434 106.125 5.95235C95.1926 2.63469 84.776 1.75648 73.6375 1.75648C70.1309 1.75648 66.6244 1.07344 63.1178 0.0976562H40.8408C41.5628 0.292813 42.2847 0.487969 42.8004 0.878282C60.3332 13.3683 82.1976 10.3434 101.793 15.7102Z" fill="black" fill-opacity="0.07"/>
<path d="M202.246 63.231C194.099 59.7182 185.538 56.986 177.185 54.0586C175.534 53.4732 173.575 53.6683 171.822 53.3756C165.324 52.3022 158.827 51.2289 152.432 49.8628C149.132 49.1797 146.038 47.3257 142.738 46.5451C127.061 42.9347 111.179 41.0807 94.9866 40.4953C87.4578 40.2025 79.929 39.2267 72.4002 37.6655C61.6743 35.5188 50.2264 36.9825 39.0879 36.1043C26.093 35.1285 13.098 32.4939 0 33.7624V44.7887C1.85642 45.0814 3.6097 45.3742 5.46611 45.7645C13.6137 47.5209 21.8645 49.1797 30.0121 50.8386C31.3528 51.1313 32.6936 51.9119 34.0343 51.9119C43.2132 51.7168 52.4953 53.9611 61.6743 50.4482C65.3871 48.9846 70.1313 49.8628 74.3598 49.8628C78.6914 49.7652 82.9199 49.6676 87.2516 49.8628C98.5963 50.4482 110.147 50.0579 121.08 52.1071C140.469 55.7175 159.549 60.8891 178.732 65.5728C185.332 67.1341 192.552 67.4268 197.296 73.2815C197.811 73.9646 199.049 74.0621 200.184 74.2573H219.882C217.407 72.9888 214.829 71.8178 212.353 70.5493C208.641 68.6953 206.062 64.8898 202.246 63.231Z" fill="black" fill-opacity="0.07"/>
<path d="M150.989 9.36766C153.67 10.0507 156.867 10.8313 159.446 10.1483C171.513 6.92821 182.857 11.5144 194.202 13.1732C208.435 15.2223 221.842 21.2722 233.806 29.3712C245.15 36.9823 256.495 44.4958 268.046 51.619C285.785 62.6453 298.883 77.4772 309.197 94.651C313.631 101.969 318.273 108.8 324.976 113.874L328.277 110.361C327.451 110.166 326.833 109.873 326.42 109.483C321.16 103.433 316.107 97.0904 311.156 90.7479C310.022 89.2842 309.506 87.3326 308.784 85.6738C309.3 85.1859 309.919 84.698 310.434 84.2101C312.6 85.6738 315.282 86.7471 316.932 88.6011C321.882 94.2607 326.523 100.018 331.061 105.97C331.267 106.263 331.474 106.751 331.577 107.141L335.805 102.652C333.64 99.1396 331.474 95.7243 329.102 92.4067C324.77 86.1617 319.82 80.2094 311.156 78.3554C309.3 77.9651 307.547 76.5014 306.206 75.1353C301.874 70.6468 297.027 66.4509 293.83 61.2792C288.673 53.1803 279.288 50.1553 272.687 43.7152C268.974 40.1048 263.405 38.2508 258.764 35.421C248.76 29.3712 238.962 23.1262 229.061 16.9788C227.514 16.003 226.071 15.0272 224.524 14.149C216.17 9.56282 207.713 4.97664 199.256 0.390469C199.049 0.292891 198.843 0.292891 198.637 0.390469C196.574 0.87836 194.718 0.683203 193.068 0.195312H185.436C186.57 1.56141 186.983 3.41539 186.364 6.05C184.507 5.85485 182.96 5.75727 181.413 5.46453C175.432 4.58633 169.553 3.12266 163.571 2.9275C155.527 2.63477 147.585 1.85414 139.85 0.195312H101.484C107.26 1.46383 113.035 2.53719 118.914 3.22024C129.846 4.58633 140.469 6.53789 150.989 9.36766Z" fill="black" fill-opacity="0.07"/>
<path d="M12.2728 2.24438C13.6136 2.43953 15.0575 2.73227 16.3982 2.53711C23.5145 1.75649 30.6307 0.878282 37.6439 0.0976562H1.54688C1.65001 0.0976562 1.75314 0.195234 1.75314 0.195234C5.25971 1.07344 8.76627 1.65891 12.2728 2.24438Z" fill="black" fill-opacity="0.07"/>
<path d="M145.935 64.5964C142.222 62.5473 137.581 61.8642 133.146 61.1812C128.196 60.4981 123.142 60.7909 118.192 60.2054C112.21 59.5223 106.228 57.5708 100.246 57.4732C92.3051 57.278 84.2607 59.5223 76.3193 57.3756C75.5974 57.1805 74.7723 57.5708 73.9472 57.7659C60.6429 61.7666 47.1323 62.157 33.7249 59.3272C24.1334 57.278 14.9545 54.058 5.36298 51.9112C3.6097 51.6185 1.75328 51.2282 0 50.8379V56.595C6.60059 57.3756 13.2012 58.0587 19.6986 59.2296C21.8645 59.6199 23.4115 62.4497 25.2679 64.2061C22.7927 64.7916 20.2143 66.1577 17.8422 65.7674C11.8604 64.7916 5.87865 63.1327 0 61.8642V70.4511C4.33164 71.2317 8.66327 72.0124 12.9949 72.793C14.0263 72.9881 15.0576 72.9881 16.0889 72.8906C28.1556 72.1099 40.2223 71.3293 52.289 70.4511C53.4235 70.3535 54.558 69.6705 55.6925 69.3777C58.6834 68.6947 61.6743 67.3286 64.562 67.4262C82.0948 68.4995 99.5245 69.7681 117.057 71.2317C121.698 71.622 126.236 73.2809 130.877 73.8663C132.115 74.0615 133.249 74.1591 134.487 74.2566H182.96C177.494 72.3051 171.925 70.5487 166.252 69.6705C159.239 68.4995 152.432 68.0116 145.935 64.5964Z" fill="black" fill-opacity="0.07"/>
<path d="M237.209 183.058C234.321 182.179 231.227 180.423 229.268 178.179C217.82 165.298 203.897 156.516 186.157 153.589C183.167 153.101 180.176 152.711 177.288 152.418L171.203 158.761C173.369 158.956 175.432 159.151 177.494 159.541C187.808 161.395 197.709 165.493 207.713 169.006C209.775 169.689 211.322 171.934 213.076 173.495C212.457 174.373 211.735 175.251 211.116 176.129C201.421 173.105 191.83 169.201 181.929 167.25C176.566 166.274 171.203 165.006 165.634 164.518L157.177 173.3C164.293 172.519 172.028 173.69 179.351 173.983C182.754 174.08 186.054 175.642 189.458 176.617C196.161 178.569 202.968 180.423 209.569 182.472C215.138 184.131 221.017 185.497 226.174 187.936C230.815 190.181 234.631 194.084 239.272 196.426C240.819 197.206 242.159 198.085 243.294 199.158L250.204 191.937C246.904 187.741 242.881 184.716 237.209 183.058Z" fill="black" fill-opacity="0.07"/>
<path d="M249.274 167.542C247.418 165.883 245.665 164.029 243.396 162.956C235.558 159.053 225.863 158.272 220.913 149.978C220.603 149.49 219.469 149.588 218.747 149.198C215.859 147.929 212.559 147.051 210.083 145.197C204.824 141.294 199.048 139.635 192.448 139.83C191.519 139.83 190.488 139.83 189.56 139.732L182.753 146.856C190.797 148.514 199.461 149.393 206.268 153.198C222.15 162.175 237.208 172.616 252.265 182.862C253.606 183.838 254.947 184.814 256.184 185.887L262.476 179.349C262.373 179.154 262.166 179.056 262.063 178.861C257.938 174.861 253.503 171.25 249.274 167.542Z" fill="black" fill-opacity="0.07"/>
<path d="M302.699 113.68C294.758 100.897 284.238 90.9441 270.315 83.6257C254.638 75.3316 239.993 65.5738 224.833 56.4014C224.008 55.9135 222.976 55.6208 222.151 55.2305C216.891 52.6935 211.735 50.1564 206.475 47.6194C201.009 44.8872 195.749 41.3744 189.87 39.618C179.35 36.4955 168.521 34.5439 157.795 32.0069C152.536 30.8359 147.379 29.3723 142.119 28.3965C137.684 27.6159 133.043 27.7134 128.505 27.0304C118.604 25.4691 108.807 23.5176 99.0089 21.7612C97.6681 21.4684 96.1211 21.4684 94.9866 20.7854C88.6954 17.0774 81.8886 17.0774 74.7723 17.9556C72.2971 18.2484 69.7187 17.2726 67.2435 17.2726C57.8583 17.175 48.2668 11.2227 40.1192 17.4677C35.9938 16.1016 32.4873 14.5404 28.7744 13.8573C25.1648 13.1743 21.4519 13.2719 17.8422 12.9791C13.6137 12.5888 9.28208 12.1009 5.05358 11.7106C3.40343 11.613 1.75328 11.4179 0 11.3203V19.5169C1.65015 20.2975 3.3003 21.3709 4.74417 22.8345C4.84731 22.9321 5.15671 22.8345 5.36298 22.8345C11.4479 23.1273 17.5328 23.5176 23.7209 23.6152C29.7027 23.8103 36.4064 20.9805 40.738 27.7134C41.0474 28.2013 42.5944 28.0062 43.6258 28.2013C46.8229 28.7868 49.917 29.4699 53.1141 30.0553C56.105 30.5432 59.0959 31.1287 62.0868 31.3238C70.3375 31.9093 78.5883 32.3972 86.839 32.9827C88.386 33.0802 90.0362 33.9584 91.5832 33.9584C100.659 34.056 110.147 32.6899 118.811 34.4463C128.918 36.3979 139.025 37.8616 149.029 40.0083C159.446 42.2526 169.656 45.0824 179.763 48.0097C191.211 51.3274 203.587 52.9862 211.631 62.8416C212.044 63.4271 213.075 63.5246 213.797 63.8174C220.501 67.3302 227.205 70.843 233.805 74.3558H251.957L245.872 80.6984C256.082 86.0652 266.396 91.5296 276.606 96.9939C277.844 97.5794 278.669 98.8479 279.7 99.7261C282.175 101.873 284.65 104.215 287.332 106.166C293.004 110.362 296.82 115.534 298.367 122.364C293.726 120.705 289.807 118.461 286.094 115.827C277.637 109.777 269.283 103.629 260.93 97.3843C258.351 95.5303 255.979 93.3836 253.504 91.432C251.957 90.261 250.41 88.895 248.657 88.1143C246.388 87.041 244.119 85.9676 241.953 84.8942L235.249 91.9199C241.128 95.4327 246.903 98.8479 252.782 102.361C254.638 103.532 256.701 104.41 258.557 105.678C263.302 108.703 268.768 111.24 272.584 115.143C281.556 124.413 292.901 129.487 305.071 133.293C305.484 133.391 305.793 133.488 306.206 133.683L312.394 127.243C312.084 126.658 311.775 126.072 311.569 125.389C309.815 120.998 305.277 117.778 302.699 113.68Z" fill="black" fill-opacity="0.07"/>
<path d="M260.414 141.586C248.451 134.366 236.384 127.047 224.317 119.924C220.914 117.875 217.407 115.826 213.798 114.167L206.062 122.266C212.972 124.608 219.882 127.047 226.792 129.389C231.743 131.048 237.415 131.633 241.541 134.463C246.285 137.781 249.379 143.148 253.607 147.148C260.517 153.686 267.737 159.931 274.853 166.274L279.907 161.005C274.337 155.052 268.356 149.49 262.58 143.636C261.858 142.953 261.239 142.172 260.414 141.586Z" fill="black" fill-opacity="0.07"/>
<path d="M244.119 146.269C238.756 141.098 233.187 139.244 226.483 137.487C221.429 136.219 216.788 133.389 211.941 131.535C208.331 130.169 204.722 128.608 201.009 127.534L195.233 133.486C205.547 135.34 215.241 138.17 223.595 145.098C224.214 145.586 225.039 145.879 225.761 146.074C235.559 148.318 242.675 154.466 249.482 160.906C253.092 164.321 255.876 168.517 261.858 168.419C262.889 168.419 264.127 169.883 264.952 170.859C265.777 171.835 266.602 172.713 267.53 173.689L270.212 170.859C268.871 169.688 267.634 168.615 266.396 167.346C259.073 160.32 251.545 153.295 244.119 146.269Z" fill="black" fill-opacity="0.07"/>
<path d="M296.201 138.658C296.717 140.024 297.129 141.293 297.645 142.464L302.08 137.78C300.327 137.682 298.367 137.975 296.201 138.658Z" fill="black" fill-opacity="0.07"/>
<path d="M279.906 133.78C278.978 133.39 278.049 132.707 277.637 131.926C273.924 125.486 269.695 119.631 261.96 116.996C261.032 116.704 260.723 115.045 259.898 114.264C254.225 109.483 249.172 102.653 242.468 100.506C238.446 99.2373 234.939 97.3833 231.536 95.5293L226.998 100.213C230.917 102.36 234.836 104.506 238.549 107.044C245.768 111.922 252.472 117.582 259.279 123.144C260.31 123.925 260.62 125.486 261.342 126.657C258.454 126.266 256.391 125.193 254.535 123.827C249.791 120.509 245.356 116.606 240.302 113.776C234.527 110.654 228.442 108.019 222.357 105.287L217.716 110.166C222.563 112.703 227.307 115.435 232.155 118.167C242.777 124.217 253.297 130.267 263.714 136.415C264.848 137.098 265.673 138.366 266.601 139.342C270.727 144.026 274.337 149.392 279.081 153.393C280.628 154.662 282.072 156.028 283.515 157.394L293.313 147.148C290.013 141.586 286.609 136.415 279.906 133.78ZM278.668 139.439C280.731 142.367 282.794 145.197 284.856 148.124C279.39 147.441 276.502 145.099 278.668 139.439Z" fill="black" fill-opacity="0.07"/>
<path d="M8.04447 401.827C3.50656 392.557 7.42566 382.702 4.53791 373.432C3.40343 369.822 1.95955 365.138 3.40343 362.21C8.97268 350.989 5.15671 337.23 14.5419 327.18C14.8513 326.79 15.1607 326.107 14.9545 325.619C14.6451 324.545 14.4388 323.57 14.4388 322.594L0 337.621V410.902H9.17895C9.28208 407.682 9.28208 404.462 8.04447 401.827Z" fill="black" fill-opacity="0.07"/>
<path d="M232.362 202.279C229.062 200.035 225.761 197.596 222.152 195.937C212.87 191.643 203.794 187.447 193.48 185.008C185.023 182.959 176.257 179.836 167.8 179.934C161.921 180.031 155.94 180.324 150.061 180.812L142.223 189.009C151.505 187.252 160.993 188.618 170.275 189.497C175.019 189.984 179.454 191.058 184.405 190.472C187.189 190.082 190.489 190.863 193.171 191.936C197.503 193.692 201.422 196.717 205.856 198.083C211.529 199.742 215.242 202.084 215.861 208.134C216.067 210.378 217.717 212.72 219.367 214.574C220.811 216.233 222.358 217.794 223.905 219.453L236.797 206.085C235.456 204.719 234.012 203.45 232.362 202.279ZM227.515 214.477C225.039 209.988 223.389 207.061 221.739 204.036C222.255 203.743 222.874 203.548 223.389 203.255C226.793 205.499 228.546 208.524 227.515 214.477Z" fill="black" fill-opacity="0.07"/>
<path d="M199.977 206.379C196.677 203.354 192.242 200.036 188.013 199.744C176.978 198.865 166.665 194.67 154.907 195.84C146.553 196.719 138.715 197.987 131.289 200.427L114.891 217.503C118.398 215.551 122.007 213.795 125.514 212.136C136.962 206.867 149.647 205.11 162.333 203.939C164.911 203.744 167.799 203.549 170.068 202.476C176.256 199.548 181.619 201.11 186.569 204.915C187.704 205.793 188.941 207.94 188.632 209.014C188.22 210.184 186.054 211.453 184.61 211.551C174.709 212.234 164.602 211.843 154.907 213.502C144.491 215.258 133.868 217.796 124.483 222.187C113.55 227.261 103.856 234.579 93.7486 241.117C91.9953 242.19 90.7577 244.337 89.8295 246.191C87.148 251.558 83.4352 255.558 77.7628 258.681C74.05 260.828 71.781 265.609 69.5121 269.61C64.871 277.416 60.5394 285.417 56.2078 293.321C54.6607 296.248 53.2169 299.176 51.773 302.103C47.957 310.007 44.1411 317.911 40.4282 325.912C39.5 327.864 38.9843 329.913 38.3655 331.962C35.7872 341.525 33.1057 351.087 30.9399 360.65C29.8054 365.626 29.2897 370.701 29.0835 375.775C28.8772 381.239 26.8145 385.435 21.9672 388.265C21.2453 388.167 20.5233 387.972 19.8014 387.874C20.0076 385.825 20.1108 383.678 20.6264 381.629C21.039 379.97 22.4829 378.604 22.7923 376.946C25.1644 362.602 27.3302 348.258 29.9085 333.914C30.4242 331.084 33.312 328.644 34.3433 325.815C35.684 322.399 36.1997 318.691 37.1279 315.179C37.2311 314.593 37.1279 314.008 37.3342 313.52C40.9439 306.884 44.4505 300.347 48.1633 293.809C50.8448 289.028 54.2482 284.637 56.6203 279.66C57.0328 278.879 57.4454 278.099 57.8579 277.318L30.5273 305.811C26.6082 313.032 22.8954 320.448 20.4202 328.059C18.1512 334.987 16.5011 342.208 14.0259 349.136C11.86 355.186 11.2412 362.016 11.6538 368.359C12.3757 379.287 9.17855 390.704 15.676 401.047C16.5011 402.413 16.5011 404.463 16.1917 406.121C15.9854 407.78 15.8823 409.341 15.7791 411H27.227C27.227 410.415 27.3302 409.927 27.3302 409.341C27.5364 406.317 26.2988 402.901 27.3302 400.267C30.0117 393.436 33.6214 386.996 36.6123 380.361C37.3342 378.8 37.5405 377.043 37.6436 375.287C38.4687 361.626 40.222 347.965 45.6881 335.28C51.6698 321.326 57.4454 307.177 65.1804 294.102C72.2967 282.1 82.3007 271.659 90.1389 259.949C96.2238 250.777 104.165 243.946 113.757 238.385C120.77 234.384 127.267 229.602 134.28 225.602C136.962 224.138 140.572 224.041 143.666 223.162C148.719 221.796 153.876 220.43 158.929 219.064C160.064 218.771 161.198 218.479 162.436 218.381C172.131 217.698 181.825 216.917 191.623 216.527C193.686 216.429 196.264 217.112 197.914 218.381C203.587 222.772 207.609 227.944 210.393 233.408L218.438 225.016C212.662 218.576 206.474 212.234 199.977 206.379Z" fill="black" fill-opacity="0.07"/>
<path d="M162.952 264.047C162.848 262.291 162.023 259.461 160.889 259.168C159.136 258.583 156.66 259.656 154.495 260.046C155.113 260.534 155.732 261.022 156.351 261.608C155.526 264.828 155.423 268.341 153.773 271.17C149.338 279.074 143.562 286.392 139.54 294.491C132.63 308.543 124.895 322.009 113.447 333.23C112.828 333.913 112.519 334.889 112.106 335.865L154.701 291.467C155.217 290.588 155.732 289.808 156.351 288.93C161.508 281.318 163.467 272.927 162.952 264.047Z" fill="black" fill-opacity="0.07"/>
<path d="M188.942 227.163C177.494 227.163 167.284 221.991 154.495 225.894C134.487 232.041 117.882 242.482 102.515 254.875C91.8924 263.462 82.9197 274.098 76.5254 285.905C67.0371 303.566 58.4769 321.716 49.7105 339.67C48.7823 341.524 48.576 343.768 48.0604 345.818C44.8632 359.869 45.3789 374.31 39.3971 388.167C36.5093 394.997 35.9937 403.194 36.5093 410.902H40.2222L47.9572 402.803C47.751 392.07 52.2889 381.726 53.3202 370.993C53.7327 366.895 54.0421 362.796 54.4547 358.698C55.0735 351.77 48.8854 343.085 59.9208 338.694C60.1271 338.597 60.1271 338.402 60.2302 338.207C64.0462 330.205 67.6559 322.204 71.575 314.397C73.5345 310.592 75.9066 306.982 78.0724 303.274C79.6194 300.444 81.3727 297.614 82.4041 294.589C84.9824 286.978 87.4576 279.269 94.4708 274.195C96.5334 272.634 99.4212 272.049 102 270.975C102.515 271.561 102.928 272.146 103.443 272.732C101.896 275.073 100.865 278.001 98.6993 279.757C88.2827 288.344 85.3949 301.029 79.1038 311.86C72.5032 323.277 67.2433 335.474 61.0553 347.184C58.4769 351.965 57.5487 356.454 61.3647 360.649C64.1493 363.772 64.1493 366.699 63.0148 370.212C61.2615 375.872 58.7863 381.531 58.1675 387.386C57.9612 389.142 57.8581 390.996 57.755 392.753L72.1938 377.726C73.122 374.798 74.3596 371.969 76.216 369.334C77.1442 368.065 77.8661 366.504 78.0724 365.041C79.6194 349.038 91.9955 336.938 95.8115 321.716C96.1209 320.545 98.3899 319.764 99.7306 318.788C100.349 319.179 100.865 319.569 101.484 319.862C100.246 324.838 99.4212 329.912 97.5648 334.694C93.7488 344.354 89.7266 354.014 85.7043 363.674L100.968 347.769C103.856 341.329 106.847 334.986 109.838 328.644C110.972 326.302 113.654 324.741 115.304 322.496C118.398 318.496 121.492 314.495 124.173 310.202C130.258 300.541 136.343 290.881 142.119 281.026C144.388 277.123 146.038 272.927 147.997 268.828C137.168 273.61 135.312 284.148 128.299 291.467C122.111 297.907 115.82 306.006 114.994 315.959C114.891 317.13 111.9 318.105 110.25 319.081C109.838 317.422 108.497 315.373 109.116 314.105C111.9 308.152 114.376 302.005 118.295 296.736C128.918 282.587 139.747 268.536 151.298 255.168C154.701 251.167 160.992 249.313 166.149 246.776C167.077 246.288 168.934 246.971 170.068 247.556C175.019 250.191 176.669 255.07 174.297 260.534C171.925 266.096 170.274 272.049 168.109 277.708L181.31 263.95C182.238 261.705 183.063 259.461 183.785 257.119C184.404 254.875 183.269 251.752 182.032 249.41C175.637 237.018 160.992 235.262 150.576 245.605C143.975 252.045 136.653 258.095 131.187 265.316C119.739 280.538 104.784 293.711 97.9773 311.86C97.3585 313.617 95.9146 315.178 94.4708 316.544C87.4576 322.789 82.6103 330.108 80.2382 339.182C78.7944 344.842 75.7003 350.111 73.0188 355.478C72.5032 356.551 70.3374 356.942 68.9966 357.625C68.3778 357.137 67.6559 356.746 67.0371 356.258C69.7185 349.916 71.7812 343.281 75.1847 337.328C84.673 320.74 94.4708 304.347 104.681 288.051C106.847 284.636 109.322 282.197 107.053 277.806C106.331 276.342 107.569 273.903 108.084 271.951C111.075 260.925 120.564 254.289 127.783 246.093C128.505 245.215 130.361 244.336 131.187 244.727C132.115 245.117 133.352 247.166 132.94 247.849C131.29 250.776 129.846 254.68 127.061 256.046C120.873 259.168 119.017 265.023 115.51 269.804C114.685 270.878 114.891 272.732 114.273 275.757C116.851 273.512 117.985 272.829 118.81 271.756C127.061 261.998 135.415 252.338 143.356 242.287C153.051 230.09 172.543 227.163 185.538 236.335C191.314 240.336 193.789 246.288 192.448 252.24L200.08 244.239C199.874 243.263 199.771 242.287 199.771 241.311C199.874 233.895 191.829 232.432 188.942 227.163Z" fill="black" fill-opacity="0.07"/>
<path d="M409.959 20.4915C410.474 21.5649 410.99 22.6382 411.402 23.8092L423.985 10.8313C423.882 10.7337 423.882 10.5385 423.779 10.4409C423.366 9.66032 422.85 8.78211 422.438 7.80633C421.51 5.75719 420.478 3.70805 418.931 1.95164C418.416 1.36617 417.9 0.780703 417.487 0.0976562H399.026C400.986 2.53711 402.842 5.2693 404.493 8.58696C406.349 12.4901 408.205 16.5884 409.959 20.4915Z" fill="black" fill-opacity="0.07"/>
<path d="M389.125 42.349C389.847 43.1296 390.466 44.1054 391.085 45.1788L398.304 37.5677C392.219 32.4936 386.444 26.151 380.462 18.2472C375.821 12.1974 371.077 6.04992 366.436 0.0976562H352.719C353.131 0.487969 353.544 0.97586 353.956 1.36617C366.951 16.4908 378.502 29.859 389.125 42.349Z" fill="black" fill-opacity="0.07"/>
<path d="M401.914 33.7622L410.474 24.8826C409.03 22.7359 407.483 20.5891 406.142 18.54C401.914 12.295 397.582 5.95242 392.322 0.195312H389.435H372.314C375.202 3.41539 378.09 6.63547 380.875 9.85555C387.785 17.5642 395.004 25.6632 401.914 33.7622Z" fill="black" fill-opacity="0.07"/>
<path d="M304.865 7.6111C313.631 14.6367 322.294 21.9551 330.648 28.9807C333.742 31.5177 336.733 34.1524 339.827 36.6894C340.343 37.1773 340.859 37.7627 341.374 38.3482C341.684 38.7385 342.096 39.1288 342.406 39.5192C343.437 40.6901 344.571 41.7635 345.603 42.9344C347.356 44.7884 349.109 46.6424 350.759 48.4963C353.028 50.9358 355.297 53.3752 357.566 55.8147C361.279 59.8154 365.095 63.9137 368.808 68.1096L377.884 58.6445C374.583 53.3752 369.736 47.2278 361.589 43.5199C359.732 42.6417 358.082 40.7877 356.432 38.9337L356.122 38.5434C354.266 36.3967 352.41 33.9572 350.759 31.7129C347.15 26.9316 343.334 21.8575 338.383 18.3447C334.155 15.3198 330.133 11.7094 326.317 8.19657C323.223 5.46438 320.129 2.63461 316.828 0H295.789H295.479C298.264 2.2443 301.049 4.39102 303.833 6.63531L304.865 7.6111Z" fill="black" fill-opacity="0.07"/>
<path d="M336.321 8.78211C338.796 13.2707 341.272 17.8569 344.881 21.5649C346.738 23.4188 348.491 25.2728 350.347 27.1268C359.939 36.8846 369.84 47.0328 380.566 56.0099L389.332 46.8376C386.96 44.203 384.382 41.666 381.081 39.7144C380.153 39.2265 379.431 38.1531 378.503 37.0798C378.194 36.6895 377.884 36.2016 377.472 35.8113C376.44 34.6403 375.615 33.2742 374.79 31.8106C372.418 28.005 369.737 23.7116 363.549 22.7358C363.549 22.6382 363.445 22.6382 363.445 22.5406C363.342 22.4431 363.239 22.2479 363.239 22.1503C357.67 14.832 352.101 7.5136 346.531 0.0976562H330.752C331.886 1.36617 333.021 2.92742 334.155 4.87899C334.877 6.1475 335.599 7.41602 336.321 8.78211Z" fill="black" fill-opacity="0.07"/>
<path d="M239.271 10.2458C240.818 11.0264 242.159 12.3925 243.499 13.9538C244.84 15.4174 246.284 16.8811 247.934 17.9545C250.409 19.5157 253.194 20.8818 255.876 22.2479C260.104 24.3946 264.126 26.3462 267.117 29.1759C270.521 32.396 274.543 35.1282 278.359 37.7628C285.578 42.6417 292.282 47.3255 295.892 55.1317C296.923 57.376 299.089 58.9373 301.151 60.4985C302.08 61.1816 303.008 61.8646 303.73 62.5477C308.474 66.8411 313.115 71.2321 317.859 75.6232L322.603 80.0142C322.913 80.2093 323.119 80.5021 323.325 80.7948C323.635 81.0875 323.944 81.3803 324.254 81.673C325.801 83.0391 327.451 84.4052 328.998 85.6737C332.401 88.4059 335.598 90.9429 337.661 94.163C338.486 95.5291 339.311 96.7976 340.136 98.1637L348.49 89.4792C344.777 84.9907 341.168 80.5021 337.455 76.2086C333.948 72.0128 330.442 67.8169 326.935 63.5235C326.213 62.6453 325.285 62.0598 324.46 61.4743C324.254 61.2792 323.944 61.1816 323.738 60.9864C321.675 59.5228 319.716 58.1567 317.653 56.693C313.012 53.4729 308.165 50.0577 303.73 46.5449C302.08 45.1788 300.636 43.5199 299.192 41.666C298.057 40.2999 296.923 38.8362 295.582 37.5677C293.52 35.5185 291.354 33.6645 289.188 31.8106C287.332 30.2493 285.475 28.5905 283.619 26.8341C281.865 25.1752 280.215 23.4188 278.565 21.76C276.09 19.223 273.615 16.5884 270.83 14.2465C266.602 10.6361 262.064 7.22086 257.629 3.9032C255.979 2.63469 254.329 1.36617 252.678 0.0976562H216.685C217.613 0.487969 218.541 0.878282 219.366 1.26859C226.173 4.09836 232.877 6.92813 239.271 10.2458Z" fill="black" fill-opacity="0.07"/>
<path d="M306.102 39.812C310.331 44.1055 314.766 48.4965 319.2 52.7899C320.644 54.156 322.398 54.9367 324.151 55.8149C324.873 56.1076 325.595 56.4979 326.214 56.7906L327.864 57.6688L331.267 52.8875L329.926 51.7166C328.689 50.6432 327.554 49.5699 326.317 48.5941C323.635 46.2522 320.747 43.7152 318.066 41.2757L316.828 40.1048C314.147 37.6653 311.259 35.0307 308.99 32.2985C308.578 31.7131 308.268 30.7373 308.062 29.7615C309.3 30.5421 310.434 31.3228 311.465 32.201C314.663 35.1283 317.86 38.1532 320.954 41.1781C324.77 44.8861 328.792 48.6917 332.814 52.3021C334.774 54.0585 335.702 55.2294 335.599 55.7173C335.599 55.7173 335.393 56.5955 332.092 57.864L329.411 58.8398L334.671 64.5969C336.733 66.9388 338.59 68.9879 340.446 70.9395C344.675 75.5257 348.903 80.2094 352.925 84.8932L363.961 73.3789C360.145 69.0855 356.123 64.3042 351.378 58.5471C349.316 56.01 347.253 53.3754 345.293 50.7408C343.54 48.3989 341.684 46.0571 339.827 43.7152C337.868 41.2757 335.702 38.9338 333.227 36.592C331.577 35.0307 329.926 33.3719 328.379 31.7131C324.151 27.5172 319.819 23.1262 314.869 19.6134C305.38 12.8805 295.789 6.44031 286.301 0.195312H259.589C267.015 5.1718 274.44 10.441 281.247 16.1006C289.807 23.4189 298.058 31.7131 306.102 39.812Z" fill="black" fill-opacity="0.07"/>
<path d="M434.195 0.0976562H426.15C427.079 1.85406 428.11 3.70805 429.038 5.46446L434.195 0.0976562Z" fill="black" fill-opacity="0.07"/>
</svg>
