<svg width="433" height="411" viewBox="0 0 433 411" fill="none" xmlns="http://www.w3.org/2000/svg">
<path d="M332.252 395.29C330.602 394.802 328.644 395.387 326.788 395.29C325.448 395.192 324.108 394.997 322.768 394.704C317.098 393.436 311.428 391.582 305.655 390.801C297.511 389.63 288.955 391.289 281.429 386.508C280.295 385.727 278.234 386.313 276.687 386.02C264.832 383.19 252.771 380.946 241.328 377.14C233.081 374.311 226.174 368.066 217.927 365.528C204.217 361.333 194.423 351.575 182.259 345.427C174.218 341.329 166.899 335.962 159.064 331.376C148.034 324.838 137.931 317.618 132.158 305.908C130.612 302.688 127.725 299.956 125.251 297.126C122.777 294.199 120.2 291.272 117.52 288.344L113.19 292.833C117.829 296.443 121.437 301.81 124.427 306.982C137.003 328.742 155.868 343.964 178.445 355.868C186.589 360.162 193.908 365.724 201.639 370.7C202.773 371.481 204.113 372.847 205.247 372.749C211.948 372.164 214.732 377.921 219.474 380.263C228.648 384.751 238.442 388.069 247.926 391.972C259.678 396.851 272.461 393.924 284.522 396.168C299.057 398.803 314.005 400.657 327.922 405.048C338.849 408.365 349.261 409.244 360.395 409.244C363.9 409.244 367.405 409.927 370.91 410.902H393.177C392.455 410.707 391.734 410.512 391.218 410.122C373.693 397.632 351.838 400.657 332.252 395.29Z" fill="black" fill-opacity="0.07"/>
<path d="M231.845 347.769C239.988 351.282 248.545 354.014 256.895 356.941C258.544 357.527 260.503 357.332 262.255 357.624C268.75 358.698 275.245 359.771 281.636 361.137C284.935 361.82 288.027 363.674 291.326 364.455C306.996 368.065 322.871 369.919 339.056 370.505C346.581 370.797 354.107 371.773 361.632 373.335C372.353 375.481 383.796 374.018 394.93 374.896C407.919 375.872 420.908 378.506 434 377.238V366.211C432.144 365.919 430.392 365.626 428.536 365.236C420.392 363.479 412.145 361.82 404.001 360.161C402.661 359.869 401.321 359.088 399.981 359.088C390.806 359.283 381.528 357.039 372.353 360.552C368.642 362.015 363.9 361.137 359.674 361.137C355.344 361.235 351.117 361.332 346.788 361.137C335.448 360.552 323.902 360.942 312.975 358.893C293.594 355.283 274.523 350.111 255.349 345.427C248.751 343.866 241.535 343.573 236.793 337.718C236.277 337.035 235.04 336.938 233.906 336.743H214.216C216.691 338.011 219.268 339.182 221.742 340.451C225.453 342.305 228.03 346.11 231.845 347.769Z" fill="black" fill-opacity="0.07"/>
<path d="M283.079 401.632C280.399 400.949 277.203 400.169 274.626 400.852C262.565 404.072 251.225 399.486 239.885 397.827C225.659 395.778 212.258 389.728 200.3 381.629C188.96 374.018 177.62 366.504 166.075 359.381C148.343 348.355 135.251 333.523 124.942 316.349C120.51 309.031 115.871 302.2 109.17 297.126L105.871 300.639C106.696 300.834 107.314 301.127 107.727 301.517C112.984 307.567 118.036 313.91 122.984 320.252C124.118 321.716 124.633 323.667 125.355 325.326C124.839 325.814 124.221 326.302 123.705 326.79C121.541 325.326 118.86 324.253 117.211 322.399C112.263 316.739 107.624 310.982 103.088 305.03C102.882 304.737 102.675 304.249 102.572 303.859L98.3457 308.348C100.511 311.86 102.675 315.276 105.046 318.593C109.376 324.838 114.324 330.791 122.984 332.645C124.839 333.035 126.592 334.499 127.932 335.865C132.262 340.353 137.107 344.549 140.303 349.721C145.457 357.82 154.838 360.845 161.436 367.285C165.147 370.895 170.713 372.749 175.352 375.579C185.352 381.629 195.145 387.874 205.042 394.021C206.588 394.997 208.031 395.973 209.578 396.851C217.928 401.437 226.381 406.023 234.834 410.61C235.04 410.707 235.247 410.707 235.453 410.61C237.514 410.122 239.37 410.317 241.019 410.805H248.648C247.514 409.439 247.102 407.585 247.72 404.95C249.576 405.145 251.122 405.243 252.668 405.535C258.647 406.414 264.523 407.877 270.503 408.072C278.543 408.365 286.481 409.146 294.213 410.805H332.562C326.789 409.536 321.016 408.463 315.14 407.78C304.212 406.414 293.594 404.462 283.079 401.632Z" fill="black" fill-opacity="0.07"/>
<path d="M421.732 408.756C420.392 408.56 418.949 408.268 417.608 408.463C410.495 409.244 403.382 410.122 396.372 410.902H432.453C432.35 410.902 432.247 410.805 432.247 410.805C428.742 409.927 425.237 409.341 421.732 408.756Z" fill="black" fill-opacity="0.07"/>
<path d="M288.131 346.404C291.842 348.453 296.481 349.136 300.913 349.819C305.862 350.502 310.913 350.209 315.861 350.795C321.84 351.478 327.819 353.429 333.799 353.527C341.736 353.722 349.777 351.478 357.715 353.624C358.437 353.82 359.261 353.429 360.086 353.234C373.384 349.233 386.889 348.843 400.29 351.673C409.877 353.722 419.052 356.942 428.639 359.089C430.392 359.381 432.248 359.772 434 360.162V354.405C427.402 353.624 420.805 352.941 414.31 351.77C412.145 351.38 410.599 348.55 408.743 346.794C411.218 346.208 413.795 344.842 416.166 345.233C422.145 346.208 428.124 347.867 434 349.136V340.549C429.67 339.768 425.341 338.988 421.011 338.207C419.98 338.012 418.949 338.012 417.918 338.109C405.857 338.89 393.796 339.671 381.734 340.549C380.6 340.646 379.466 341.33 378.333 341.622C375.343 342.305 372.353 343.671 369.467 343.574C351.942 342.5 334.52 341.232 316.995 339.768C312.356 339.378 307.82 337.719 303.181 337.134C301.944 336.939 300.81 336.841 299.573 336.743H251.122C256.586 338.695 262.152 340.451 267.822 341.33C274.832 342.5 281.636 342.988 288.131 346.404Z" fill="black" fill-opacity="0.07"/>
<path d="M196.898 227.942C199.785 228.821 202.877 230.577 204.836 232.821C216.279 245.702 230.196 254.484 247.927 257.411C250.916 257.899 253.906 258.289 256.792 258.582L262.875 252.239C260.71 252.044 258.648 251.849 256.586 251.459C246.277 249.605 236.381 245.507 226.381 241.994C224.32 241.311 222.773 239.066 221.021 237.505C221.639 236.627 222.361 235.749 222.98 234.871C232.67 237.895 242.257 241.799 252.153 243.75C257.514 244.726 262.875 245.994 268.441 246.482L276.895 237.7C269.781 238.481 262.05 237.31 254.731 237.017C251.329 236.92 248.03 235.358 244.628 234.383C237.927 232.431 231.123 230.577 224.526 228.528C218.959 226.869 213.083 225.503 207.929 223.064C203.29 220.819 199.475 216.916 194.837 214.574C193.29 213.794 191.95 212.915 190.816 211.842L183.909 219.063C187.208 223.259 191.228 226.284 196.898 227.942Z" fill="black" fill-opacity="0.07"/>
<path d="M184.836 243.458C186.692 245.117 188.444 246.971 190.712 248.044C198.547 251.947 208.237 252.728 213.186 261.022C213.495 261.51 214.629 261.412 215.35 261.802C218.237 263.071 221.536 263.949 224.01 265.803C229.267 269.706 235.04 271.365 241.638 271.17C242.566 271.17 243.597 271.17 244.524 271.268L251.328 264.144C243.287 262.486 234.628 261.607 227.824 257.802C211.949 248.825 196.898 238.384 181.847 228.138C180.507 227.162 179.167 226.186 177.93 225.113L171.641 231.651C171.744 231.846 171.95 231.944 172.053 232.139C176.177 236.139 180.61 239.75 184.836 243.458Z" fill="black" fill-opacity="0.07"/>
<path d="M131.437 297.32C139.375 310.103 149.89 320.056 163.807 327.374C179.476 335.668 194.114 345.426 209.268 354.599C210.093 355.086 211.124 355.379 211.949 355.77C217.206 358.307 222.36 360.844 227.618 363.381C233.082 366.113 238.339 369.626 244.215 371.382C254.73 374.505 265.554 376.456 276.275 378.993C281.533 380.164 286.687 381.628 291.945 382.604C296.378 383.384 301.017 383.287 305.552 383.97C315.449 385.531 325.242 387.482 335.036 389.239C336.376 389.532 337.922 389.532 339.056 390.215C345.344 393.923 352.148 393.923 359.261 393.044C361.735 392.752 364.313 393.727 366.787 393.727C376.168 393.825 385.755 399.777 393.899 393.532C398.022 394.898 401.527 396.46 405.238 397.143C408.847 397.826 412.558 397.728 416.166 398.021C420.392 398.411 424.722 398.899 428.949 399.289C430.598 399.387 432.248 399.582 434 399.68V391.483C432.351 390.702 430.701 389.629 429.258 388.165C429.155 388.068 428.846 388.165 428.639 388.165C422.557 387.873 416.475 387.482 410.29 387.385C404.311 387.19 397.61 390.019 393.28 383.287C392.971 382.799 391.425 382.994 390.394 382.799C387.198 382.213 384.105 381.53 380.91 380.945C377.92 380.457 374.931 379.871 371.941 379.676C363.694 379.091 355.447 378.603 347.2 378.017C345.654 377.92 344.004 377.042 342.458 377.042C333.386 376.944 323.902 378.31 315.243 376.554C305.14 374.602 295.037 373.138 285.038 370.992C274.626 368.747 264.42 365.918 254.318 362.99C242.875 359.673 230.504 358.014 222.464 348.158C222.051 347.573 221.02 347.475 220.299 347.183C213.598 343.67 206.897 340.157 200.3 336.644H182.156L188.238 330.302C178.033 324.935 167.724 319.47 157.518 314.006C156.281 313.421 155.456 312.152 154.426 311.274C151.951 309.127 149.477 306.785 146.797 304.834C141.127 300.638 137.313 295.466 135.767 288.636C140.406 290.295 144.323 292.539 148.034 295.173C156.487 301.223 164.837 307.371 173.188 313.616C175.765 315.47 178.136 317.616 180.61 319.568C182.156 320.739 183.702 322.105 185.455 322.886C187.723 323.959 189.991 325.032 192.156 326.106L198.856 319.08C192.98 315.567 187.207 312.152 181.331 308.639C179.476 307.468 177.414 306.59 175.559 305.322C170.816 302.297 165.353 299.76 161.539 295.857C152.57 286.587 141.23 281.513 129.066 277.707C128.654 277.609 128.344 277.512 127.932 277.317L121.747 283.757C122.056 284.342 122.365 284.928 122.571 285.611C124.324 290.002 128.86 293.222 131.437 297.32Z" fill="black" fill-opacity="0.07"/>
<path d="M173.703 269.414C185.661 276.634 197.722 283.953 209.784 291.076C213.186 293.125 216.691 295.174 220.299 296.833L228.03 288.734C221.123 286.392 214.216 283.953 207.31 281.611C202.361 279.952 196.692 279.367 192.568 276.537C187.826 273.219 184.733 267.852 180.507 263.852C173.6 257.314 166.384 251.069 159.271 244.726L154.219 249.995C159.786 255.948 165.765 261.51 171.538 267.364C172.26 268.047 172.878 268.828 173.703 269.414Z" fill="black" fill-opacity="0.07"/>
<path d="M189.991 264.731C195.351 269.902 200.918 271.756 207.619 273.513C212.67 274.781 217.309 277.611 222.154 279.465C225.762 280.831 229.37 282.392 233.082 283.466L238.854 277.514C228.546 275.66 218.855 272.83 210.505 265.902C209.887 265.414 209.062 265.121 208.34 264.926C198.547 262.682 191.434 256.534 184.63 250.094C181.022 246.679 178.239 242.483 172.26 242.581C171.229 242.581 169.992 241.117 169.167 240.141C168.342 239.165 167.518 238.287 166.59 237.311L163.91 240.141C165.25 241.312 166.487 242.385 167.724 243.654C175.043 250.68 182.568 257.705 189.991 264.731Z" fill="black" fill-opacity="0.07"/>
<path d="M137.932 272.342C137.416 270.976 137.004 269.707 136.488 268.536L132.056 273.22C133.808 273.318 135.767 273.025 137.932 272.342Z" fill="black" fill-opacity="0.07"/>
<path d="M154.219 277.22C155.147 277.61 156.074 278.293 156.487 279.074C160.198 285.514 164.425 291.369 172.156 294.004C173.084 294.296 173.393 295.955 174.218 296.736C179.888 301.517 184.939 308.347 191.64 310.494C195.66 311.763 199.165 313.617 202.567 315.471L207.103 310.787C203.186 308.64 199.268 306.494 195.557 303.956C188.341 299.078 181.64 293.418 174.836 287.856C173.806 287.075 173.496 285.514 172.775 284.343C175.661 284.734 177.723 285.807 179.578 287.173C184.321 290.491 188.753 294.394 193.805 297.224C199.578 300.346 205.66 302.981 211.742 305.713L216.381 300.834C211.536 298.297 206.794 295.565 201.949 292.833C191.33 286.783 180.816 280.733 170.404 274.585C169.27 273.902 168.445 272.634 167.517 271.658C163.394 266.974 159.786 261.608 155.044 257.607C153.497 256.338 152.054 254.972 150.611 253.606L140.817 263.852C144.116 269.414 147.518 274.585 154.219 277.22ZM155.456 271.561C153.394 268.633 151.332 265.803 149.271 262.876C154.734 263.559 157.621 265.901 155.456 271.561Z" fill="black" fill-opacity="0.07"/>
<path d="M425.959 9.17278C430.495 18.4427 426.578 28.2981 429.464 37.568C430.598 41.1784 432.041 45.8622 430.598 48.7895C425.031 60.011 428.846 73.7695 419.465 83.8201C419.155 84.2104 418.846 84.8934 419.052 85.3813C419.362 86.4547 419.568 87.4305 419.568 88.4062L434 73.3792V0.0980225H424.825C424.722 3.3181 424.722 6.53817 425.959 9.17278Z" fill="black" fill-opacity="0.07"/>
<path d="M201.743 208.721C205.042 210.965 208.341 213.404 211.949 215.063C221.227 219.357 230.298 223.553 240.607 225.992C249.06 228.041 257.823 231.164 266.276 231.066C272.152 230.969 278.131 230.676 284.007 230.188L291.842 221.991C282.564 223.748 273.08 222.382 263.802 221.503C259.06 221.016 254.627 219.942 249.679 220.528C246.895 220.918 243.597 220.137 240.916 219.064C236.587 217.308 232.669 214.283 228.237 212.917C222.567 211.258 218.856 208.916 218.237 202.866C218.031 200.622 216.381 198.28 214.732 196.426C213.289 194.767 211.742 193.206 210.196 191.547L197.31 204.915C198.65 206.281 200.094 207.55 201.743 208.721ZM206.588 196.523C209.062 201.012 210.712 203.939 212.361 206.964C211.846 207.257 211.227 207.452 210.712 207.745C207.31 205.501 205.557 202.476 206.588 196.523Z" fill="black" fill-opacity="0.07"/>
<path d="M234.113 204.621C237.411 207.646 241.844 210.964 246.071 211.256C257.101 212.135 267.41 216.33 279.162 215.16C287.512 214.281 295.347 213.013 302.769 210.573L319.16 193.497C315.655 195.449 312.047 197.205 308.542 198.864C297.099 204.133 284.42 205.89 271.74 207.061C269.163 207.256 266.276 207.451 264.008 208.524C257.823 211.452 252.462 209.89 247.514 206.085C246.38 205.207 245.143 203.06 245.452 201.986C245.865 200.816 248.029 199.547 249.473 199.449C259.369 198.766 269.472 199.157 279.162 197.498C289.574 195.742 300.192 193.204 309.573 188.813C320.5 183.739 330.191 176.421 340.293 169.883C342.046 168.81 343.283 166.663 344.211 164.809C346.891 159.442 350.602 155.442 356.272 152.319C359.983 150.172 362.251 145.391 364.519 141.39C369.158 133.584 373.488 125.583 377.817 117.679C379.364 114.752 380.807 111.824 382.25 108.897C386.064 100.993 389.878 93.0893 393.59 85.0879C394.517 83.1363 395.033 81.0872 395.651 79.038C398.229 69.4754 400.909 59.9127 403.074 50.35C404.208 45.3736 404.723 40.2995 404.929 35.2254C405.135 29.761 407.197 25.5652 412.042 22.7354C412.764 22.833 413.486 23.0282 414.207 23.1257C414.001 25.1749 413.898 27.3216 413.383 29.3707C412.97 31.0296 411.527 32.3956 411.218 34.0545C408.847 48.3985 406.682 62.7425 404.105 77.0864C403.589 79.9162 400.703 82.3557 399.672 85.1855C398.332 88.6007 397.816 92.3087 396.888 95.8215C396.785 96.4069 396.888 96.9924 396.682 97.4803C393.074 104.116 389.569 110.653 385.858 117.191C383.178 121.972 379.776 126.363 377.405 131.34C376.992 132.121 376.58 132.901 376.168 133.682L403.486 105.189C407.403 97.9682 411.115 90.5522 413.589 82.9411C415.857 76.0131 417.506 68.7923 419.98 61.8642C422.145 55.8144 422.764 48.9839 422.351 42.6414C421.63 31.7126 424.825 20.296 418.331 9.95268C417.506 8.58659 417.506 6.53743 417.815 4.8786C418.021 3.21977 418.125 1.65852 418.228 -0.000305176H406.785C406.785 0.585175 406.682 1.07307 406.682 1.65854C406.476 4.68346 407.713 8.09868 406.682 10.7333C404.002 17.5638 400.393 24.0039 397.404 30.6392C396.682 32.2005 396.476 33.9569 396.373 35.7133C395.548 49.3743 393.796 63.0352 388.332 75.7204C382.353 89.674 376.58 103.823 368.849 116.898C361.735 128.9 351.736 139.341 343.901 151.051C337.819 160.223 329.881 167.054 320.294 172.615C313.284 176.616 306.79 181.398 299.78 185.398C297.099 186.862 293.491 186.959 290.399 187.838C285.347 189.204 280.193 190.57 275.142 191.936C274.008 192.229 272.874 192.521 271.637 192.619C261.946 193.302 252.256 194.083 242.463 194.473C240.401 194.571 237.824 193.888 236.174 192.619C230.505 188.228 226.484 183.056 223.701 177.592L215.66 185.984C221.433 192.424 227.618 198.766 234.113 204.621Z" fill="black" fill-opacity="0.07"/>
<path d="M271.121 146.953C271.224 148.709 272.049 151.539 273.183 151.832C274.935 152.417 277.409 151.344 279.574 150.954C278.956 150.466 278.337 149.978 277.719 149.392C278.543 146.172 278.646 142.659 280.296 139.83C284.729 131.926 290.502 124.607 294.522 116.509C301.429 102.457 309.16 88.9915 320.603 77.77C321.222 77.0869 321.531 76.1112 321.943 75.1354L279.368 119.533C278.853 120.412 278.337 121.192 277.719 122.07C272.564 129.682 270.606 138.073 271.121 146.953Z" fill="black" fill-opacity="0.07"/>
<path d="M245.143 183.837C256.586 183.837 266.792 189.009 279.575 185.106C299.574 178.959 316.171 168.518 331.531 156.125C342.149 147.538 351.118 136.902 357.509 125.095C366.993 107.434 375.55 89.2842 384.312 71.3298C385.24 69.4758 385.446 67.2315 385.962 65.1824C389.157 51.1311 388.642 36.6896 394.621 22.8335C397.507 16.003 398.023 7.80643 397.507 0.0977631H393.796L386.065 8.19673C386.271 18.9303 381.735 29.2736 380.704 40.0072C380.292 44.1055 379.982 48.2038 379.57 52.3021C378.952 59.2301 385.137 67.9146 374.106 72.3056C373.9 72.4032 373.9 72.5983 373.797 72.7935C369.983 80.7949 366.375 88.7963 362.457 96.6025C360.499 100.408 358.128 104.018 355.963 107.726C354.417 110.556 352.664 113.386 351.633 116.411C349.056 124.022 346.582 131.731 339.572 136.805C337.51 138.366 334.624 138.951 332.047 140.025C331.531 139.439 331.119 138.854 330.603 138.268C332.15 135.927 333.18 132.999 335.345 131.243C345.757 122.656 348.644 109.971 354.932 99.1396C361.53 87.7229 366.787 75.5257 372.972 63.8163C375.55 59.035 376.477 54.5464 372.663 50.3505C369.88 47.228 369.88 44.3007 371.014 40.7879C372.766 35.1283 375.24 29.4688 375.859 23.6141C376.065 21.8577 376.168 20.0037 376.271 18.2473L361.839 33.2743C360.911 36.2017 359.674 39.0314 357.818 41.6661C356.891 42.9346 356.169 44.4958 355.963 45.9595C354.417 61.9623 342.046 74.062 338.232 89.2842C337.923 90.4551 335.655 91.2357 334.314 92.2115C333.696 91.8212 333.18 91.4309 332.562 91.1382C333.799 86.1617 334.624 81.0876 336.479 76.3063C340.294 66.6461 344.314 56.9858 348.334 47.3256L333.077 63.2308C330.191 69.671 327.201 76.0135 324.212 82.3561C323.078 84.698 320.398 86.2593 318.748 88.5036C315.656 92.5043 312.563 96.505 309.883 100.798C303.8 110.459 297.718 120.119 291.945 129.974C289.677 133.877 288.028 138.073 286.069 142.172C296.894 137.39 298.749 126.852 305.759 119.533C311.944 113.093 318.233 104.994 319.057 95.0413C319.161 93.8704 322.15 92.8946 323.799 91.9188C324.212 93.5776 325.552 95.6268 324.933 96.8953C322.15 102.848 319.676 108.995 315.759 114.264C305.141 128.413 294.316 142.464 282.77 155.832C279.369 159.833 273.08 161.687 267.926 164.224C266.998 164.712 265.142 164.029 264.008 163.444C259.06 160.809 257.411 155.93 259.782 150.466C262.153 144.904 263.802 138.951 265.967 133.292L252.772 147.05C251.844 149.295 251.019 151.539 250.298 153.881C249.679 156.125 250.813 159.248 252.05 161.59C258.442 173.982 273.08 175.738 283.492 165.395C290.09 158.955 297.409 152.905 302.873 145.684C314.315 130.462 329.263 117.289 336.067 99.1396C336.685 97.3832 338.129 95.8219 339.572 94.4558C346.582 88.2108 351.427 80.8925 353.798 71.8177C355.241 66.1582 358.334 60.8889 361.014 55.5221C361.53 54.4488 363.695 54.0585 365.035 53.3754C365.653 53.8633 366.375 54.2536 366.993 54.7415C364.313 61.0841 362.251 67.7194 358.849 73.6717C349.365 90.26 339.572 106.653 329.366 122.949C327.201 126.364 324.727 128.803 326.995 133.194C327.717 134.658 326.48 137.097 325.964 139.049C322.975 150.075 313.491 156.711 306.275 164.907C305.553 165.785 303.697 166.664 302.873 166.273C301.945 165.883 300.708 163.834 301.12 163.151C302.77 160.224 304.213 156.32 306.996 154.954C313.181 151.832 315.037 145.977 318.542 141.196C319.367 140.122 319.161 138.268 319.779 135.243C317.202 137.488 316.068 138.171 315.243 139.244C306.996 149.002 298.646 158.662 290.708 168.713C281.018 180.91 261.534 183.837 248.545 174.665C242.772 170.664 240.298 164.712 241.638 158.76L234.01 166.761C234.216 167.737 234.319 168.713 234.319 169.689C234.216 177.105 242.257 178.568 245.143 183.837Z" fill="black" fill-opacity="0.07"/>
<path d="M24.225 390.509C23.7096 389.435 23.1941 388.362 22.7818 387.191L10.205 400.169C10.3081 400.266 10.3082 400.461 10.4112 400.559C10.8236 401.34 11.339 402.218 11.7514 403.194C12.6792 405.243 13.71 407.292 15.2564 409.048C15.7718 409.634 16.2873 410.219 16.6996 410.902H35.1523C33.1937 408.463 31.3381 405.731 29.6887 402.413C27.8331 398.51 25.9775 394.412 24.225 390.509Z" fill="black" fill-opacity="0.07"/>
<path d="M45.0494 368.651C44.3278 367.87 43.7093 366.895 43.0907 365.821L35.8746 373.432C41.9568 378.506 47.7297 384.849 53.7088 392.753C58.3478 398.803 63.0898 404.95 67.7288 410.902H81.4395C81.0271 410.512 80.6147 410.024 80.2024 409.634C67.2133 394.509 55.6675 381.141 45.0494 368.651Z" fill="black" fill-opacity="0.07"/>
<path d="M32.2663 377.238L23.71 386.117C25.1532 388.264 26.6996 390.411 28.0397 392.46C32.2663 398.705 36.596 405.048 41.8535 410.805H44.7399H61.8525C58.9661 407.585 56.0796 404.365 53.2963 401.144C46.3894 393.436 39.1732 385.337 32.2663 377.238Z" fill="black" fill-opacity="0.07"/>
<path d="M129.272 403.389C120.51 396.363 111.85 389.045 103.5 382.019C100.408 379.482 97.4181 376.848 94.3255 374.311C93.8101 373.823 93.2946 373.237 92.7792 372.652C92.4699 372.261 92.0576 371.871 91.7483 371.481C90.7174 370.31 89.5835 369.237 88.5526 368.066C86.8001 366.212 85.0476 364.358 83.3982 362.504C81.1302 360.064 78.8623 357.625 76.5944 355.185C72.8832 351.185 69.0689 347.086 65.3578 342.89L56.2861 352.356C59.5849 357.625 64.43 363.772 72.5739 367.48C74.4295 368.358 76.0789 370.212 77.7283 372.066L78.0376 372.457C79.8932 374.603 81.7488 377.043 83.3982 379.287C87.0063 384.068 90.8205 389.142 95.7687 392.655C99.9953 395.68 104.016 399.291 107.83 402.803C110.923 405.536 114.015 408.365 117.314 411H138.344H138.653C135.87 408.756 133.087 406.609 130.303 404.365L129.272 403.389Z" fill="black" fill-opacity="0.07"/>
<path d="M97.8297 402.218C95.3556 397.729 92.8815 393.143 89.2735 389.435C87.4179 387.581 85.6654 385.727 83.8098 383.873C74.2226 374.115 64.3262 363.967 53.605 354.99L44.8425 364.162C47.2136 366.797 49.7908 369.334 53.0896 371.286C54.0174 371.773 54.739 372.847 55.6668 373.92C55.976 374.311 56.2853 374.798 56.6977 375.189C57.7285 376.36 58.5532 377.726 59.378 379.189C61.749 382.995 64.4293 387.288 70.6145 388.264C70.6145 388.362 70.7176 388.362 70.7176 388.459C70.8207 388.557 70.9238 388.752 70.9238 388.85C76.4905 396.168 82.0573 403.486 87.624 410.902H103.396C102.263 409.634 101.129 408.073 99.9946 406.121C99.273 404.852 98.5514 403.584 97.8297 402.218Z" fill="black" fill-opacity="0.07"/>
<path d="M194.836 400.754C193.29 399.974 191.949 398.607 190.609 397.046C189.269 395.583 187.826 394.119 186.176 393.046C183.702 391.484 180.919 390.118 178.239 388.752C174.012 386.605 169.992 384.654 167.002 381.824C163.6 378.604 159.58 375.872 155.766 373.237C148.549 368.358 141.849 363.675 138.241 355.868C137.21 353.624 135.045 352.063 132.983 350.501C132.055 349.818 131.128 349.135 130.406 348.452C125.664 344.159 121.025 339.768 116.283 335.377L111.541 330.986C111.232 330.791 111.025 330.498 110.819 330.205C110.51 329.912 110.201 329.62 109.891 329.327C108.345 327.961 106.696 326.595 105.149 325.326C101.747 322.594 98.5517 320.057 96.49 316.837C95.6653 315.471 94.8406 314.202 94.0159 312.836L85.6657 321.521C89.3769 326.009 92.985 330.498 96.6961 334.791C100.201 338.987 103.706 343.183 107.211 347.477C107.933 348.355 108.861 348.94 109.685 349.526C109.891 349.721 110.201 349.818 110.407 350.014C112.469 351.477 114.427 352.843 116.489 354.307C121.128 357.527 125.973 360.942 130.406 364.455C132.055 365.821 133.499 367.48 134.942 369.334C136.076 370.7 137.21 372.164 138.55 373.432C140.612 375.481 142.776 377.335 144.941 379.189C146.797 380.751 148.652 382.41 150.508 384.166C152.261 385.825 153.91 387.581 155.559 389.24C158.033 391.777 160.508 394.412 163.291 396.754C167.518 400.364 172.053 403.779 176.486 407.097C178.136 408.365 179.785 409.634 181.434 410.902H217.412C216.484 410.512 215.557 410.122 214.732 409.731C207.928 406.902 201.227 404.072 194.836 400.754Z" fill="black" fill-opacity="0.07"/>
<path d="M128.035 371.188C123.808 366.895 119.375 362.503 114.943 358.21C113.499 356.844 111.747 356.063 109.994 355.185C109.273 354.892 108.551 354.502 107.933 354.209L106.283 353.331L102.881 358.112L104.221 359.283C105.458 360.357 106.592 361.43 107.829 362.406C110.51 364.748 113.396 367.285 116.076 369.724L117.314 370.895C119.994 373.335 122.88 375.969 125.148 378.701C125.561 379.287 125.87 380.263 126.076 381.239C124.839 380.458 123.705 379.677 122.674 378.799C119.478 375.872 116.283 372.847 113.19 369.822C109.376 366.114 105.355 362.308 101.335 358.698C99.3762 356.942 98.4484 355.771 98.5515 355.283C98.5515 355.283 98.7577 354.405 102.057 353.136L104.737 352.16L99.4793 346.403C97.4176 344.061 95.562 342.012 93.7064 340.061C89.4798 335.474 85.2532 330.791 81.2327 326.107L70.2023 337.621C74.0166 341.915 78.037 346.696 82.7791 352.453C84.8408 354.99 86.9026 357.625 88.8613 360.259C90.6138 362.601 92.4693 364.943 94.3249 367.285C96.2836 369.724 98.4484 372.066 100.923 374.408C102.572 375.969 104.221 377.628 105.768 379.287C109.994 383.483 114.324 387.874 119.272 391.387C128.756 398.12 138.343 404.56 147.828 410.805H174.527C167.105 405.828 159.683 400.559 152.879 394.899C144.323 387.581 136.076 379.287 128.035 371.188Z" fill="black" fill-opacity="0.07"/>
<path d="M0.0001688 410.902H8.04102C7.11322 409.146 6.08236 407.292 5.15457 405.536L0.0001688 410.902Z" fill="black" fill-opacity="0.07"/>
</svg>
