<svg width="19" height="19" viewBox="0 0 19 19" fill="none" xmlns="http://www.w3.org/2000/svg">
<path d="M18.8606 9.50011C18.8606 4.34688 14.6533 0.139648 9.50011 0.139648C4.34688 0.139648 0.139648 4.34688 0.139648 9.50011C0.139648 14.6533 4.34688 18.8606 9.50011 18.8606C14.6533 18.8606 18.8606 14.6533 18.8606 9.50011ZM2.13124 9.50011C2.13124 5.44225 5.44225 2.13124 9.50011 2.13124C13.558 2.13124 16.869 5.44225 16.869 9.50011C16.869 13.558 13.558 16.869 9.50011 16.869C5.44225 16.869 2.13124 13.558 2.13124 9.50011Z" fill="white"/>
<path d="M13.5831 5.89014L8.40493 10.8193L5.44244 7.85683L4.02344 9.25094L7.68298 12.9105C7.88214 13.1096 8.13109 13.2092 8.38004 13.2092C8.62899 13.2092 8.87793 13.1096 9.07709 12.9354L14.9772 7.33404L13.5831 5.89014Z" fill="white"/>
</svg>
