<svg width="124" height="33" viewBox="0 0 124 33" fill="none" xmlns="http://www.w3.org/2000/svg">
<path fill-rule="evenodd" clip-rule="evenodd" d="M42.9504 32.5241H45.8354H50.9679H66.8496V28.0316H53.371L66.8496 13.1521V8.30396H64.3236" fill="#D89713"/>
<path fill-rule="evenodd" clip-rule="evenodd" d="M14.928 13.1647H5.46866V4.64648H14.928C17.7654 4.64648 19.599 6.48313 19.599 8.9056C19.599 11.3281 17.7654 13.1647 14.928 13.1647ZM5.46866 17.6172H17.0545C20.0697 17.6172 22.0955 19.5988 22.0955 22.6964C22.0955 25.7869 20.0985 27.6842 17.0081 27.6842H5.46866V17.6172ZM21.9616 14.4522C23.7494 12.8449 24.8662 10.5504 24.8662 8.3806C24.8662 3.36703 20.8727 0.000976562 14.9291 0.000976562H0V32.5251H17.0091C23.2019 32.5251 27.3628 28.7127 27.3628 23.0413C27.3628 19.3232 25.2272 15.9825 21.9616 14.4522Z" fill="#F4F6F8"/>
<path fill-rule="evenodd" clip-rule="evenodd" d="M30.135 32.5241H34.9841V8.30396H30.135V32.5241Z" fill="#F4F6F8"/>
<path fill-rule="evenodd" clip-rule="evenodd" d="M30.135 4.49802H34.9841V0H30.135V4.49802Z" fill="#F4F6F8"/>
<path fill-rule="evenodd" clip-rule="evenodd" d="M69.9669 32.5242H74.4697V0H69.9669V32.5242Z" fill="#F4F6F8"/>
<path fill-rule="evenodd" clip-rule="evenodd" d="M76.8943 32.5242H81.7434V0H76.8943V32.5242Z" fill="#F4F6F8"/>
<path fill-rule="evenodd" clip-rule="evenodd" d="M96.6379 11.8203C99.8704 11.8203 102.565 14.1433 103.534 17.3412H89.7419C90.7103 14.1433 93.4049 11.8203 96.6379 11.8203ZM103.289 24.1359C102.232 26.534 99.6186 28.4794 96.6369 28.4794C92.6547 28.4794 89.8174 25.7345 89.4296 21.7374H108.414V20.6299V20.4036C108.414 12.7528 103.708 7.6123 96.4986 7.6123C89.2892 7.6123 84.5144 12.6057 84.5144 20.038C84.5144 27.4706 89.393 32.5244 96.6023 32.5244C101.93 32.5244 106.577 29.332 108.138 24.1359H103.289Z" fill="#F4F6F8"/>
<path fill-rule="evenodd" clip-rule="evenodd" d="M61.3078 8.30396H58.6892H53.5896H37.755V12.9917H51.2019L37.755 28.5078V32.5241H40.0717" fill="#F4F6F8"/>
<path fill-rule="evenodd" clip-rule="evenodd" d="M124 13.1751V8.53135H116.897V0.345947L112.162 3.83747V8.53135H108.414V13.1751H112.162V25.8628C112.162 30.0267 114.434 32.5241 118.321 32.5241H122.224V28.6543H119.158C117.663 28.6543 116.897 27.3879 116.897 25.8628V13.1751H124Z" fill="#F4F6F8"/>
</svg>
