<svg width="89" height="83" viewBox="0 0 89 83" fill="none" xmlns="http://www.w3.org/2000/svg">
<path fill-rule="evenodd" clip-rule="evenodd" d="M10.3783 46.6331L10.3783 46.633C10.3558 45.9509 10.3347 45.311 10.3196 44.7179C10.2643 42.5391 10.2954 41.0593 10.5119 40.001C10.7089 39.038 10.9936 38.739 11.2627 38.5637C11.6619 38.3038 12.5416 38 14.5001 38C16.3692 38 17.3473 38.3362 17.8814 38.6885C18.354 39.0002 18.7446 39.4983 19.0358 40.5064C19.3463 41.5809 19.4857 43.0404 19.524 45.0401C19.547 46.2415 19.5343 47.5077 19.5201 48.9109V48.911C19.5172 49.2027 19.5142 49.5004 19.5114 49.8046L15 48L10.4698 49.8121C10.4456 48.6746 10.4105 47.6105 10.3783 46.6331ZM5.49786 51.8009C5.4864 49.998 5.43297 48.3804 5.38357 46.885L5.38356 46.8848C5.36027 46.1798 5.33788 45.5019 5.32121 44.8446C5.2671 42.7109 5.26728 40.6907 5.61331 38.999C5.97883 37.212 6.78783 35.511 8.53435 34.3738C10.1508 33.3212 12.2086 33 14.5001 33C16.881 33 18.9654 33.4138 20.6344 34.5146C22.365 35.6561 23.3181 37.3142 23.8394 39.1186C24.3415 40.8566 24.4833 42.8658 24.5231 44.9443C24.5471 46.1963 24.5334 47.6062 24.5189 49.0857V49.0858C24.5103 49.9719 24.5014 50.883 24.5003 51.8001L27.5 53L30.5 72.5C27.3333 75.8333 20 82.5 15 82.5C9.5 82.5 3.16667 75.8333 0 72.5L2.5 53L5.49786 51.8009Z" fill="#202932"/>
<path d="M28.9354 49.0322C25.5559 49.0322 22.8064 51.7817 22.8064 55.1613C22.8064 57.0772 23.7307 58.8877 25.258 60.0387V68.6451H32.6128V60.0387C34.1402 58.8877 35.0645 57.0772 35.0645 55.1613C35.0645 51.7817 32.315 49.0322 28.9354 49.0322ZM30.7705 58.3251L30.1612 58.6793V66.1935H27.7096V58.6793L27.1004 58.3251C25.9469 57.6533 25.258 56.4704 25.258 55.1613C25.258 53.1338 26.9079 51.4838 28.9354 51.4838C30.9629 51.4838 32.6128 53.1338 32.6128 55.1613C32.6128 56.4704 31.9239 57.6533 30.7705 58.3251Z" fill="#F0B420"/>
<path d="M57.129 7.35493V4.90332C49.0178 4.90332 42.4193 11.5018 42.4193 19.613H44.8709C44.8709 12.8539 50.3699 7.35493 57.129 7.35493Z" fill="#F0B420"/>
<path d="M62.4786 5.90771C61.6168 5.57061 60.7171 5.31565 59.8026 5.14648L59.3589 7.55765C60.1213 7.69861 60.8703 7.9119 61.5862 8.19139L62.4786 5.90771Z" fill="#F0B420"/>
<path d="M84.0967 28.1935C84.0967 24.8139 81.3473 22.0645 77.9677 22.0645V24.5161C79.9952 24.5161 81.6451 26.166 81.6451 28.1935C81.6451 30.221 79.9952 31.8709 77.9677 31.8709H74.2903V34.3225H77.9677C81.3473 34.3225 84.0967 31.573 84.0967 28.1935Z" fill="#F0B420"/>
<path d="M71.8387 31.8711H69.3871V34.3227H71.8387V31.8711Z" fill="#F0B420"/>
<path d="M66.9355 31.8711H64.4839V34.3227H66.9355V31.8711Z" fill="#F0B420"/>
<path d="M79.1935 56.3867C76.4894 56.3867 74.2903 58.5858 74.2903 61.2899V66.1932C74.2903 68.8973 76.4894 71.0964 79.1935 71.0964C81.8976 71.0964 84.0967 68.8973 84.0967 66.1932V61.2899C84.0967 58.5858 81.8976 56.3867 79.1935 56.3867ZM81.6451 66.1932C81.6451 67.5452 80.5456 68.6448 79.1935 68.6448C77.8414 68.6448 76.7419 67.5452 76.7419 66.1932V61.2899C76.7419 59.9379 77.8414 58.8383 79.1935 58.8383C80.5456 58.8383 81.6451 59.9379 81.6451 61.2899V66.1932Z" fill="#F0B420"/>
<path d="M77.9677 51.4839C73.2631 51.4839 69.1186 54.4638 67.5754 58.8387H44.3169C43.5986 52.9487 42.4181 45.2506 42.4046 45.1685L42.298 44.4772L39.9677 43.5443V39.2258H77.9677C84.0502 39.2258 89 34.276 89 28.1935C89 22.1111 84.0502 17.1613 77.9677 17.1613C77.4983 17.1613 77.0374 17.2005 76.5826 17.2581C75.4156 7.47742 67.1365 0 57.129 0C48.6501 0 41.4326 5.41806 38.7003 12.9666C37.5492 12.5069 36.3173 12.2581 35.0645 12.2581C31.3234 12.2581 28.0688 14.3652 26.4152 17.453C25.6332 17.2802 24.8413 17.1613 24.0323 17.1613C17.9498 17.1613 13 22.1111 13 28.1935C13 31.8734 14.8706 35.3008 17.9032 37.3393V43.5443L15.573 44.4759L15.4663 45.1673C15.3658 45.8231 13 61.2401 13 64.9677C13 67.6584 17.3847 71.1483 26.0328 75.3381C26.9423 75.7769 27.9181 76 28.9355 76C29.9529 76 30.9286 75.7769 31.8382 75.3368C34.155 74.214 38.2761 72.0823 41.1935 69.8857V73.5484H48.5484V68.6452H51V73.5484H58.3548V68.6452H67.5754C69.1174 73.0201 73.2631 76 77.9677 76C84.0502 76 89 71.0514 89 64.9677V62.5161C89 56.4325 84.0502 51.4839 77.9677 51.4839ZM15.4516 28.1935C15.4516 23.4619 19.3006 19.6129 24.0323 19.6129C24.5434 19.6129 25.046 19.6681 25.5437 19.7563C25.3635 20.4979 25.2581 21.2677 25.2581 22.0645H27.7097C27.7097 18.0083 31.0083 14.7097 35.0645 14.7097C36.0819 14.7097 37.081 14.9242 38.0028 15.3263C37.6926 16.7077 37.5161 18.1395 37.5161 19.6129H39.9677C39.9677 10.1497 47.6658 2.45161 57.129 2.45161C65.9855 2.45161 73.2913 9.14452 74.18 17.8453C69.9595 19.3959 66.9355 23.4435 66.9355 28.1935H69.3871C69.3871 23.4619 73.2361 19.6129 77.9677 19.6129C82.6994 19.6129 86.5484 23.4619 86.5484 28.1935C86.5484 32.9252 82.6994 36.7742 77.9677 36.7742H39.9677V35.5484C39.9677 29.4659 35.0179 24.5161 28.9355 24.5161C23.2845 24.5161 18.6179 28.7893 17.9829 34.2735C16.3881 32.6812 15.4516 30.4968 15.4516 28.1935ZM20.3548 35.5484C20.3548 30.8168 24.2039 26.9677 28.9355 26.9677C33.6671 26.9677 37.5161 30.8168 37.5161 35.5484V42.5637L35.0645 41.583V35.5484C35.0645 32.1688 32.315 29.4194 28.9355 29.4194C25.5559 29.4194 22.8065 32.1688 22.8065 35.5484V41.583L20.3548 42.5637V35.5484ZM32.6129 40.6024L28.9355 39.1314L25.2581 40.6024V35.5484C25.2581 33.5209 26.908 31.871 28.9355 31.871C30.963 31.871 32.6129 33.5209 32.6129 35.5484V40.6024ZM30.7705 73.1304C29.6244 73.6857 28.2466 73.6857 27.1017 73.1304C18.5541 68.9896 15.4516 65.9803 15.4516 64.9677C15.4516 61.8542 17.3161 49.324 17.7843 46.2325L28.9355 41.7718L40.0866 46.2325C40.387 48.2134 41.2597 54.0666 41.8469 58.8387H38.2345L35.0645 62.0086V65.4752L38.2345 68.6452H38.7137C35.9091 70.5611 32.369 72.3557 30.7705 73.1304ZM86.5484 64.9677C86.5484 69.6981 82.6994 73.5484 77.9677 73.5484C74.0586 73.5484 70.646 70.9019 69.669 67.1129L69.4324 66.1936H55.9032V71.0968H53.4516V66.1936H46.0968V71.0968H43.6452V66.1936H39.2494L37.5161 64.4603V63.0236L39.2494 61.2903H69.4324L69.669 60.371C70.646 56.582 74.0586 53.9355 77.9677 53.9355C82.6994 53.9355 86.5484 57.7857 86.5484 62.5161V64.9677Z" fill="#F0B420"/>
</svg>
