<svg width="82" height="83" viewBox="0 0 82 83" fill="none" xmlns="http://www.w3.org/2000/svg">
<rect y="39.2656" width="69" height="43" rx="4" fill="#202932"/>
<path d="M69.2471 48.1719C67.3581 48.1719 65.8208 49.7091 65.8208 51.5982C65.8208 53.4872 67.3581 55.0245 69.2471 55.0245C71.1362 55.0245 72.6734 53.4872 72.6734 51.5982C72.6734 49.7091 71.1362 48.1719 69.2471 48.1719ZM69.2471 52.7403C68.6167 52.7403 68.105 52.2286 68.105 51.5982C68.105 50.9677 68.6167 50.4561 69.2471 50.4561C69.8776 50.4561 70.3892 50.9677 70.3892 51.5982C70.3892 52.2286 69.8776 52.7403 69.2471 52.7403Z" fill="#F0B420"/>
<path d="M79.5262 43.8134V31.0401C79.5262 29.1511 77.989 27.6138 76.0999 27.6138H72.6736V25.5945L77.4453 24.6306L72.484 0L46.7581 5.192C46.757 5.192 46.757 5.192 46.7558 5.192C46.7547 5.192 46.7547 5.192 46.7536 5.192L18.7914 10.8363L20.331 18.477H17.8526V27.6138H14.4263C12.5373 27.6138 11 29.1511 11 31.0401V67.5874C11 69.4765 12.5373 71.0137 14.4263 71.0137H76.0999C77.989 71.0137 79.5262 69.4765 79.5262 67.5874V59.3825C80.8522 58.9097 81.8104 57.6534 81.8104 56.1664V47.0296C81.8104 45.5425 80.8522 44.2862 79.5262 43.8134ZM76.0999 29.898C76.7304 29.898 77.242 30.4097 77.242 31.0401V43.6032H74.9578V42.4611C74.9578 40.5721 73.4205 39.0348 71.5315 39.0348H52.1157C50.2267 39.0348 48.6894 40.5721 48.6894 42.4611V48.1717H46.4052V36.7506H46.572H74.9578V34.4664H72.6736V29.898H76.0999ZM77.242 59.5927V61.8769H74.9578V59.5927H77.242ZM72.6736 61.8769H50.9736V56.1664C50.9736 55.5359 51.4853 55.0243 52.1157 55.0243H62.0349C63.3209 57.7208 66.0665 59.5927 69.2473 59.5927H72.6736V61.8769ZM67.1687 8.00386C68.4946 8.88557 70.0171 9.34241 71.5737 9.34241C71.7257 9.34241 71.8776 9.3287 72.0306 9.31957L73.4194 16.2133C72.1311 16.6701 70.9936 17.4445 70.0947 18.477H61.7494C61.8385 17.3291 61.7734 16.1722 61.5438 15.0255C60.8814 11.7351 58.9775 8.90156 56.1862 7.0445C55.5729 6.63677 54.9287 6.29756 54.2686 6.00632L64.0747 4.02706C64.6458 5.64656 65.7136 7.03536 67.1687 8.00386ZM70.3894 34.4664H58.4807C58.7959 33.3574 58.9684 32.213 58.9684 31.0401C58.9684 26.7915 56.8429 23.0362 53.6062 20.7612H63.6281C64.1318 24.2549 66.8957 27.0187 70.3894 27.5224V34.4664ZM39.0147 18.477C38.5201 13.3067 42.0104 8.47898 47.2081 7.43167C49.8932 6.88574 52.6343 7.4271 54.9196 8.94496C57.2038 10.4651 58.7605 12.7836 59.303 15.4755C59.504 16.4737 59.5554 17.4799 59.4606 18.477H39.0147ZM65.9363 20.7612H70.3894V25.2142C68.1554 24.7585 66.392 22.9951 65.9363 20.7612ZM36.7305 18.477H24.4049C26.8067 16.95 28.2663 14.2112 28.103 11.2863L40.1533 8.85473C37.7629 11.3754 36.4472 14.8462 36.7305 18.477ZM26.8981 20.7612H39.2043C35.9675 23.0362 33.8421 26.7915 33.8421 31.0401C33.8421 32.213 34.0145 33.3574 34.3298 34.4664H20.1368V27.5224C23.6305 27.0187 26.3944 24.2549 26.8981 20.7612ZM36.7225 34.4664C36.3341 33.37 36.1263 32.2222 36.1263 31.0401C36.1263 25.3718 40.737 20.7612 46.4052 20.7612C52.0735 20.7612 56.6841 25.3718 56.6841 31.0401C56.6841 32.2222 56.4763 33.37 56.088 34.4664H49.6659C49.7641 34.1558 49.8315 33.8325 49.8315 33.4911C49.8315 32.2484 49.1417 31.1326 48.0293 30.5753L45.8033 29.4617C45.4698 29.2961 45.2631 28.9615 45.2631 28.5891C45.2631 28.0524 45.7017 27.6138 46.2385 27.6138H46.5708C47.1087 27.6138 47.5473 28.0524 47.5473 28.5891V28.7559H49.8315V28.5891C49.8315 27.133 48.8664 25.9121 47.5473 25.4952V23.0454H45.2631V25.4952C43.944 25.9132 42.9789 27.1341 42.9789 28.5891C42.9789 29.8318 43.6687 30.9476 44.7811 31.5049L47.0071 32.6185C47.3406 32.7841 47.5473 33.1187 47.5473 33.4911C47.5473 34.0278 47.1087 34.4664 46.572 34.4664H46.2396C45.7017 34.4664 45.2631 34.0278 45.2631 33.4911V33.3243H42.9789V33.4911C42.9789 33.8337 43.0463 34.1569 43.1445 34.4664H36.7225ZM46.4052 50.4559H61.3439C61.2903 50.8305 61.2526 51.2097 61.2526 51.598C61.2526 51.9863 61.2903 52.3655 61.3439 52.7401H52.1157C50.2267 52.7401 48.6894 54.2773 48.6894 56.1664V61.8769H46.4052V50.4559ZM62.0349 48.1717H50.9736V42.4611C50.9736 41.8307 51.4853 41.319 52.1157 41.319H71.5315C72.1619 41.319 72.6736 41.8307 72.6736 42.4611V43.6032H69.2473C66.0665 43.6032 63.3221 45.4751 62.0349 48.1717ZM72.6736 23.2635V19.1953C73.0471 18.9121 73.4411 18.6608 73.8751 18.4781L74.7545 22.8432L72.6736 23.2635ZM71.5749 7.05706C70.4659 7.05706 69.3798 6.73042 68.433 6.10226C67.4862 5.47296 66.7666 4.59583 66.3361 3.57022L70.6943 2.6908L71.5749 7.05706ZM25.8405 11.7431C25.8359 14.0227 24.4574 16.0991 22.3605 16.9877L21.4811 12.6225L25.8405 11.7431ZM24.5899 20.7612C24.1342 22.9951 22.3708 24.7585 20.1368 25.2142V20.7612H24.5899ZM14.4263 29.898H17.8526V34.4664H15.5684V36.7506H44.121V61.8769H41.8368V42.4611C41.8368 40.5721 40.2995 39.0348 38.4105 39.0348H18.9947C17.1057 39.0348 15.5684 40.5721 15.5684 42.4611V61.8769H13.2842V31.0401C13.2842 30.4097 13.7959 29.898 14.4263 29.898ZM17.8526 61.8769V42.4611C17.8526 41.8307 18.3643 41.319 18.9947 41.319H20.1368V61.8769H17.8526ZM22.421 41.319H24.7052V61.8769H22.421V41.319ZM26.9895 41.319H38.4105C39.0409 41.319 39.5526 41.8307 39.5526 42.4611V61.8769H26.9895V41.319ZM13.2842 67.5874V64.1611H44.121V68.7295H14.4263C13.7959 68.7295 13.2842 68.2179 13.2842 67.5874ZM76.0999 68.7295H46.4052V64.1611H77.242V67.5874C77.242 68.2179 76.7304 68.7295 76.0999 68.7295ZM79.5262 56.1664C79.5262 56.7968 79.0146 57.3085 78.3841 57.3085H69.2473C66.0985 57.3085 63.5368 54.7467 63.5368 51.598C63.5368 48.4492 66.0985 45.8874 69.2473 45.8874H78.3841C79.0146 45.8874 79.5262 46.3991 79.5262 47.0296V56.1664Z" fill="#F0B420"/>
<path d="M33.842 43.6035C31.9529 43.6035 30.4156 45.1408 30.4156 47.0298C30.4156 47.9104 30.7594 48.7064 31.3065 49.314C30.7583 49.9216 30.4156 50.7177 30.4156 51.5982C30.4156 53.4873 31.9529 55.0246 33.842 55.0246C35.731 55.0246 37.2683 53.4873 37.2683 51.5982C37.2683 50.7177 36.9245 49.9216 36.3774 49.314C36.9256 48.7064 37.2683 47.9104 37.2683 47.0298C37.2683 45.1408 35.731 43.6035 33.842 43.6035ZM33.842 45.8877C34.4724 45.8877 34.9841 46.3994 34.9841 47.0298C34.9841 47.6603 34.4724 48.1719 33.842 48.1719C33.2115 48.1719 32.6999 47.6603 32.6999 47.0298C32.6999 46.3994 33.2115 45.8877 33.842 45.8877ZM33.842 52.7403C33.2115 52.7403 32.6999 52.2287 32.6999 51.5982C32.6999 50.9678 33.2115 50.4561 33.842 50.4561C34.4724 50.4561 34.9841 50.9678 34.9841 51.5982C34.9841 52.2287 34.4724 52.7403 33.842 52.7403Z" fill="#F0B420"/>
</svg>
