<svg width="59" height="58" viewBox="0 0 59 58" fill="none" xmlns="http://www.w3.org/2000/svg">
<path d="M57.9531 29C57.9531 44.464 45.4171 57 29.9531 57C14.4892 57 1.95312 44.464 1.95312 29C1.95312 13.536 14.4892 1 29.9531 1C45.4171 1 57.9531 13.536 57.9531 29Z" stroke="#F0B420" stroke-width="2"/>
<path d="M52.9847 23.148L49.0446 35.4846C49.0446 35.4846 46.6144 41.6345 40.8337 41.6345H12.955L14.9464 35.4865H40.2073L44.1842 23.148H18.958L20.9107 17H48.6405C54.717 17 52.9847 23.148 52.9847 23.148ZM13.9507 26.4637H28.9012L26.9872 32.1709H11.9961L13.9488 26.4637H13.9507Z" fill="#202932"/>
<path d="M50.3909 23.148L46.4508 35.4846C46.4508 35.4846 44.0206 41.6345 38.2399 41.6345H10.3613L12.3526 35.4865H37.6135L41.5904 23.148H16.3643L18.3169 17H46.0467C52.1232 17 50.3909 23.148 50.3909 23.148V23.148ZM11.3569 26.4637H26.3074L24.3934 32.1709H9.40234L11.355 26.4637H11.3569Z" stroke="#F0B420" stroke-width="2"/>
</svg>
