<svg width="32" height="51" viewBox="0 0 32 51" fill="none" xmlns="http://www.w3.org/2000/svg">
<mask id="path-1-inside-1" fill="white">
<path fill-rule="evenodd" clip-rule="evenodd" d="M0 25.9463L15.7453 0L15.7478 0.0308674L15.7503 0L31.4956 25.9463L15.7499 18.9026L0 25.9463Z"/>
</mask>
<path d="M15.7453 0L17.7389 -0.160632L17.2424 -6.3221L14.0355 -1.03758L15.7453 0ZM0 25.9463L-1.7098 24.9087L-5.03559 30.3892L0.816503 27.772L0 25.9463ZM15.7478 0.0308674L13.7543 0.191499L17.7414 0.19052L15.7478 0.0308674ZM15.7503 0L17.4601 -1.03758L14.2505 -6.32653L13.7567 -0.159653L15.7503 0ZM31.4956 25.9463L30.6789 27.7719L36.5318 30.3902L33.2054 24.9087L31.4956 25.9463ZM15.7499 18.9026L16.5666 17.077L15.7501 16.7117L14.9334 17.0769L15.7499 18.9026ZM14.0355 -1.03758L-1.7098 24.9087L1.7098 26.9839L17.4551 1.03758L14.0355 -1.03758ZM17.7414 -0.129765L17.7389 -0.160632L13.7518 0.160632L13.7543 0.191499L17.7414 -0.129765ZM17.7414 0.19052L17.7439 0.159653L13.7567 -0.159653L13.7542 -0.128785L17.7414 0.19052ZM14.0405 1.03758L29.7858 26.9839L33.2054 24.9087L17.4601 -1.03758L14.0405 1.03758ZM32.3123 24.1206L16.5666 17.077L14.9333 20.7283L30.6789 27.7719L32.3123 24.1206ZM0.816503 27.772L16.5665 20.7284L14.9334 17.0769L-0.816503 24.1206L0.816503 27.772Z" fill="#F0B420" mask="url(#path-1-inside-1)"/>
<mask id="path-3-inside-2" fill="white">
<path fill-rule="evenodd" clip-rule="evenodd" d="M15.7453 50.9502L15.7454 50.9502V50.9501L31.5 28.9121L15.7454 38.1517L0 28.9121L15.7453 50.9501L15.7453 50.9502L15.7453 50.9502Z"/>
</mask>
<path d="M15.7453 50.9502L17.3881 49.8094L15.7773 47.4899L14.124 49.7792L15.7453 50.9502ZM15.7454 50.9502L14.1026 52.091L17.7454 57.3365V50.9502H15.7454ZM15.7454 50.9501L14.1184 49.787L13.7454 50.3088V50.9501H15.7454ZM31.5 28.9121L33.127 30.0752L30.4882 27.1869L31.5 28.9121ZM15.7454 38.1517L14.7331 39.8766L15.7451 40.4704L16.7571 39.8769L15.7454 38.1517ZM0 28.9121L1.01222 27.1872L-1.62733 30.0748L0 28.9121ZM15.7453 50.9501L17.6343 50.293L17.5398 50.0214L17.3726 49.7874L15.7453 50.9501ZM15.7453 50.9502L13.8563 51.6072L15.118 55.2347L17.3667 52.1212L15.7453 50.9502ZM14.1026 52.091L14.1026 52.091L17.3881 49.8094L17.3881 49.8094L14.1026 52.091ZM17.7454 50.9502V50.9501H13.7454V50.9502H17.7454ZM17.3724 52.1132L33.127 30.0752L29.873 27.749L14.1184 49.787L17.3724 52.1132ZM30.4882 27.1869L14.7336 36.4265L16.7571 39.8769L32.5118 30.6373L30.4882 27.1869ZM16.7576 36.4267L1.01222 27.1872L-1.01222 30.637L14.7331 39.8766L16.7576 36.4267ZM-1.62733 30.0748L14.1179 52.1127L17.3726 49.7874L1.62733 27.7494L-1.62733 30.0748ZM13.8563 51.6071L13.8563 51.6072L17.6343 50.2932L17.6343 50.293L13.8563 51.6071ZM17.3667 52.1212L17.3667 52.1211L14.124 49.7792L14.124 49.7792L17.3667 52.1212Z" fill="#F0B420" mask="url(#path-3-inside-2)"/>
<mask id="path-5-inside-3" fill="white">
<path fill-rule="evenodd" clip-rule="evenodd" d="M15.7451 35.1904L1.34326 26.7357L15.7451 20.2344L15.7455 20.2408L15.7461 20.2344L30.1479 26.7357L15.7461 35.1904L15.7455 35.1841L15.7451 35.1904Z"/>
</mask>
<path d="M1.34326 26.7357L0.520374 24.9129L-3.003 26.5034L0.330733 28.4605L1.34326 26.7357ZM15.7451 35.1904L14.7326 36.9152L17.5751 38.5839L17.7425 35.2921L15.7451 35.1904ZM15.7451 20.2344L17.7426 20.1332L17.5943 17.2053L14.9222 18.4115L15.7451 20.2344ZM15.7455 20.2408L13.748 20.3419L17.7356 20.4388L15.7455 20.2408ZM15.7461 20.2344L16.569 18.4115L14.0316 17.2661L13.7559 20.0363L15.7461 20.2344ZM30.1479 26.7357L31.1605 28.4605L34.4942 26.5034L30.9708 24.9129L30.1479 26.7357ZM15.7461 35.1904L13.756 35.3893L14.0665 38.4956L16.7586 36.9152L15.7461 35.1904ZM15.7455 35.1841L17.7355 34.9852L13.748 35.0825L15.7455 35.1841ZM0.330733 28.4605L14.7326 36.9152L16.7577 33.4657L2.35579 25.011L0.330733 28.4605ZM14.9222 18.4115L0.520374 24.9129L2.16615 28.5586L16.568 22.0572L14.9222 18.4115ZM17.7429 20.1396L17.7426 20.1332L13.7477 20.3356L13.748 20.3419L17.7429 20.1396ZM13.7559 20.0363L13.7553 20.0427L17.7356 20.4388L17.7363 20.4324L13.7559 20.0363ZM30.9708 24.9129L16.569 18.4115L14.9232 22.0572L29.3251 28.5586L30.9708 24.9129ZM16.7586 36.9152L31.1605 28.4605L29.1354 25.011L14.7336 33.4657L16.7586 36.9152ZM13.7554 35.383L13.756 35.3893L17.7362 34.9915L17.7355 34.9852L13.7554 35.383ZM17.7425 35.2921L17.7429 35.2857L13.748 35.0825L13.7477 35.0888L17.7425 35.2921Z" fill="#F0B420" mask="url(#path-5-inside-3)"/>
</svg>
