<svg width="60" height="60" viewBox="0 0 60 60" fill="none" xmlns="http://www.w3.org/2000/svg">
<path d="M45.6714 28.7434C46.2487 24.8876 43.3107 22.8148 39.2933 21.4321L40.5964 16.2089L37.4146 15.4165L36.1458 20.5021C35.3094 20.2938 34.4503 20.0973 33.5966 19.9026L34.8744 14.7836L31.6943 13.9912L30.3903 19.2126C29.6979 19.055 29.0182 18.8993 28.3584 18.7354L28.3621 18.7191L23.974 17.6242L23.1276 21.02C23.1276 21.02 25.4883 21.5606 25.4385 21.5941C26.7272 21.9156 26.9601 22.7677 26.9211 23.4433L25.4367 29.3936C25.5255 29.4162 25.6406 29.4488 25.7675 29.4995C25.6614 29.4733 25.5482 29.4443 25.4313 29.4162L23.3505 37.7517C23.1928 38.1429 22.7932 38.7297 21.8923 38.507C21.9241 38.5532 19.5796 37.9301 19.5796 37.9301L18 41.5695L22.1407 42.6009C22.911 42.7938 23.6659 42.9958 24.409 43.1859L23.0922 48.4688L26.2704 49.2612L27.5745 44.0344C28.4427 44.2698 29.2855 44.4872 30.1102 44.6918L28.8107 49.8942L31.9925 50.6865L33.3093 45.4135C38.735 46.4395 42.8149 46.0257 44.5323 41.1222C45.9161 37.174 44.4634 34.8966 41.6087 33.4115C43.6877 32.9324 45.2537 31.566 45.6714 28.7434ZM38.4015 38.9299C37.4182 42.878 30.7654 40.7437 28.6086 40.2085L30.3558 33.2095C32.5127 33.7474 39.4292 34.8124 38.4015 38.9299ZM39.3857 28.6864C38.4885 32.2777 32.9513 30.4531 31.1551 30.0057L32.7393 23.6579C34.5354 24.1052 40.32 24.9401 39.3857 28.6864Z" fill="#202932"/>
<path d="M58.1298 36.9888C54.2565 52.513 38.5213 61.9608 22.9836 58.0894C7.45229 54.219 -2.00261 38.4947 1.87251 22.9715C5.74401 7.44548 21.4792 -2.00323 37.0124 1.86717C52.5491 5.73757 62.0031 21.4637 58.1298 36.9888Z" stroke="#F0B420" stroke-width="2"/>
<path d="M42.7867 25.8499C43.364 21.9941 40.4259 19.9213 36.4085 18.5385L37.7117 13.3153L34.5298 12.523L33.2611 17.6085C32.4246 17.4002 31.5655 17.2037 30.7118 17.009L31.9896 11.89L28.8096 11.0977L27.5055 16.319C26.8131 16.1615 26.1334 16.0057 25.4737 15.8418L25.4773 15.8255L21.0892 14.7307L20.2428 18.1265C20.2428 18.1265 22.6036 18.6671 22.5537 18.7006C23.8424 19.0221 24.0753 19.8742 24.0364 20.5497L22.5519 26.5C22.6407 26.5227 22.7558 26.5553 22.8827 26.606C22.7767 26.5797 22.6634 26.5507 22.5465 26.5227L20.4657 34.8582C20.308 35.2494 19.9084 35.8362 19.0076 35.6134C19.0393 35.6596 16.6948 35.0366 16.6948 35.0366L15.1152 38.676L19.2559 39.7074C20.0262 39.9003 20.7811 40.1022 21.5242 40.2924L20.2075 45.5753L23.3857 46.3676L24.6898 41.1409C25.558 41.3763 26.4008 41.5936 27.2255 41.7983L25.9259 47.0006L29.1077 47.793L30.4245 42.52C35.8502 43.546 39.9302 43.1321 41.6475 38.2286C43.0314 34.2805 41.5786 32.003 38.724 30.5179C40.8029 30.0389 42.3689 28.6724 42.7867 25.8499V25.8499ZM35.5167 36.0363C34.5335 39.9845 27.8807 37.8501 25.7238 37.3149L27.4711 30.316C29.6279 30.8539 36.5444 31.9188 35.5167 36.0363ZM36.5009 25.7928C35.6037 29.3842 30.0666 27.5595 28.2704 27.1122L29.8545 20.7643C31.6507 21.2117 37.4353 22.0466 36.5009 25.7928V25.7928Z" stroke="#F0B420" stroke-width="2"/>
</svg>
