<svg width="58" height="57" viewBox="0 0 58 57" fill="none" xmlns="http://www.w3.org/2000/svg">
<path d="M29.4531 1C44.641 1 56.9531 13.3038 56.9531 28.478C56.9531 43.6523 44.6404 55.9561 29.4531 55.9561C14.2658 55.9561 1.95312 43.6556 1.95312 28.478C1.95312 13.3004 14.2635 1 29.4531 1Z" stroke="#F0B420" stroke-width="2"/>
<path d="M36.8102 22.6914V18.4549H46.5053V12H20.1052V18.4549H29.8015V22.6879C21.9212 23.0496 15.9961 24.6091 15.9961 26.4773C15.9961 28.3455 21.9241 29.9049 29.8015 30.2689V43.8389H36.8125V30.2678C44.6785 29.905 50.5917 28.3466 50.5917 26.4801C50.5917 24.6137 44.6785 23.0553 36.8125 22.6925L36.8102 22.6914ZM36.8125 29.1184V29.115C36.6147 29.1275 35.5984 29.1884 33.3355 29.1884C31.5263 29.1884 30.2535 29.1372 29.8049 29.1138V29.1195C22.8429 28.8114 17.6462 27.5999 17.6462 26.1504C17.6462 24.7008 22.8435 23.491 29.8049 23.1823V27.9126C30.2609 27.9439 31.5651 28.0208 33.3651 28.0208C35.5271 28.0208 36.6141 27.9308 36.8136 27.9126V23.1823C43.7619 23.4916 48.9467 24.7042 48.9467 26.1486C48.9467 27.5931 43.7597 28.8063 36.8136 29.1155" fill="#202932"/>
<mask id="path-3-outside-1" maskUnits="userSpaceOnUse" x="10.1562" y="10" width="39" height="36" fill="black">
<rect fill="white" x="10.1562" y="10" width="39" height="36"/>
<path d="M32.9704 22.6914V18.4549H42.6655V12H16.2654V18.4549H25.9616V22.6879C18.0814 23.0496 12.1562 24.6091 12.1562 26.4773C12.1562 28.3455 18.0842 29.9049 25.9616 30.2689V43.8389H32.9727V30.2678C40.8387 29.905 46.7518 28.3466 46.7518 26.4801C46.7518 24.6137 40.8387 23.0553 32.9727 22.6925L32.9704 22.6914ZM32.9727 29.1184V29.115C32.7749 29.1275 31.7586 29.1884 29.4957 29.1884C27.6865 29.1884 26.4137 29.1372 25.9651 29.1138V29.1195C19.0031 28.8114 13.8064 27.5999 13.8064 26.1504C13.8064 24.7008 19.0037 23.491 25.9651 23.1823V27.9126C26.4211 27.9439 27.7252 28.0208 29.5253 28.0208C31.6873 28.0208 32.7743 27.9308 32.9738 27.9126V23.1823C39.9221 23.4916 45.1068 24.7042 45.1068 26.1486C45.1068 27.5931 39.9198 28.8063 32.9738 29.1155"/>
</mask>
<path d="M32.9704 22.6914H30.9704V23.9279L32.0765 24.4805L32.9704 22.6914ZM32.9704 18.4549V16.4549H30.9704V18.4549H32.9704ZM42.6655 18.4549V20.4549H44.6655V18.4549H42.6655ZM42.6655 12H44.6655V10H42.6655V12ZM16.2654 12V10H14.2654V12H16.2654ZM16.2654 18.4549H14.2654V20.4549H16.2654V18.4549ZM25.9616 18.4549H27.9616V16.4549H25.9616V18.4549ZM25.9616 22.6879L26.0533 24.6858L27.9616 24.5983V22.6879H25.9616ZM25.9616 30.2689H27.9616V28.3592L26.054 28.271L25.9616 30.2689ZM25.9616 43.8389H23.9616V45.8389H25.9616V43.8389ZM32.9727 43.8389V45.8389H34.9727V43.8389H32.9727ZM32.9727 30.2678L32.8805 28.2699L30.9727 28.3579V30.2678H32.9727ZM32.9727 22.6925L32.0788 24.4816L32.4575 24.6709L32.8805 24.6904L32.9727 22.6925ZM32.9727 29.115H34.9727V26.9842L32.8462 27.119L32.9727 29.115ZM25.9651 29.1138L26.069 27.1165L23.9651 27.007V29.1138H25.9651ZM25.9651 29.1195L25.8766 31.1176L27.9651 31.21V29.1195H25.9651ZM25.9651 23.1823H27.9651V21.0917L25.8765 21.1843L25.9651 23.1823ZM25.9651 27.9126H23.9651V29.7799L25.828 29.9079L25.9651 27.9126ZM32.9738 27.9126L33.1558 29.9043L34.9738 29.7382V27.9126H32.9738ZM32.9738 23.1823L33.0627 21.1843L30.9738 21.0913V23.1823H32.9738ZM34.9704 22.6914V18.4549H30.9704V22.6914H34.9704ZM32.9704 20.4549H42.6655V16.4549H32.9704V20.4549ZM44.6655 18.4549V12H40.6655V18.4549H44.6655ZM42.6655 10H16.2654V14H42.6655V10ZM14.2654 12V18.4549H18.2654V12H14.2654ZM16.2654 20.4549H25.9616V16.4549H16.2654V20.4549ZM23.9616 18.4549V22.6879H27.9616V18.4549H23.9616ZM25.87 20.6901C21.8428 20.8749 18.2352 21.3677 15.5806 22.0874C14.2685 22.4431 13.0743 22.8842 12.1625 23.4412C11.3734 23.9233 10.1562 24.8901 10.1562 26.4773H14.1562C14.1562 27.1304 13.6798 27.2017 14.2478 26.8546C14.6933 26.5825 15.4729 26.2609 16.6272 25.948C18.9052 25.3305 22.2002 24.8627 26.0533 24.6858L25.87 20.6901ZM10.1562 26.4773C10.1562 28.0649 11.3741 29.0316 12.1631 29.5135C13.075 30.0705 14.2693 30.5116 15.5815 30.8675C18.2363 31.5874 21.8437 32.0808 25.8693 32.2668L26.054 28.271C22.2022 28.0931 18.9069 27.6248 16.6284 27.0069C15.4739 26.6938 14.6938 26.3721 14.248 26.0999C13.6794 25.7525 14.1562 25.8238 14.1562 26.4773H10.1562ZM23.9616 30.2689V43.8389H27.9616V30.2689H23.9616ZM25.9616 45.8389H32.9727V41.8389H25.9616V45.8389ZM34.9727 43.8389V30.2678H30.9727V43.8389H34.9727ZM33.0648 32.2656C37.0848 32.0802 40.686 31.5874 43.336 30.868C44.6458 30.5124 45.838 30.0714 46.7485 29.5145C47.537 29.0323 48.7518 28.0658 48.7518 26.4801H44.7518C44.7518 25.8277 45.2275 25.756 44.6614 26.1022C44.2174 26.3738 43.4398 26.695 42.288 27.0077C40.0149 27.6248 36.7265 28.0925 32.8805 28.2699L33.0648 32.2656ZM48.7518 26.4801C48.7518 24.8945 47.537 23.928 46.7485 23.4457C45.838 22.8889 44.6458 22.4479 43.336 22.0923C40.686 21.3729 37.0848 20.8801 33.0648 20.6946L32.8805 24.6904C36.7265 24.8678 40.0149 25.3355 42.288 25.9526C43.4398 26.2653 44.2174 26.5865 44.6614 26.8581C45.2275 27.2043 44.7518 27.1325 44.7518 26.4801H48.7518ZM33.8665 20.9034L33.8643 20.9022L32.0765 24.4805L32.0788 24.4816L33.8665 20.9034ZM34.9727 29.1184V29.115H30.9727V29.1184H34.9727ZM32.8462 27.119C32.695 27.1285 31.7211 27.1884 29.4957 27.1884V31.1884C31.796 31.1884 32.8547 31.1264 33.0991 31.111L32.8462 27.119ZM29.4957 27.1884C27.7217 27.1884 26.4835 27.1381 26.069 27.1165L25.8611 31.1111C26.3438 31.1362 27.6513 31.1884 29.4957 31.1884V27.1884ZM23.9651 29.1138V29.1195H27.9651V29.1138H23.9651ZM26.0535 27.1215C22.6465 26.9707 19.7447 26.6007 17.7434 26.1186C16.7265 25.8736 16.0522 25.6253 15.6784 25.4232C15.49 25.3213 15.4744 25.2821 15.5278 25.3412C15.5917 25.412 15.8064 25.6912 15.8064 26.1504H11.8064C11.8064 26.9719 12.1835 27.6061 12.5588 28.0217C12.9235 28.4257 13.3683 28.7214 13.7759 28.9418C14.5941 29.3842 15.6541 29.7297 16.8066 30.0073C19.1441 30.5704 22.3217 30.9602 25.8766 31.1176L26.0535 27.1215ZM15.8064 26.1504C15.8064 26.6097 15.5916 26.889 15.5276 26.9598C15.4741 27.019 15.4897 26.9798 15.6781 26.878C16.0519 26.676 16.7263 26.4278 17.7433 26.183C19.7448 25.7012 22.6467 25.3315 26.0537 25.1804L25.8765 21.1843C22.322 21.3419 19.1446 21.7314 16.8072 22.2941C15.6547 22.5715 14.5946 22.9168 13.7764 23.359C13.3688 23.5792 12.9239 23.8748 12.559 24.2788C12.1837 24.6945 11.8064 25.3286 11.8064 26.1504H15.8064ZM23.9651 23.1823V27.9126H27.9651V23.1823H23.9651ZM25.828 29.9079C26.3191 29.9416 27.6701 30.0208 29.5253 30.0208V26.0208C27.7804 26.0208 26.523 25.9462 26.1021 25.9173L25.828 29.9079ZM29.5253 30.0208C31.7429 30.0208 32.8909 29.9285 33.1558 29.9043L32.7918 25.9209C32.6577 25.9331 31.6317 26.0208 29.5253 26.0208V30.0208ZM34.9738 27.9126V23.1823H30.9738V27.9126H34.9738ZM32.8849 25.1804C36.2848 25.3317 39.1801 25.7022 41.1768 26.184C42.1913 26.4288 42.8639 26.6768 43.2366 26.8784C43.4245 26.9801 43.4398 27.019 43.3862 26.9597C43.3223 26.8889 43.1068 26.6091 43.1068 26.1486H47.1068C47.1068 25.3271 46.7293 24.6934 46.3547 24.2786C45.9905 23.8753 45.5464 23.5802 45.1397 23.3601C44.3231 22.9185 43.2653 22.5732 42.1151 22.2956C39.7823 21.7327 36.6111 21.3423 33.0627 21.1843L32.8849 25.1804ZM43.1068 26.1486C43.1068 25.6879 43.3225 25.4081 43.3863 25.3374C43.4398 25.2782 43.4244 25.3172 43.2364 25.4189C42.8634 25.6206 42.1905 25.8687 41.1758 26.1136C39.1789 26.5955 36.2835 26.9662 32.8848 27.1175L33.0628 31.1135C36.6101 30.9556 39.7812 30.565 42.1143 30.0019C43.2646 29.7243 44.3226 29.379 45.1392 28.9373C45.546 28.7173 45.9901 28.4221 46.3544 28.0189C46.729 27.6042 47.1068 26.9705 47.1068 26.1486H43.1068Z" fill="#F0B420" mask="url(#path-3-outside-1)"/>
</svg>
