<svg width="59" height="58" viewBox="0 0 59 58" fill="none" xmlns="http://www.w3.org/2000/svg">
<mask id="path-1-inside-1" fill="white">
<path d="M58.9567 28.9998C58.9567 45.0161 45.9732 58 29.957 58C13.9407 58 0.957031 45.0161 0.957031 28.9998C0.957031 12.9837 13.9407 0 29.957 0C45.973 0 58.9567 12.9837 58.9567 28.9998Z"/>
</mask>
<path d="M56.9567 28.9998C56.9567 43.9116 44.8686 56 29.957 56V60C47.0778 60 60.9567 46.1207 60.9567 28.9998H56.9567ZM29.957 56C15.0453 56 2.95703 43.9116 2.95703 28.9998H-1.04297C-1.04297 46.1207 12.8361 60 29.957 60V56ZM2.95703 28.9998C2.95703 14.0882 15.0452 2 29.957 2V-2C12.8361 -2 -1.04297 11.8791 -1.04297 28.9998H2.95703ZM29.957 2C44.8684 2 56.9567 14.0882 56.9567 28.9998H60.9567C60.9567 11.8791 47.0776 -2 29.957 -2V2Z" fill="#F0B420" mask="url(#path-1-inside-1)"/>
<path d="M51.7986 29.0004C51.7986 41.0631 42.0193 50.8433 29.956 50.8433C17.8928 50.8433 8.11279 41.0631 8.11279 29.0004C8.11279 16.9367 17.8928 7.15723 29.956 7.15723C42.0195 7.15723 51.7986 16.9365 51.7986 29.0004Z" stroke="#F0B420" stroke-width="2"/>
<path d="M28.2621 36.7468L30.1457 29.6541L34.6052 28.0248L35.7145 23.8565L35.6766 23.7531L31.2868 25.3568L34.4497 13.4473H25.4797L21.3434 28.9895L17.8899 30.2511L16.7488 34.5484L20.1996 33.2878L17.7618 42.4475H41.6345L43.1649 36.7468H28.2621Z" stroke="#F0B420" stroke-width="2"/>
</svg>
