<svg width="57" height="57" viewBox="0 0 57 57" fill="none" xmlns="http://www.w3.org/2000/svg">
<path fill-rule="evenodd" clip-rule="evenodd" d="M8 32.7945L11.4124 28.8392H23.5543L31.0137 38.5257L50.5356 11C51.6982 12.0612 52.7828 13.272 53.7893 14.6324C54.7958 15.9928 55.6688 17.4458 56.4081 18.9913L32.4421 52.7325C31.9892 53.2168 31.5131 53.459 31.0137 53.459C30.5143 53.459 30.0117 53.2168 29.5059 52.7325L14.3486 32.7945H8Z" fill="#202932"/>
<path d="M5.56303 30.5143H11.4157L26.2728 50.0575L26.3205 50.1201L26.3773 50.1746C26.9938 50.7649 27.7313 51.1788 28.5767 51.1788C29.4354 51.1788 30.1584 50.7525 30.7356 50.1353L30.7815 50.0862L30.8204 50.0314L53.7899 17.6931C55.181 21.0064 55.9515 24.6553 55.9515 28.4898C55.9515 43.6885 43.848 55.9795 28.9543 55.9795C14.0605 55.9795 1.95703 43.6885 1.95703 28.4898C1.95703 13.2911 14.0605 1 28.9543 1C35.7854 1 42.025 3.5825 46.7828 7.84653L28.5436 33.5635L21.9097 24.9489L21.6094 24.559H21.1174H8.9754H8.51741L8.21824 24.9058L4.80587 28.8611L3.37957 30.5143H5.56303Z" stroke="#F0B420" stroke-width="2"/>
</svg>
