<svg width="28" height="17" viewBox="0 0 28 17" fill="none" xmlns="http://www.w3.org/2000/svg">
<path fill-rule="evenodd" clip-rule="evenodd" d="M0.790527 8.0208C0.790527 7.42332 1.27488 6.93896 1.87236 6.93896H24.5908C25.1883 6.93896 25.6726 7.42332 25.6726 8.0208C25.6726 8.61827 25.1883 9.10263 24.5908 9.10263H1.87236C1.27488 9.10263 0.790527 8.61827 0.790527 8.0208Z" fill="#202932"/>
<path fill-rule="evenodd" clip-rule="evenodd" d="M18.8922 0.738155C19.3295 0.331033 20.0141 0.355497 20.4212 0.792798L26.4642 7.28378C26.8714 7.72108 26.8469 8.40562 26.4096 8.81275C25.9723 9.21987 25.2878 9.1954 24.8806 8.7581L18.8376 2.26712C18.4305 1.82982 18.4549 1.14528 18.8922 0.738155Z" fill="#202932"/>
<path fill-rule="evenodd" clip-rule="evenodd" d="M18.8925 15.304C19.3298 15.7111 20.0143 15.6866 20.4215 15.2493L26.4642 8.75832C26.8713 8.32101 26.8469 7.63647 26.4096 7.22935C25.9722 6.82224 25.2877 6.84672 24.8806 7.28403L18.8378 13.775C18.4307 14.2123 18.4552 14.8969 18.8925 15.304Z" fill="#202932"/>
</svg>
