<svg width="70" height="70" viewBox="0 0 70 70" fill="none" xmlns="http://www.w3.org/2000/svg">
<path d="M56.4514 22.3729V24.8387H58.7095V22.5806H60.9676V19.1935C60.9676 17.3261 59.4479 15.8064 57.5805 15.8064C56.9584 15.8064 56.4514 15.2995 56.4514 14.6774V13.5484H57.5805C58.2026 13.5484 58.7095 14.0553 58.7095 14.6774V15.8064H60.9676V14.6774C60.9676 13.2074 60.0203 11.9655 58.7095 11.498V9.03223H56.4514V11.2903H54.1934V14.6774C54.1934 16.5448 55.713 18.0645 57.5805 18.0645C58.2026 18.0645 58.7095 18.5714 58.7095 19.1935V20.3225H57.5805C56.9584 20.3225 56.4514 19.8156 56.4514 19.1935V18.0645H54.1934V19.1935C54.1934 20.6635 55.1406 21.9055 56.4514 22.3729Z" fill="#F0B420"/>
<path d="M70 16.9355C70 10.0879 64.4282 4.51613 57.5806 4.51613C52.1015 4.51613 47.4487 8.08613 45.8037 13.0189L44.0119 14.8106C43.0647 15.7568 41.6556 16.0356 40.4216 15.5253C39.1865 15.0139 38.3871 13.8194 38.3871 12.4815V9.03226H29.3548V2.25806H22.5806V12.5198C22.5806 13.8363 21.7937 15.0116 20.5202 15.5366C20.4547 15.5637 20.3881 15.5795 20.3226 15.6021V0H13.5484V13.3406L11.2903 15.5987V6.77419H4.51613V22.3729L3.33968 23.5494L5.80548 26.0152C6.73581 26.9455 7.00903 28.3331 6.48064 29.6077C5.97823 30.826 4.8029 31.6129 3.48758 31.6129H0V47.4194H3.48758C4.80403 47.4194 5.97935 48.2063 6.50435 49.4798C7.01016 50.6992 6.73694 52.0879 5.80661 53.0171L3.34081 55.4829L14.5171 66.6592L16.9829 64.1934C17.9121 63.2642 19.3019 62.991 20.5755 63.5182C21.7937 64.0218 22.5806 65.1971 22.5806 66.5124V70H38.3871V66.5124C38.3871 65.196 39.174 64.0206 40.4487 63.4956C41.6658 62.9887 43.0556 63.2631 43.9848 64.1934L46.4506 66.6592L57.6269 55.4829L55.1611 53.0171C54.2308 52.0868 53.9576 50.6981 54.486 49.4245C54.9895 48.2063 56.1648 47.4194 57.4802 47.4194H60.9677V31.6129H57.4802C56.1637 31.6129 54.9884 30.826 54.4634 29.5524C54.3742 29.339 54.3177 29.1177 54.2771 28.8953C55.3305 29.1866 56.4358 29.3548 57.5806 29.3548C64.4282 29.3548 70 23.7831 70 16.9355ZM57.5806 6.77419C63.1829 6.77419 67.7419 11.3332 67.7419 16.9355C67.7419 22.5377 63.1829 27.0968 57.5806 27.0968C51.9784 27.0968 47.4194 22.5377 47.4194 16.9355C47.4194 11.3332 51.9784 6.77419 57.5806 6.77419ZM27.0968 4.51613V9.03226H24.8387V4.51613H27.0968ZM18.0645 2.25806V15.5468C17.6682 15.3876 17.2979 15.1539 16.9829 14.8389L15.8065 13.6624V2.25806H18.0645ZM6.77419 9.03226H9.03226V17.8568L6.77419 20.1148V9.03226ZM52.3995 30.4692C53.2519 32.5364 55.2458 33.871 57.4802 33.871H58.7097V45.1613H57.4802C55.2458 45.1613 53.2519 46.4969 52.3781 48.6139C51.52 50.68 51.9852 53.0352 53.5647 54.6135L54.434 55.4829L46.4506 63.4663L45.5813 62.5969C44.004 61.0186 41.6477 60.5523 39.5308 61.4318C37.4647 62.2842 36.129 64.2781 36.129 66.5124V67.7419H24.8387V66.5124C24.8387 64.2781 23.5031 62.2842 21.3861 61.4103C19.3211 60.5511 16.966 61.0186 15.3865 62.5969L14.5171 63.4663L6.53371 55.4829L7.40306 54.6135C8.98145 53.0352 9.44774 50.68 8.56823 48.5631C7.71581 46.4969 5.72194 45.1613 3.48758 45.1613H2.25806V33.871H3.48758C5.72194 33.871 7.71581 32.5353 8.58968 30.4184C9.44774 28.3523 8.98258 25.9971 7.40306 24.4187L6.53371 23.5494L14.5171 15.566L15.3865 16.4353C16.9648 18.0137 19.3211 18.48 21.4369 17.6005C23.5042 16.7481 24.8387 14.7542 24.8387 12.5198V11.2903H36.129V12.4815C36.129 14.7361 37.4748 16.7503 39.559 17.6118C40.2489 17.8974 40.9715 18.0363 41.6884 18.0363C42.9461 18.0363 44.1689 17.5824 45.1703 16.7661C45.1692 16.8237 45.1613 16.879 45.1613 16.9355C45.1613 21.7632 47.9365 25.9463 51.9694 28C51.9231 28.8253 52.0631 29.6574 52.3995 30.4692Z" fill="#F0B420"/>
<path d="M30.4841 18.0649C18.6552 18.0649 9.03247 27.6877 9.03247 39.5166C9.03247 51.3454 18.6552 60.9682 30.4841 60.9682C42.313 60.9682 51.9357 51.3454 51.9357 39.5166C51.9357 27.6877 42.313 18.0649 30.4841 18.0649ZM49.6201 40.6456C49.4789 43.0493 48.9031 45.3322 47.9547 47.4198H38.297C37.9142 44.7632 36.2105 42.5356 33.8712 41.419V32.7424C33.8712 30.8749 32.3515 29.3553 30.4841 29.3553C28.6167 29.3553 27.097 30.8749 27.097 32.7424V41.419C24.7576 42.5356 23.0539 44.7632 22.6712 47.4198H13.0134C12.0651 45.3322 11.4892 43.0493 11.3481 40.6456H15.8067V38.3875H11.3481C11.6078 33.947 13.377 29.9141 16.1589 26.7867L19.3078 29.9356L20.9042 28.3391L17.7554 25.1903C20.8828 22.4083 24.9146 20.6403 29.3562 20.3795V24.8391H31.6142V20.3806C36.0547 20.6403 40.0876 22.4095 43.2151 25.1914L40.0662 28.3403L41.6626 29.9367L44.8115 26.7878C47.5934 29.9153 49.3615 33.947 49.6223 38.3887H45.1615V40.6467H49.6201V40.6456ZM31.6131 40.7359C31.2428 40.6828 30.868 40.6456 30.4841 40.6456C30.1002 40.6456 29.7254 40.6828 29.3551 40.7359V32.7424C29.3551 32.1203 29.862 31.6133 30.4841 31.6133C31.1062 31.6133 31.6131 32.1203 31.6131 32.7424V40.7359ZM30.4841 42.9037C33.2096 42.9037 35.4902 44.8467 36.0152 47.4198H24.953C25.478 44.8467 27.7586 42.9037 30.4841 42.9037ZM30.4841 58.7101C23.6342 58.7101 17.6278 55.0916 14.2305 49.6778H46.7376C43.3404 55.0916 37.3339 58.7101 30.4841 58.7101Z" fill="#F0B420"/>
</svg>
