<svg width="71" height="70" viewBox="0 0 71 70" fill="none" xmlns="http://www.w3.org/2000/svg">
<path d="M35.7803 20.4171C37.6442 20.4171 39.161 18.9003 39.161 17.0364C39.161 15.1726 37.6442 13.6558 35.7803 13.6558C33.9164 13.6558 32.3997 15.1726 32.3997 17.0364C32.3997 18.9003 33.9164 20.4171 35.7803 20.4171ZM35.7803 15.9095C36.4024 15.9095 36.9072 16.4155 36.9072 17.0364C36.9072 17.6573 36.4024 18.1633 35.7803 18.1633C35.1583 18.1633 34.6534 17.6573 34.6534 17.0364C34.6534 16.4155 35.1583 15.9095 35.7803 15.9095Z" fill="#F0B420"/>
<path d="M69.9688 43.0956C68.9693 40.9714 67.1212 39.3926 64.9925 38.7627C64.1778 26.4244 55.5695 15.826 43.6684 12.5006V12.1997C43.6684 7.10728 40.8388 2.52874 36.2839 0.251296L35.7802 0L35.2765 0.252423C30.7216 2.52874 27.892 7.10728 27.892 12.1997V12.5006C15.2472 16.0243 6.48112 27.4803 6.48112 40.7009C6.48112 45.4609 7.65421 50.1747 9.86178 54.3599V58.7311H7.60801V51.9698H0.84668V60.9849H14.6499C20.1559 66.7162 27.8244 70 35.7802 70C44.908 70 53.3743 65.8012 58.9107 58.668C59.6837 60.0428 61.1385 60.9849 62.8255 60.9849C65.3114 60.9849 67.333 58.9633 67.333 56.4774V55.3505C67.333 54.378 67.9923 53.2229 68.6898 51.9991C70.024 49.6597 71.684 46.7489 69.9688 43.0956ZM5.35423 58.7311H3.10045V54.2236H5.35423V58.7311ZM38.274 39.1537C38.8465 39.7262 39.1609 40.4868 39.1609 41.2959C39.1609 42.0566 38.878 42.7845 38.363 43.3435C37.5528 44.2247 36.5713 45.3572 35.7802 46.4627C34.9891 45.3583 34.0076 44.2247 33.1974 43.3435C32.6824 42.7845 32.3995 42.0566 32.3995 41.2959C32.3995 40.4868 32.7139 39.7262 33.2864 39.1537L33.993 38.4472H37.5674L38.274 39.1537ZM23.3844 32.5964V28.3052C23.3844 25.5849 25.3238 23.3085 27.892 22.7845V29.5391C26.0213 29.8591 24.3806 30.9545 23.3844 32.5964ZM41.4146 12.1997V27.1783H30.1458V12.1997C30.1458 11.9304 30.1796 11.6678 30.1987 11.4018H41.3617C41.3808 11.6678 41.4146 11.9304 41.4146 12.1997ZM39.1609 36.1934H32.3995V33.9396H39.1609V36.1934ZM30.1458 31.6858V29.432H41.4146V31.6858H30.1458ZM43.6684 22.7845C46.2366 23.3085 48.176 25.5837 48.176 28.3052V32.5964C47.1809 30.9556 45.539 29.8591 43.6684 29.5391V22.7845ZM35.7802 2.5355C38.3619 3.99256 40.1998 6.37368 40.9864 9.14807H30.574C31.3605 6.37368 33.1985 3.99256 35.7802 2.5355ZM14.3693 58.7311H12.1156V49.716H14.3693V58.7311ZM35.7802 67.7462C29.189 67.7462 22.8108 65.3088 17.8976 60.9849H25.6382V42.9547H18.8769V58.7311H16.6231V47.4622H9.86178V48.3931C9.12592 45.906 8.73489 43.3119 8.73489 40.7009C8.73489 28.7097 16.5465 18.2916 27.892 14.8467V20.5071C24.0763 21.057 21.1307 24.3396 21.1307 28.3052V36.1934H24.0808L25.1345 34.0861C25.7036 32.9479 26.7166 32.1456 27.9078 31.8334C27.9844 33.0065 28.9535 33.9396 30.1458 33.9396V36.1934C30.1458 37.0092 30.5864 37.7192 31.2377 38.1147C30.5413 39.0286 30.1458 40.1273 30.1458 41.2959C30.1458 42.6234 30.6393 43.8923 31.5375 44.8693C33.1241 46.5957 34.2735 48.0967 34.7716 49.094L35.7802 51.1077L36.7888 49.0929C37.2868 48.0956 38.4363 46.5957 40.0229 44.8682C40.9211 43.8923 41.4146 42.6234 41.4146 41.2959C41.4146 40.1273 41.0191 39.0286 40.3227 38.1147C40.974 37.7192 41.4146 37.0092 41.4146 36.1934V33.9396C42.6069 33.9396 43.576 33.0065 43.6538 31.8334C44.8438 32.1456 45.8568 32.9479 46.427 34.0861L47.4795 36.1934H50.4297V28.3052C50.4297 24.3396 47.484 21.057 43.6684 20.5071V14.8467C54.1947 18.0572 61.7966 27.4724 62.7106 38.4584C60.8365 38.4888 59.0234 39.1717 57.6103 40.417C55.9109 41.9146 54.9373 44.0714 54.9373 46.3354C54.9373 48.57 55.9582 50.2175 56.8598 51.6701C57.6418 52.9322 58.3179 54.023 58.3179 55.3505V55.6412C53.283 63.224 44.8866 67.7462 35.7802 67.7462ZM21.1307 58.7311V45.2085H23.3844V58.7311H21.1307ZM62.8255 58.7311C61.5825 58.7311 60.5717 57.7203 60.5717 56.4774H65.0793C65.0793 57.7203 64.0685 58.7311 62.8255 58.7311ZM61.6986 46.3354C61.6986 45.7144 62.2035 45.2085 62.8255 45.2085C63.4475 45.2085 63.9524 45.7144 63.9524 46.3354C63.9524 46.9563 63.4475 47.4622 62.8255 47.4622C62.2035 47.4622 61.6986 46.9563 61.6986 46.3354ZM66.7324 50.8824C66.0912 52.0081 65.4771 53.0865 65.2145 54.2236H63.9524V49.5087C65.2607 49.0421 66.2062 47.8026 66.2062 46.3354C66.2062 44.4715 64.6894 42.9547 62.8255 42.9547C60.9616 42.9547 59.4448 44.4715 59.4448 46.3354C59.4448 47.8026 60.3903 49.0421 61.6986 49.5087V54.2236H60.4602C60.1976 52.7958 59.4809 51.6216 58.7755 50.4834C57.9607 49.1695 57.1911 47.9277 57.1911 46.3354C57.1911 44.7183 57.8875 43.1778 59.1011 42.1073C60.1446 41.1877 61.4428 40.7009 62.8187 40.7009C63.0655 40.7009 63.3146 40.7167 63.5659 40.7483C65.4072 40.9815 67.0784 42.2481 67.928 44.0545C69.1473 46.6486 67.9742 48.7052 66.7324 50.8824Z" fill="#F0B420"/>
<path d="M36.9071 56.4775H34.6533V58.7313H36.9071V56.4775Z" fill="#F0B420"/>
<path d="M41.4149 56.4775H39.1611V58.7313H41.4149V56.4775Z" fill="#F0B420"/>
<path d="M32.3998 56.4775H30.146V58.7313H32.3998V56.4775Z" fill="#F0B420"/>
</svg>
